%TF.GenerationSoftware,KiCad,Pcbnew,7.0.9*%
%TF.CreationDate,2024-08-31T12:22:45+08:00*%
%TF.ProjectId,IOT,494f542e-6b69-4636-9164-5f7063625858,rev?*%
%TF.SameCoordinates,Original*%
%TF.FileFunction,Paste,Bot*%
%TF.FilePolarity,Positive*%
%FSLAX46Y46*%
G04 Gerber Fmt 4.6, Leading zero omitted, Abs format (unit mm)*
G04 Created by KiCad (PCBNEW 7.0.9) date 2024-08-31 12:22:45*
%MOMM*%
%LPD*%
G01*
G04 APERTURE LIST*
G04 Aperture macros list*
%AMRoundRect*
0 Rectangle with rounded corners*
0 $1 Rounding radius*
0 $2 $3 $4 $5 $6 $7 $8 $9 X,Y pos of 4 corners*
0 Add a 4 corners polygon primitive as box body*
4,1,4,$2,$3,$4,$5,$6,$7,$8,$9,$2,$3,0*
0 Add four circle primitives for the rounded corners*
1,1,$1+$1,$2,$3*
1,1,$1+$1,$4,$5*
1,1,$1+$1,$6,$7*
1,1,$1+$1,$8,$9*
0 Add four rect primitives between the rounded corners*
20,1,$1+$1,$2,$3,$4,$5,0*
20,1,$1+$1,$4,$5,$6,$7,0*
20,1,$1+$1,$6,$7,$8,$9,0*
20,1,$1+$1,$8,$9,$2,$3,0*%
G04 Aperture macros list end*
%ADD10RoundRect,0.225000X0.225000X0.250000X-0.225000X0.250000X-0.225000X-0.250000X0.225000X-0.250000X0*%
%ADD11C,0.270000*%
%ADD12RoundRect,0.218750X0.256250X-0.218750X0.256250X0.218750X-0.256250X0.218750X-0.256250X-0.218750X0*%
%ADD13RoundRect,0.140000X-0.170000X0.140000X-0.170000X-0.140000X0.170000X-0.140000X0.170000X0.140000X0*%
%ADD14RoundRect,0.075000X-0.175000X0.075000X-0.175000X-0.075000X0.175000X-0.075000X0.175000X0.075000X0*%
%ADD15RoundRect,0.062500X-0.187500X0.062500X-0.187500X-0.062500X0.187500X-0.062500X0.187500X0.062500X0*%
%ADD16RoundRect,0.087500X-0.087500X0.162500X-0.087500X-0.162500X0.087500X-0.162500X0.087500X0.162500X0*%
%ADD17RoundRect,0.135000X0.185000X-0.135000X0.185000X0.135000X-0.185000X0.135000X-0.185000X-0.135000X0*%
%ADD18RoundRect,0.140000X0.170000X-0.140000X0.170000X0.140000X-0.170000X0.140000X-0.170000X-0.140000X0*%
%ADD19RoundRect,0.140000X-0.140000X-0.170000X0.140000X-0.170000X0.140000X0.170000X-0.140000X0.170000X0*%
%ADD20RoundRect,0.147500X-0.147500X-0.172500X0.147500X-0.172500X0.147500X0.172500X-0.147500X0.172500X0*%
%ADD21RoundRect,0.079500X0.079500X0.100500X-0.079500X0.100500X-0.079500X-0.100500X0.079500X-0.100500X0*%
%ADD22RoundRect,0.150000X-0.200000X0.150000X-0.200000X-0.150000X0.200000X-0.150000X0.200000X0.150000X0*%
%ADD23R,0.260000X0.600000*%
%ADD24RoundRect,0.135000X0.135000X0.185000X-0.135000X0.185000X-0.135000X-0.185000X0.135000X-0.185000X0*%
%ADD25RoundRect,0.160000X0.160000X-0.245000X0.160000X0.245000X-0.160000X0.245000X-0.160000X-0.245000X0*%
%ADD26RoundRect,0.093750X0.106250X-0.093750X0.106250X0.093750X-0.106250X0.093750X-0.106250X-0.093750X0*%
%ADD27RoundRect,0.135000X-0.185000X0.135000X-0.185000X-0.135000X0.185000X-0.135000X0.185000X0.135000X0*%
%ADD28RoundRect,0.140000X0.140000X0.170000X-0.140000X0.170000X-0.140000X-0.170000X0.140000X-0.170000X0*%
%ADD29R,2.510000X1.000000*%
%ADD30RoundRect,0.062500X0.325000X-0.062500X0.325000X0.062500X-0.325000X0.062500X-0.325000X-0.062500X0*%
%ADD31RoundRect,0.062500X0.062500X-0.325000X0.062500X0.325000X-0.062500X0.325000X-0.062500X-0.325000X0*%
%ADD32R,0.250000X0.625000*%
%ADD33R,0.450000X0.700000*%
%ADD34R,0.450000X0.575000*%
%ADD35R,0.900000X0.700000*%
%ADD36R,0.700000X0.700000*%
%ADD37R,1.200000X0.650000*%
%ADD38R,0.450000X2.400000*%
%ADD39R,0.450000X1.900000*%
%ADD40R,0.450000X2.900000*%
%ADD41R,1.400000X0.500000*%
%ADD42R,0.300000X0.600000*%
%ADD43R,0.750000X0.700000*%
%ADD44RoundRect,0.062500X-0.062500X0.117500X-0.062500X-0.117500X0.062500X-0.117500X0.062500X0.117500X0*%
%ADD45RoundRect,0.135000X-0.135000X-0.185000X0.135000X-0.185000X0.135000X0.185000X-0.135000X0.185000X0*%
%ADD46R,0.400000X0.510000*%
G04 APERTURE END LIST*
D10*
%TO.C,C41*%
X172675000Y-56500000D03*
X171125000Y-56500000D03*
%TD*%
D11*
%TO.C,U4*%
X169410000Y-79256000D03*
X168910000Y-79256000D03*
X168410000Y-79256000D03*
X169410000Y-79756000D03*
X168910000Y-79756000D03*
X168410000Y-79756000D03*
X169410000Y-80256000D03*
X168910000Y-80256000D03*
X168410000Y-80256000D03*
X169410000Y-80756000D03*
X168910000Y-80756000D03*
X168410000Y-80756000D03*
%TD*%
%TO.C,U3*%
X168410000Y-90920000D03*
X168910000Y-90920000D03*
X169410000Y-90920000D03*
X168410000Y-90420000D03*
X168910000Y-90420000D03*
X169410000Y-90420000D03*
X168410000Y-89920000D03*
X168910000Y-89920000D03*
X169410000Y-89920000D03*
X168410000Y-89420000D03*
X168910000Y-89420000D03*
X169410000Y-89420000D03*
%TD*%
%TO.C,U5*%
X159250000Y-85100000D03*
X158750000Y-85100000D03*
X158250000Y-85100000D03*
X159250000Y-85600000D03*
X158750000Y-85600000D03*
X158250000Y-85600000D03*
X159250000Y-86100000D03*
X158750000Y-86100000D03*
X158250000Y-86100000D03*
X159250000Y-86600000D03*
X158750000Y-86600000D03*
X158250000Y-86600000D03*
%TD*%
%TO.C,U6*%
X159250000Y-79260000D03*
X158750000Y-79260000D03*
X158250000Y-79260000D03*
X159250000Y-79760000D03*
X158750000Y-79760000D03*
X158250000Y-79760000D03*
X159250000Y-80260000D03*
X158750000Y-80260000D03*
X158250000Y-80260000D03*
X159250000Y-80760000D03*
X158750000Y-80760000D03*
X158250000Y-80760000D03*
%TD*%
%TO.C,U10*%
X169668000Y-75200000D03*
X169668000Y-74700000D03*
X169668000Y-74200000D03*
X169168000Y-75200000D03*
X169168000Y-74700000D03*
X169168000Y-74200000D03*
X168668000Y-75200000D03*
X168668000Y-74700000D03*
X168668000Y-74200000D03*
X168168000Y-75200000D03*
X168168000Y-74700000D03*
X168168000Y-74200000D03*
%TD*%
D12*
%TO.C,F3*%
X156718000Y-55905500D03*
X156718000Y-54330500D03*
%TD*%
D13*
%TO.C,C38*%
X170400000Y-73520000D03*
X170400000Y-74480000D03*
%TD*%
D14*
%TO.C,U15*%
X163275000Y-79050000D03*
D15*
X163275000Y-78550000D03*
X163275000Y-78050000D03*
D14*
X163275000Y-77550000D03*
D16*
X163850000Y-77538000D03*
D14*
X164425000Y-77550000D03*
D15*
X164425000Y-78050000D03*
X164425000Y-78550000D03*
D14*
X164425000Y-79050000D03*
D16*
X163850000Y-79062000D03*
%TD*%
D17*
%TO.C,R11*%
X174150000Y-59610000D03*
X174150000Y-58590000D03*
%TD*%
D13*
%TO.C,C1*%
X161100000Y-68120000D03*
X161100000Y-69080000D03*
%TD*%
D18*
%TO.C,C4*%
X166900000Y-69060000D03*
X166900000Y-68100000D03*
%TD*%
D19*
%TO.C,C37*%
X167620000Y-88400000D03*
X168580000Y-88400000D03*
%TD*%
D10*
%TO.C,C19*%
X173825200Y-62941200D03*
X172275200Y-62941200D03*
%TD*%
D18*
%TO.C,C3*%
X165350000Y-69080000D03*
X165350000Y-68120000D03*
%TD*%
D13*
%TO.C,C32*%
X175260000Y-60370000D03*
X175260000Y-61330000D03*
%TD*%
D20*
%TO.C,FB3*%
X165565000Y-77850000D03*
X166535000Y-77850000D03*
%TD*%
D21*
%TO.C,R10*%
X163295000Y-79750000D03*
X162605000Y-79750000D03*
%TD*%
D10*
%TO.C,C20*%
X173825200Y-64185800D03*
X172275200Y-64185800D03*
%TD*%
D18*
%TO.C,C29*%
X170400000Y-76780000D03*
X170400000Y-75820000D03*
%TD*%
D22*
%TO.C,D7*%
X174150000Y-57596000D03*
X174150000Y-56196000D03*
%TD*%
D23*
%TO.C,U8*%
X175025000Y-58675000D03*
X175575000Y-58675000D03*
X175575000Y-59525000D03*
X175025000Y-59525000D03*
%TD*%
D18*
%TO.C,C34*%
X159100000Y-88530000D03*
X159100000Y-87570000D03*
%TD*%
D10*
%TO.C,C21*%
X173825200Y-61569600D03*
X172275200Y-61569600D03*
%TD*%
D24*
%TO.C,R15*%
X173230000Y-54356000D03*
X172210000Y-54356000D03*
%TD*%
D25*
%TO.C,U13*%
X171596000Y-59078000D03*
X172396000Y-59078000D03*
D26*
X172646000Y-59965500D03*
X171996000Y-59965500D03*
X171346000Y-59965500D03*
X171346000Y-58190500D03*
X171996000Y-58190500D03*
X172646000Y-58190500D03*
%TD*%
D27*
%TO.C,R8*%
X160150000Y-68090000D03*
X160150000Y-69110000D03*
%TD*%
D17*
%TO.C,R7*%
X163322000Y-69110000D03*
X163322000Y-68090000D03*
%TD*%
D28*
%TO.C,C30*%
X170580000Y-78300000D03*
X169620000Y-78300000D03*
%TD*%
D17*
%TO.C,R19*%
X170942000Y-53344000D03*
X170942000Y-52324000D03*
%TD*%
D29*
%TO.C,J3*%
X152015000Y-57150000D03*
X155325000Y-59690000D03*
X152015000Y-62230000D03*
X155325000Y-64770000D03*
X152015000Y-67310000D03*
X155325000Y-69850000D03*
X152015000Y-72390000D03*
X155325000Y-74930000D03*
X152015000Y-77470000D03*
X155325000Y-80010000D03*
X152015000Y-82550000D03*
X155325000Y-85090000D03*
X152015000Y-87630000D03*
X155325000Y-90170000D03*
X152015000Y-92710000D03*
X155325000Y-95250000D03*
%TD*%
D13*
%TO.C,C25*%
X166550000Y-78720000D03*
X166550000Y-79680000D03*
%TD*%
D30*
%TO.C,U7*%
X161062500Y-76250000D03*
X161062500Y-75750000D03*
X161062500Y-75250000D03*
X161062500Y-74750000D03*
D31*
X160350000Y-74037500D03*
X159850000Y-74037500D03*
X159350000Y-74037500D03*
X158850000Y-74037500D03*
D30*
X158137500Y-74750000D03*
X158137500Y-75250000D03*
X158137500Y-75750000D03*
X158137500Y-76250000D03*
D31*
X158850000Y-76962500D03*
X159350000Y-76962500D03*
X159850000Y-76962500D03*
X160350000Y-76962500D03*
%TD*%
D19*
%TO.C,C33*%
X167670000Y-78300000D03*
X168630000Y-78300000D03*
%TD*%
D28*
%TO.C,C26*%
X166530000Y-76900000D03*
X165570000Y-76900000D03*
%TD*%
D32*
%TO.C,U12*%
X162576000Y-70112500D03*
X163076000Y-70112500D03*
D33*
X163576000Y-70150000D03*
D32*
X164076000Y-70112500D03*
X164576000Y-70112500D03*
X164576000Y-70887500D03*
X164076000Y-70887500D03*
D34*
X163576000Y-70912500D03*
D32*
X163076000Y-70887500D03*
X162576000Y-70887500D03*
%TD*%
D29*
%TO.C,J2*%
X175645000Y-67310000D03*
X172335000Y-69850000D03*
X175645000Y-72390000D03*
X172335000Y-74930000D03*
X175645000Y-77470000D03*
X172335000Y-80010000D03*
X175645000Y-82550000D03*
X172335000Y-85090000D03*
X175645000Y-87630000D03*
X172335000Y-90170000D03*
X175645000Y-92710000D03*
X172335000Y-95250000D03*
%TD*%
D35*
%TO.C,J4*%
X165354000Y-54944000D03*
X162814000Y-54944000D03*
X160274000Y-54944000D03*
X165354000Y-58114000D03*
X162814000Y-58114000D03*
X160274000Y-58114000D03*
D36*
X158544000Y-61444000D03*
D37*
X162264000Y-65119000D03*
D38*
X169369000Y-64244000D03*
D39*
X169369000Y-59094000D03*
D40*
X169369000Y-54244000D03*
D41*
X165014000Y-66194000D03*
D42*
X164034000Y-53094000D03*
X161594000Y-53094000D03*
D41*
X160594000Y-66194000D03*
D43*
X158719000Y-63244000D03*
D39*
X158219000Y-59094000D03*
D40*
X158219000Y-54244000D03*
%TD*%
D18*
%TO.C,C28*%
X175600000Y-57780000D03*
X175600000Y-56820000D03*
%TD*%
D44*
%TO.C,D2*%
X164338000Y-69020000D03*
X164338000Y-68180000D03*
%TD*%
D45*
%TO.C,R9*%
X171340000Y-57500000D03*
X172360000Y-57500000D03*
%TD*%
D13*
%TO.C,C2*%
X162150000Y-68120000D03*
X162150000Y-69080000D03*
%TD*%
D46*
%TO.C,Q3*%
X173220000Y-53477000D03*
X172220000Y-53477000D03*
X172720000Y-52187000D03*
%TD*%
D28*
%TO.C,C27*%
X160080000Y-81700000D03*
X159120000Y-81700000D03*
%TD*%
%TO.C,C31*%
X170480000Y-88400000D03*
X169520000Y-88400000D03*
%TD*%
D46*
%TO.C,Q2*%
X155440000Y-53731000D03*
X154440000Y-53731000D03*
X154940000Y-52441000D03*
%TD*%
D17*
%TO.C,R20*%
X156718000Y-53342000D03*
X156718000Y-52322000D03*
%TD*%
D28*
%TO.C,C35*%
X163130000Y-75250000D03*
X162170000Y-75250000D03*
%TD*%
D13*
%TO.C,C24*%
X165550000Y-78720000D03*
X165550000Y-79680000D03*
%TD*%
D19*
%TO.C,C39*%
X156320000Y-81700000D03*
X157280000Y-81700000D03*
%TD*%
M02*
