M48
; DRILL file {KiCad 7.0.9} date Sat Aug 31 12:22:43 2024
; FORMAT={-:-/ absolute / inch / decimal}
; #@! TF.CreationDate,2024-08-31T12:22:43+08:00
; #@! TF.GenerationSoftware,Kicad,Pcbnew,7.0.9
; #@! TF.FileFunction,Plated,1,4,PTH
FMAT,2
INCH
; #@! TA.AperFunction,Plated,PTH,ViaDrill
T1C0.0118
; #@! TA.AperFunction,Plated,PTH,ComponentDrill
T2C0.0236
%
G90
G05
T1
X5.945Y-3.167
X5.95Y-3.0089
X5.952Y-3.7579
X5.9528Y-3.0886
X5.9567Y-2.1398
X5.9567Y-2.1988
X5.9567Y-2.3051
X5.9567Y-2.3524
X5.9567Y-2.4035
X5.9567Y-2.4862
X5.9567Y-2.5256
X5.9567Y-2.5689
X5.9567Y-2.6122
X5.9567Y-2.685
X5.9567Y-2.7106
X5.9567Y-2.7402
X5.9567Y-2.7756
X5.9567Y-2.7972
X5.9567Y-3.4882
X5.9567Y-3.5197
X5.9567Y-3.5669
X5.9567Y-3.6142
X5.965Y-3.195
X5.965Y-3.325
X5.965Y-3.39
X5.9783Y-2.7756
X5.9783Y-2.7972
X5.9803Y-2.0512
X5.9803Y-3.0079
X5.9823Y-3.0886
X5.9843Y-2.1004
X5.986Y-3.702
X5.986Y-3.727
X5.986Y-3.752
X5.986Y-3.775
X5.986Y-3.8
X5.987Y-2.613
X5.987Y-3.859
X5.987Y-3.881
X5.987Y-3.904
X5.988Y-3.114
X5.99Y-3.172
X5.998Y-2.7756
X5.998Y-2.7972
X6.002Y-3.919
X6.0138Y-2.3465
X6.0138Y-2.3661
X6.0138Y-2.3858
X6.0138Y-2.4094
X6.014Y-2.324
X6.0157Y-2.5177
X6.017Y-3.933
X6.0236Y-2.1181
X6.0354Y-2.5177
X6.037Y-3.948
X6.0508Y-3.7476
X6.0512Y-2.5848
X6.054Y-3.718
X6.054Y-3.778
X6.054Y-3.804
X6.054Y-3.833
X6.054Y-3.859
X6.0571Y-2.2244
X6.058Y-3.634
X6.058Y-3.957
X6.0609Y-2.1161
X6.063Y-2.2756
X6.063Y-2.311
X6.063Y-2.4843
X6.0674Y-2.2031
X6.0689Y-2.5098
X6.072Y-3.707
X6.0787Y-2.2244
X6.079Y-3.957
X6.08Y-3.859
X6.0827Y-2.063
X6.088Y-3.824
X6.094Y-3.707
X6.1063Y-3.9724
X6.1142Y-2.5079
X6.1142Y-2.5295
X6.1142Y-2.5512
X6.116Y-3.707
X6.119Y-3.824
X6.128Y-3.63
X6.131Y-3.652
X6.131Y-3.673
X6.131Y-3.696
X6.1358Y-2.4429
X6.1358Y-2.5079
X6.1358Y-2.5295
X6.1358Y-2.5512
X6.1358Y-2.6614
X6.1358Y-2.685
X6.1358Y-2.7126
X6.1378Y-3.9724
X6.1417Y-3.315
X6.1457Y-3.2717
X6.147Y-3.824
X6.1535Y-3.4075
X6.1535Y-3.4449
X6.1594Y-2.5079
X6.1594Y-2.5512
X6.1594Y-2.6614
X6.1594Y-2.685
X6.1594Y-2.7126
X6.16Y-2.5297
X6.1614Y-3.6496
X6.1654Y-3.9724
X6.1693Y-3.685
X6.17Y-2.049
X6.1701Y-3.2591
X6.177Y-3.824
X6.1811Y-2.9508
X6.1811Y-3.0807
X6.1811Y-3.278
X6.1811Y-3.3189
X6.1831Y-2.2402
X6.185Y-2.685
X6.185Y-2.7126
X6.187Y-2.5079
X6.187Y-2.5295
X6.187Y-2.5512
X6.1909Y-3.6496
X6.1941Y-3.6091
X6.1969Y-2.0827
X6.2008Y-3.7638
X6.2008Y-3.7953
X6.201Y-3.824
X6.201Y-3.848
X6.201Y-3.87
X6.201Y-3.897
X6.201Y-3.922
X6.201Y-3.947
X6.201Y-3.973
X6.2028Y-2.9134
X6.2067Y-2.2402
X6.2087Y-2.5079
X6.2087Y-2.5295
X6.2087Y-2.5512
X6.2087Y-2.811
X6.2157Y-3.2677
X6.2264Y-3.0236
X6.228Y-3.824
X6.228Y-3.848
X6.228Y-3.87
X6.228Y-3.897
X6.228Y-3.922
X6.228Y-3.947
X6.228Y-3.973
X6.2283Y-3.7638
X6.2283Y-3.7953
X6.2303Y-3.6122
X6.2313Y-3.0536
X6.2343Y-2.3858
X6.242Y-3.682
X6.2421Y-3.6496
X6.2429Y-2.6263
X6.2441Y-2.7303
X6.25Y-3.1201
X6.25Y-3.15
X6.25Y-3.2598
X6.25Y-3.3799
X6.252Y-2.6496
X6.252Y-2.9803
X6.254Y-3.922
X6.254Y-3.947
X6.254Y-3.973
X6.2579Y-3.6122
X6.26Y-2.76
X6.2618Y-2.3858
X6.2628Y-2.6712
X6.267Y-3.682
X6.2756Y-2.4055
X6.2835Y-2.8189
X6.2851Y-2.9439
X6.2894Y-2.3858
X6.2913Y-3.6496
X6.292Y-3.682
X6.293Y-3.981
X6.3071Y-2.4055
X6.3078Y-2.9831
X6.311Y-2.9606
X6.315Y-3.2756
X6.3162Y-3.1424
X6.3169Y-2.8189
X6.317Y-3.682
X6.3184Y-3.1198
X6.32Y-2.79
X6.3209Y-2.9154
X6.3209Y-3.2406
X6.3248Y-3.1634
X6.3287Y-3.4094
X6.3323Y-3.0217
X6.3359Y-3.1054
X6.336Y-3.981
X6.3386Y-3.2677
X6.34Y-3.753
X6.3406Y-2.7087
X6.341Y-3.682
X6.351Y-2.135
X6.3544Y-3.3169
X6.3583Y-3.3484
X6.3602Y-2.8209
X6.3622Y-2.9212
X6.3622Y-3.4823
X6.363Y-3.753
X6.366Y-2.042
X6.3701Y-3.9803
X6.3819Y-2.6476
X6.3839Y-2.7297
X6.385Y-3.753
X6.3858Y-3.2205
X6.3898Y-2.8681
X6.3909Y-3.1967
X6.3937Y-2.4154
X6.3996Y-3.1757
X6.4055Y-3.4862
X6.407Y-3.981
X6.4091Y-3.2126
X6.4094Y-3.2918
X6.4097Y-2.8174
X6.4114Y-2.6476
X6.4173Y-2.8681
X6.4185Y-3.1681
X6.422Y-3.781
X6.422Y-3.813
X6.422Y-3.843
X6.422Y-3.875
X6.422Y-3.902
X6.4232Y-2.4154
X6.4252Y-3.1906
X6.4271Y-3.2677
X6.4287Y-3.2445
X6.43Y-2.6799
X6.4302Y-3.2192
X6.4331Y-2.4567
X6.4331Y-2.6496
X6.4335Y-2.435
X6.4343Y-3.074
X6.4349Y-2.9728
X6.435Y-2.9323
X6.4354Y-3.1681
X6.437Y-2.8205
X6.4394Y-2.7454
X6.44Y-2.135
X6.4449Y-3.9803
X6.4468Y-3.4016
X6.4488Y-2.3917
X6.4488Y-2.561
X6.4488Y-2.5886
X6.45Y-2.7165
X6.4508Y-3.5551
X6.4516Y-3.074
X6.452Y-2.042
X6.4705Y-3.9331
X6.4764Y-3.4016
X6.4764Y-3.4508
X6.4803Y-3.5591
X6.4822Y-3.2836
X6.4823Y-2.6575
X6.4823Y-3.9488
X6.4882Y-2.3898
X6.489Y-2.5267
X6.4902Y-3.4272
X6.4941Y-3.9331
X6.4961Y-2.0827
X6.4961Y-2.8346
X6.5Y-3.3819
X6.5Y-3.4685
X6.5008Y-2.5398
X6.5059Y-3.9488
X6.5138Y-3.6319
X6.5177Y-3.9331
X6.5197Y-2.8136
X6.5197Y-3.4035
X6.5236Y-2.7651
X6.5236Y-3.3578
X6.5276Y-3.4409
X6.5295Y-3.9488
X6.5354Y-2.4252
X6.5413Y-2.7205
X6.5413Y-3.3819
X6.5413Y-3.9331
X6.542Y-2.135
X6.5433Y-3.3406
X6.5433Y-3.6319
X6.5453Y-2.939
X6.5472Y-2.0827
X6.5492Y-2.8189
X6.5492Y-2.9882
X6.5502Y-2.9085
X6.552Y-3.553
X6.5531Y-3.4646
X6.558Y-2.042
X6.563Y-3.2146
X6.563Y-3.2362
X6.563Y-3.2638
X6.565Y-3.4055
X6.567Y-3.56
X6.5689Y-3.2913
X6.5689Y-3.3563
X6.57Y-3.686
X6.5701Y-2.8569
X6.5705Y-2.3902
X6.5728Y-3.4862
X6.573Y-2.532
X6.5768Y-3.3819
X6.5772Y-3.161
X6.5776Y-3.1402
X6.5787Y-3.4409
X6.579Y-3.982
X6.581Y-3.772
X6.581Y-3.794
X6.581Y-3.879
X6.581Y-3.901
X6.581Y-3.925
X6.582Y-3.814
X6.582Y-3.836
X6.582Y-3.856
X6.5827Y-3.6319
X6.583Y-3.953
X6.583Y-3.0491
X6.5866Y-2.6634
X6.5866Y-2.9961
X6.592Y-2.135
X6.5965Y-3.0402
X6.597Y-2.532
X6.5984Y-2.4567
X6.6043Y-3.5098
X6.608Y-3.777
X6.608Y-3.798
X6.6083Y-3.0
X6.6093Y-2.9409
X6.61Y-3.865
X6.61Y-3.982
X6.6102Y-2.7343
X6.611Y-3.888
X6.6122Y-3.5394
X6.6134Y-2.8569
X6.614Y-3.953
X6.615Y-3.663
X6.615Y-3.686
X6.6181Y-3.0236
X6.6181Y-3.6319
X6.619Y-3.759
X6.619Y-3.819
X6.619Y-3.842
X6.622Y-2.532
X6.623Y-3.906
X6.624Y-2.689
X6.626Y-2.4567
X6.636Y-3.926
X6.6378Y-2.7343
X6.639Y-3.0827
X6.639Y-3.676
X6.6398Y-2.4311
X6.6398Y-2.7913
X6.644Y-2.532
X6.6496Y-3.6201
X6.65Y-3.1498
X6.65Y-3.55
X6.65Y-3.982
X6.6503Y-2.9409
X6.653Y-3.941
X6.6555Y-2.4567
X6.6593Y-3.2231
X6.662Y-3.676
X6.665Y-2.4
X6.6654Y-2.4311
X6.6677Y-2.9965
X6.669Y-2.224
X6.67Y-2.6503
X6.676Y-3.949
X6.6831Y-3.065
X6.6843Y-3.1991
X6.6843Y-3.2565
X6.685Y-3.5
X6.685Y-3.5827
X6.686Y-3.982
X6.687Y-3.676
X6.687Y-2.4567
X6.6906Y-3.0425
X6.694Y-3.761
X6.694Y-3.784
X6.694Y-3.81
X6.694Y-3.84
X6.695Y-2.106
X6.6969Y-2.2913
X6.6969Y-2.4311
X6.6969Y-2.6496
X6.697Y-2.254
X6.7Y-3.949
X6.703Y-2.532
X6.704Y-3.688
X6.7067Y-2.813
X6.7083Y-3.0429
X6.7087Y-2.8937
X6.7126Y-2.6063
X6.7126Y-2.7126
X6.7138Y-3.5657
X6.7146Y-2.3366
X6.7159Y-2.3931
X6.7185Y-2.4567
X6.7205Y-2.2913
X6.7224Y-2.9232
X6.7244Y-2.6496
X6.7249Y-2.9558
X6.725Y-3.825
X6.7283Y-3.9724
X6.73Y-2.06
X6.73Y-2.407
X6.7323Y-2.9961
X6.735Y-2.532
X6.735Y-3.688
X6.7362Y-2.6063
X6.7362Y-3.0374
X6.7382Y-2.3287
X6.7382Y-3.4862
X6.7402Y-2.8307
X6.741Y-2.425
X6.7441Y-2.6496
X6.75Y-2.8937
X6.75Y-3.825
X6.7559Y-3.9724
X6.7579Y-2.1398
X6.7598Y-2.3839
X6.7602Y-3.2094
X6.7602Y-3.3079
X6.7606Y-3.2783
X6.7618Y-2.3287
X6.7638Y-2.6063
X6.765Y-3.688
X6.766Y-3.713
X6.767Y-3.388
X6.7717Y-3.4921
X6.775Y-3.825
X6.7795Y-2.0551
X6.784Y-2.388
X6.7854Y-2.3287
X6.7874Y-3.9724
X6.7894Y-2.2244
X6.7947Y-2.1378
X6.7969Y-2.9122
X6.805Y-3.825
X6.807Y-2.595
X6.8071Y-2.5768
X6.8071Y-3.4134
X6.8071Y-3.4567
X6.8102Y-3.496
X6.817Y-3.843
X6.818Y-3.871
X6.818Y-3.899
X6.818Y-3.927
X6.818Y-3.954
X6.818Y-3.978
X6.8201Y-2.7929
X6.8205Y-2.8291
X6.8209Y-2.8587
X6.8287Y-2.2205
X6.8287Y-2.2559
X6.829Y-2.177
X6.8484Y-3.2508
X6.8488Y-3.2185
X6.849Y-3.978
X6.8504Y-2.1378
X6.8504Y-2.1772
X6.8504Y-3.5669
X6.8543Y-3.2874
X6.8543Y-3.3189
X6.8606Y-3.3469
X6.8626Y-3.1626
X6.8661Y-3.374
X6.872Y-2.2165
X6.8764Y-2.7181
X6.8768Y-2.6008
X6.878Y-2.041
X6.8803Y-3.2909
X6.8803Y-3.3165
X6.883Y-3.958
X6.8898Y-2.9
X6.8898Y-3.012
X6.89Y-2.98
X6.8902Y-3.1055
X6.8957Y-2.1654
X6.9Y-3.585
X6.907Y-3.843
X6.907Y-3.871
X6.907Y-3.898
X6.907Y-3.927
X6.9094Y-3.3898
X6.913Y-2.088
X6.9134Y-2.7874
X6.9134Y-2.811
X6.9134Y-2.8307
X6.921Y-2.3435
X6.937Y-3.3622
X6.939Y-3.585
X6.9409Y-2.9213
X6.9409Y-2.9803
X6.9409Y-3.0118
X6.9409Y-3.0866
X6.9409Y-3.1299
X6.9409Y-3.2008
X6.9409Y-3.2953
X6.943Y-3.152
X6.944Y-2.131
T2
G00X6.2799Y-2.0705
M15
G01X6.2799Y-2.0469
M16
G05
G00X6.2799Y-2.2449
M15
G01X6.2799Y-2.2016
M16
G05
G00X6.6201Y-2.0705
M15
G01X6.6201Y-2.0469
M16
G05
G00X6.6201Y-2.2449
M15
G01X6.6201Y-2.2016
M16
G05
T0
M30
