%TF.GenerationSoftware,KiCad,Pcbnew,7.0.9*%
%TF.CreationDate,2024-08-31T12:22:45+08:00*%
%TF.ProjectId,IOT,494f542e-6b69-4636-9164-5f7063625858,rev?*%
%TF.SameCoordinates,Original*%
%TF.FileFunction,Soldermask,Top*%
%TF.FilePolarity,Negative*%
%FSLAX46Y46*%
G04 Gerber Fmt 4.6, Leading zero omitted, Abs format (unit mm)*
G04 Created by KiCad (PCBNEW 7.0.9) date 2024-08-31 12:22:45*
%MOMM*%
%LPD*%
G01*
G04 APERTURE LIST*
G04 Aperture macros list*
%AMRoundRect*
0 Rectangle with rounded corners*
0 $1 Rounding radius*
0 $2 $3 $4 $5 $6 $7 $8 $9 X,Y pos of 4 corners*
0 Add a 4 corners polygon primitive as box body*
4,1,4,$2,$3,$4,$5,$6,$7,$8,$9,$2,$3,0*
0 Add four circle primitives for the rounded corners*
1,1,$1+$1,$2,$3*
1,1,$1+$1,$4,$5*
1,1,$1+$1,$6,$7*
1,1,$1+$1,$8,$9*
0 Add four rect primitives between the rounded corners*
20,1,$1+$1,$2,$3,$4,$5,0*
20,1,$1+$1,$4,$5,$6,$7,0*
20,1,$1+$1,$6,$7,$8,$9,0*
20,1,$1+$1,$8,$9,$2,$3,0*%
G04 Aperture macros list end*
%ADD10C,0.010000*%
%ADD11RoundRect,0.225000X0.375000X-0.225000X0.375000X0.225000X-0.375000X0.225000X-0.375000X-0.225000X0*%
%ADD12RoundRect,0.140000X-0.170000X0.140000X-0.170000X-0.140000X0.170000X-0.140000X0.170000X0.140000X0*%
%ADD13RoundRect,0.135000X-0.135000X-0.185000X0.135000X-0.185000X0.135000X0.185000X-0.135000X0.185000X0*%
%ADD14RoundRect,0.250000X-0.275000X-0.250000X0.275000X-0.250000X0.275000X0.250000X-0.275000X0.250000X0*%
%ADD15RoundRect,0.250000X-0.850000X-0.275000X0.850000X-0.275000X0.850000X0.275000X-0.850000X0.275000X0*%
%ADD16RoundRect,0.100000X-0.100000X0.130000X-0.100000X-0.130000X0.100000X-0.130000X0.100000X0.130000X0*%
%ADD17RoundRect,0.218750X0.218750X0.256250X-0.218750X0.256250X-0.218750X-0.256250X0.218750X-0.256250X0*%
%ADD18RoundRect,0.135000X0.185000X-0.135000X0.185000X0.135000X-0.185000X0.135000X-0.185000X-0.135000X0*%
%ADD19RoundRect,0.100000X-0.130000X-0.100000X0.130000X-0.100000X0.130000X0.100000X-0.130000X0.100000X0*%
%ADD20RoundRect,0.225000X0.225000X0.250000X-0.225000X0.250000X-0.225000X-0.250000X0.225000X-0.250000X0*%
%ADD21RoundRect,0.250000X-0.412500X-0.925000X0.412500X-0.925000X0.412500X0.925000X-0.412500X0.925000X0*%
%ADD22RoundRect,0.140000X-0.140000X-0.170000X0.140000X-0.170000X0.140000X0.170000X-0.140000X0.170000X0*%
%ADD23RoundRect,0.250000X0.412500X0.925000X-0.412500X0.925000X-0.412500X-0.925000X0.412500X-0.925000X0*%
%ADD24RoundRect,0.140000X0.140000X0.170000X-0.140000X0.170000X-0.140000X-0.170000X0.140000X-0.170000X0*%
%ADD25RoundRect,0.250000X0.925000X-0.412500X0.925000X0.412500X-0.925000X0.412500X-0.925000X-0.412500X0*%
%ADD26RoundRect,0.062500X-0.117500X-0.062500X0.117500X-0.062500X0.117500X0.062500X-0.117500X0.062500X0*%
%ADD27RoundRect,0.135000X-0.185000X0.135000X-0.185000X-0.135000X0.185000X-0.135000X0.185000X0.135000X0*%
%ADD28RoundRect,0.135000X0.135000X0.185000X-0.135000X0.185000X-0.135000X-0.185000X0.135000X-0.185000X0*%
%ADD29RoundRect,0.062500X-0.062500X0.337500X-0.062500X-0.337500X0.062500X-0.337500X0.062500X0.337500X0*%
%ADD30R,1.400000X1.700000*%
%ADD31RoundRect,0.150000X0.150000X-0.587500X0.150000X0.587500X-0.150000X0.587500X-0.150000X-0.587500X0*%
%ADD32R,3.600000X1.500000*%
%ADD33RoundRect,0.147500X0.147500X0.172500X-0.147500X0.172500X-0.147500X-0.172500X0.147500X-0.172500X0*%
%ADD34RoundRect,0.147500X-0.172500X0.147500X-0.172500X-0.147500X0.172500X-0.147500X0.172500X0.147500X0*%
%ADD35RoundRect,0.062500X0.117500X0.062500X-0.117500X0.062500X-0.117500X-0.062500X0.117500X-0.062500X0*%
%ADD36RoundRect,0.200000X0.200000X0.800000X-0.200000X0.800000X-0.200000X-0.800000X0.200000X-0.800000X0*%
%ADD37C,0.650000*%
%ADD38R,0.600000X1.450000*%
%ADD39R,0.300000X1.450000*%
%ADD40O,1.000000X2.100000*%
%ADD41O,1.000000X1.600000*%
%ADD42RoundRect,0.102000X0.550000X0.350000X-0.550000X0.350000X-0.550000X-0.350000X0.550000X-0.350000X0*%
%ADD43RoundRect,0.102000X0.350000X0.550000X-0.350000X0.550000X-0.350000X-0.550000X0.350000X-0.550000X0*%
%ADD44RoundRect,0.102000X0.500000X0.500000X-0.500000X0.500000X-0.500000X-0.500000X0.500000X-0.500000X0*%
%ADD45RoundRect,0.218750X0.256250X-0.218750X0.256250X0.218750X-0.256250X0.218750X-0.256250X-0.218750X0*%
%ADD46RoundRect,0.102000X1.750000X-0.500000X1.750000X0.500000X-1.750000X0.500000X-1.750000X-0.500000X0*%
%ADD47RoundRect,0.102000X1.700000X-0.750000X1.700000X0.750000X-1.700000X0.750000X-1.700000X-0.750000X0*%
%ADD48RoundRect,0.140000X0.170000X-0.140000X0.170000X0.140000X-0.170000X0.140000X-0.170000X-0.140000X0*%
G04 APERTURE END LIST*
%TO.C,AE4*%
G36*
X170681000Y-98374000D02*
G01*
X172771000Y-98374000D01*
X172771000Y-100254000D01*
X170681000Y-100254000D01*
X170681000Y-98374000D01*
G37*
%TO.C,AE3*%
G36*
X154933000Y-98374000D02*
G01*
X157023000Y-98374000D01*
X157023000Y-100254000D01*
X154933000Y-100254000D01*
X154933000Y-98374000D01*
G37*
%TO.C,U2*%
D10*
X158734000Y-63734000D02*
X157959000Y-63734000D01*
X157959000Y-63854000D01*
X158734000Y-63854000D01*
X158734000Y-64194000D01*
X157959000Y-64194000D01*
X157959000Y-64314000D01*
X158734000Y-64314000D01*
X158734000Y-64654000D01*
X157959000Y-64654000D01*
X157959000Y-64774000D01*
X158734000Y-64774000D01*
X158734000Y-65114000D01*
X154194000Y-65114000D01*
X154194000Y-64774000D01*
X154969000Y-64774000D01*
X154969000Y-64654000D01*
X154194000Y-64654000D01*
X154194000Y-64314000D01*
X154969000Y-64314000D01*
X154969000Y-64194000D01*
X154194000Y-64194000D01*
X154194000Y-63854000D01*
X154969000Y-63854000D01*
X154969000Y-63734000D01*
X154194000Y-63734000D01*
X154194000Y-63394000D01*
X158734000Y-63394000D01*
X158734000Y-63734000D01*
G36*
X158734000Y-63734000D02*
G01*
X157959000Y-63734000D01*
X157959000Y-63854000D01*
X158734000Y-63854000D01*
X158734000Y-64194000D01*
X157959000Y-64194000D01*
X157959000Y-64314000D01*
X158734000Y-64314000D01*
X158734000Y-64654000D01*
X157959000Y-64654000D01*
X157959000Y-64774000D01*
X158734000Y-64774000D01*
X158734000Y-65114000D01*
X154194000Y-65114000D01*
X154194000Y-64774000D01*
X154969000Y-64774000D01*
X154969000Y-64654000D01*
X154194000Y-64654000D01*
X154194000Y-64314000D01*
X154969000Y-64314000D01*
X154969000Y-64194000D01*
X154194000Y-64194000D01*
X154194000Y-63854000D01*
X154969000Y-63854000D01*
X154969000Y-63734000D01*
X154194000Y-63734000D01*
X154194000Y-63394000D01*
X158734000Y-63394000D01*
X158734000Y-63734000D01*
G37*
X154984000Y-65285000D02*
X154994000Y-65286000D01*
X155004000Y-65288000D01*
X155013000Y-65290000D01*
X155023000Y-65293000D01*
X155032000Y-65297000D01*
X155041000Y-65300000D01*
X155050000Y-65305000D01*
X155059000Y-65309000D01*
X155067000Y-65315000D01*
X155076000Y-65320000D01*
X155084000Y-65326000D01*
X155091000Y-65333000D01*
X155098000Y-65340000D01*
X155105000Y-65347000D01*
X155112000Y-65354000D01*
X155118000Y-65362000D01*
X155123000Y-65371000D01*
X155129000Y-65379000D01*
X155133000Y-65388000D01*
X155138000Y-65397000D01*
X155141000Y-65406000D01*
X155145000Y-65415000D01*
X155148000Y-65425000D01*
X155150000Y-65434000D01*
X155152000Y-65444000D01*
X155153000Y-65454000D01*
X155154000Y-65464000D01*
X155154000Y-65474000D01*
X155154000Y-65834000D01*
X155154000Y-65844000D01*
X155153000Y-65854000D01*
X155152000Y-65864000D01*
X155150000Y-65874000D01*
X155148000Y-65883000D01*
X155145000Y-65893000D01*
X155141000Y-65902000D01*
X155138000Y-65911000D01*
X155133000Y-65920000D01*
X155129000Y-65929000D01*
X155123000Y-65937000D01*
X155118000Y-65946000D01*
X155112000Y-65954000D01*
X155105000Y-65961000D01*
X155098000Y-65968000D01*
X155091000Y-65975000D01*
X155084000Y-65982000D01*
X155076000Y-65988000D01*
X155067000Y-65993000D01*
X155059000Y-65999000D01*
X155050000Y-66003000D01*
X155041000Y-66008000D01*
X155032000Y-66011000D01*
X155023000Y-66015000D01*
X155013000Y-66018000D01*
X155004000Y-66020000D01*
X154994000Y-66022000D01*
X154984000Y-66023000D01*
X154974000Y-66024000D01*
X154964000Y-66024000D01*
X154954000Y-66024000D01*
X154944000Y-66023000D01*
X154934000Y-66022000D01*
X154924000Y-66020000D01*
X154915000Y-66018000D01*
X154905000Y-66015000D01*
X154896000Y-66011000D01*
X154887000Y-66008000D01*
X154878000Y-66003000D01*
X154869000Y-65999000D01*
X154861000Y-65993000D01*
X154852000Y-65988000D01*
X154844000Y-65982000D01*
X154837000Y-65975000D01*
X154830000Y-65968000D01*
X154823000Y-65961000D01*
X154816000Y-65954000D01*
X154810000Y-65946000D01*
X154805000Y-65937000D01*
X154799000Y-65929000D01*
X154795000Y-65920000D01*
X154790000Y-65911000D01*
X154787000Y-65902000D01*
X154783000Y-65893000D01*
X154780000Y-65883000D01*
X154778000Y-65874000D01*
X154776000Y-65864000D01*
X154775000Y-65854000D01*
X154774000Y-65844000D01*
X154774000Y-65834000D01*
X154774000Y-65474000D01*
X154774000Y-65464000D01*
X154775000Y-65454000D01*
X154776000Y-65444000D01*
X154778000Y-65434000D01*
X154780000Y-65425000D01*
X154783000Y-65415000D01*
X154787000Y-65406000D01*
X154790000Y-65397000D01*
X154795000Y-65388000D01*
X154799000Y-65379000D01*
X154805000Y-65371000D01*
X154810000Y-65362000D01*
X154816000Y-65354000D01*
X154823000Y-65347000D01*
X154830000Y-65340000D01*
X154837000Y-65333000D01*
X154844000Y-65326000D01*
X154852000Y-65320000D01*
X154861000Y-65315000D01*
X154869000Y-65309000D01*
X154878000Y-65305000D01*
X154887000Y-65300000D01*
X154896000Y-65297000D01*
X154905000Y-65293000D01*
X154915000Y-65290000D01*
X154924000Y-65288000D01*
X154934000Y-65286000D01*
X154944000Y-65285000D01*
X154954000Y-65284000D01*
X154964000Y-65284000D01*
X154974000Y-65284000D01*
X154984000Y-65285000D01*
G36*
X154984000Y-65285000D02*
G01*
X154994000Y-65286000D01*
X155004000Y-65288000D01*
X155013000Y-65290000D01*
X155023000Y-65293000D01*
X155032000Y-65297000D01*
X155041000Y-65300000D01*
X155050000Y-65305000D01*
X155059000Y-65309000D01*
X155067000Y-65315000D01*
X155076000Y-65320000D01*
X155084000Y-65326000D01*
X155091000Y-65333000D01*
X155098000Y-65340000D01*
X155105000Y-65347000D01*
X155112000Y-65354000D01*
X155118000Y-65362000D01*
X155123000Y-65371000D01*
X155129000Y-65379000D01*
X155133000Y-65388000D01*
X155138000Y-65397000D01*
X155141000Y-65406000D01*
X155145000Y-65415000D01*
X155148000Y-65425000D01*
X155150000Y-65434000D01*
X155152000Y-65444000D01*
X155153000Y-65454000D01*
X155154000Y-65464000D01*
X155154000Y-65474000D01*
X155154000Y-65834000D01*
X155154000Y-65844000D01*
X155153000Y-65854000D01*
X155152000Y-65864000D01*
X155150000Y-65874000D01*
X155148000Y-65883000D01*
X155145000Y-65893000D01*
X155141000Y-65902000D01*
X155138000Y-65911000D01*
X155133000Y-65920000D01*
X155129000Y-65929000D01*
X155123000Y-65937000D01*
X155118000Y-65946000D01*
X155112000Y-65954000D01*
X155105000Y-65961000D01*
X155098000Y-65968000D01*
X155091000Y-65975000D01*
X155084000Y-65982000D01*
X155076000Y-65988000D01*
X155067000Y-65993000D01*
X155059000Y-65999000D01*
X155050000Y-66003000D01*
X155041000Y-66008000D01*
X155032000Y-66011000D01*
X155023000Y-66015000D01*
X155013000Y-66018000D01*
X155004000Y-66020000D01*
X154994000Y-66022000D01*
X154984000Y-66023000D01*
X154974000Y-66024000D01*
X154964000Y-66024000D01*
X154954000Y-66024000D01*
X154944000Y-66023000D01*
X154934000Y-66022000D01*
X154924000Y-66020000D01*
X154915000Y-66018000D01*
X154905000Y-66015000D01*
X154896000Y-66011000D01*
X154887000Y-66008000D01*
X154878000Y-66003000D01*
X154869000Y-65999000D01*
X154861000Y-65993000D01*
X154852000Y-65988000D01*
X154844000Y-65982000D01*
X154837000Y-65975000D01*
X154830000Y-65968000D01*
X154823000Y-65961000D01*
X154816000Y-65954000D01*
X154810000Y-65946000D01*
X154805000Y-65937000D01*
X154799000Y-65929000D01*
X154795000Y-65920000D01*
X154790000Y-65911000D01*
X154787000Y-65902000D01*
X154783000Y-65893000D01*
X154780000Y-65883000D01*
X154778000Y-65874000D01*
X154776000Y-65864000D01*
X154775000Y-65854000D01*
X154774000Y-65844000D01*
X154774000Y-65834000D01*
X154774000Y-65474000D01*
X154774000Y-65464000D01*
X154775000Y-65454000D01*
X154776000Y-65444000D01*
X154778000Y-65434000D01*
X154780000Y-65425000D01*
X154783000Y-65415000D01*
X154787000Y-65406000D01*
X154790000Y-65397000D01*
X154795000Y-65388000D01*
X154799000Y-65379000D01*
X154805000Y-65371000D01*
X154810000Y-65362000D01*
X154816000Y-65354000D01*
X154823000Y-65347000D01*
X154830000Y-65340000D01*
X154837000Y-65333000D01*
X154844000Y-65326000D01*
X154852000Y-65320000D01*
X154861000Y-65315000D01*
X154869000Y-65309000D01*
X154878000Y-65305000D01*
X154887000Y-65300000D01*
X154896000Y-65297000D01*
X154905000Y-65293000D01*
X154915000Y-65290000D01*
X154924000Y-65288000D01*
X154934000Y-65286000D01*
X154944000Y-65285000D01*
X154954000Y-65284000D01*
X154964000Y-65284000D01*
X154974000Y-65284000D01*
X154984000Y-65285000D01*
G37*
X155484000Y-65285000D02*
X155494000Y-65286000D01*
X155504000Y-65288000D01*
X155513000Y-65290000D01*
X155523000Y-65293000D01*
X155532000Y-65297000D01*
X155541000Y-65300000D01*
X155550000Y-65305000D01*
X155559000Y-65309000D01*
X155567000Y-65315000D01*
X155576000Y-65320000D01*
X155584000Y-65326000D01*
X155591000Y-65333000D01*
X155598000Y-65340000D01*
X155605000Y-65347000D01*
X155612000Y-65354000D01*
X155618000Y-65362000D01*
X155623000Y-65371000D01*
X155629000Y-65379000D01*
X155633000Y-65388000D01*
X155638000Y-65397000D01*
X155641000Y-65406000D01*
X155645000Y-65415000D01*
X155648000Y-65425000D01*
X155650000Y-65434000D01*
X155652000Y-65444000D01*
X155653000Y-65454000D01*
X155654000Y-65464000D01*
X155654000Y-65474000D01*
X155654000Y-65834000D01*
X155654000Y-65844000D01*
X155653000Y-65854000D01*
X155652000Y-65864000D01*
X155650000Y-65874000D01*
X155648000Y-65883000D01*
X155645000Y-65893000D01*
X155641000Y-65902000D01*
X155638000Y-65911000D01*
X155633000Y-65920000D01*
X155629000Y-65929000D01*
X155623000Y-65937000D01*
X155618000Y-65946000D01*
X155612000Y-65954000D01*
X155605000Y-65961000D01*
X155598000Y-65968000D01*
X155591000Y-65975000D01*
X155584000Y-65982000D01*
X155576000Y-65988000D01*
X155567000Y-65993000D01*
X155559000Y-65999000D01*
X155550000Y-66003000D01*
X155541000Y-66008000D01*
X155532000Y-66011000D01*
X155523000Y-66015000D01*
X155513000Y-66018000D01*
X155504000Y-66020000D01*
X155494000Y-66022000D01*
X155484000Y-66023000D01*
X155474000Y-66024000D01*
X155464000Y-66024000D01*
X155454000Y-66024000D01*
X155444000Y-66023000D01*
X155434000Y-66022000D01*
X155424000Y-66020000D01*
X155415000Y-66018000D01*
X155405000Y-66015000D01*
X155396000Y-66011000D01*
X155387000Y-66008000D01*
X155378000Y-66003000D01*
X155369000Y-65999000D01*
X155361000Y-65993000D01*
X155352000Y-65988000D01*
X155344000Y-65982000D01*
X155337000Y-65975000D01*
X155330000Y-65968000D01*
X155323000Y-65961000D01*
X155316000Y-65954000D01*
X155310000Y-65946000D01*
X155305000Y-65937000D01*
X155299000Y-65929000D01*
X155295000Y-65920000D01*
X155290000Y-65911000D01*
X155287000Y-65902000D01*
X155283000Y-65893000D01*
X155280000Y-65883000D01*
X155278000Y-65874000D01*
X155276000Y-65864000D01*
X155275000Y-65854000D01*
X155274000Y-65844000D01*
X155274000Y-65834000D01*
X155274000Y-65474000D01*
X155274000Y-65464000D01*
X155275000Y-65454000D01*
X155276000Y-65444000D01*
X155278000Y-65434000D01*
X155280000Y-65425000D01*
X155283000Y-65415000D01*
X155287000Y-65406000D01*
X155290000Y-65397000D01*
X155295000Y-65388000D01*
X155299000Y-65379000D01*
X155305000Y-65371000D01*
X155310000Y-65362000D01*
X155316000Y-65354000D01*
X155323000Y-65347000D01*
X155330000Y-65340000D01*
X155337000Y-65333000D01*
X155344000Y-65326000D01*
X155352000Y-65320000D01*
X155361000Y-65315000D01*
X155369000Y-65309000D01*
X155378000Y-65305000D01*
X155387000Y-65300000D01*
X155396000Y-65297000D01*
X155405000Y-65293000D01*
X155415000Y-65290000D01*
X155424000Y-65288000D01*
X155434000Y-65286000D01*
X155444000Y-65285000D01*
X155454000Y-65284000D01*
X155464000Y-65284000D01*
X155474000Y-65284000D01*
X155484000Y-65285000D01*
G36*
X155484000Y-65285000D02*
G01*
X155494000Y-65286000D01*
X155504000Y-65288000D01*
X155513000Y-65290000D01*
X155523000Y-65293000D01*
X155532000Y-65297000D01*
X155541000Y-65300000D01*
X155550000Y-65305000D01*
X155559000Y-65309000D01*
X155567000Y-65315000D01*
X155576000Y-65320000D01*
X155584000Y-65326000D01*
X155591000Y-65333000D01*
X155598000Y-65340000D01*
X155605000Y-65347000D01*
X155612000Y-65354000D01*
X155618000Y-65362000D01*
X155623000Y-65371000D01*
X155629000Y-65379000D01*
X155633000Y-65388000D01*
X155638000Y-65397000D01*
X155641000Y-65406000D01*
X155645000Y-65415000D01*
X155648000Y-65425000D01*
X155650000Y-65434000D01*
X155652000Y-65444000D01*
X155653000Y-65454000D01*
X155654000Y-65464000D01*
X155654000Y-65474000D01*
X155654000Y-65834000D01*
X155654000Y-65844000D01*
X155653000Y-65854000D01*
X155652000Y-65864000D01*
X155650000Y-65874000D01*
X155648000Y-65883000D01*
X155645000Y-65893000D01*
X155641000Y-65902000D01*
X155638000Y-65911000D01*
X155633000Y-65920000D01*
X155629000Y-65929000D01*
X155623000Y-65937000D01*
X155618000Y-65946000D01*
X155612000Y-65954000D01*
X155605000Y-65961000D01*
X155598000Y-65968000D01*
X155591000Y-65975000D01*
X155584000Y-65982000D01*
X155576000Y-65988000D01*
X155567000Y-65993000D01*
X155559000Y-65999000D01*
X155550000Y-66003000D01*
X155541000Y-66008000D01*
X155532000Y-66011000D01*
X155523000Y-66015000D01*
X155513000Y-66018000D01*
X155504000Y-66020000D01*
X155494000Y-66022000D01*
X155484000Y-66023000D01*
X155474000Y-66024000D01*
X155464000Y-66024000D01*
X155454000Y-66024000D01*
X155444000Y-66023000D01*
X155434000Y-66022000D01*
X155424000Y-66020000D01*
X155415000Y-66018000D01*
X155405000Y-66015000D01*
X155396000Y-66011000D01*
X155387000Y-66008000D01*
X155378000Y-66003000D01*
X155369000Y-65999000D01*
X155361000Y-65993000D01*
X155352000Y-65988000D01*
X155344000Y-65982000D01*
X155337000Y-65975000D01*
X155330000Y-65968000D01*
X155323000Y-65961000D01*
X155316000Y-65954000D01*
X155310000Y-65946000D01*
X155305000Y-65937000D01*
X155299000Y-65929000D01*
X155295000Y-65920000D01*
X155290000Y-65911000D01*
X155287000Y-65902000D01*
X155283000Y-65893000D01*
X155280000Y-65883000D01*
X155278000Y-65874000D01*
X155276000Y-65864000D01*
X155275000Y-65854000D01*
X155274000Y-65844000D01*
X155274000Y-65834000D01*
X155274000Y-65474000D01*
X155274000Y-65464000D01*
X155275000Y-65454000D01*
X155276000Y-65444000D01*
X155278000Y-65434000D01*
X155280000Y-65425000D01*
X155283000Y-65415000D01*
X155287000Y-65406000D01*
X155290000Y-65397000D01*
X155295000Y-65388000D01*
X155299000Y-65379000D01*
X155305000Y-65371000D01*
X155310000Y-65362000D01*
X155316000Y-65354000D01*
X155323000Y-65347000D01*
X155330000Y-65340000D01*
X155337000Y-65333000D01*
X155344000Y-65326000D01*
X155352000Y-65320000D01*
X155361000Y-65315000D01*
X155369000Y-65309000D01*
X155378000Y-65305000D01*
X155387000Y-65300000D01*
X155396000Y-65297000D01*
X155405000Y-65293000D01*
X155415000Y-65290000D01*
X155424000Y-65288000D01*
X155434000Y-65286000D01*
X155444000Y-65285000D01*
X155454000Y-65284000D01*
X155464000Y-65284000D01*
X155474000Y-65284000D01*
X155484000Y-65285000D01*
G37*
X155984000Y-65285000D02*
X155994000Y-65286000D01*
X156004000Y-65288000D01*
X156013000Y-65290000D01*
X156023000Y-65293000D01*
X156032000Y-65297000D01*
X156041000Y-65300000D01*
X156050000Y-65305000D01*
X156059000Y-65309000D01*
X156067000Y-65315000D01*
X156076000Y-65320000D01*
X156084000Y-65326000D01*
X156091000Y-65333000D01*
X156098000Y-65340000D01*
X156105000Y-65347000D01*
X156112000Y-65354000D01*
X156118000Y-65362000D01*
X156123000Y-65371000D01*
X156129000Y-65379000D01*
X156133000Y-65388000D01*
X156138000Y-65397000D01*
X156141000Y-65406000D01*
X156145000Y-65415000D01*
X156148000Y-65425000D01*
X156150000Y-65434000D01*
X156152000Y-65444000D01*
X156153000Y-65454000D01*
X156154000Y-65464000D01*
X156154000Y-65474000D01*
X156154000Y-65834000D01*
X156154000Y-65844000D01*
X156153000Y-65854000D01*
X156152000Y-65864000D01*
X156150000Y-65874000D01*
X156148000Y-65883000D01*
X156145000Y-65893000D01*
X156141000Y-65902000D01*
X156138000Y-65911000D01*
X156133000Y-65920000D01*
X156129000Y-65929000D01*
X156123000Y-65937000D01*
X156118000Y-65946000D01*
X156112000Y-65954000D01*
X156105000Y-65961000D01*
X156098000Y-65968000D01*
X156091000Y-65975000D01*
X156084000Y-65982000D01*
X156076000Y-65988000D01*
X156067000Y-65993000D01*
X156059000Y-65999000D01*
X156050000Y-66003000D01*
X156041000Y-66008000D01*
X156032000Y-66011000D01*
X156023000Y-66015000D01*
X156013000Y-66018000D01*
X156004000Y-66020000D01*
X155994000Y-66022000D01*
X155984000Y-66023000D01*
X155974000Y-66024000D01*
X155964000Y-66024000D01*
X155954000Y-66024000D01*
X155944000Y-66023000D01*
X155934000Y-66022000D01*
X155924000Y-66020000D01*
X155915000Y-66018000D01*
X155905000Y-66015000D01*
X155896000Y-66011000D01*
X155887000Y-66008000D01*
X155878000Y-66003000D01*
X155869000Y-65999000D01*
X155861000Y-65993000D01*
X155852000Y-65988000D01*
X155844000Y-65982000D01*
X155837000Y-65975000D01*
X155830000Y-65968000D01*
X155823000Y-65961000D01*
X155816000Y-65954000D01*
X155810000Y-65946000D01*
X155805000Y-65937000D01*
X155799000Y-65929000D01*
X155795000Y-65920000D01*
X155790000Y-65911000D01*
X155787000Y-65902000D01*
X155783000Y-65893000D01*
X155780000Y-65883000D01*
X155778000Y-65874000D01*
X155776000Y-65864000D01*
X155775000Y-65854000D01*
X155774000Y-65844000D01*
X155774000Y-65834000D01*
X155774000Y-65474000D01*
X155774000Y-65464000D01*
X155775000Y-65454000D01*
X155776000Y-65444000D01*
X155778000Y-65434000D01*
X155780000Y-65425000D01*
X155783000Y-65415000D01*
X155787000Y-65406000D01*
X155790000Y-65397000D01*
X155795000Y-65388000D01*
X155799000Y-65379000D01*
X155805000Y-65371000D01*
X155810000Y-65362000D01*
X155816000Y-65354000D01*
X155823000Y-65347000D01*
X155830000Y-65340000D01*
X155837000Y-65333000D01*
X155844000Y-65326000D01*
X155852000Y-65320000D01*
X155861000Y-65315000D01*
X155869000Y-65309000D01*
X155878000Y-65305000D01*
X155887000Y-65300000D01*
X155896000Y-65297000D01*
X155905000Y-65293000D01*
X155915000Y-65290000D01*
X155924000Y-65288000D01*
X155934000Y-65286000D01*
X155944000Y-65285000D01*
X155954000Y-65284000D01*
X155964000Y-65284000D01*
X155974000Y-65284000D01*
X155984000Y-65285000D01*
G36*
X155984000Y-65285000D02*
G01*
X155994000Y-65286000D01*
X156004000Y-65288000D01*
X156013000Y-65290000D01*
X156023000Y-65293000D01*
X156032000Y-65297000D01*
X156041000Y-65300000D01*
X156050000Y-65305000D01*
X156059000Y-65309000D01*
X156067000Y-65315000D01*
X156076000Y-65320000D01*
X156084000Y-65326000D01*
X156091000Y-65333000D01*
X156098000Y-65340000D01*
X156105000Y-65347000D01*
X156112000Y-65354000D01*
X156118000Y-65362000D01*
X156123000Y-65371000D01*
X156129000Y-65379000D01*
X156133000Y-65388000D01*
X156138000Y-65397000D01*
X156141000Y-65406000D01*
X156145000Y-65415000D01*
X156148000Y-65425000D01*
X156150000Y-65434000D01*
X156152000Y-65444000D01*
X156153000Y-65454000D01*
X156154000Y-65464000D01*
X156154000Y-65474000D01*
X156154000Y-65834000D01*
X156154000Y-65844000D01*
X156153000Y-65854000D01*
X156152000Y-65864000D01*
X156150000Y-65874000D01*
X156148000Y-65883000D01*
X156145000Y-65893000D01*
X156141000Y-65902000D01*
X156138000Y-65911000D01*
X156133000Y-65920000D01*
X156129000Y-65929000D01*
X156123000Y-65937000D01*
X156118000Y-65946000D01*
X156112000Y-65954000D01*
X156105000Y-65961000D01*
X156098000Y-65968000D01*
X156091000Y-65975000D01*
X156084000Y-65982000D01*
X156076000Y-65988000D01*
X156067000Y-65993000D01*
X156059000Y-65999000D01*
X156050000Y-66003000D01*
X156041000Y-66008000D01*
X156032000Y-66011000D01*
X156023000Y-66015000D01*
X156013000Y-66018000D01*
X156004000Y-66020000D01*
X155994000Y-66022000D01*
X155984000Y-66023000D01*
X155974000Y-66024000D01*
X155964000Y-66024000D01*
X155954000Y-66024000D01*
X155944000Y-66023000D01*
X155934000Y-66022000D01*
X155924000Y-66020000D01*
X155915000Y-66018000D01*
X155905000Y-66015000D01*
X155896000Y-66011000D01*
X155887000Y-66008000D01*
X155878000Y-66003000D01*
X155869000Y-65999000D01*
X155861000Y-65993000D01*
X155852000Y-65988000D01*
X155844000Y-65982000D01*
X155837000Y-65975000D01*
X155830000Y-65968000D01*
X155823000Y-65961000D01*
X155816000Y-65954000D01*
X155810000Y-65946000D01*
X155805000Y-65937000D01*
X155799000Y-65929000D01*
X155795000Y-65920000D01*
X155790000Y-65911000D01*
X155787000Y-65902000D01*
X155783000Y-65893000D01*
X155780000Y-65883000D01*
X155778000Y-65874000D01*
X155776000Y-65864000D01*
X155775000Y-65854000D01*
X155774000Y-65844000D01*
X155774000Y-65834000D01*
X155774000Y-65474000D01*
X155774000Y-65464000D01*
X155775000Y-65454000D01*
X155776000Y-65444000D01*
X155778000Y-65434000D01*
X155780000Y-65425000D01*
X155783000Y-65415000D01*
X155787000Y-65406000D01*
X155790000Y-65397000D01*
X155795000Y-65388000D01*
X155799000Y-65379000D01*
X155805000Y-65371000D01*
X155810000Y-65362000D01*
X155816000Y-65354000D01*
X155823000Y-65347000D01*
X155830000Y-65340000D01*
X155837000Y-65333000D01*
X155844000Y-65326000D01*
X155852000Y-65320000D01*
X155861000Y-65315000D01*
X155869000Y-65309000D01*
X155878000Y-65305000D01*
X155887000Y-65300000D01*
X155896000Y-65297000D01*
X155905000Y-65293000D01*
X155915000Y-65290000D01*
X155924000Y-65288000D01*
X155934000Y-65286000D01*
X155944000Y-65285000D01*
X155954000Y-65284000D01*
X155964000Y-65284000D01*
X155974000Y-65284000D01*
X155984000Y-65285000D01*
G37*
X156484000Y-65285000D02*
X156494000Y-65286000D01*
X156504000Y-65288000D01*
X156513000Y-65290000D01*
X156523000Y-65293000D01*
X156532000Y-65297000D01*
X156541000Y-65300000D01*
X156550000Y-65305000D01*
X156559000Y-65309000D01*
X156567000Y-65315000D01*
X156576000Y-65320000D01*
X156584000Y-65326000D01*
X156591000Y-65333000D01*
X156598000Y-65340000D01*
X156605000Y-65347000D01*
X156612000Y-65354000D01*
X156618000Y-65362000D01*
X156623000Y-65371000D01*
X156629000Y-65379000D01*
X156633000Y-65388000D01*
X156638000Y-65397000D01*
X156641000Y-65406000D01*
X156645000Y-65415000D01*
X156648000Y-65425000D01*
X156650000Y-65434000D01*
X156652000Y-65444000D01*
X156653000Y-65454000D01*
X156654000Y-65464000D01*
X156654000Y-65474000D01*
X156654000Y-65834000D01*
X156654000Y-65844000D01*
X156653000Y-65854000D01*
X156652000Y-65864000D01*
X156650000Y-65874000D01*
X156648000Y-65883000D01*
X156645000Y-65893000D01*
X156641000Y-65902000D01*
X156638000Y-65911000D01*
X156633000Y-65920000D01*
X156629000Y-65929000D01*
X156623000Y-65937000D01*
X156618000Y-65946000D01*
X156612000Y-65954000D01*
X156605000Y-65961000D01*
X156598000Y-65968000D01*
X156591000Y-65975000D01*
X156584000Y-65982000D01*
X156576000Y-65988000D01*
X156567000Y-65993000D01*
X156559000Y-65999000D01*
X156550000Y-66003000D01*
X156541000Y-66008000D01*
X156532000Y-66011000D01*
X156523000Y-66015000D01*
X156513000Y-66018000D01*
X156504000Y-66020000D01*
X156494000Y-66022000D01*
X156484000Y-66023000D01*
X156474000Y-66024000D01*
X156464000Y-66024000D01*
X156454000Y-66024000D01*
X156444000Y-66023000D01*
X156434000Y-66022000D01*
X156424000Y-66020000D01*
X156415000Y-66018000D01*
X156405000Y-66015000D01*
X156396000Y-66011000D01*
X156387000Y-66008000D01*
X156378000Y-66003000D01*
X156369000Y-65999000D01*
X156361000Y-65993000D01*
X156352000Y-65988000D01*
X156344000Y-65982000D01*
X156337000Y-65975000D01*
X156330000Y-65968000D01*
X156323000Y-65961000D01*
X156316000Y-65954000D01*
X156310000Y-65946000D01*
X156305000Y-65937000D01*
X156299000Y-65929000D01*
X156295000Y-65920000D01*
X156290000Y-65911000D01*
X156287000Y-65902000D01*
X156283000Y-65893000D01*
X156280000Y-65883000D01*
X156278000Y-65874000D01*
X156276000Y-65864000D01*
X156275000Y-65854000D01*
X156274000Y-65844000D01*
X156274000Y-65834000D01*
X156274000Y-65474000D01*
X156274000Y-65464000D01*
X156275000Y-65454000D01*
X156276000Y-65444000D01*
X156278000Y-65434000D01*
X156280000Y-65425000D01*
X156283000Y-65415000D01*
X156287000Y-65406000D01*
X156290000Y-65397000D01*
X156295000Y-65388000D01*
X156299000Y-65379000D01*
X156305000Y-65371000D01*
X156310000Y-65362000D01*
X156316000Y-65354000D01*
X156323000Y-65347000D01*
X156330000Y-65340000D01*
X156337000Y-65333000D01*
X156344000Y-65326000D01*
X156352000Y-65320000D01*
X156361000Y-65315000D01*
X156369000Y-65309000D01*
X156378000Y-65305000D01*
X156387000Y-65300000D01*
X156396000Y-65297000D01*
X156405000Y-65293000D01*
X156415000Y-65290000D01*
X156424000Y-65288000D01*
X156434000Y-65286000D01*
X156444000Y-65285000D01*
X156454000Y-65284000D01*
X156464000Y-65284000D01*
X156474000Y-65284000D01*
X156484000Y-65285000D01*
G36*
X156484000Y-65285000D02*
G01*
X156494000Y-65286000D01*
X156504000Y-65288000D01*
X156513000Y-65290000D01*
X156523000Y-65293000D01*
X156532000Y-65297000D01*
X156541000Y-65300000D01*
X156550000Y-65305000D01*
X156559000Y-65309000D01*
X156567000Y-65315000D01*
X156576000Y-65320000D01*
X156584000Y-65326000D01*
X156591000Y-65333000D01*
X156598000Y-65340000D01*
X156605000Y-65347000D01*
X156612000Y-65354000D01*
X156618000Y-65362000D01*
X156623000Y-65371000D01*
X156629000Y-65379000D01*
X156633000Y-65388000D01*
X156638000Y-65397000D01*
X156641000Y-65406000D01*
X156645000Y-65415000D01*
X156648000Y-65425000D01*
X156650000Y-65434000D01*
X156652000Y-65444000D01*
X156653000Y-65454000D01*
X156654000Y-65464000D01*
X156654000Y-65474000D01*
X156654000Y-65834000D01*
X156654000Y-65844000D01*
X156653000Y-65854000D01*
X156652000Y-65864000D01*
X156650000Y-65874000D01*
X156648000Y-65883000D01*
X156645000Y-65893000D01*
X156641000Y-65902000D01*
X156638000Y-65911000D01*
X156633000Y-65920000D01*
X156629000Y-65929000D01*
X156623000Y-65937000D01*
X156618000Y-65946000D01*
X156612000Y-65954000D01*
X156605000Y-65961000D01*
X156598000Y-65968000D01*
X156591000Y-65975000D01*
X156584000Y-65982000D01*
X156576000Y-65988000D01*
X156567000Y-65993000D01*
X156559000Y-65999000D01*
X156550000Y-66003000D01*
X156541000Y-66008000D01*
X156532000Y-66011000D01*
X156523000Y-66015000D01*
X156513000Y-66018000D01*
X156504000Y-66020000D01*
X156494000Y-66022000D01*
X156484000Y-66023000D01*
X156474000Y-66024000D01*
X156464000Y-66024000D01*
X156454000Y-66024000D01*
X156444000Y-66023000D01*
X156434000Y-66022000D01*
X156424000Y-66020000D01*
X156415000Y-66018000D01*
X156405000Y-66015000D01*
X156396000Y-66011000D01*
X156387000Y-66008000D01*
X156378000Y-66003000D01*
X156369000Y-65999000D01*
X156361000Y-65993000D01*
X156352000Y-65988000D01*
X156344000Y-65982000D01*
X156337000Y-65975000D01*
X156330000Y-65968000D01*
X156323000Y-65961000D01*
X156316000Y-65954000D01*
X156310000Y-65946000D01*
X156305000Y-65937000D01*
X156299000Y-65929000D01*
X156295000Y-65920000D01*
X156290000Y-65911000D01*
X156287000Y-65902000D01*
X156283000Y-65893000D01*
X156280000Y-65883000D01*
X156278000Y-65874000D01*
X156276000Y-65864000D01*
X156275000Y-65854000D01*
X156274000Y-65844000D01*
X156274000Y-65834000D01*
X156274000Y-65474000D01*
X156274000Y-65464000D01*
X156275000Y-65454000D01*
X156276000Y-65444000D01*
X156278000Y-65434000D01*
X156280000Y-65425000D01*
X156283000Y-65415000D01*
X156287000Y-65406000D01*
X156290000Y-65397000D01*
X156295000Y-65388000D01*
X156299000Y-65379000D01*
X156305000Y-65371000D01*
X156310000Y-65362000D01*
X156316000Y-65354000D01*
X156323000Y-65347000D01*
X156330000Y-65340000D01*
X156337000Y-65333000D01*
X156344000Y-65326000D01*
X156352000Y-65320000D01*
X156361000Y-65315000D01*
X156369000Y-65309000D01*
X156378000Y-65305000D01*
X156387000Y-65300000D01*
X156396000Y-65297000D01*
X156405000Y-65293000D01*
X156415000Y-65290000D01*
X156424000Y-65288000D01*
X156434000Y-65286000D01*
X156444000Y-65285000D01*
X156454000Y-65284000D01*
X156464000Y-65284000D01*
X156474000Y-65284000D01*
X156484000Y-65285000D01*
G37*
X156984000Y-65285000D02*
X156994000Y-65286000D01*
X157004000Y-65288000D01*
X157013000Y-65290000D01*
X157023000Y-65293000D01*
X157032000Y-65297000D01*
X157041000Y-65300000D01*
X157050000Y-65305000D01*
X157059000Y-65309000D01*
X157067000Y-65315000D01*
X157076000Y-65320000D01*
X157084000Y-65326000D01*
X157091000Y-65333000D01*
X157098000Y-65340000D01*
X157105000Y-65347000D01*
X157112000Y-65354000D01*
X157118000Y-65362000D01*
X157123000Y-65371000D01*
X157129000Y-65379000D01*
X157133000Y-65388000D01*
X157138000Y-65397000D01*
X157141000Y-65406000D01*
X157145000Y-65415000D01*
X157148000Y-65425000D01*
X157150000Y-65434000D01*
X157152000Y-65444000D01*
X157153000Y-65454000D01*
X157154000Y-65464000D01*
X157154000Y-65474000D01*
X157154000Y-65834000D01*
X157154000Y-65844000D01*
X157153000Y-65854000D01*
X157152000Y-65864000D01*
X157150000Y-65874000D01*
X157148000Y-65883000D01*
X157145000Y-65893000D01*
X157141000Y-65902000D01*
X157138000Y-65911000D01*
X157133000Y-65920000D01*
X157129000Y-65929000D01*
X157123000Y-65937000D01*
X157118000Y-65946000D01*
X157112000Y-65954000D01*
X157105000Y-65961000D01*
X157098000Y-65968000D01*
X157091000Y-65975000D01*
X157084000Y-65982000D01*
X157076000Y-65988000D01*
X157067000Y-65993000D01*
X157059000Y-65999000D01*
X157050000Y-66003000D01*
X157041000Y-66008000D01*
X157032000Y-66011000D01*
X157023000Y-66015000D01*
X157013000Y-66018000D01*
X157004000Y-66020000D01*
X156994000Y-66022000D01*
X156984000Y-66023000D01*
X156974000Y-66024000D01*
X156964000Y-66024000D01*
X156954000Y-66024000D01*
X156944000Y-66023000D01*
X156934000Y-66022000D01*
X156924000Y-66020000D01*
X156915000Y-66018000D01*
X156905000Y-66015000D01*
X156896000Y-66011000D01*
X156887000Y-66008000D01*
X156878000Y-66003000D01*
X156869000Y-65999000D01*
X156861000Y-65993000D01*
X156852000Y-65988000D01*
X156844000Y-65982000D01*
X156837000Y-65975000D01*
X156830000Y-65968000D01*
X156823000Y-65961000D01*
X156816000Y-65954000D01*
X156810000Y-65946000D01*
X156805000Y-65937000D01*
X156799000Y-65929000D01*
X156795000Y-65920000D01*
X156790000Y-65911000D01*
X156787000Y-65902000D01*
X156783000Y-65893000D01*
X156780000Y-65883000D01*
X156778000Y-65874000D01*
X156776000Y-65864000D01*
X156775000Y-65854000D01*
X156774000Y-65844000D01*
X156774000Y-65834000D01*
X156774000Y-65474000D01*
X156774000Y-65464000D01*
X156775000Y-65454000D01*
X156776000Y-65444000D01*
X156778000Y-65434000D01*
X156780000Y-65425000D01*
X156783000Y-65415000D01*
X156787000Y-65406000D01*
X156790000Y-65397000D01*
X156795000Y-65388000D01*
X156799000Y-65379000D01*
X156805000Y-65371000D01*
X156810000Y-65362000D01*
X156816000Y-65354000D01*
X156823000Y-65347000D01*
X156830000Y-65340000D01*
X156837000Y-65333000D01*
X156844000Y-65326000D01*
X156852000Y-65320000D01*
X156861000Y-65315000D01*
X156869000Y-65309000D01*
X156878000Y-65305000D01*
X156887000Y-65300000D01*
X156896000Y-65297000D01*
X156905000Y-65293000D01*
X156915000Y-65290000D01*
X156924000Y-65288000D01*
X156934000Y-65286000D01*
X156944000Y-65285000D01*
X156954000Y-65284000D01*
X156964000Y-65284000D01*
X156974000Y-65284000D01*
X156984000Y-65285000D01*
G36*
X156984000Y-65285000D02*
G01*
X156994000Y-65286000D01*
X157004000Y-65288000D01*
X157013000Y-65290000D01*
X157023000Y-65293000D01*
X157032000Y-65297000D01*
X157041000Y-65300000D01*
X157050000Y-65305000D01*
X157059000Y-65309000D01*
X157067000Y-65315000D01*
X157076000Y-65320000D01*
X157084000Y-65326000D01*
X157091000Y-65333000D01*
X157098000Y-65340000D01*
X157105000Y-65347000D01*
X157112000Y-65354000D01*
X157118000Y-65362000D01*
X157123000Y-65371000D01*
X157129000Y-65379000D01*
X157133000Y-65388000D01*
X157138000Y-65397000D01*
X157141000Y-65406000D01*
X157145000Y-65415000D01*
X157148000Y-65425000D01*
X157150000Y-65434000D01*
X157152000Y-65444000D01*
X157153000Y-65454000D01*
X157154000Y-65464000D01*
X157154000Y-65474000D01*
X157154000Y-65834000D01*
X157154000Y-65844000D01*
X157153000Y-65854000D01*
X157152000Y-65864000D01*
X157150000Y-65874000D01*
X157148000Y-65883000D01*
X157145000Y-65893000D01*
X157141000Y-65902000D01*
X157138000Y-65911000D01*
X157133000Y-65920000D01*
X157129000Y-65929000D01*
X157123000Y-65937000D01*
X157118000Y-65946000D01*
X157112000Y-65954000D01*
X157105000Y-65961000D01*
X157098000Y-65968000D01*
X157091000Y-65975000D01*
X157084000Y-65982000D01*
X157076000Y-65988000D01*
X157067000Y-65993000D01*
X157059000Y-65999000D01*
X157050000Y-66003000D01*
X157041000Y-66008000D01*
X157032000Y-66011000D01*
X157023000Y-66015000D01*
X157013000Y-66018000D01*
X157004000Y-66020000D01*
X156994000Y-66022000D01*
X156984000Y-66023000D01*
X156974000Y-66024000D01*
X156964000Y-66024000D01*
X156954000Y-66024000D01*
X156944000Y-66023000D01*
X156934000Y-66022000D01*
X156924000Y-66020000D01*
X156915000Y-66018000D01*
X156905000Y-66015000D01*
X156896000Y-66011000D01*
X156887000Y-66008000D01*
X156878000Y-66003000D01*
X156869000Y-65999000D01*
X156861000Y-65993000D01*
X156852000Y-65988000D01*
X156844000Y-65982000D01*
X156837000Y-65975000D01*
X156830000Y-65968000D01*
X156823000Y-65961000D01*
X156816000Y-65954000D01*
X156810000Y-65946000D01*
X156805000Y-65937000D01*
X156799000Y-65929000D01*
X156795000Y-65920000D01*
X156790000Y-65911000D01*
X156787000Y-65902000D01*
X156783000Y-65893000D01*
X156780000Y-65883000D01*
X156778000Y-65874000D01*
X156776000Y-65864000D01*
X156775000Y-65854000D01*
X156774000Y-65844000D01*
X156774000Y-65834000D01*
X156774000Y-65474000D01*
X156774000Y-65464000D01*
X156775000Y-65454000D01*
X156776000Y-65444000D01*
X156778000Y-65434000D01*
X156780000Y-65425000D01*
X156783000Y-65415000D01*
X156787000Y-65406000D01*
X156790000Y-65397000D01*
X156795000Y-65388000D01*
X156799000Y-65379000D01*
X156805000Y-65371000D01*
X156810000Y-65362000D01*
X156816000Y-65354000D01*
X156823000Y-65347000D01*
X156830000Y-65340000D01*
X156837000Y-65333000D01*
X156844000Y-65326000D01*
X156852000Y-65320000D01*
X156861000Y-65315000D01*
X156869000Y-65309000D01*
X156878000Y-65305000D01*
X156887000Y-65300000D01*
X156896000Y-65297000D01*
X156905000Y-65293000D01*
X156915000Y-65290000D01*
X156924000Y-65288000D01*
X156934000Y-65286000D01*
X156944000Y-65285000D01*
X156954000Y-65284000D01*
X156964000Y-65284000D01*
X156974000Y-65284000D01*
X156984000Y-65285000D01*
G37*
X157484000Y-65285000D02*
X157494000Y-65286000D01*
X157504000Y-65288000D01*
X157513000Y-65290000D01*
X157523000Y-65293000D01*
X157532000Y-65297000D01*
X157541000Y-65300000D01*
X157550000Y-65305000D01*
X157559000Y-65309000D01*
X157567000Y-65315000D01*
X157576000Y-65320000D01*
X157584000Y-65326000D01*
X157591000Y-65333000D01*
X157598000Y-65340000D01*
X157605000Y-65347000D01*
X157612000Y-65354000D01*
X157618000Y-65362000D01*
X157623000Y-65371000D01*
X157629000Y-65379000D01*
X157633000Y-65388000D01*
X157638000Y-65397000D01*
X157641000Y-65406000D01*
X157645000Y-65415000D01*
X157648000Y-65425000D01*
X157650000Y-65434000D01*
X157652000Y-65444000D01*
X157653000Y-65454000D01*
X157654000Y-65464000D01*
X157654000Y-65474000D01*
X157654000Y-65834000D01*
X157654000Y-65844000D01*
X157653000Y-65854000D01*
X157652000Y-65864000D01*
X157650000Y-65874000D01*
X157648000Y-65883000D01*
X157645000Y-65893000D01*
X157641000Y-65902000D01*
X157638000Y-65911000D01*
X157633000Y-65920000D01*
X157629000Y-65929000D01*
X157623000Y-65937000D01*
X157618000Y-65946000D01*
X157612000Y-65954000D01*
X157605000Y-65961000D01*
X157598000Y-65968000D01*
X157591000Y-65975000D01*
X157584000Y-65982000D01*
X157576000Y-65988000D01*
X157567000Y-65993000D01*
X157559000Y-65999000D01*
X157550000Y-66003000D01*
X157541000Y-66008000D01*
X157532000Y-66011000D01*
X157523000Y-66015000D01*
X157513000Y-66018000D01*
X157504000Y-66020000D01*
X157494000Y-66022000D01*
X157484000Y-66023000D01*
X157474000Y-66024000D01*
X157464000Y-66024000D01*
X157454000Y-66024000D01*
X157444000Y-66023000D01*
X157434000Y-66022000D01*
X157424000Y-66020000D01*
X157415000Y-66018000D01*
X157405000Y-66015000D01*
X157396000Y-66011000D01*
X157387000Y-66008000D01*
X157378000Y-66003000D01*
X157369000Y-65999000D01*
X157361000Y-65993000D01*
X157352000Y-65988000D01*
X157344000Y-65982000D01*
X157337000Y-65975000D01*
X157330000Y-65968000D01*
X157323000Y-65961000D01*
X157316000Y-65954000D01*
X157310000Y-65946000D01*
X157305000Y-65937000D01*
X157299000Y-65929000D01*
X157295000Y-65920000D01*
X157290000Y-65911000D01*
X157287000Y-65902000D01*
X157283000Y-65893000D01*
X157280000Y-65883000D01*
X157278000Y-65874000D01*
X157276000Y-65864000D01*
X157275000Y-65854000D01*
X157274000Y-65844000D01*
X157274000Y-65834000D01*
X157274000Y-65474000D01*
X157274000Y-65464000D01*
X157275000Y-65454000D01*
X157276000Y-65444000D01*
X157278000Y-65434000D01*
X157280000Y-65425000D01*
X157283000Y-65415000D01*
X157287000Y-65406000D01*
X157290000Y-65397000D01*
X157295000Y-65388000D01*
X157299000Y-65379000D01*
X157305000Y-65371000D01*
X157310000Y-65362000D01*
X157316000Y-65354000D01*
X157323000Y-65347000D01*
X157330000Y-65340000D01*
X157337000Y-65333000D01*
X157344000Y-65326000D01*
X157352000Y-65320000D01*
X157361000Y-65315000D01*
X157369000Y-65309000D01*
X157378000Y-65305000D01*
X157387000Y-65300000D01*
X157396000Y-65297000D01*
X157405000Y-65293000D01*
X157415000Y-65290000D01*
X157424000Y-65288000D01*
X157434000Y-65286000D01*
X157444000Y-65285000D01*
X157454000Y-65284000D01*
X157464000Y-65284000D01*
X157474000Y-65284000D01*
X157484000Y-65285000D01*
G36*
X157484000Y-65285000D02*
G01*
X157494000Y-65286000D01*
X157504000Y-65288000D01*
X157513000Y-65290000D01*
X157523000Y-65293000D01*
X157532000Y-65297000D01*
X157541000Y-65300000D01*
X157550000Y-65305000D01*
X157559000Y-65309000D01*
X157567000Y-65315000D01*
X157576000Y-65320000D01*
X157584000Y-65326000D01*
X157591000Y-65333000D01*
X157598000Y-65340000D01*
X157605000Y-65347000D01*
X157612000Y-65354000D01*
X157618000Y-65362000D01*
X157623000Y-65371000D01*
X157629000Y-65379000D01*
X157633000Y-65388000D01*
X157638000Y-65397000D01*
X157641000Y-65406000D01*
X157645000Y-65415000D01*
X157648000Y-65425000D01*
X157650000Y-65434000D01*
X157652000Y-65444000D01*
X157653000Y-65454000D01*
X157654000Y-65464000D01*
X157654000Y-65474000D01*
X157654000Y-65834000D01*
X157654000Y-65844000D01*
X157653000Y-65854000D01*
X157652000Y-65864000D01*
X157650000Y-65874000D01*
X157648000Y-65883000D01*
X157645000Y-65893000D01*
X157641000Y-65902000D01*
X157638000Y-65911000D01*
X157633000Y-65920000D01*
X157629000Y-65929000D01*
X157623000Y-65937000D01*
X157618000Y-65946000D01*
X157612000Y-65954000D01*
X157605000Y-65961000D01*
X157598000Y-65968000D01*
X157591000Y-65975000D01*
X157584000Y-65982000D01*
X157576000Y-65988000D01*
X157567000Y-65993000D01*
X157559000Y-65999000D01*
X157550000Y-66003000D01*
X157541000Y-66008000D01*
X157532000Y-66011000D01*
X157523000Y-66015000D01*
X157513000Y-66018000D01*
X157504000Y-66020000D01*
X157494000Y-66022000D01*
X157484000Y-66023000D01*
X157474000Y-66024000D01*
X157464000Y-66024000D01*
X157454000Y-66024000D01*
X157444000Y-66023000D01*
X157434000Y-66022000D01*
X157424000Y-66020000D01*
X157415000Y-66018000D01*
X157405000Y-66015000D01*
X157396000Y-66011000D01*
X157387000Y-66008000D01*
X157378000Y-66003000D01*
X157369000Y-65999000D01*
X157361000Y-65993000D01*
X157352000Y-65988000D01*
X157344000Y-65982000D01*
X157337000Y-65975000D01*
X157330000Y-65968000D01*
X157323000Y-65961000D01*
X157316000Y-65954000D01*
X157310000Y-65946000D01*
X157305000Y-65937000D01*
X157299000Y-65929000D01*
X157295000Y-65920000D01*
X157290000Y-65911000D01*
X157287000Y-65902000D01*
X157283000Y-65893000D01*
X157280000Y-65883000D01*
X157278000Y-65874000D01*
X157276000Y-65864000D01*
X157275000Y-65854000D01*
X157274000Y-65844000D01*
X157274000Y-65834000D01*
X157274000Y-65474000D01*
X157274000Y-65464000D01*
X157275000Y-65454000D01*
X157276000Y-65444000D01*
X157278000Y-65434000D01*
X157280000Y-65425000D01*
X157283000Y-65415000D01*
X157287000Y-65406000D01*
X157290000Y-65397000D01*
X157295000Y-65388000D01*
X157299000Y-65379000D01*
X157305000Y-65371000D01*
X157310000Y-65362000D01*
X157316000Y-65354000D01*
X157323000Y-65347000D01*
X157330000Y-65340000D01*
X157337000Y-65333000D01*
X157344000Y-65326000D01*
X157352000Y-65320000D01*
X157361000Y-65315000D01*
X157369000Y-65309000D01*
X157378000Y-65305000D01*
X157387000Y-65300000D01*
X157396000Y-65297000D01*
X157405000Y-65293000D01*
X157415000Y-65290000D01*
X157424000Y-65288000D01*
X157434000Y-65286000D01*
X157444000Y-65285000D01*
X157454000Y-65284000D01*
X157464000Y-65284000D01*
X157474000Y-65284000D01*
X157484000Y-65285000D01*
G37*
X157984000Y-65285000D02*
X157994000Y-65286000D01*
X158004000Y-65288000D01*
X158013000Y-65290000D01*
X158023000Y-65293000D01*
X158032000Y-65297000D01*
X158041000Y-65300000D01*
X158050000Y-65305000D01*
X158059000Y-65309000D01*
X158067000Y-65315000D01*
X158076000Y-65320000D01*
X158084000Y-65326000D01*
X158091000Y-65333000D01*
X158098000Y-65340000D01*
X158105000Y-65347000D01*
X158112000Y-65354000D01*
X158118000Y-65362000D01*
X158123000Y-65371000D01*
X158129000Y-65379000D01*
X158133000Y-65388000D01*
X158138000Y-65397000D01*
X158141000Y-65406000D01*
X158145000Y-65415000D01*
X158148000Y-65425000D01*
X158150000Y-65434000D01*
X158152000Y-65444000D01*
X158153000Y-65454000D01*
X158154000Y-65464000D01*
X158154000Y-65474000D01*
X158154000Y-65834000D01*
X158154000Y-65844000D01*
X158153000Y-65854000D01*
X158152000Y-65864000D01*
X158150000Y-65874000D01*
X158148000Y-65883000D01*
X158145000Y-65893000D01*
X158141000Y-65902000D01*
X158138000Y-65911000D01*
X158133000Y-65920000D01*
X158129000Y-65929000D01*
X158123000Y-65937000D01*
X158118000Y-65946000D01*
X158112000Y-65954000D01*
X158105000Y-65961000D01*
X158098000Y-65968000D01*
X158091000Y-65975000D01*
X158084000Y-65982000D01*
X158076000Y-65988000D01*
X158067000Y-65993000D01*
X158059000Y-65999000D01*
X158050000Y-66003000D01*
X158041000Y-66008000D01*
X158032000Y-66011000D01*
X158023000Y-66015000D01*
X158013000Y-66018000D01*
X158004000Y-66020000D01*
X157994000Y-66022000D01*
X157984000Y-66023000D01*
X157974000Y-66024000D01*
X157964000Y-66024000D01*
X157954000Y-66024000D01*
X157944000Y-66023000D01*
X157934000Y-66022000D01*
X157924000Y-66020000D01*
X157915000Y-66018000D01*
X157905000Y-66015000D01*
X157896000Y-66011000D01*
X157887000Y-66008000D01*
X157878000Y-66003000D01*
X157869000Y-65999000D01*
X157861000Y-65993000D01*
X157852000Y-65988000D01*
X157844000Y-65982000D01*
X157837000Y-65975000D01*
X157830000Y-65968000D01*
X157823000Y-65961000D01*
X157816000Y-65954000D01*
X157810000Y-65946000D01*
X157805000Y-65937000D01*
X157799000Y-65929000D01*
X157795000Y-65920000D01*
X157790000Y-65911000D01*
X157787000Y-65902000D01*
X157783000Y-65893000D01*
X157780000Y-65883000D01*
X157778000Y-65874000D01*
X157776000Y-65864000D01*
X157775000Y-65854000D01*
X157774000Y-65844000D01*
X157774000Y-65834000D01*
X157774000Y-65474000D01*
X157774000Y-65464000D01*
X157775000Y-65454000D01*
X157776000Y-65444000D01*
X157778000Y-65434000D01*
X157780000Y-65425000D01*
X157783000Y-65415000D01*
X157787000Y-65406000D01*
X157790000Y-65397000D01*
X157795000Y-65388000D01*
X157799000Y-65379000D01*
X157805000Y-65371000D01*
X157810000Y-65362000D01*
X157816000Y-65354000D01*
X157823000Y-65347000D01*
X157830000Y-65340000D01*
X157837000Y-65333000D01*
X157844000Y-65326000D01*
X157852000Y-65320000D01*
X157861000Y-65315000D01*
X157869000Y-65309000D01*
X157878000Y-65305000D01*
X157887000Y-65300000D01*
X157896000Y-65297000D01*
X157905000Y-65293000D01*
X157915000Y-65290000D01*
X157924000Y-65288000D01*
X157934000Y-65286000D01*
X157944000Y-65285000D01*
X157954000Y-65284000D01*
X157964000Y-65284000D01*
X157974000Y-65284000D01*
X157984000Y-65285000D01*
G36*
X157984000Y-65285000D02*
G01*
X157994000Y-65286000D01*
X158004000Y-65288000D01*
X158013000Y-65290000D01*
X158023000Y-65293000D01*
X158032000Y-65297000D01*
X158041000Y-65300000D01*
X158050000Y-65305000D01*
X158059000Y-65309000D01*
X158067000Y-65315000D01*
X158076000Y-65320000D01*
X158084000Y-65326000D01*
X158091000Y-65333000D01*
X158098000Y-65340000D01*
X158105000Y-65347000D01*
X158112000Y-65354000D01*
X158118000Y-65362000D01*
X158123000Y-65371000D01*
X158129000Y-65379000D01*
X158133000Y-65388000D01*
X158138000Y-65397000D01*
X158141000Y-65406000D01*
X158145000Y-65415000D01*
X158148000Y-65425000D01*
X158150000Y-65434000D01*
X158152000Y-65444000D01*
X158153000Y-65454000D01*
X158154000Y-65464000D01*
X158154000Y-65474000D01*
X158154000Y-65834000D01*
X158154000Y-65844000D01*
X158153000Y-65854000D01*
X158152000Y-65864000D01*
X158150000Y-65874000D01*
X158148000Y-65883000D01*
X158145000Y-65893000D01*
X158141000Y-65902000D01*
X158138000Y-65911000D01*
X158133000Y-65920000D01*
X158129000Y-65929000D01*
X158123000Y-65937000D01*
X158118000Y-65946000D01*
X158112000Y-65954000D01*
X158105000Y-65961000D01*
X158098000Y-65968000D01*
X158091000Y-65975000D01*
X158084000Y-65982000D01*
X158076000Y-65988000D01*
X158067000Y-65993000D01*
X158059000Y-65999000D01*
X158050000Y-66003000D01*
X158041000Y-66008000D01*
X158032000Y-66011000D01*
X158023000Y-66015000D01*
X158013000Y-66018000D01*
X158004000Y-66020000D01*
X157994000Y-66022000D01*
X157984000Y-66023000D01*
X157974000Y-66024000D01*
X157964000Y-66024000D01*
X157954000Y-66024000D01*
X157944000Y-66023000D01*
X157934000Y-66022000D01*
X157924000Y-66020000D01*
X157915000Y-66018000D01*
X157905000Y-66015000D01*
X157896000Y-66011000D01*
X157887000Y-66008000D01*
X157878000Y-66003000D01*
X157869000Y-65999000D01*
X157861000Y-65993000D01*
X157852000Y-65988000D01*
X157844000Y-65982000D01*
X157837000Y-65975000D01*
X157830000Y-65968000D01*
X157823000Y-65961000D01*
X157816000Y-65954000D01*
X157810000Y-65946000D01*
X157805000Y-65937000D01*
X157799000Y-65929000D01*
X157795000Y-65920000D01*
X157790000Y-65911000D01*
X157787000Y-65902000D01*
X157783000Y-65893000D01*
X157780000Y-65883000D01*
X157778000Y-65874000D01*
X157776000Y-65864000D01*
X157775000Y-65854000D01*
X157774000Y-65844000D01*
X157774000Y-65834000D01*
X157774000Y-65474000D01*
X157774000Y-65464000D01*
X157775000Y-65454000D01*
X157776000Y-65444000D01*
X157778000Y-65434000D01*
X157780000Y-65425000D01*
X157783000Y-65415000D01*
X157787000Y-65406000D01*
X157790000Y-65397000D01*
X157795000Y-65388000D01*
X157799000Y-65379000D01*
X157805000Y-65371000D01*
X157810000Y-65362000D01*
X157816000Y-65354000D01*
X157823000Y-65347000D01*
X157830000Y-65340000D01*
X157837000Y-65333000D01*
X157844000Y-65326000D01*
X157852000Y-65320000D01*
X157861000Y-65315000D01*
X157869000Y-65309000D01*
X157878000Y-65305000D01*
X157887000Y-65300000D01*
X157896000Y-65297000D01*
X157905000Y-65293000D01*
X157915000Y-65290000D01*
X157924000Y-65288000D01*
X157934000Y-65286000D01*
X157944000Y-65285000D01*
X157954000Y-65284000D01*
X157964000Y-65284000D01*
X157974000Y-65284000D01*
X157984000Y-65285000D01*
G37*
X154984000Y-62485000D02*
X154994000Y-62486000D01*
X155004000Y-62488000D01*
X155013000Y-62490000D01*
X155023000Y-62493000D01*
X155032000Y-62497000D01*
X155041000Y-62500000D01*
X155050000Y-62505000D01*
X155059000Y-62509000D01*
X155067000Y-62515000D01*
X155076000Y-62520000D01*
X155084000Y-62526000D01*
X155091000Y-62533000D01*
X155098000Y-62540000D01*
X155105000Y-62547000D01*
X155112000Y-62554000D01*
X155118000Y-62562000D01*
X155123000Y-62571000D01*
X155129000Y-62579000D01*
X155133000Y-62588000D01*
X155138000Y-62597000D01*
X155141000Y-62606000D01*
X155145000Y-62615000D01*
X155148000Y-62625000D01*
X155150000Y-62634000D01*
X155152000Y-62644000D01*
X155153000Y-62654000D01*
X155154000Y-62664000D01*
X155154000Y-62674000D01*
X155154000Y-63034000D01*
X155154000Y-63044000D01*
X155153000Y-63054000D01*
X155152000Y-63064000D01*
X155150000Y-63074000D01*
X155148000Y-63083000D01*
X155145000Y-63093000D01*
X155141000Y-63102000D01*
X155138000Y-63111000D01*
X155133000Y-63120000D01*
X155129000Y-63129000D01*
X155123000Y-63137000D01*
X155118000Y-63146000D01*
X155112000Y-63154000D01*
X155105000Y-63161000D01*
X155098000Y-63168000D01*
X155091000Y-63175000D01*
X155084000Y-63182000D01*
X155076000Y-63188000D01*
X155067000Y-63193000D01*
X155059000Y-63199000D01*
X155050000Y-63203000D01*
X155041000Y-63208000D01*
X155032000Y-63211000D01*
X155023000Y-63215000D01*
X155013000Y-63218000D01*
X155004000Y-63220000D01*
X154994000Y-63222000D01*
X154984000Y-63223000D01*
X154974000Y-63224000D01*
X154964000Y-63224000D01*
X154954000Y-63224000D01*
X154944000Y-63223000D01*
X154934000Y-63222000D01*
X154924000Y-63220000D01*
X154915000Y-63218000D01*
X154905000Y-63215000D01*
X154896000Y-63211000D01*
X154887000Y-63208000D01*
X154878000Y-63203000D01*
X154869000Y-63199000D01*
X154861000Y-63193000D01*
X154852000Y-63188000D01*
X154844000Y-63182000D01*
X154837000Y-63175000D01*
X154830000Y-63168000D01*
X154823000Y-63161000D01*
X154816000Y-63154000D01*
X154810000Y-63146000D01*
X154805000Y-63137000D01*
X154799000Y-63129000D01*
X154795000Y-63120000D01*
X154790000Y-63111000D01*
X154787000Y-63102000D01*
X154783000Y-63093000D01*
X154780000Y-63083000D01*
X154778000Y-63074000D01*
X154776000Y-63064000D01*
X154775000Y-63054000D01*
X154774000Y-63044000D01*
X154774000Y-63034000D01*
X154774000Y-62674000D01*
X154774000Y-62664000D01*
X154775000Y-62654000D01*
X154776000Y-62644000D01*
X154778000Y-62634000D01*
X154780000Y-62625000D01*
X154783000Y-62615000D01*
X154787000Y-62606000D01*
X154790000Y-62597000D01*
X154795000Y-62588000D01*
X154799000Y-62579000D01*
X154805000Y-62571000D01*
X154810000Y-62562000D01*
X154816000Y-62554000D01*
X154823000Y-62547000D01*
X154830000Y-62540000D01*
X154837000Y-62533000D01*
X154844000Y-62526000D01*
X154852000Y-62520000D01*
X154861000Y-62515000D01*
X154869000Y-62509000D01*
X154878000Y-62505000D01*
X154887000Y-62500000D01*
X154896000Y-62497000D01*
X154905000Y-62493000D01*
X154915000Y-62490000D01*
X154924000Y-62488000D01*
X154934000Y-62486000D01*
X154944000Y-62485000D01*
X154954000Y-62484000D01*
X154964000Y-62484000D01*
X154974000Y-62484000D01*
X154984000Y-62485000D01*
G36*
X154984000Y-62485000D02*
G01*
X154994000Y-62486000D01*
X155004000Y-62488000D01*
X155013000Y-62490000D01*
X155023000Y-62493000D01*
X155032000Y-62497000D01*
X155041000Y-62500000D01*
X155050000Y-62505000D01*
X155059000Y-62509000D01*
X155067000Y-62515000D01*
X155076000Y-62520000D01*
X155084000Y-62526000D01*
X155091000Y-62533000D01*
X155098000Y-62540000D01*
X155105000Y-62547000D01*
X155112000Y-62554000D01*
X155118000Y-62562000D01*
X155123000Y-62571000D01*
X155129000Y-62579000D01*
X155133000Y-62588000D01*
X155138000Y-62597000D01*
X155141000Y-62606000D01*
X155145000Y-62615000D01*
X155148000Y-62625000D01*
X155150000Y-62634000D01*
X155152000Y-62644000D01*
X155153000Y-62654000D01*
X155154000Y-62664000D01*
X155154000Y-62674000D01*
X155154000Y-63034000D01*
X155154000Y-63044000D01*
X155153000Y-63054000D01*
X155152000Y-63064000D01*
X155150000Y-63074000D01*
X155148000Y-63083000D01*
X155145000Y-63093000D01*
X155141000Y-63102000D01*
X155138000Y-63111000D01*
X155133000Y-63120000D01*
X155129000Y-63129000D01*
X155123000Y-63137000D01*
X155118000Y-63146000D01*
X155112000Y-63154000D01*
X155105000Y-63161000D01*
X155098000Y-63168000D01*
X155091000Y-63175000D01*
X155084000Y-63182000D01*
X155076000Y-63188000D01*
X155067000Y-63193000D01*
X155059000Y-63199000D01*
X155050000Y-63203000D01*
X155041000Y-63208000D01*
X155032000Y-63211000D01*
X155023000Y-63215000D01*
X155013000Y-63218000D01*
X155004000Y-63220000D01*
X154994000Y-63222000D01*
X154984000Y-63223000D01*
X154974000Y-63224000D01*
X154964000Y-63224000D01*
X154954000Y-63224000D01*
X154944000Y-63223000D01*
X154934000Y-63222000D01*
X154924000Y-63220000D01*
X154915000Y-63218000D01*
X154905000Y-63215000D01*
X154896000Y-63211000D01*
X154887000Y-63208000D01*
X154878000Y-63203000D01*
X154869000Y-63199000D01*
X154861000Y-63193000D01*
X154852000Y-63188000D01*
X154844000Y-63182000D01*
X154837000Y-63175000D01*
X154830000Y-63168000D01*
X154823000Y-63161000D01*
X154816000Y-63154000D01*
X154810000Y-63146000D01*
X154805000Y-63137000D01*
X154799000Y-63129000D01*
X154795000Y-63120000D01*
X154790000Y-63111000D01*
X154787000Y-63102000D01*
X154783000Y-63093000D01*
X154780000Y-63083000D01*
X154778000Y-63074000D01*
X154776000Y-63064000D01*
X154775000Y-63054000D01*
X154774000Y-63044000D01*
X154774000Y-63034000D01*
X154774000Y-62674000D01*
X154774000Y-62664000D01*
X154775000Y-62654000D01*
X154776000Y-62644000D01*
X154778000Y-62634000D01*
X154780000Y-62625000D01*
X154783000Y-62615000D01*
X154787000Y-62606000D01*
X154790000Y-62597000D01*
X154795000Y-62588000D01*
X154799000Y-62579000D01*
X154805000Y-62571000D01*
X154810000Y-62562000D01*
X154816000Y-62554000D01*
X154823000Y-62547000D01*
X154830000Y-62540000D01*
X154837000Y-62533000D01*
X154844000Y-62526000D01*
X154852000Y-62520000D01*
X154861000Y-62515000D01*
X154869000Y-62509000D01*
X154878000Y-62505000D01*
X154887000Y-62500000D01*
X154896000Y-62497000D01*
X154905000Y-62493000D01*
X154915000Y-62490000D01*
X154924000Y-62488000D01*
X154934000Y-62486000D01*
X154944000Y-62485000D01*
X154954000Y-62484000D01*
X154964000Y-62484000D01*
X154974000Y-62484000D01*
X154984000Y-62485000D01*
G37*
X155484000Y-62485000D02*
X155494000Y-62486000D01*
X155504000Y-62488000D01*
X155513000Y-62490000D01*
X155523000Y-62493000D01*
X155532000Y-62497000D01*
X155541000Y-62500000D01*
X155550000Y-62505000D01*
X155559000Y-62509000D01*
X155567000Y-62515000D01*
X155576000Y-62520000D01*
X155584000Y-62526000D01*
X155591000Y-62533000D01*
X155598000Y-62540000D01*
X155605000Y-62547000D01*
X155612000Y-62554000D01*
X155618000Y-62562000D01*
X155623000Y-62571000D01*
X155629000Y-62579000D01*
X155633000Y-62588000D01*
X155638000Y-62597000D01*
X155641000Y-62606000D01*
X155645000Y-62615000D01*
X155648000Y-62625000D01*
X155650000Y-62634000D01*
X155652000Y-62644000D01*
X155653000Y-62654000D01*
X155654000Y-62664000D01*
X155654000Y-62674000D01*
X155654000Y-63034000D01*
X155654000Y-63044000D01*
X155653000Y-63054000D01*
X155652000Y-63064000D01*
X155650000Y-63074000D01*
X155648000Y-63083000D01*
X155645000Y-63093000D01*
X155641000Y-63102000D01*
X155638000Y-63111000D01*
X155633000Y-63120000D01*
X155629000Y-63129000D01*
X155623000Y-63137000D01*
X155618000Y-63146000D01*
X155612000Y-63154000D01*
X155605000Y-63161000D01*
X155598000Y-63168000D01*
X155591000Y-63175000D01*
X155584000Y-63182000D01*
X155576000Y-63188000D01*
X155567000Y-63193000D01*
X155559000Y-63199000D01*
X155550000Y-63203000D01*
X155541000Y-63208000D01*
X155532000Y-63211000D01*
X155523000Y-63215000D01*
X155513000Y-63218000D01*
X155504000Y-63220000D01*
X155494000Y-63222000D01*
X155484000Y-63223000D01*
X155474000Y-63224000D01*
X155464000Y-63224000D01*
X155454000Y-63224000D01*
X155444000Y-63223000D01*
X155434000Y-63222000D01*
X155424000Y-63220000D01*
X155415000Y-63218000D01*
X155405000Y-63215000D01*
X155396000Y-63211000D01*
X155387000Y-63208000D01*
X155378000Y-63203000D01*
X155369000Y-63199000D01*
X155361000Y-63193000D01*
X155352000Y-63188000D01*
X155344000Y-63182000D01*
X155337000Y-63175000D01*
X155330000Y-63168000D01*
X155323000Y-63161000D01*
X155316000Y-63154000D01*
X155310000Y-63146000D01*
X155305000Y-63137000D01*
X155299000Y-63129000D01*
X155295000Y-63120000D01*
X155290000Y-63111000D01*
X155287000Y-63102000D01*
X155283000Y-63093000D01*
X155280000Y-63083000D01*
X155278000Y-63074000D01*
X155276000Y-63064000D01*
X155275000Y-63054000D01*
X155274000Y-63044000D01*
X155274000Y-63034000D01*
X155274000Y-62674000D01*
X155274000Y-62664000D01*
X155275000Y-62654000D01*
X155276000Y-62644000D01*
X155278000Y-62634000D01*
X155280000Y-62625000D01*
X155283000Y-62615000D01*
X155287000Y-62606000D01*
X155290000Y-62597000D01*
X155295000Y-62588000D01*
X155299000Y-62579000D01*
X155305000Y-62571000D01*
X155310000Y-62562000D01*
X155316000Y-62554000D01*
X155323000Y-62547000D01*
X155330000Y-62540000D01*
X155337000Y-62533000D01*
X155344000Y-62526000D01*
X155352000Y-62520000D01*
X155361000Y-62515000D01*
X155369000Y-62509000D01*
X155378000Y-62505000D01*
X155387000Y-62500000D01*
X155396000Y-62497000D01*
X155405000Y-62493000D01*
X155415000Y-62490000D01*
X155424000Y-62488000D01*
X155434000Y-62486000D01*
X155444000Y-62485000D01*
X155454000Y-62484000D01*
X155464000Y-62484000D01*
X155474000Y-62484000D01*
X155484000Y-62485000D01*
G36*
X155484000Y-62485000D02*
G01*
X155494000Y-62486000D01*
X155504000Y-62488000D01*
X155513000Y-62490000D01*
X155523000Y-62493000D01*
X155532000Y-62497000D01*
X155541000Y-62500000D01*
X155550000Y-62505000D01*
X155559000Y-62509000D01*
X155567000Y-62515000D01*
X155576000Y-62520000D01*
X155584000Y-62526000D01*
X155591000Y-62533000D01*
X155598000Y-62540000D01*
X155605000Y-62547000D01*
X155612000Y-62554000D01*
X155618000Y-62562000D01*
X155623000Y-62571000D01*
X155629000Y-62579000D01*
X155633000Y-62588000D01*
X155638000Y-62597000D01*
X155641000Y-62606000D01*
X155645000Y-62615000D01*
X155648000Y-62625000D01*
X155650000Y-62634000D01*
X155652000Y-62644000D01*
X155653000Y-62654000D01*
X155654000Y-62664000D01*
X155654000Y-62674000D01*
X155654000Y-63034000D01*
X155654000Y-63044000D01*
X155653000Y-63054000D01*
X155652000Y-63064000D01*
X155650000Y-63074000D01*
X155648000Y-63083000D01*
X155645000Y-63093000D01*
X155641000Y-63102000D01*
X155638000Y-63111000D01*
X155633000Y-63120000D01*
X155629000Y-63129000D01*
X155623000Y-63137000D01*
X155618000Y-63146000D01*
X155612000Y-63154000D01*
X155605000Y-63161000D01*
X155598000Y-63168000D01*
X155591000Y-63175000D01*
X155584000Y-63182000D01*
X155576000Y-63188000D01*
X155567000Y-63193000D01*
X155559000Y-63199000D01*
X155550000Y-63203000D01*
X155541000Y-63208000D01*
X155532000Y-63211000D01*
X155523000Y-63215000D01*
X155513000Y-63218000D01*
X155504000Y-63220000D01*
X155494000Y-63222000D01*
X155484000Y-63223000D01*
X155474000Y-63224000D01*
X155464000Y-63224000D01*
X155454000Y-63224000D01*
X155444000Y-63223000D01*
X155434000Y-63222000D01*
X155424000Y-63220000D01*
X155415000Y-63218000D01*
X155405000Y-63215000D01*
X155396000Y-63211000D01*
X155387000Y-63208000D01*
X155378000Y-63203000D01*
X155369000Y-63199000D01*
X155361000Y-63193000D01*
X155352000Y-63188000D01*
X155344000Y-63182000D01*
X155337000Y-63175000D01*
X155330000Y-63168000D01*
X155323000Y-63161000D01*
X155316000Y-63154000D01*
X155310000Y-63146000D01*
X155305000Y-63137000D01*
X155299000Y-63129000D01*
X155295000Y-63120000D01*
X155290000Y-63111000D01*
X155287000Y-63102000D01*
X155283000Y-63093000D01*
X155280000Y-63083000D01*
X155278000Y-63074000D01*
X155276000Y-63064000D01*
X155275000Y-63054000D01*
X155274000Y-63044000D01*
X155274000Y-63034000D01*
X155274000Y-62674000D01*
X155274000Y-62664000D01*
X155275000Y-62654000D01*
X155276000Y-62644000D01*
X155278000Y-62634000D01*
X155280000Y-62625000D01*
X155283000Y-62615000D01*
X155287000Y-62606000D01*
X155290000Y-62597000D01*
X155295000Y-62588000D01*
X155299000Y-62579000D01*
X155305000Y-62571000D01*
X155310000Y-62562000D01*
X155316000Y-62554000D01*
X155323000Y-62547000D01*
X155330000Y-62540000D01*
X155337000Y-62533000D01*
X155344000Y-62526000D01*
X155352000Y-62520000D01*
X155361000Y-62515000D01*
X155369000Y-62509000D01*
X155378000Y-62505000D01*
X155387000Y-62500000D01*
X155396000Y-62497000D01*
X155405000Y-62493000D01*
X155415000Y-62490000D01*
X155424000Y-62488000D01*
X155434000Y-62486000D01*
X155444000Y-62485000D01*
X155454000Y-62484000D01*
X155464000Y-62484000D01*
X155474000Y-62484000D01*
X155484000Y-62485000D01*
G37*
X155984000Y-62485000D02*
X155994000Y-62486000D01*
X156004000Y-62488000D01*
X156013000Y-62490000D01*
X156023000Y-62493000D01*
X156032000Y-62497000D01*
X156041000Y-62500000D01*
X156050000Y-62505000D01*
X156059000Y-62509000D01*
X156067000Y-62515000D01*
X156076000Y-62520000D01*
X156084000Y-62526000D01*
X156091000Y-62533000D01*
X156098000Y-62540000D01*
X156105000Y-62547000D01*
X156112000Y-62554000D01*
X156118000Y-62562000D01*
X156123000Y-62571000D01*
X156129000Y-62579000D01*
X156133000Y-62588000D01*
X156138000Y-62597000D01*
X156141000Y-62606000D01*
X156145000Y-62615000D01*
X156148000Y-62625000D01*
X156150000Y-62634000D01*
X156152000Y-62644000D01*
X156153000Y-62654000D01*
X156154000Y-62664000D01*
X156154000Y-62674000D01*
X156154000Y-63034000D01*
X156154000Y-63044000D01*
X156153000Y-63054000D01*
X156152000Y-63064000D01*
X156150000Y-63074000D01*
X156148000Y-63083000D01*
X156145000Y-63093000D01*
X156141000Y-63102000D01*
X156138000Y-63111000D01*
X156133000Y-63120000D01*
X156129000Y-63129000D01*
X156123000Y-63137000D01*
X156118000Y-63146000D01*
X156112000Y-63154000D01*
X156105000Y-63161000D01*
X156098000Y-63168000D01*
X156091000Y-63175000D01*
X156084000Y-63182000D01*
X156076000Y-63188000D01*
X156067000Y-63193000D01*
X156059000Y-63199000D01*
X156050000Y-63203000D01*
X156041000Y-63208000D01*
X156032000Y-63211000D01*
X156023000Y-63215000D01*
X156013000Y-63218000D01*
X156004000Y-63220000D01*
X155994000Y-63222000D01*
X155984000Y-63223000D01*
X155974000Y-63224000D01*
X155964000Y-63224000D01*
X155954000Y-63224000D01*
X155944000Y-63223000D01*
X155934000Y-63222000D01*
X155924000Y-63220000D01*
X155915000Y-63218000D01*
X155905000Y-63215000D01*
X155896000Y-63211000D01*
X155887000Y-63208000D01*
X155878000Y-63203000D01*
X155869000Y-63199000D01*
X155861000Y-63193000D01*
X155852000Y-63188000D01*
X155844000Y-63182000D01*
X155837000Y-63175000D01*
X155830000Y-63168000D01*
X155823000Y-63161000D01*
X155816000Y-63154000D01*
X155810000Y-63146000D01*
X155805000Y-63137000D01*
X155799000Y-63129000D01*
X155795000Y-63120000D01*
X155790000Y-63111000D01*
X155787000Y-63102000D01*
X155783000Y-63093000D01*
X155780000Y-63083000D01*
X155778000Y-63074000D01*
X155776000Y-63064000D01*
X155775000Y-63054000D01*
X155774000Y-63044000D01*
X155774000Y-63034000D01*
X155774000Y-62674000D01*
X155774000Y-62664000D01*
X155775000Y-62654000D01*
X155776000Y-62644000D01*
X155778000Y-62634000D01*
X155780000Y-62625000D01*
X155783000Y-62615000D01*
X155787000Y-62606000D01*
X155790000Y-62597000D01*
X155795000Y-62588000D01*
X155799000Y-62579000D01*
X155805000Y-62571000D01*
X155810000Y-62562000D01*
X155816000Y-62554000D01*
X155823000Y-62547000D01*
X155830000Y-62540000D01*
X155837000Y-62533000D01*
X155844000Y-62526000D01*
X155852000Y-62520000D01*
X155861000Y-62515000D01*
X155869000Y-62509000D01*
X155878000Y-62505000D01*
X155887000Y-62500000D01*
X155896000Y-62497000D01*
X155905000Y-62493000D01*
X155915000Y-62490000D01*
X155924000Y-62488000D01*
X155934000Y-62486000D01*
X155944000Y-62485000D01*
X155954000Y-62484000D01*
X155964000Y-62484000D01*
X155974000Y-62484000D01*
X155984000Y-62485000D01*
G36*
X155984000Y-62485000D02*
G01*
X155994000Y-62486000D01*
X156004000Y-62488000D01*
X156013000Y-62490000D01*
X156023000Y-62493000D01*
X156032000Y-62497000D01*
X156041000Y-62500000D01*
X156050000Y-62505000D01*
X156059000Y-62509000D01*
X156067000Y-62515000D01*
X156076000Y-62520000D01*
X156084000Y-62526000D01*
X156091000Y-62533000D01*
X156098000Y-62540000D01*
X156105000Y-62547000D01*
X156112000Y-62554000D01*
X156118000Y-62562000D01*
X156123000Y-62571000D01*
X156129000Y-62579000D01*
X156133000Y-62588000D01*
X156138000Y-62597000D01*
X156141000Y-62606000D01*
X156145000Y-62615000D01*
X156148000Y-62625000D01*
X156150000Y-62634000D01*
X156152000Y-62644000D01*
X156153000Y-62654000D01*
X156154000Y-62664000D01*
X156154000Y-62674000D01*
X156154000Y-63034000D01*
X156154000Y-63044000D01*
X156153000Y-63054000D01*
X156152000Y-63064000D01*
X156150000Y-63074000D01*
X156148000Y-63083000D01*
X156145000Y-63093000D01*
X156141000Y-63102000D01*
X156138000Y-63111000D01*
X156133000Y-63120000D01*
X156129000Y-63129000D01*
X156123000Y-63137000D01*
X156118000Y-63146000D01*
X156112000Y-63154000D01*
X156105000Y-63161000D01*
X156098000Y-63168000D01*
X156091000Y-63175000D01*
X156084000Y-63182000D01*
X156076000Y-63188000D01*
X156067000Y-63193000D01*
X156059000Y-63199000D01*
X156050000Y-63203000D01*
X156041000Y-63208000D01*
X156032000Y-63211000D01*
X156023000Y-63215000D01*
X156013000Y-63218000D01*
X156004000Y-63220000D01*
X155994000Y-63222000D01*
X155984000Y-63223000D01*
X155974000Y-63224000D01*
X155964000Y-63224000D01*
X155954000Y-63224000D01*
X155944000Y-63223000D01*
X155934000Y-63222000D01*
X155924000Y-63220000D01*
X155915000Y-63218000D01*
X155905000Y-63215000D01*
X155896000Y-63211000D01*
X155887000Y-63208000D01*
X155878000Y-63203000D01*
X155869000Y-63199000D01*
X155861000Y-63193000D01*
X155852000Y-63188000D01*
X155844000Y-63182000D01*
X155837000Y-63175000D01*
X155830000Y-63168000D01*
X155823000Y-63161000D01*
X155816000Y-63154000D01*
X155810000Y-63146000D01*
X155805000Y-63137000D01*
X155799000Y-63129000D01*
X155795000Y-63120000D01*
X155790000Y-63111000D01*
X155787000Y-63102000D01*
X155783000Y-63093000D01*
X155780000Y-63083000D01*
X155778000Y-63074000D01*
X155776000Y-63064000D01*
X155775000Y-63054000D01*
X155774000Y-63044000D01*
X155774000Y-63034000D01*
X155774000Y-62674000D01*
X155774000Y-62664000D01*
X155775000Y-62654000D01*
X155776000Y-62644000D01*
X155778000Y-62634000D01*
X155780000Y-62625000D01*
X155783000Y-62615000D01*
X155787000Y-62606000D01*
X155790000Y-62597000D01*
X155795000Y-62588000D01*
X155799000Y-62579000D01*
X155805000Y-62571000D01*
X155810000Y-62562000D01*
X155816000Y-62554000D01*
X155823000Y-62547000D01*
X155830000Y-62540000D01*
X155837000Y-62533000D01*
X155844000Y-62526000D01*
X155852000Y-62520000D01*
X155861000Y-62515000D01*
X155869000Y-62509000D01*
X155878000Y-62505000D01*
X155887000Y-62500000D01*
X155896000Y-62497000D01*
X155905000Y-62493000D01*
X155915000Y-62490000D01*
X155924000Y-62488000D01*
X155934000Y-62486000D01*
X155944000Y-62485000D01*
X155954000Y-62484000D01*
X155964000Y-62484000D01*
X155974000Y-62484000D01*
X155984000Y-62485000D01*
G37*
X156484000Y-62485000D02*
X156494000Y-62486000D01*
X156504000Y-62488000D01*
X156513000Y-62490000D01*
X156523000Y-62493000D01*
X156532000Y-62497000D01*
X156541000Y-62500000D01*
X156550000Y-62505000D01*
X156559000Y-62509000D01*
X156567000Y-62515000D01*
X156576000Y-62520000D01*
X156584000Y-62526000D01*
X156591000Y-62533000D01*
X156598000Y-62540000D01*
X156605000Y-62547000D01*
X156612000Y-62554000D01*
X156618000Y-62562000D01*
X156623000Y-62571000D01*
X156629000Y-62579000D01*
X156633000Y-62588000D01*
X156638000Y-62597000D01*
X156641000Y-62606000D01*
X156645000Y-62615000D01*
X156648000Y-62625000D01*
X156650000Y-62634000D01*
X156652000Y-62644000D01*
X156653000Y-62654000D01*
X156654000Y-62664000D01*
X156654000Y-62674000D01*
X156654000Y-63034000D01*
X156654000Y-63044000D01*
X156653000Y-63054000D01*
X156652000Y-63064000D01*
X156650000Y-63074000D01*
X156648000Y-63083000D01*
X156645000Y-63093000D01*
X156641000Y-63102000D01*
X156638000Y-63111000D01*
X156633000Y-63120000D01*
X156629000Y-63129000D01*
X156623000Y-63137000D01*
X156618000Y-63146000D01*
X156612000Y-63154000D01*
X156605000Y-63161000D01*
X156598000Y-63168000D01*
X156591000Y-63175000D01*
X156584000Y-63182000D01*
X156576000Y-63188000D01*
X156567000Y-63193000D01*
X156559000Y-63199000D01*
X156550000Y-63203000D01*
X156541000Y-63208000D01*
X156532000Y-63211000D01*
X156523000Y-63215000D01*
X156513000Y-63218000D01*
X156504000Y-63220000D01*
X156494000Y-63222000D01*
X156484000Y-63223000D01*
X156474000Y-63224000D01*
X156464000Y-63224000D01*
X156454000Y-63224000D01*
X156444000Y-63223000D01*
X156434000Y-63222000D01*
X156424000Y-63220000D01*
X156415000Y-63218000D01*
X156405000Y-63215000D01*
X156396000Y-63211000D01*
X156387000Y-63208000D01*
X156378000Y-63203000D01*
X156369000Y-63199000D01*
X156361000Y-63193000D01*
X156352000Y-63188000D01*
X156344000Y-63182000D01*
X156337000Y-63175000D01*
X156330000Y-63168000D01*
X156323000Y-63161000D01*
X156316000Y-63154000D01*
X156310000Y-63146000D01*
X156305000Y-63137000D01*
X156299000Y-63129000D01*
X156295000Y-63120000D01*
X156290000Y-63111000D01*
X156287000Y-63102000D01*
X156283000Y-63093000D01*
X156280000Y-63083000D01*
X156278000Y-63074000D01*
X156276000Y-63064000D01*
X156275000Y-63054000D01*
X156274000Y-63044000D01*
X156274000Y-63034000D01*
X156274000Y-62674000D01*
X156274000Y-62664000D01*
X156275000Y-62654000D01*
X156276000Y-62644000D01*
X156278000Y-62634000D01*
X156280000Y-62625000D01*
X156283000Y-62615000D01*
X156287000Y-62606000D01*
X156290000Y-62597000D01*
X156295000Y-62588000D01*
X156299000Y-62579000D01*
X156305000Y-62571000D01*
X156310000Y-62562000D01*
X156316000Y-62554000D01*
X156323000Y-62547000D01*
X156330000Y-62540000D01*
X156337000Y-62533000D01*
X156344000Y-62526000D01*
X156352000Y-62520000D01*
X156361000Y-62515000D01*
X156369000Y-62509000D01*
X156378000Y-62505000D01*
X156387000Y-62500000D01*
X156396000Y-62497000D01*
X156405000Y-62493000D01*
X156415000Y-62490000D01*
X156424000Y-62488000D01*
X156434000Y-62486000D01*
X156444000Y-62485000D01*
X156454000Y-62484000D01*
X156464000Y-62484000D01*
X156474000Y-62484000D01*
X156484000Y-62485000D01*
G36*
X156484000Y-62485000D02*
G01*
X156494000Y-62486000D01*
X156504000Y-62488000D01*
X156513000Y-62490000D01*
X156523000Y-62493000D01*
X156532000Y-62497000D01*
X156541000Y-62500000D01*
X156550000Y-62505000D01*
X156559000Y-62509000D01*
X156567000Y-62515000D01*
X156576000Y-62520000D01*
X156584000Y-62526000D01*
X156591000Y-62533000D01*
X156598000Y-62540000D01*
X156605000Y-62547000D01*
X156612000Y-62554000D01*
X156618000Y-62562000D01*
X156623000Y-62571000D01*
X156629000Y-62579000D01*
X156633000Y-62588000D01*
X156638000Y-62597000D01*
X156641000Y-62606000D01*
X156645000Y-62615000D01*
X156648000Y-62625000D01*
X156650000Y-62634000D01*
X156652000Y-62644000D01*
X156653000Y-62654000D01*
X156654000Y-62664000D01*
X156654000Y-62674000D01*
X156654000Y-63034000D01*
X156654000Y-63044000D01*
X156653000Y-63054000D01*
X156652000Y-63064000D01*
X156650000Y-63074000D01*
X156648000Y-63083000D01*
X156645000Y-63093000D01*
X156641000Y-63102000D01*
X156638000Y-63111000D01*
X156633000Y-63120000D01*
X156629000Y-63129000D01*
X156623000Y-63137000D01*
X156618000Y-63146000D01*
X156612000Y-63154000D01*
X156605000Y-63161000D01*
X156598000Y-63168000D01*
X156591000Y-63175000D01*
X156584000Y-63182000D01*
X156576000Y-63188000D01*
X156567000Y-63193000D01*
X156559000Y-63199000D01*
X156550000Y-63203000D01*
X156541000Y-63208000D01*
X156532000Y-63211000D01*
X156523000Y-63215000D01*
X156513000Y-63218000D01*
X156504000Y-63220000D01*
X156494000Y-63222000D01*
X156484000Y-63223000D01*
X156474000Y-63224000D01*
X156464000Y-63224000D01*
X156454000Y-63224000D01*
X156444000Y-63223000D01*
X156434000Y-63222000D01*
X156424000Y-63220000D01*
X156415000Y-63218000D01*
X156405000Y-63215000D01*
X156396000Y-63211000D01*
X156387000Y-63208000D01*
X156378000Y-63203000D01*
X156369000Y-63199000D01*
X156361000Y-63193000D01*
X156352000Y-63188000D01*
X156344000Y-63182000D01*
X156337000Y-63175000D01*
X156330000Y-63168000D01*
X156323000Y-63161000D01*
X156316000Y-63154000D01*
X156310000Y-63146000D01*
X156305000Y-63137000D01*
X156299000Y-63129000D01*
X156295000Y-63120000D01*
X156290000Y-63111000D01*
X156287000Y-63102000D01*
X156283000Y-63093000D01*
X156280000Y-63083000D01*
X156278000Y-63074000D01*
X156276000Y-63064000D01*
X156275000Y-63054000D01*
X156274000Y-63044000D01*
X156274000Y-63034000D01*
X156274000Y-62674000D01*
X156274000Y-62664000D01*
X156275000Y-62654000D01*
X156276000Y-62644000D01*
X156278000Y-62634000D01*
X156280000Y-62625000D01*
X156283000Y-62615000D01*
X156287000Y-62606000D01*
X156290000Y-62597000D01*
X156295000Y-62588000D01*
X156299000Y-62579000D01*
X156305000Y-62571000D01*
X156310000Y-62562000D01*
X156316000Y-62554000D01*
X156323000Y-62547000D01*
X156330000Y-62540000D01*
X156337000Y-62533000D01*
X156344000Y-62526000D01*
X156352000Y-62520000D01*
X156361000Y-62515000D01*
X156369000Y-62509000D01*
X156378000Y-62505000D01*
X156387000Y-62500000D01*
X156396000Y-62497000D01*
X156405000Y-62493000D01*
X156415000Y-62490000D01*
X156424000Y-62488000D01*
X156434000Y-62486000D01*
X156444000Y-62485000D01*
X156454000Y-62484000D01*
X156464000Y-62484000D01*
X156474000Y-62484000D01*
X156484000Y-62485000D01*
G37*
X156984000Y-62485000D02*
X156994000Y-62486000D01*
X157004000Y-62488000D01*
X157013000Y-62490000D01*
X157023000Y-62493000D01*
X157032000Y-62497000D01*
X157041000Y-62500000D01*
X157050000Y-62505000D01*
X157059000Y-62509000D01*
X157067000Y-62515000D01*
X157076000Y-62520000D01*
X157084000Y-62526000D01*
X157091000Y-62533000D01*
X157098000Y-62540000D01*
X157105000Y-62547000D01*
X157112000Y-62554000D01*
X157118000Y-62562000D01*
X157123000Y-62571000D01*
X157129000Y-62579000D01*
X157133000Y-62588000D01*
X157138000Y-62597000D01*
X157141000Y-62606000D01*
X157145000Y-62615000D01*
X157148000Y-62625000D01*
X157150000Y-62634000D01*
X157152000Y-62644000D01*
X157153000Y-62654000D01*
X157154000Y-62664000D01*
X157154000Y-62674000D01*
X157154000Y-63034000D01*
X157154000Y-63044000D01*
X157153000Y-63054000D01*
X157152000Y-63064000D01*
X157150000Y-63074000D01*
X157148000Y-63083000D01*
X157145000Y-63093000D01*
X157141000Y-63102000D01*
X157138000Y-63111000D01*
X157133000Y-63120000D01*
X157129000Y-63129000D01*
X157123000Y-63137000D01*
X157118000Y-63146000D01*
X157112000Y-63154000D01*
X157105000Y-63161000D01*
X157098000Y-63168000D01*
X157091000Y-63175000D01*
X157084000Y-63182000D01*
X157076000Y-63188000D01*
X157067000Y-63193000D01*
X157059000Y-63199000D01*
X157050000Y-63203000D01*
X157041000Y-63208000D01*
X157032000Y-63211000D01*
X157023000Y-63215000D01*
X157013000Y-63218000D01*
X157004000Y-63220000D01*
X156994000Y-63222000D01*
X156984000Y-63223000D01*
X156974000Y-63224000D01*
X156964000Y-63224000D01*
X156954000Y-63224000D01*
X156944000Y-63223000D01*
X156934000Y-63222000D01*
X156924000Y-63220000D01*
X156915000Y-63218000D01*
X156905000Y-63215000D01*
X156896000Y-63211000D01*
X156887000Y-63208000D01*
X156878000Y-63203000D01*
X156869000Y-63199000D01*
X156861000Y-63193000D01*
X156852000Y-63188000D01*
X156844000Y-63182000D01*
X156837000Y-63175000D01*
X156830000Y-63168000D01*
X156823000Y-63161000D01*
X156816000Y-63154000D01*
X156810000Y-63146000D01*
X156805000Y-63137000D01*
X156799000Y-63129000D01*
X156795000Y-63120000D01*
X156790000Y-63111000D01*
X156787000Y-63102000D01*
X156783000Y-63093000D01*
X156780000Y-63083000D01*
X156778000Y-63074000D01*
X156776000Y-63064000D01*
X156775000Y-63054000D01*
X156774000Y-63044000D01*
X156774000Y-63034000D01*
X156774000Y-62674000D01*
X156774000Y-62664000D01*
X156775000Y-62654000D01*
X156776000Y-62644000D01*
X156778000Y-62634000D01*
X156780000Y-62625000D01*
X156783000Y-62615000D01*
X156787000Y-62606000D01*
X156790000Y-62597000D01*
X156795000Y-62588000D01*
X156799000Y-62579000D01*
X156805000Y-62571000D01*
X156810000Y-62562000D01*
X156816000Y-62554000D01*
X156823000Y-62547000D01*
X156830000Y-62540000D01*
X156837000Y-62533000D01*
X156844000Y-62526000D01*
X156852000Y-62520000D01*
X156861000Y-62515000D01*
X156869000Y-62509000D01*
X156878000Y-62505000D01*
X156887000Y-62500000D01*
X156896000Y-62497000D01*
X156905000Y-62493000D01*
X156915000Y-62490000D01*
X156924000Y-62488000D01*
X156934000Y-62486000D01*
X156944000Y-62485000D01*
X156954000Y-62484000D01*
X156964000Y-62484000D01*
X156974000Y-62484000D01*
X156984000Y-62485000D01*
G36*
X156984000Y-62485000D02*
G01*
X156994000Y-62486000D01*
X157004000Y-62488000D01*
X157013000Y-62490000D01*
X157023000Y-62493000D01*
X157032000Y-62497000D01*
X157041000Y-62500000D01*
X157050000Y-62505000D01*
X157059000Y-62509000D01*
X157067000Y-62515000D01*
X157076000Y-62520000D01*
X157084000Y-62526000D01*
X157091000Y-62533000D01*
X157098000Y-62540000D01*
X157105000Y-62547000D01*
X157112000Y-62554000D01*
X157118000Y-62562000D01*
X157123000Y-62571000D01*
X157129000Y-62579000D01*
X157133000Y-62588000D01*
X157138000Y-62597000D01*
X157141000Y-62606000D01*
X157145000Y-62615000D01*
X157148000Y-62625000D01*
X157150000Y-62634000D01*
X157152000Y-62644000D01*
X157153000Y-62654000D01*
X157154000Y-62664000D01*
X157154000Y-62674000D01*
X157154000Y-63034000D01*
X157154000Y-63044000D01*
X157153000Y-63054000D01*
X157152000Y-63064000D01*
X157150000Y-63074000D01*
X157148000Y-63083000D01*
X157145000Y-63093000D01*
X157141000Y-63102000D01*
X157138000Y-63111000D01*
X157133000Y-63120000D01*
X157129000Y-63129000D01*
X157123000Y-63137000D01*
X157118000Y-63146000D01*
X157112000Y-63154000D01*
X157105000Y-63161000D01*
X157098000Y-63168000D01*
X157091000Y-63175000D01*
X157084000Y-63182000D01*
X157076000Y-63188000D01*
X157067000Y-63193000D01*
X157059000Y-63199000D01*
X157050000Y-63203000D01*
X157041000Y-63208000D01*
X157032000Y-63211000D01*
X157023000Y-63215000D01*
X157013000Y-63218000D01*
X157004000Y-63220000D01*
X156994000Y-63222000D01*
X156984000Y-63223000D01*
X156974000Y-63224000D01*
X156964000Y-63224000D01*
X156954000Y-63224000D01*
X156944000Y-63223000D01*
X156934000Y-63222000D01*
X156924000Y-63220000D01*
X156915000Y-63218000D01*
X156905000Y-63215000D01*
X156896000Y-63211000D01*
X156887000Y-63208000D01*
X156878000Y-63203000D01*
X156869000Y-63199000D01*
X156861000Y-63193000D01*
X156852000Y-63188000D01*
X156844000Y-63182000D01*
X156837000Y-63175000D01*
X156830000Y-63168000D01*
X156823000Y-63161000D01*
X156816000Y-63154000D01*
X156810000Y-63146000D01*
X156805000Y-63137000D01*
X156799000Y-63129000D01*
X156795000Y-63120000D01*
X156790000Y-63111000D01*
X156787000Y-63102000D01*
X156783000Y-63093000D01*
X156780000Y-63083000D01*
X156778000Y-63074000D01*
X156776000Y-63064000D01*
X156775000Y-63054000D01*
X156774000Y-63044000D01*
X156774000Y-63034000D01*
X156774000Y-62674000D01*
X156774000Y-62664000D01*
X156775000Y-62654000D01*
X156776000Y-62644000D01*
X156778000Y-62634000D01*
X156780000Y-62625000D01*
X156783000Y-62615000D01*
X156787000Y-62606000D01*
X156790000Y-62597000D01*
X156795000Y-62588000D01*
X156799000Y-62579000D01*
X156805000Y-62571000D01*
X156810000Y-62562000D01*
X156816000Y-62554000D01*
X156823000Y-62547000D01*
X156830000Y-62540000D01*
X156837000Y-62533000D01*
X156844000Y-62526000D01*
X156852000Y-62520000D01*
X156861000Y-62515000D01*
X156869000Y-62509000D01*
X156878000Y-62505000D01*
X156887000Y-62500000D01*
X156896000Y-62497000D01*
X156905000Y-62493000D01*
X156915000Y-62490000D01*
X156924000Y-62488000D01*
X156934000Y-62486000D01*
X156944000Y-62485000D01*
X156954000Y-62484000D01*
X156964000Y-62484000D01*
X156974000Y-62484000D01*
X156984000Y-62485000D01*
G37*
X157484000Y-62485000D02*
X157494000Y-62486000D01*
X157504000Y-62488000D01*
X157513000Y-62490000D01*
X157523000Y-62493000D01*
X157532000Y-62497000D01*
X157541000Y-62500000D01*
X157550000Y-62505000D01*
X157559000Y-62509000D01*
X157567000Y-62515000D01*
X157576000Y-62520000D01*
X157584000Y-62526000D01*
X157591000Y-62533000D01*
X157598000Y-62540000D01*
X157605000Y-62547000D01*
X157612000Y-62554000D01*
X157618000Y-62562000D01*
X157623000Y-62571000D01*
X157629000Y-62579000D01*
X157633000Y-62588000D01*
X157638000Y-62597000D01*
X157641000Y-62606000D01*
X157645000Y-62615000D01*
X157648000Y-62625000D01*
X157650000Y-62634000D01*
X157652000Y-62644000D01*
X157653000Y-62654000D01*
X157654000Y-62664000D01*
X157654000Y-62674000D01*
X157654000Y-63034000D01*
X157654000Y-63044000D01*
X157653000Y-63054000D01*
X157652000Y-63064000D01*
X157650000Y-63074000D01*
X157648000Y-63083000D01*
X157645000Y-63093000D01*
X157641000Y-63102000D01*
X157638000Y-63111000D01*
X157633000Y-63120000D01*
X157629000Y-63129000D01*
X157623000Y-63137000D01*
X157618000Y-63146000D01*
X157612000Y-63154000D01*
X157605000Y-63161000D01*
X157598000Y-63168000D01*
X157591000Y-63175000D01*
X157584000Y-63182000D01*
X157576000Y-63188000D01*
X157567000Y-63193000D01*
X157559000Y-63199000D01*
X157550000Y-63203000D01*
X157541000Y-63208000D01*
X157532000Y-63211000D01*
X157523000Y-63215000D01*
X157513000Y-63218000D01*
X157504000Y-63220000D01*
X157494000Y-63222000D01*
X157484000Y-63223000D01*
X157474000Y-63224000D01*
X157464000Y-63224000D01*
X157454000Y-63224000D01*
X157444000Y-63223000D01*
X157434000Y-63222000D01*
X157424000Y-63220000D01*
X157415000Y-63218000D01*
X157405000Y-63215000D01*
X157396000Y-63211000D01*
X157387000Y-63208000D01*
X157378000Y-63203000D01*
X157369000Y-63199000D01*
X157361000Y-63193000D01*
X157352000Y-63188000D01*
X157344000Y-63182000D01*
X157337000Y-63175000D01*
X157330000Y-63168000D01*
X157323000Y-63161000D01*
X157316000Y-63154000D01*
X157310000Y-63146000D01*
X157305000Y-63137000D01*
X157299000Y-63129000D01*
X157295000Y-63120000D01*
X157290000Y-63111000D01*
X157287000Y-63102000D01*
X157283000Y-63093000D01*
X157280000Y-63083000D01*
X157278000Y-63074000D01*
X157276000Y-63064000D01*
X157275000Y-63054000D01*
X157274000Y-63044000D01*
X157274000Y-63034000D01*
X157274000Y-62674000D01*
X157274000Y-62664000D01*
X157275000Y-62654000D01*
X157276000Y-62644000D01*
X157278000Y-62634000D01*
X157280000Y-62625000D01*
X157283000Y-62615000D01*
X157287000Y-62606000D01*
X157290000Y-62597000D01*
X157295000Y-62588000D01*
X157299000Y-62579000D01*
X157305000Y-62571000D01*
X157310000Y-62562000D01*
X157316000Y-62554000D01*
X157323000Y-62547000D01*
X157330000Y-62540000D01*
X157337000Y-62533000D01*
X157344000Y-62526000D01*
X157352000Y-62520000D01*
X157361000Y-62515000D01*
X157369000Y-62509000D01*
X157378000Y-62505000D01*
X157387000Y-62500000D01*
X157396000Y-62497000D01*
X157405000Y-62493000D01*
X157415000Y-62490000D01*
X157424000Y-62488000D01*
X157434000Y-62486000D01*
X157444000Y-62485000D01*
X157454000Y-62484000D01*
X157464000Y-62484000D01*
X157474000Y-62484000D01*
X157484000Y-62485000D01*
G36*
X157484000Y-62485000D02*
G01*
X157494000Y-62486000D01*
X157504000Y-62488000D01*
X157513000Y-62490000D01*
X157523000Y-62493000D01*
X157532000Y-62497000D01*
X157541000Y-62500000D01*
X157550000Y-62505000D01*
X157559000Y-62509000D01*
X157567000Y-62515000D01*
X157576000Y-62520000D01*
X157584000Y-62526000D01*
X157591000Y-62533000D01*
X157598000Y-62540000D01*
X157605000Y-62547000D01*
X157612000Y-62554000D01*
X157618000Y-62562000D01*
X157623000Y-62571000D01*
X157629000Y-62579000D01*
X157633000Y-62588000D01*
X157638000Y-62597000D01*
X157641000Y-62606000D01*
X157645000Y-62615000D01*
X157648000Y-62625000D01*
X157650000Y-62634000D01*
X157652000Y-62644000D01*
X157653000Y-62654000D01*
X157654000Y-62664000D01*
X157654000Y-62674000D01*
X157654000Y-63034000D01*
X157654000Y-63044000D01*
X157653000Y-63054000D01*
X157652000Y-63064000D01*
X157650000Y-63074000D01*
X157648000Y-63083000D01*
X157645000Y-63093000D01*
X157641000Y-63102000D01*
X157638000Y-63111000D01*
X157633000Y-63120000D01*
X157629000Y-63129000D01*
X157623000Y-63137000D01*
X157618000Y-63146000D01*
X157612000Y-63154000D01*
X157605000Y-63161000D01*
X157598000Y-63168000D01*
X157591000Y-63175000D01*
X157584000Y-63182000D01*
X157576000Y-63188000D01*
X157567000Y-63193000D01*
X157559000Y-63199000D01*
X157550000Y-63203000D01*
X157541000Y-63208000D01*
X157532000Y-63211000D01*
X157523000Y-63215000D01*
X157513000Y-63218000D01*
X157504000Y-63220000D01*
X157494000Y-63222000D01*
X157484000Y-63223000D01*
X157474000Y-63224000D01*
X157464000Y-63224000D01*
X157454000Y-63224000D01*
X157444000Y-63223000D01*
X157434000Y-63222000D01*
X157424000Y-63220000D01*
X157415000Y-63218000D01*
X157405000Y-63215000D01*
X157396000Y-63211000D01*
X157387000Y-63208000D01*
X157378000Y-63203000D01*
X157369000Y-63199000D01*
X157361000Y-63193000D01*
X157352000Y-63188000D01*
X157344000Y-63182000D01*
X157337000Y-63175000D01*
X157330000Y-63168000D01*
X157323000Y-63161000D01*
X157316000Y-63154000D01*
X157310000Y-63146000D01*
X157305000Y-63137000D01*
X157299000Y-63129000D01*
X157295000Y-63120000D01*
X157290000Y-63111000D01*
X157287000Y-63102000D01*
X157283000Y-63093000D01*
X157280000Y-63083000D01*
X157278000Y-63074000D01*
X157276000Y-63064000D01*
X157275000Y-63054000D01*
X157274000Y-63044000D01*
X157274000Y-63034000D01*
X157274000Y-62674000D01*
X157274000Y-62664000D01*
X157275000Y-62654000D01*
X157276000Y-62644000D01*
X157278000Y-62634000D01*
X157280000Y-62625000D01*
X157283000Y-62615000D01*
X157287000Y-62606000D01*
X157290000Y-62597000D01*
X157295000Y-62588000D01*
X157299000Y-62579000D01*
X157305000Y-62571000D01*
X157310000Y-62562000D01*
X157316000Y-62554000D01*
X157323000Y-62547000D01*
X157330000Y-62540000D01*
X157337000Y-62533000D01*
X157344000Y-62526000D01*
X157352000Y-62520000D01*
X157361000Y-62515000D01*
X157369000Y-62509000D01*
X157378000Y-62505000D01*
X157387000Y-62500000D01*
X157396000Y-62497000D01*
X157405000Y-62493000D01*
X157415000Y-62490000D01*
X157424000Y-62488000D01*
X157434000Y-62486000D01*
X157444000Y-62485000D01*
X157454000Y-62484000D01*
X157464000Y-62484000D01*
X157474000Y-62484000D01*
X157484000Y-62485000D01*
G37*
X157984000Y-62485000D02*
X157994000Y-62486000D01*
X158004000Y-62488000D01*
X158013000Y-62490000D01*
X158023000Y-62493000D01*
X158032000Y-62497000D01*
X158041000Y-62500000D01*
X158050000Y-62505000D01*
X158059000Y-62509000D01*
X158067000Y-62515000D01*
X158076000Y-62520000D01*
X158084000Y-62526000D01*
X158091000Y-62533000D01*
X158098000Y-62540000D01*
X158105000Y-62547000D01*
X158112000Y-62554000D01*
X158118000Y-62562000D01*
X158123000Y-62571000D01*
X158129000Y-62579000D01*
X158133000Y-62588000D01*
X158138000Y-62597000D01*
X158141000Y-62606000D01*
X158145000Y-62615000D01*
X158148000Y-62625000D01*
X158150000Y-62634000D01*
X158152000Y-62644000D01*
X158153000Y-62654000D01*
X158154000Y-62664000D01*
X158154000Y-62674000D01*
X158154000Y-63034000D01*
X158154000Y-63044000D01*
X158153000Y-63054000D01*
X158152000Y-63064000D01*
X158150000Y-63074000D01*
X158148000Y-63083000D01*
X158145000Y-63093000D01*
X158141000Y-63102000D01*
X158138000Y-63111000D01*
X158133000Y-63120000D01*
X158129000Y-63129000D01*
X158123000Y-63137000D01*
X158118000Y-63146000D01*
X158112000Y-63154000D01*
X158105000Y-63161000D01*
X158098000Y-63168000D01*
X158091000Y-63175000D01*
X158084000Y-63182000D01*
X158076000Y-63188000D01*
X158067000Y-63193000D01*
X158059000Y-63199000D01*
X158050000Y-63203000D01*
X158041000Y-63208000D01*
X158032000Y-63211000D01*
X158023000Y-63215000D01*
X158013000Y-63218000D01*
X158004000Y-63220000D01*
X157994000Y-63222000D01*
X157984000Y-63223000D01*
X157974000Y-63224000D01*
X157964000Y-63224000D01*
X157954000Y-63224000D01*
X157944000Y-63223000D01*
X157934000Y-63222000D01*
X157924000Y-63220000D01*
X157915000Y-63218000D01*
X157905000Y-63215000D01*
X157896000Y-63211000D01*
X157887000Y-63208000D01*
X157878000Y-63203000D01*
X157869000Y-63199000D01*
X157861000Y-63193000D01*
X157852000Y-63188000D01*
X157844000Y-63182000D01*
X157837000Y-63175000D01*
X157830000Y-63168000D01*
X157823000Y-63161000D01*
X157816000Y-63154000D01*
X157810000Y-63146000D01*
X157805000Y-63137000D01*
X157799000Y-63129000D01*
X157795000Y-63120000D01*
X157790000Y-63111000D01*
X157787000Y-63102000D01*
X157783000Y-63093000D01*
X157780000Y-63083000D01*
X157778000Y-63074000D01*
X157776000Y-63064000D01*
X157775000Y-63054000D01*
X157774000Y-63044000D01*
X157774000Y-63034000D01*
X157774000Y-62674000D01*
X157774000Y-62664000D01*
X157775000Y-62654000D01*
X157776000Y-62644000D01*
X157778000Y-62634000D01*
X157780000Y-62625000D01*
X157783000Y-62615000D01*
X157787000Y-62606000D01*
X157790000Y-62597000D01*
X157795000Y-62588000D01*
X157799000Y-62579000D01*
X157805000Y-62571000D01*
X157810000Y-62562000D01*
X157816000Y-62554000D01*
X157823000Y-62547000D01*
X157830000Y-62540000D01*
X157837000Y-62533000D01*
X157844000Y-62526000D01*
X157852000Y-62520000D01*
X157861000Y-62515000D01*
X157869000Y-62509000D01*
X157878000Y-62505000D01*
X157887000Y-62500000D01*
X157896000Y-62497000D01*
X157905000Y-62493000D01*
X157915000Y-62490000D01*
X157924000Y-62488000D01*
X157934000Y-62486000D01*
X157944000Y-62485000D01*
X157954000Y-62484000D01*
X157964000Y-62484000D01*
X157974000Y-62484000D01*
X157984000Y-62485000D01*
G36*
X157984000Y-62485000D02*
G01*
X157994000Y-62486000D01*
X158004000Y-62488000D01*
X158013000Y-62490000D01*
X158023000Y-62493000D01*
X158032000Y-62497000D01*
X158041000Y-62500000D01*
X158050000Y-62505000D01*
X158059000Y-62509000D01*
X158067000Y-62515000D01*
X158076000Y-62520000D01*
X158084000Y-62526000D01*
X158091000Y-62533000D01*
X158098000Y-62540000D01*
X158105000Y-62547000D01*
X158112000Y-62554000D01*
X158118000Y-62562000D01*
X158123000Y-62571000D01*
X158129000Y-62579000D01*
X158133000Y-62588000D01*
X158138000Y-62597000D01*
X158141000Y-62606000D01*
X158145000Y-62615000D01*
X158148000Y-62625000D01*
X158150000Y-62634000D01*
X158152000Y-62644000D01*
X158153000Y-62654000D01*
X158154000Y-62664000D01*
X158154000Y-62674000D01*
X158154000Y-63034000D01*
X158154000Y-63044000D01*
X158153000Y-63054000D01*
X158152000Y-63064000D01*
X158150000Y-63074000D01*
X158148000Y-63083000D01*
X158145000Y-63093000D01*
X158141000Y-63102000D01*
X158138000Y-63111000D01*
X158133000Y-63120000D01*
X158129000Y-63129000D01*
X158123000Y-63137000D01*
X158118000Y-63146000D01*
X158112000Y-63154000D01*
X158105000Y-63161000D01*
X158098000Y-63168000D01*
X158091000Y-63175000D01*
X158084000Y-63182000D01*
X158076000Y-63188000D01*
X158067000Y-63193000D01*
X158059000Y-63199000D01*
X158050000Y-63203000D01*
X158041000Y-63208000D01*
X158032000Y-63211000D01*
X158023000Y-63215000D01*
X158013000Y-63218000D01*
X158004000Y-63220000D01*
X157994000Y-63222000D01*
X157984000Y-63223000D01*
X157974000Y-63224000D01*
X157964000Y-63224000D01*
X157954000Y-63224000D01*
X157944000Y-63223000D01*
X157934000Y-63222000D01*
X157924000Y-63220000D01*
X157915000Y-63218000D01*
X157905000Y-63215000D01*
X157896000Y-63211000D01*
X157887000Y-63208000D01*
X157878000Y-63203000D01*
X157869000Y-63199000D01*
X157861000Y-63193000D01*
X157852000Y-63188000D01*
X157844000Y-63182000D01*
X157837000Y-63175000D01*
X157830000Y-63168000D01*
X157823000Y-63161000D01*
X157816000Y-63154000D01*
X157810000Y-63146000D01*
X157805000Y-63137000D01*
X157799000Y-63129000D01*
X157795000Y-63120000D01*
X157790000Y-63111000D01*
X157787000Y-63102000D01*
X157783000Y-63093000D01*
X157780000Y-63083000D01*
X157778000Y-63074000D01*
X157776000Y-63064000D01*
X157775000Y-63054000D01*
X157774000Y-63044000D01*
X157774000Y-63034000D01*
X157774000Y-62674000D01*
X157774000Y-62664000D01*
X157775000Y-62654000D01*
X157776000Y-62644000D01*
X157778000Y-62634000D01*
X157780000Y-62625000D01*
X157783000Y-62615000D01*
X157787000Y-62606000D01*
X157790000Y-62597000D01*
X157795000Y-62588000D01*
X157799000Y-62579000D01*
X157805000Y-62571000D01*
X157810000Y-62562000D01*
X157816000Y-62554000D01*
X157823000Y-62547000D01*
X157830000Y-62540000D01*
X157837000Y-62533000D01*
X157844000Y-62526000D01*
X157852000Y-62520000D01*
X157861000Y-62515000D01*
X157869000Y-62509000D01*
X157878000Y-62505000D01*
X157887000Y-62500000D01*
X157896000Y-62497000D01*
X157905000Y-62493000D01*
X157915000Y-62490000D01*
X157924000Y-62488000D01*
X157934000Y-62486000D01*
X157944000Y-62485000D01*
X157954000Y-62484000D01*
X157964000Y-62484000D01*
X157974000Y-62484000D01*
X157984000Y-62485000D01*
G37*
%TD*%
D11*
%TO.C,D4*%
X157226000Y-60832000D03*
X157226000Y-57532000D03*
%TD*%
D12*
%TO.C,C7*%
X152654000Y-75438000D03*
X152654000Y-76398000D03*
%TD*%
D13*
%TO.C,R13*%
X167090000Y-66800000D03*
X168110000Y-66800000D03*
%TD*%
D14*
%TO.C,AE4*%
X170146000Y-99314000D03*
D15*
X171671000Y-97839000D03*
X171671000Y-100789000D03*
%TD*%
D16*
%TO.C,C45*%
X152908000Y-95692000D03*
X152908000Y-96332000D03*
%TD*%
D17*
%TO.C,F1*%
X160987500Y-59600000D03*
X159412500Y-59600000D03*
%TD*%
D18*
%TO.C,R4*%
X162200000Y-60710000D03*
X162200000Y-59690000D03*
%TD*%
D14*
%TO.C,AE3*%
X154398000Y-99314000D03*
D15*
X155923000Y-97839000D03*
X155923000Y-100789000D03*
%TD*%
D18*
%TO.C,R16*%
X157988000Y-56390000D03*
X157988000Y-55370000D03*
%TD*%
D19*
%TO.C,C44*%
X168430000Y-96150000D03*
X169070000Y-96150000D03*
%TD*%
D20*
%TO.C,C23*%
X155175000Y-59700000D03*
X153625000Y-59700000D03*
%TD*%
D17*
%TO.C,FB1*%
X155981500Y-70866000D03*
X154406500Y-70866000D03*
%TD*%
D21*
%TO.C,C17*%
X157466500Y-68580000D03*
X160541500Y-68580000D03*
%TD*%
D22*
%TO.C,C40*%
X167120000Y-61700000D03*
X168080000Y-61700000D03*
%TD*%
D19*
%TO.C,C47*%
X168440000Y-98320000D03*
X169080000Y-98320000D03*
%TD*%
D23*
%TO.C,C16*%
X155461500Y-68580000D03*
X152386500Y-68580000D03*
%TD*%
D24*
%TO.C,C11*%
X159738000Y-99060000D03*
X158778000Y-99060000D03*
%TD*%
D18*
%TO.C,R3*%
X166400000Y-60710000D03*
X166400000Y-59690000D03*
%TD*%
D25*
%TO.C,C9*%
X152146000Y-73927500D03*
X152146000Y-70852500D03*
%TD*%
D24*
%TO.C,C13*%
X159738000Y-96774000D03*
X158778000Y-96774000D03*
%TD*%
D26*
%TO.C,D3*%
X163820000Y-58900000D03*
X162980000Y-58900000D03*
%TD*%
D24*
%TO.C,C10*%
X159738000Y-98298000D03*
X158778000Y-98298000D03*
%TD*%
D27*
%TO.C,R1*%
X163800000Y-59690000D03*
X163800000Y-60710000D03*
%TD*%
D28*
%TO.C,R14*%
X165310000Y-61700000D03*
X164290000Y-61700000D03*
%TD*%
D24*
%TO.C,C12*%
X159738000Y-97536000D03*
X158778000Y-97536000D03*
%TD*%
D29*
%TO.C,U14*%
X166770000Y-62729000D03*
X166270000Y-62729000D03*
X165770000Y-62729000D03*
X165270000Y-62729000D03*
X165270000Y-65629000D03*
X165770000Y-65629000D03*
X166270000Y-65629000D03*
X166770000Y-65629000D03*
D30*
X166020000Y-64179000D03*
%TD*%
D31*
%TO.C,Q1*%
X153162000Y-57833500D03*
X155062000Y-57833500D03*
X154112000Y-55958500D03*
%TD*%
D32*
%TO.C,L1*%
X161036000Y-62737000D03*
X161036000Y-65787000D03*
%TD*%
D16*
%TO.C,C46*%
X169070000Y-96870000D03*
X169070000Y-97510000D03*
%TD*%
D28*
%TO.C,R12*%
X165310000Y-66802000D03*
X164290000Y-66802000D03*
%TD*%
D13*
%TO.C,R5*%
X154938000Y-66700000D03*
X155958000Y-66700000D03*
%TD*%
D33*
%TO.C,F2*%
X159997000Y-70866000D03*
X159027000Y-70866000D03*
%TD*%
D13*
%TO.C,R6*%
X153090000Y-66700000D03*
X154110000Y-66700000D03*
%TD*%
D12*
%TO.C,C15*%
X153100000Y-64670000D03*
X153100000Y-65630000D03*
%TD*%
D34*
%TO.C,F4*%
X151180800Y-96314400D03*
X151180800Y-97284400D03*
%TD*%
D35*
%TO.C,D1*%
X164780000Y-58900000D03*
X165620000Y-58900000D03*
%TD*%
D33*
%TO.C,L3*%
X152910400Y-97282000D03*
X151940400Y-97282000D03*
%TD*%
D18*
%TO.C,R18*%
X153100000Y-63060000D03*
X153100000Y-62040000D03*
%TD*%
D20*
%TO.C,C22*%
X155175000Y-60900000D03*
X153625000Y-60900000D03*
%TD*%
D36*
%TO.C,SW1*%
X175328000Y-56388000D03*
X171128000Y-56388000D03*
%TD*%
D37*
%TO.C,J1*%
X166720000Y-55940000D03*
X160940000Y-55940000D03*
D38*
X167080000Y-57385000D03*
X166280000Y-57385000D03*
D39*
X165080000Y-57385000D03*
X164080000Y-57385000D03*
X163580000Y-57385000D03*
X162580000Y-57385000D03*
D38*
X161380000Y-57385000D03*
X160580000Y-57385000D03*
X160580000Y-57385000D03*
X161380000Y-57385000D03*
D39*
X162080000Y-57385000D03*
X163080000Y-57385000D03*
X164580000Y-57385000D03*
X165580000Y-57385000D03*
D38*
X166280000Y-57385000D03*
X167080000Y-57385000D03*
D40*
X168150000Y-56470000D03*
D41*
X168150000Y-52290000D03*
D40*
X159510000Y-56470000D03*
D41*
X159510000Y-52290000D03*
%TD*%
D42*
%TO.C,U1*%
X172980000Y-93266000D03*
X172980000Y-92166000D03*
X172980000Y-91066000D03*
X172980000Y-89966000D03*
X172980000Y-88866000D03*
X172980000Y-87766000D03*
X172980000Y-86666000D03*
X172980000Y-85566000D03*
X172980000Y-84466000D03*
X172980000Y-83366000D03*
X172980000Y-81666000D03*
X172980000Y-80566000D03*
X172980000Y-79466000D03*
X172980000Y-78366000D03*
X172980000Y-77266000D03*
X172980000Y-76166000D03*
X172980000Y-75066000D03*
X172980000Y-73966000D03*
D43*
X171280000Y-72566000D03*
X170180000Y-72566000D03*
X169080000Y-72566000D03*
X167980000Y-72566000D03*
X166880000Y-72566000D03*
X165780000Y-72566000D03*
X163280000Y-72566000D03*
X162180000Y-72566000D03*
X161080000Y-72566000D03*
X159980000Y-72566000D03*
X158880000Y-72566000D03*
X157780000Y-72566000D03*
X156680000Y-72566000D03*
D42*
X154680000Y-73966000D03*
X154680000Y-75066000D03*
X154680000Y-76166000D03*
X154680000Y-77266000D03*
X154680000Y-78366000D03*
X154680000Y-79466000D03*
X154680000Y-80566000D03*
X154680000Y-81666000D03*
X154680000Y-83366000D03*
X154680000Y-84466000D03*
X154680000Y-85566000D03*
X154680000Y-86666000D03*
X154680000Y-87766000D03*
X154680000Y-88866000D03*
X154680000Y-89966000D03*
X154680000Y-91066000D03*
X154680000Y-92166000D03*
X154680000Y-93266000D03*
D43*
X156680000Y-94566000D03*
X157780000Y-94566000D03*
X158880000Y-94566000D03*
X159980000Y-94566000D03*
X161080000Y-94566000D03*
X162180000Y-94566000D03*
X163280000Y-94566000D03*
X165780000Y-94566000D03*
X166880000Y-94566000D03*
X167980000Y-94566000D03*
X169080000Y-94566000D03*
X170180000Y-94566000D03*
X171280000Y-94566000D03*
D44*
X169780000Y-87816000D03*
X169780000Y-86116000D03*
X169780000Y-84416000D03*
X169780000Y-82716000D03*
X169780000Y-81016000D03*
X169780000Y-79316000D03*
X166380000Y-75916000D03*
X164680000Y-75916000D03*
X162980000Y-75916000D03*
X161280000Y-75916000D03*
X157880000Y-79316000D03*
X157880000Y-81016000D03*
X157880000Y-82716000D03*
X157880000Y-84416000D03*
X157880000Y-86116000D03*
X157880000Y-87816000D03*
X161280000Y-91216000D03*
X162980000Y-91216000D03*
X164680000Y-91216000D03*
X166380000Y-91216000D03*
X168080000Y-87816000D03*
X168080000Y-86116000D03*
X168080000Y-84416000D03*
X168080000Y-82716000D03*
X168080000Y-81016000D03*
X168080000Y-79316000D03*
X166380000Y-77616000D03*
X164680000Y-77616000D03*
X162980000Y-77616000D03*
X161280000Y-77616000D03*
X159580000Y-79316000D03*
X159580000Y-81016000D03*
X159580000Y-82716000D03*
X159580000Y-84416000D03*
X159580000Y-86116000D03*
X159580000Y-87816000D03*
X161280000Y-89516000D03*
X162980000Y-89516000D03*
X164680000Y-89516000D03*
X166380000Y-89516000D03*
%TD*%
D45*
%TO.C,D5*%
X156718000Y-53619500D03*
X156718000Y-52044500D03*
%TD*%
D46*
%TO.C,J5*%
X169418000Y-65262000D03*
X169418000Y-63262000D03*
D47*
X175168000Y-67612000D03*
X175168000Y-60912000D03*
%TD*%
D12*
%TO.C,C6*%
X151892000Y-75466000D03*
X151892000Y-76426000D03*
%TD*%
%TO.C,C8*%
X153416000Y-75438000D03*
X153416000Y-76398000D03*
%TD*%
D17*
%TO.C,FB2*%
X163587500Y-100200000D03*
X162012500Y-100200000D03*
%TD*%
D18*
%TO.C,R17*%
X156718000Y-56390000D03*
X156718000Y-55370000D03*
%TD*%
D27*
%TO.C,R2*%
X164800000Y-59690000D03*
X164800000Y-60710000D03*
%TD*%
D21*
%TO.C,C14*%
X161276500Y-98044000D03*
X164351500Y-98044000D03*
%TD*%
D24*
%TO.C,C18*%
X157960000Y-66700000D03*
X157000000Y-66700000D03*
%TD*%
D45*
%TO.C,D6*%
X170942000Y-53619500D03*
X170942000Y-52044500D03*
%TD*%
D48*
%TO.C,C36*%
X151180800Y-95450600D03*
X151180800Y-94490600D03*
%TD*%
D12*
%TO.C,C5*%
X151130000Y-75466000D03*
X151130000Y-76426000D03*
%TD*%
M02*
