%TF.GenerationSoftware,KiCad,Pcbnew,7.0.9*%
%TF.CreationDate,2024-08-31T12:22:45+08:00*%
%TF.ProjectId,IOT,494f542e-6b69-4636-9164-5f7063625858,rev?*%
%TF.SameCoordinates,Original*%
%TF.FileFunction,Copper,L3,Inr*%
%TF.FilePolarity,Positive*%
%FSLAX46Y46*%
G04 Gerber Fmt 4.6, Leading zero omitted, Abs format (unit mm)*
G04 Created by KiCad (PCBNEW 7.0.9) date 2024-08-31 12:22:45*
%MOMM*%
%LPD*%
G01*
G04 APERTURE LIST*
%TA.AperFunction,ComponentPad*%
%ADD10O,1.000000X2.100000*%
%TD*%
%TA.AperFunction,ComponentPad*%
%ADD11O,1.000000X1.600000*%
%TD*%
%TA.AperFunction,ViaPad*%
%ADD12C,0.450000*%
%TD*%
%TA.AperFunction,Conductor*%
%ADD13C,3.000000*%
%TD*%
%TA.AperFunction,Conductor*%
%ADD14C,0.152400*%
%TD*%
%TA.AperFunction,Conductor*%
%ADD15C,0.254000*%
%TD*%
%TA.AperFunction,Conductor*%
%ADD16C,0.500000*%
%TD*%
%TA.AperFunction,Conductor*%
%ADD17C,0.300000*%
%TD*%
%TA.AperFunction,Conductor*%
%ADD18C,0.250000*%
%TD*%
%TA.AperFunction,Conductor*%
%ADD19C,1.000000*%
%TD*%
%TA.AperFunction,Conductor*%
%ADD20C,0.152000*%
%TD*%
%TA.AperFunction,Conductor*%
%ADD21C,0.136144*%
%TD*%
G04 APERTURE END LIST*
D10*
%TO.N,GND*%
%TO.C,J1*%
X168150000Y-56470000D03*
D11*
X168150000Y-52290000D03*
D10*
X159510000Y-56470000D03*
D11*
X159510000Y-52290000D03*
%TD*%
D12*
%TO.N,GND*%
X156100000Y-83100000D03*
X156000000Y-84200000D03*
X151300000Y-91800000D03*
X151300000Y-90600000D03*
X151300000Y-89400000D03*
X151300000Y-88600000D03*
X154000000Y-57800000D03*
X165800000Y-87400000D03*
X175500000Y-86100000D03*
X176200000Y-85400000D03*
X176300000Y-83700000D03*
X176300000Y-81300000D03*
X176300000Y-79500000D03*
X176300000Y-78400000D03*
X176300000Y-76500000D03*
X176300000Y-75700000D03*
X176300000Y-74200000D03*
X151900000Y-52100000D03*
X153000000Y-53800000D03*
X165000000Y-52900000D03*
X166300000Y-52900000D03*
X170500000Y-66200000D03*
X174000000Y-90600000D03*
X156700000Y-93600000D03*
X156600000Y-100900000D03*
X155900000Y-100900000D03*
X155100000Y-100900000D03*
X172400000Y-100900000D03*
X171600000Y-100900000D03*
X170900000Y-100900000D03*
X158200000Y-96400000D03*
X158200000Y-95600000D03*
X157500000Y-96400000D03*
X157500000Y-95600000D03*
X163700000Y-101100000D03*
X161800000Y-101100000D03*
%TO.N,Net-(J4-I{slash}O)*%
X162807627Y-71562487D03*
X163749300Y-86400000D03*
%TO.N,GND*%
X152044400Y-94030800D03*
X175000000Y-73660000D03*
X154228800Y-94157800D03*
X167436800Y-54229000D03*
X168224200Y-99212400D03*
X152044400Y-96520000D03*
X167850000Y-76200000D03*
X152800000Y-63950000D03*
X167157400Y-99085400D03*
X157700000Y-64250000D03*
X167200000Y-92250000D03*
X158546800Y-93522800D03*
X157505400Y-98983800D03*
X152069800Y-66370200D03*
X162700000Y-88550000D03*
X155727400Y-93878400D03*
X170027600Y-96774000D03*
X157505400Y-100914200D03*
X159816800Y-93522800D03*
X168600000Y-69450000D03*
X157000000Y-83260000D03*
X153771600Y-94437200D03*
X161000000Y-83000000D03*
X160450000Y-71600000D03*
X158191200Y-100914200D03*
X164820000Y-64179000D03*
X169780000Y-81257500D03*
X158350000Y-60600000D03*
X158550000Y-92700000D03*
X167875500Y-74700000D03*
X175437800Y-99009200D03*
X153771600Y-98018600D03*
X173964600Y-101041200D03*
X153873200Y-92303600D03*
X157150000Y-63700000D03*
X161600000Y-88450000D03*
X163800000Y-65750000D03*
X167894000Y-98171000D03*
X166166800Y-54229000D03*
X154432000Y-98018600D03*
X167843200Y-96469200D03*
X170281600Y-93675200D03*
X157505400Y-97739200D03*
X169570400Y-100304600D03*
X163561896Y-69732685D03*
X168900000Y-91950500D03*
X167600000Y-62400000D03*
X170550000Y-59350000D03*
X167208200Y-100406200D03*
X172085000Y-97155000D03*
X168986200Y-100101400D03*
X158800000Y-67300000D03*
X169824400Y-101142800D03*
X166700000Y-81650000D03*
X152146000Y-80568800D03*
X171069000Y-64312800D03*
X155300000Y-64250000D03*
X168122600Y-95478600D03*
X157150000Y-64250000D03*
X151850000Y-70500000D03*
X171710000Y-81520000D03*
X155727400Y-93294200D03*
X166350000Y-71600000D03*
X158600000Y-69350000D03*
X156133800Y-97129600D03*
X168630600Y-93370400D03*
X175000000Y-76504800D03*
X161036000Y-95326200D03*
X157505400Y-99618800D03*
X158191200Y-100253800D03*
X167106600Y-101142800D03*
X153690000Y-95190000D03*
X167300000Y-67650000D03*
X175590200Y-53035200D03*
X154150000Y-63750000D03*
X171069000Y-93675200D03*
X167563800Y-64312800D03*
X163030000Y-80470000D03*
X154787600Y-94157800D03*
X163410000Y-61850000D03*
X173950000Y-82570000D03*
X151300000Y-66350000D03*
X169050000Y-62400000D03*
X171650000Y-54350000D03*
X152350000Y-71050000D03*
X155727400Y-92760800D03*
X173456600Y-55295800D03*
X156464000Y-64254000D03*
X171100000Y-77150000D03*
X160200000Y-61100000D03*
X174670000Y-66060000D03*
X167208863Y-77446797D03*
X169849800Y-93370400D03*
X151300000Y-71050000D03*
X152831800Y-99898200D03*
X157700000Y-63700000D03*
X166954200Y-64312800D03*
X155300000Y-64800000D03*
X176377600Y-54127400D03*
X158191200Y-98298000D03*
X164600000Y-90400000D03*
X156450000Y-64800000D03*
X157000000Y-78250000D03*
X166700000Y-82900000D03*
X174310000Y-80330000D03*
X151300000Y-59750000D03*
X172585500Y-54300000D03*
X157505400Y-97129600D03*
X168122600Y-97586800D03*
X169850000Y-62400000D03*
X155850000Y-64800000D03*
X155850000Y-64250000D03*
X161696400Y-51866800D03*
X151300000Y-55850000D03*
X166350000Y-75900000D03*
X166375000Y-73875000D03*
X161315400Y-54229000D03*
X165600000Y-86450000D03*
X166150000Y-85900000D03*
X174000000Y-55300000D03*
X162100000Y-67250000D03*
X151300000Y-54350000D03*
X167157400Y-96367600D03*
X174660000Y-69040000D03*
X167550000Y-77220000D03*
X158191200Y-98983800D03*
X152750000Y-60100000D03*
X167843200Y-95935800D03*
X173450000Y-56400000D03*
X173250000Y-72610000D03*
X165120000Y-64510000D03*
X151300000Y-70500000D03*
X161050000Y-68800000D03*
X174760000Y-84240000D03*
X163118800Y-97612200D03*
X163460000Y-80470000D03*
X167995600Y-100406200D03*
X156895800Y-97129600D03*
X153771600Y-97358200D03*
X170100000Y-61750000D03*
X163446900Y-75510314D03*
X170400000Y-73500000D03*
X170350000Y-71450000D03*
X163118800Y-99110800D03*
X171150000Y-59150000D03*
X153873200Y-100507800D03*
X158568609Y-66708398D03*
X171720000Y-83270000D03*
X163880800Y-51866800D03*
X166700000Y-82200000D03*
X155422600Y-97129600D03*
X168650000Y-61750000D03*
X176250600Y-91059000D03*
X171100000Y-66200000D03*
X151950000Y-78450000D03*
X171450000Y-73500000D03*
X167157400Y-98526600D03*
X152044400Y-95300800D03*
X151003000Y-80441800D03*
X158191200Y-97739200D03*
X170180000Y-100304600D03*
X151300000Y-64150000D03*
X175260000Y-91059000D03*
X163150000Y-61350000D03*
X158191200Y-97129600D03*
X153339800Y-100279200D03*
X162200000Y-81800000D03*
X173177200Y-100431600D03*
X164650000Y-67500000D03*
X170256200Y-64312800D03*
X171710000Y-84020000D03*
X163118800Y-98425000D03*
X168757600Y-64312800D03*
X153947900Y-53747900D03*
X156300000Y-86550000D03*
X151200000Y-78450000D03*
X156500000Y-92700000D03*
X166950000Y-88550000D03*
X174828200Y-100533200D03*
X169392600Y-56489600D03*
X166750000Y-86500000D03*
X171450000Y-97155000D03*
X152350000Y-70500000D03*
X171831000Y-93675200D03*
X175010000Y-78880000D03*
X151300000Y-58550000D03*
X172350000Y-59150000D03*
X151300000Y-68200000D03*
X160451800Y-93522800D03*
X152750000Y-60600000D03*
X163800000Y-65050000D03*
X159181800Y-93522800D03*
X168300000Y-62400000D03*
X163118800Y-96850200D03*
X163850000Y-90300000D03*
X168100000Y-92250000D03*
X173177200Y-99745800D03*
X157250000Y-92700000D03*
X152044400Y-95885000D03*
X163400000Y-62400000D03*
X169291000Y-60960000D03*
X153300000Y-63950000D03*
X163118800Y-96037400D03*
X170815000Y-97155000D03*
X175150000Y-55000000D03*
X151130000Y-76426000D03*
X175437800Y-97612200D03*
X168554400Y-99720400D03*
X158750000Y-82800000D03*
X157700000Y-64800000D03*
X159842200Y-101117400D03*
X156300000Y-87500000D03*
X169940000Y-77280000D03*
X170390000Y-77290000D03*
X158950000Y-91750000D03*
X165450000Y-92250000D03*
X168122600Y-97002600D03*
X173230000Y-70940000D03*
X155651200Y-92202000D03*
X152044400Y-94665800D03*
X166801800Y-90424000D03*
X151300000Y-61050000D03*
X151900000Y-76400000D03*
X158851600Y-100253800D03*
X151300000Y-65250000D03*
X152069800Y-99161600D03*
X155346400Y-94157800D03*
X160400000Y-83200000D03*
X170103800Y-57251600D03*
X169300000Y-61750000D03*
X167919400Y-98755200D03*
X162150000Y-69334958D03*
X176352200Y-80060800D03*
X170650000Y-62400000D03*
X152069800Y-98018600D03*
X162737800Y-101117400D03*
X166420800Y-90246200D03*
X153771600Y-96621600D03*
X175437800Y-99745800D03*
X166200000Y-84850000D03*
X168021000Y-93040200D03*
X158250000Y-91750000D03*
X173177200Y-101041200D03*
X167060000Y-80290000D03*
X158750000Y-79250000D03*
X167182800Y-97434400D03*
X168021000Y-93624400D03*
X154635200Y-97129600D03*
X167182800Y-97942400D03*
X154406600Y-100507800D03*
X173960000Y-81750000D03*
X163870000Y-78080000D03*
X159050000Y-60600000D03*
X152450800Y-99542600D03*
X175006000Y-75692000D03*
X152750000Y-59600000D03*
X171700000Y-60550000D03*
X162790000Y-81600000D03*
X171881800Y-86055200D03*
X157000000Y-84300000D03*
X162400000Y-61350000D03*
X163576000Y-54229000D03*
X167157400Y-99695000D03*
X163400000Y-67300000D03*
X166878000Y-93624400D03*
X161620200Y-95326200D03*
X158191200Y-99618800D03*
X152755600Y-59029600D03*
X167070000Y-79760000D03*
X170027600Y-97536000D03*
X175437800Y-98323400D03*
X170027600Y-96113600D03*
X173151800Y-97612200D03*
X167050000Y-85900000D03*
X163430000Y-78080000D03*
X162850000Y-67250000D03*
X167182800Y-96875600D03*
X171150000Y-88550000D03*
X151300000Y-63150000D03*
X151300000Y-69600000D03*
X162179000Y-95326200D03*
X159800000Y-92700000D03*
X174260000Y-85010000D03*
X167900000Y-69450000D03*
X167894000Y-101142800D03*
X174701200Y-51841400D03*
X168910000Y-101142800D03*
X173450000Y-57300000D03*
X157150000Y-64800000D03*
X164850000Y-87050000D03*
X158851600Y-99618800D03*
X166450000Y-88000000D03*
X158851600Y-100914200D03*
X174000000Y-54300000D03*
X169214800Y-93370400D03*
X155300000Y-63700000D03*
X152750000Y-61200000D03*
X163200000Y-81040000D03*
X173240000Y-71860000D03*
X151300000Y-68850000D03*
X166200000Y-92250000D03*
X166890000Y-60710000D03*
X151850000Y-71050000D03*
X157505400Y-100253800D03*
X175793400Y-59525000D03*
X171750000Y-59150000D03*
X172847000Y-97155000D03*
X158800000Y-75700000D03*
X159750000Y-60600000D03*
X152069800Y-98577400D03*
X157505400Y-98298000D03*
X153771600Y-95961200D03*
X155850000Y-63700000D03*
X167157400Y-95808800D03*
X171856400Y-94310200D03*
X156450000Y-63700000D03*
X160934400Y-101117400D03*
X171800000Y-66200000D03*
X168198800Y-64312800D03*
X170027600Y-95529400D03*
X174760000Y-83590000D03*
X173177200Y-99034600D03*
X159400000Y-61100000D03*
X172313600Y-60655200D03*
X173177200Y-98323400D03*
X161061400Y-93522800D03*
X166573200Y-51866800D03*
%TO.N,Net-(J4-CLK)*%
X163500000Y-71641498D03*
X164500000Y-86400000D03*
%TO.N,Net-(J4-RST)*%
X165000000Y-72000000D03*
X165100000Y-85900000D03*
%TO.N,Net-(J4-VCC)*%
X163322000Y-68070000D03*
X165700000Y-85289000D03*
X165600000Y-71466700D03*
X166150000Y-69100000D03*
X159074491Y-67848349D03*
%TO.N,Net-(U2-PS{slash}SYNC)*%
X154000000Y-63100000D03*
X153700000Y-65654000D03*
%TO.N,+3V8*%
X172450000Y-56500000D03*
X165850000Y-100300000D03*
X156450000Y-67600000D03*
X155850000Y-68900000D03*
X164650000Y-100300000D03*
X166150000Y-99900000D03*
X165250000Y-100300000D03*
X156450000Y-68200000D03*
X155850000Y-68200000D03*
X165550000Y-99900000D03*
X164950000Y-99900000D03*
X157100000Y-68200000D03*
X157100000Y-68900000D03*
X155850000Y-67600000D03*
X164350000Y-99900000D03*
X156450000Y-68900000D03*
%TO.N,+3.3V*%
X170053000Y-53492400D03*
X170750000Y-74250000D03*
X160300000Y-75200000D03*
X151180800Y-95450600D03*
X159004000Y-70104000D03*
X172900000Y-65450000D03*
X168630000Y-78300000D03*
X172897800Y-65913000D03*
X160750000Y-86599300D03*
X165700000Y-70232685D03*
X157329500Y-91670500D03*
X157400000Y-52900000D03*
X167100000Y-87400000D03*
X156720000Y-82780000D03*
X167300000Y-76100000D03*
%TO.N,Net-(D2-K)*%
X163830000Y-69000000D03*
X164648671Y-83404635D03*
%TO.N,VUSB*%
X175600000Y-70800000D03*
X157650000Y-56900000D03*
X175600000Y-71900000D03*
X175600000Y-71400000D03*
X174400000Y-85700000D03*
X157050000Y-56900000D03*
X170100000Y-58200000D03*
X170700000Y-58200000D03*
%TO.N,Net-(D5-K)*%
X154500000Y-52400000D03*
%TO.N,Net-(D6-K)*%
X172200000Y-52200000D03*
%TO.N,+1V8*%
X160528000Y-70866000D03*
X171000000Y-76100000D03*
X169800000Y-88900000D03*
X168910000Y-80006000D03*
X169750000Y-77850000D03*
X158750000Y-80010000D03*
X168910000Y-90170000D03*
X158750000Y-85850000D03*
X160550000Y-82310000D03*
X168650000Y-70900000D03*
X168918000Y-74700000D03*
%TO.N,BATT*%
X153850000Y-56500000D03*
X170942000Y-61137800D03*
X171300000Y-67300000D03*
X154400000Y-56500000D03*
X154112000Y-55958500D03*
X171221400Y-61595000D03*
X170800000Y-67300000D03*
X170584300Y-60784300D03*
X170100000Y-67300000D03*
X169418000Y-67318000D03*
%TO.N,EN*%
X170500000Y-68900000D03*
X155850000Y-62050000D03*
%TO.N,/Interface/D20*%
X160932796Y-78876118D03*
X170811819Y-75076392D03*
%TO.N,/Interface/SCL*%
X163327711Y-81767711D03*
X170530615Y-90569385D03*
%TO.N,/Interface/SDA*%
X163290000Y-82410000D03*
X169800000Y-91000000D03*
%TO.N,PWRKEY*%
X174550000Y-56300000D03*
X152000000Y-53350000D03*
%TO.N,/Interface/A0*%
X159600000Y-71600000D03*
X160550000Y-74050000D03*
%TO.N,/Interface/A2*%
X157550000Y-74000000D03*
X158274964Y-77562351D03*
%TO.N,/Interface/A3*%
X157000000Y-74950000D03*
X160218470Y-75770708D03*
%TO.N,/BG95/NET_STATUS*%
X168250000Y-68300000D03*
X154000000Y-58700000D03*
%TO.N,Net-(Q3-G)*%
X166000000Y-61600000D03*
%TO.N,Net-(U1-USB_BOOT)*%
X157880000Y-83000000D03*
%TO.N,Net-(U1-MAIN_RXD)*%
X152095200Y-79095600D03*
%TO.N,Net-(U1-MAIN_TXD)*%
X151511000Y-81153000D03*
%TO.N,Net-(U1-MAIN_DTR)*%
X157700000Y-71400000D03*
%TO.N,Net-(U1-MAIN_CTS)*%
X151511000Y-84455000D03*
%TO.N,Net-(U1-MAIN_RTS)*%
X151511000Y-86106000D03*
%TO.N,BG95_GPIO1*%
X172000000Y-88700000D03*
%TO.N,BG95_GPIO2*%
X172980000Y-88798500D03*
%TO.N,BG95_GPIO3*%
X172900000Y-87800000D03*
%TO.N,BG95_GPIO4*%
X172900000Y-86700000D03*
%TO.N,BG95_SPI2_SCLK*%
X172640000Y-73970000D03*
%TO.N,BG95_SPI2_CS*%
X171200000Y-71900000D03*
%TO.N,BG95_SPI2_MISO*%
X167980000Y-72566000D03*
%TO.N,BG95_SPI2_MOSI*%
X166880000Y-72566000D03*
%TO.N,BG95_SPI0_CS*%
X162550512Y-80662822D03*
X163000000Y-72850000D03*
%TO.N,BG95_SPI0_SCLK*%
X162300000Y-72850000D03*
X162328680Y-81194936D03*
%TO.N,BG95_SPI0_MOSI*%
X161400700Y-84250000D03*
X161550000Y-71650000D03*
%TO.N,BG95_SPI0_MISO*%
X161600000Y-74199300D03*
X161500000Y-85050000D03*
%TO.N,BG95_I2C1_SCL*%
X163248800Y-83000000D03*
X164500000Y-87649300D03*
%TO.N,BG95_I2C1_SDA*%
X162798100Y-83611326D03*
X165100000Y-88100000D03*
%TO.N,BG95_UART2_TXD*%
X166849300Y-85250000D03*
%TO.N,BG95_UART2_RXD*%
X166849300Y-83600000D03*
%TO.N,BG95_GPIO17*%
X169780000Y-82716000D03*
X167950000Y-89900000D03*
%TO.N,BG95_GPIO18*%
X160650000Y-80349300D03*
%TO.N,BG95_GPIO19*%
X169147430Y-81865748D03*
X167750000Y-89150000D03*
%TO.N,BG95_GPIO20*%
X160431501Y-79816143D03*
%TO.N,BG95_GPIO21*%
X160487588Y-79242375D03*
X159641228Y-74775484D03*
%TO.N,Net-(U10-B3)*%
X163450000Y-74480000D03*
X166250000Y-74650000D03*
%TO.N,Net-(U10-B2)*%
X158150000Y-76800000D03*
X169360700Y-76110700D03*
%TO.N,Net-(U10-B1)*%
X168100000Y-76800000D03*
X160840000Y-76750000D03*
%TO.N,Net-(D5-A)*%
X156718000Y-52044500D03*
%TO.N,Net-(D6-A)*%
X170942000Y-52324000D03*
%TO.N,/BG95/USB_P*%
X163800000Y-60750000D03*
X174100000Y-84300000D03*
%TO.N,/BG95/USB_N*%
X164800000Y-60700000D03*
X174100000Y-83500000D03*
%TD*%
D13*
%TO.N,+3V8*%
X165250000Y-95010000D02*
X165250000Y-99850000D01*
X159695000Y-89455000D02*
X165250000Y-95010000D01*
X154605000Y-89455000D02*
X159695000Y-89455000D01*
X154150000Y-89000000D02*
X154605000Y-89455000D01*
X154150000Y-70132000D02*
X154150000Y-89000000D01*
X156464000Y-67818000D02*
X154150000Y-70132000D01*
D14*
%TO.N,Net-(J4-I{slash}O)*%
X165130600Y-77290600D02*
X165130600Y-80159400D01*
X163895700Y-82920000D02*
X163895700Y-86253600D01*
X165130600Y-80159400D02*
X164420000Y-80870000D01*
X164420000Y-82395700D02*
X163895700Y-82920000D01*
X163895700Y-86253600D02*
X163749300Y-86400000D01*
X163897600Y-76057600D02*
X165130600Y-77290600D01*
X163897600Y-72652460D02*
X163897600Y-76057600D01*
X164420000Y-80870000D02*
X164420000Y-82395700D01*
X162807627Y-71562487D02*
X163897600Y-72652460D01*
D15*
%TO.N,GND*%
X158600000Y-69350000D02*
X163179211Y-69350000D01*
X163179211Y-69350000D02*
X163561896Y-69732685D01*
D14*
%TO.N,Net-(J4-CLK)*%
X164200000Y-72350000D02*
X164200000Y-75790000D01*
X165410000Y-77000000D02*
X165410000Y-80410000D01*
X164200000Y-83210000D02*
X164200000Y-83361906D01*
X164200000Y-75790000D02*
X165410000Y-77000000D01*
X164200000Y-83361906D02*
X164198100Y-83363806D01*
X164200000Y-83888794D02*
X164200000Y-86100000D01*
X165410000Y-80410000D02*
X164760000Y-81060000D01*
X163500000Y-71641498D02*
X163500000Y-71650000D01*
X164198100Y-83363806D02*
X164198100Y-83886894D01*
X164760000Y-82650000D02*
X164200000Y-83210000D01*
X163500000Y-71650000D02*
X164200000Y-72350000D01*
X164760000Y-81060000D02*
X164760000Y-82650000D01*
X164198100Y-83886894D02*
X164200000Y-83888794D01*
X164200000Y-86100000D02*
X164500000Y-86400000D01*
%TO.N,Net-(J4-RST)*%
X165100000Y-75850000D02*
X166140000Y-76890000D01*
X165100000Y-72100000D02*
X165100000Y-75850000D01*
X166140000Y-76890000D02*
X166140000Y-80880000D01*
X165680000Y-83750000D02*
X165100000Y-84330000D01*
X166140000Y-80880000D02*
X165680000Y-81340000D01*
X165680000Y-81340000D02*
X165680000Y-83750000D01*
X165100000Y-84330000D02*
X165100000Y-85900000D01*
X165000000Y-72000000D02*
X165100000Y-72100000D01*
D15*
%TO.N,Net-(J4-VCC)*%
X165600000Y-75870000D02*
X166580000Y-76850000D01*
X165600000Y-84570000D02*
X165600000Y-85189000D01*
X166130000Y-81570000D02*
X166130000Y-84040000D01*
X165600000Y-85189000D02*
X165700000Y-85289000D01*
D14*
X165120000Y-68070000D02*
X163322000Y-68070000D01*
X163320000Y-68072000D02*
X163322000Y-68070000D01*
D15*
X166130000Y-84040000D02*
X165600000Y-84570000D01*
X166580000Y-81120000D02*
X166130000Y-81570000D01*
D14*
X159074491Y-67848349D02*
X159298142Y-68072000D01*
X159298142Y-68072000D02*
X163320000Y-68072000D01*
D15*
X165600000Y-71466700D02*
X165600000Y-75870000D01*
X166580000Y-76850000D02*
X166580000Y-81120000D01*
D14*
X166150000Y-69100000D02*
X165120000Y-68070000D01*
D16*
%TO.N,+3V8*%
X152100000Y-65300000D02*
X154618000Y-67818000D01*
X170850000Y-54900000D02*
X153000000Y-54900000D01*
X153000000Y-54900000D02*
X152100000Y-55800000D01*
X172450000Y-56500000D02*
X170850000Y-54900000D01*
X152100000Y-55800000D02*
X152100000Y-65300000D01*
X154618000Y-67818000D02*
X156464000Y-67818000D01*
D17*
%TO.N,+3.3V*%
X156475000Y-82535000D02*
X156475000Y-71125000D01*
D16*
X169697400Y-53492400D02*
X169595800Y-53594000D01*
D18*
X151180800Y-95450600D02*
X151180800Y-93419200D01*
X165700000Y-70232685D02*
X168600000Y-70232685D01*
X160700000Y-70100000D02*
X161050000Y-70450000D01*
D17*
X166432685Y-70232685D02*
X168505000Y-72305000D01*
X165700000Y-70232685D02*
X169058685Y-70232685D01*
X167200000Y-87400000D02*
X167100000Y-87400000D01*
D18*
X167375500Y-76024500D02*
X167300000Y-76100000D01*
X167375500Y-74492893D02*
X167375500Y-76024500D01*
D17*
X169150000Y-72300000D02*
X169150000Y-73750000D01*
X167082685Y-70232685D02*
X169150000Y-72300000D01*
D18*
X165700000Y-70232685D02*
X165732685Y-70232685D01*
X156597200Y-82902800D02*
X156597200Y-85497200D01*
D16*
X157302200Y-53111400D02*
X157302200Y-52997800D01*
D18*
X151180800Y-93419200D02*
X152929500Y-91670500D01*
X161050000Y-74450000D02*
X160300000Y-75200000D01*
D16*
X172900000Y-68200000D02*
X172900000Y-65450000D01*
X157302200Y-52997800D02*
X157400000Y-52900000D01*
D17*
X168505000Y-72305000D02*
X168505000Y-74405893D01*
X168630000Y-78300000D02*
X168100000Y-78830000D01*
D16*
X168600000Y-70232685D02*
X170600000Y-70232685D01*
D17*
X168100000Y-78830000D02*
X168100000Y-86500000D01*
D18*
X165732685Y-70232685D02*
X167380000Y-71880000D01*
D17*
X168418000Y-76018000D02*
X168630000Y-76230000D01*
D18*
X156720000Y-82780000D02*
X156597200Y-82902800D01*
D16*
X170053000Y-53492400D02*
X169697400Y-53492400D01*
D17*
X156475000Y-71125000D02*
X157496000Y-70104000D01*
X168505000Y-74405893D02*
X168418000Y-74492893D01*
D16*
X169595800Y-53594000D02*
X157784800Y-53594000D01*
X168932685Y-70232685D02*
X165700000Y-70232685D01*
X157784800Y-53594000D02*
X157302200Y-53111400D01*
D18*
X157400000Y-52900000D02*
X157900000Y-53400000D01*
D17*
X169150000Y-73750000D02*
X169650000Y-74250000D01*
X168418000Y-74492893D02*
X168418000Y-76018000D01*
D18*
X159008000Y-70100000D02*
X160700000Y-70100000D01*
X167380000Y-71880000D02*
X167380000Y-74488393D01*
D17*
X168100000Y-86500000D02*
X167200000Y-87400000D01*
X165700000Y-70232685D02*
X167082685Y-70232685D01*
X169650000Y-74250000D02*
X170750000Y-74250000D01*
D18*
X161050000Y-70450000D02*
X161050000Y-74450000D01*
D16*
X170600000Y-70232685D02*
X170867315Y-70232685D01*
D18*
X157699300Y-86599300D02*
X160750000Y-86599300D01*
D17*
X165700000Y-70232685D02*
X166432685Y-70232685D01*
D18*
X159004000Y-70104000D02*
X159008000Y-70100000D01*
X156597200Y-85497200D02*
X157699300Y-86599300D01*
D16*
X170867315Y-70232685D02*
X172900000Y-68200000D01*
D18*
X165700000Y-70232685D02*
X170600000Y-70232685D01*
D17*
X168630000Y-76230000D02*
X168630000Y-78300000D01*
X157496000Y-70104000D02*
X159004000Y-70104000D01*
D18*
X168600000Y-70232685D02*
X168932685Y-70232685D01*
D17*
X156720000Y-82780000D02*
X156475000Y-82535000D01*
D18*
X152929500Y-91670500D02*
X157329500Y-91670500D01*
D14*
%TO.N,Net-(D2-K)*%
X164084000Y-69254000D02*
X164084000Y-71684000D01*
X164600000Y-72200000D02*
X164600000Y-75770000D01*
X165170000Y-81270000D02*
X165170000Y-82883306D01*
X164600000Y-75770000D02*
X165740000Y-76910000D01*
X165740000Y-80700000D02*
X165170000Y-81270000D01*
X164084000Y-71684000D02*
X164600000Y-72200000D01*
X165740000Y-76910000D02*
X165740000Y-80700000D01*
X165170000Y-82883306D02*
X164648671Y-83404635D01*
X163830000Y-69000000D02*
X164084000Y-69254000D01*
D19*
%TO.N,VUSB*%
X166300000Y-58200000D02*
X158600000Y-58200000D01*
X175600000Y-70200000D02*
X175600000Y-71700000D01*
X174600000Y-60150000D02*
X174150000Y-59700000D01*
D17*
X175000000Y-85400000D02*
X174700000Y-85700000D01*
D19*
X172650000Y-58200000D02*
X170700000Y-58200000D01*
X158600000Y-58200000D02*
X157300000Y-56900000D01*
X175600000Y-61150000D02*
X174600000Y-60150000D01*
X166300000Y-58200000D02*
X170700000Y-58200000D01*
D17*
X175600000Y-71900000D02*
X175600000Y-84800000D01*
D19*
X175600000Y-70200000D02*
X175600000Y-61150000D01*
D17*
X174700000Y-85700000D02*
X174400000Y-85700000D01*
D19*
X167000000Y-58200000D02*
X166300000Y-58200000D01*
D17*
X175600000Y-84800000D02*
X175000000Y-85400000D01*
D19*
X174600000Y-60150000D02*
X172650000Y-58200000D01*
D17*
%TO.N,+1V8*%
X169750000Y-78350000D02*
X169750000Y-77850000D01*
X159400000Y-75500000D02*
X158600000Y-74700000D01*
X159700000Y-82200000D02*
X158750000Y-81250000D01*
X171000000Y-76100000D02*
X169600000Y-74700000D01*
X172100000Y-76300000D02*
X172100000Y-77250000D01*
X160490000Y-82310000D02*
X158750000Y-84050000D01*
X160440000Y-82200000D02*
X159700000Y-82200000D01*
X160550000Y-82310000D02*
X160490000Y-82310000D01*
X160550000Y-82310000D02*
X160550000Y-81750000D01*
X171000000Y-79400000D02*
X171000000Y-87700000D01*
X171400000Y-70900000D02*
X168650000Y-70900000D01*
X158600000Y-71600000D02*
X159334000Y-70866000D01*
X160550000Y-82310000D02*
X160440000Y-82200000D01*
X171000000Y-87700000D02*
X168910000Y-89790000D01*
X172100000Y-71600000D02*
X171400000Y-70900000D01*
X171500000Y-77850000D02*
X169750000Y-77850000D01*
X159334000Y-70866000D02*
X160528000Y-70866000D01*
X158750000Y-84050000D02*
X158750000Y-85850000D01*
X159400000Y-80600000D02*
X159400000Y-75500000D01*
X158750000Y-81250000D02*
X158750000Y-80010000D01*
X171000000Y-76100000D02*
X171200000Y-76300000D01*
X169600000Y-74700000D02*
X168918000Y-74700000D01*
X172100000Y-77250000D02*
X171500000Y-77850000D01*
X172100000Y-75900000D02*
X172100000Y-71600000D01*
X168910000Y-89790000D02*
X168910000Y-90170000D01*
X168910000Y-80006000D02*
X168910000Y-79190000D01*
X160550000Y-81750000D02*
X159400000Y-80600000D01*
X171200000Y-76300000D02*
X172100000Y-76300000D01*
X172100000Y-78300000D02*
X171000000Y-79400000D01*
X172100000Y-75900000D02*
X172100000Y-78300000D01*
X168910000Y-79190000D02*
X169750000Y-78350000D01*
X158600000Y-74700000D02*
X158600000Y-71600000D01*
X172100000Y-75900000D02*
X172100000Y-76300000D01*
D19*
%TO.N,BATT*%
X157100000Y-59500000D02*
X154112000Y-56512000D01*
X171422500Y-61622500D02*
X169300000Y-59500000D01*
X169300000Y-59500000D02*
X157100000Y-59500000D01*
X154112000Y-56512000D02*
X154112000Y-55958500D01*
D20*
%TO.N,EN*%
X167500000Y-65000000D02*
X164900000Y-65000000D01*
X168200000Y-65700000D02*
X167500000Y-65000000D01*
D14*
X164900000Y-65000000D02*
X164868040Y-65000000D01*
X162188639Y-62320600D02*
X162289020Y-62420980D01*
X156120600Y-62320600D02*
X162188639Y-62320600D01*
D20*
X170500000Y-68900000D02*
X169500000Y-68900000D01*
D14*
X162289020Y-62420980D02*
X162349020Y-62480981D01*
D20*
X169500000Y-68900000D02*
X168200000Y-67600000D01*
D14*
X164868040Y-65000000D02*
X162289020Y-62420980D01*
D20*
X168200000Y-67600000D02*
X168200000Y-65700000D01*
D14*
X155850000Y-62050000D02*
X156120600Y-62320600D01*
D20*
%TO.N,/Interface/SCL*%
X163327711Y-81767711D02*
X161998000Y-83097422D01*
X161998000Y-83097422D02*
X161998000Y-87000000D01*
X170100000Y-91500000D02*
X170530615Y-91069385D01*
X166498000Y-91500000D02*
X170100000Y-91500000D01*
X170530615Y-91069385D02*
X170530615Y-90569385D01*
X161998000Y-87000000D02*
X166498000Y-91500000D01*
%TO.N,/Interface/SDA*%
X169602000Y-91198000D02*
X169800000Y-91000000D01*
X162300000Y-83343516D02*
X162300000Y-86800000D01*
X166698000Y-91198000D02*
X169602000Y-91198000D01*
X163233516Y-82410000D02*
X162300000Y-83343516D01*
X163290000Y-82410000D02*
X163233516Y-82410000D01*
X162300000Y-86800000D02*
X166698000Y-91198000D01*
%TO.N,PWRKEY*%
X153786000Y-51264000D02*
X173164000Y-51264000D01*
X152000000Y-53350000D02*
X152000000Y-53050000D01*
X174550000Y-52650000D02*
X174550000Y-56300000D01*
X173164000Y-51264000D02*
X174550000Y-52650000D01*
X152000000Y-53050000D02*
X153786000Y-51264000D01*
D14*
%TO.N,/Interface/A0*%
X159600000Y-73100000D02*
X159600000Y-71600000D01*
X160550000Y-74050000D02*
X159600000Y-73100000D01*
D18*
%TO.N,/Interface/A2*%
X158012351Y-77562351D02*
X157550000Y-77100000D01*
X158274964Y-77562351D02*
X158012351Y-77562351D01*
X157550000Y-77100000D02*
X157550000Y-74000000D01*
D20*
%TO.N,/BG95/NET_STATUS*%
X167898000Y-67948000D02*
X168250000Y-68300000D01*
X167302000Y-65302000D02*
X164774907Y-65301999D01*
D14*
X156010000Y-62600000D02*
X162072908Y-62600000D01*
D20*
X167898000Y-67500000D02*
X167898000Y-67948000D01*
X155400000Y-62600000D02*
X155100000Y-62300000D01*
X167898000Y-67500000D02*
X167898000Y-65898000D01*
X167898000Y-65898000D02*
X167302000Y-65302000D01*
X155100000Y-59800000D02*
X154000000Y-58700000D01*
X156010000Y-62600000D02*
X155400000Y-62600000D01*
X167898000Y-67725092D02*
X167898000Y-67500000D01*
D14*
X162072908Y-62600000D02*
X162911454Y-63438546D01*
D20*
X164774907Y-65301999D02*
X162911454Y-63438546D01*
X155100000Y-62300000D02*
X155100000Y-59800000D01*
D14*
%TO.N,BG95_SPI0_CS*%
X162254600Y-80366910D02*
X162254600Y-76025400D01*
X162550512Y-80662822D02*
X162254600Y-80366910D01*
X162600000Y-73250000D02*
X163000000Y-72850000D01*
X162254600Y-76025400D02*
X162600000Y-75680000D01*
X162600000Y-75680000D02*
X162600000Y-73250000D01*
%TO.N,BG95_SPI0_SCLK*%
X162328680Y-81194936D02*
X161975200Y-80841456D01*
X162309400Y-72859400D02*
X162300000Y-72850000D01*
X161975200Y-80841456D02*
X161975200Y-75844800D01*
X162309400Y-75510600D02*
X162309400Y-72859400D01*
X161975200Y-75844800D02*
X162309400Y-75510600D01*
%TO.N,BG95_SPI0_MOSI*%
X162028200Y-75351800D02*
X162028200Y-73828200D01*
X161400700Y-84250000D02*
X161695800Y-83954900D01*
X162028200Y-73828200D02*
X161550000Y-73350000D01*
X161550000Y-73350000D02*
X161550000Y-71650000D01*
X161695800Y-75684200D02*
X162028200Y-75351800D01*
X161695800Y-83954900D02*
X161695800Y-75684200D01*
%TO.N,BG95_SPI0_MISO*%
X161600000Y-75270000D02*
X161393400Y-75476600D01*
X161393400Y-80830000D02*
X161393400Y-80656600D01*
X161393400Y-75476600D02*
X161393400Y-80830000D01*
X160950000Y-84500000D02*
X160950000Y-83900000D01*
X161393400Y-83456600D02*
X161393400Y-80830000D01*
X160950000Y-83900000D02*
X161393400Y-83456600D01*
X161600000Y-74199300D02*
X161600000Y-75270000D01*
X161500000Y-85050000D02*
X160950000Y-84500000D01*
%TO.N,BG95_I2C1_SCL*%
X164198100Y-87649300D02*
X163248800Y-86700000D01*
X163248800Y-86700000D02*
X163248800Y-83000000D01*
X164500000Y-87649300D02*
X164198100Y-87649300D01*
%TO.N,BG95_I2C1_SDA*%
X164221142Y-88100000D02*
X162798100Y-86676958D01*
X165100000Y-88100000D02*
X164221142Y-88100000D01*
X162798100Y-86676958D02*
X162798100Y-83611326D01*
D20*
%TO.N,BG95_GPIO17*%
X169780000Y-82716000D02*
X169208108Y-83287892D01*
X169208108Y-83287892D02*
X169208108Y-88641892D01*
X169208108Y-88641892D02*
X167950000Y-89900000D01*
%TO.N,BG95_GPIO19*%
X168906108Y-88393892D02*
X168150000Y-89150000D01*
X168906108Y-82107070D02*
X168906108Y-88393892D01*
X169147430Y-81865748D02*
X168906108Y-82107070D01*
X168150000Y-89150000D02*
X167750000Y-89150000D01*
%TO.N,BG95_GPIO21*%
X159641228Y-74775484D02*
X159776000Y-74910256D01*
X159776000Y-74910256D02*
X159776000Y-78526000D01*
X159776000Y-78526000D02*
X160500000Y-79250000D01*
D21*
%TO.N,/BG95/USB_P*%
X165179718Y-63669672D02*
X172529718Y-63669672D01*
X172280328Y-80729718D02*
X172280328Y-83470282D01*
X164105328Y-62595282D02*
X165179718Y-63669672D01*
X163800000Y-60750000D02*
X164105328Y-61055328D01*
X172879718Y-84069672D02*
X173869672Y-84069672D01*
X173869672Y-84069672D02*
X174100000Y-84300000D01*
X173830328Y-64970282D02*
X173830328Y-79179718D01*
X164105328Y-61055328D02*
X164105328Y-62595282D01*
X172280328Y-83470282D02*
X172879718Y-84069672D01*
X173830328Y-79179718D02*
X172280328Y-80729718D01*
X172529718Y-63669672D02*
X173830328Y-64970282D01*
%TO.N,/BG95/USB_N*%
X172619672Y-83329718D02*
X173039954Y-83750000D01*
X164444672Y-62454718D02*
X165320282Y-63330328D01*
X164444672Y-61055328D02*
X164444672Y-62454718D01*
X164800000Y-60700000D02*
X164444672Y-61055328D01*
X173039954Y-83750000D02*
X173850000Y-83750000D01*
X172619672Y-80870282D02*
X172619672Y-83329718D01*
X165320282Y-63330328D02*
X172670282Y-63330328D01*
X172670282Y-63330328D02*
X174169672Y-64829718D01*
X173850000Y-83750000D02*
X174100000Y-83500000D01*
X174169672Y-79320282D02*
X172619672Y-80870282D01*
X174169672Y-64829718D02*
X174169672Y-79320282D01*
%TD*%
%TA.AperFunction,Conductor*%
%TO.N,GND*%
G36*
X158798700Y-70395014D02*
G01*
X158893714Y-70443426D01*
X158893716Y-70443426D01*
X158893718Y-70443427D01*
X158939058Y-70450608D01*
X159004000Y-70460894D01*
X159027755Y-70457131D01*
X159097046Y-70466084D01*
X159150499Y-70511079D01*
X159171140Y-70577830D01*
X159152417Y-70645144D01*
X159146107Y-70654331D01*
X159126756Y-70679956D01*
X159121113Y-70686441D01*
X158445050Y-71362504D01*
X158438571Y-71368142D01*
X158429876Y-71374709D01*
X158400205Y-71407256D01*
X158398231Y-71409324D01*
X158385592Y-71421963D01*
X158385582Y-71421975D01*
X158384365Y-71423752D01*
X158379044Y-71430468D01*
X158359978Y-71451384D01*
X158359977Y-71451386D01*
X158358063Y-71456327D01*
X158344741Y-71481600D01*
X158341750Y-71485966D01*
X158341747Y-71485971D01*
X158335266Y-71513523D01*
X158332725Y-71521730D01*
X158322500Y-71548125D01*
X158322500Y-71553422D01*
X158319206Y-71581812D01*
X158317995Y-71586958D01*
X158317995Y-71586962D01*
X158321385Y-71611268D01*
X158321905Y-71614991D01*
X158322500Y-71623566D01*
X158322500Y-74641632D01*
X158321905Y-74650206D01*
X158320400Y-74660993D01*
X158320400Y-74660996D01*
X158320400Y-74660997D01*
X158321180Y-74677858D01*
X158322434Y-74704990D01*
X158322500Y-74707853D01*
X158322500Y-74725709D01*
X158322501Y-74725722D01*
X158322893Y-74727819D01*
X158323883Y-74736352D01*
X158325191Y-74764634D01*
X158327333Y-74769484D01*
X158335784Y-74796777D01*
X158336756Y-74801979D01*
X158336758Y-74801983D01*
X158351656Y-74826046D01*
X158355663Y-74833648D01*
X158367096Y-74859541D01*
X158367097Y-74859543D01*
X158370841Y-74863287D01*
X158388585Y-74885687D01*
X158391372Y-74890188D01*
X158413959Y-74907245D01*
X158420436Y-74912881D01*
X158774980Y-75267424D01*
X159086181Y-75578625D01*
X159119666Y-75639948D01*
X159122500Y-75666306D01*
X159122500Y-79601829D01*
X159102815Y-79668868D01*
X159050011Y-79714623D01*
X158980853Y-79724567D01*
X158942206Y-79712314D01*
X158860283Y-79670572D01*
X158750002Y-79653106D01*
X158749998Y-79653106D01*
X158639718Y-79670572D01*
X158540221Y-79721268D01*
X158540217Y-79721271D01*
X158461271Y-79800217D01*
X158461268Y-79800221D01*
X158410572Y-79899718D01*
X158393106Y-80009997D01*
X158393106Y-80010002D01*
X158410572Y-80120281D01*
X158410573Y-80120284D01*
X158410574Y-80120286D01*
X158458986Y-80215300D01*
X158472500Y-80271591D01*
X158472500Y-81191632D01*
X158471905Y-81200206D01*
X158470400Y-81210993D01*
X158472434Y-81254990D01*
X158472500Y-81257853D01*
X158472500Y-81275709D01*
X158472501Y-81275722D01*
X158472893Y-81277819D01*
X158473883Y-81286352D01*
X158475191Y-81314634D01*
X158477333Y-81319484D01*
X158485784Y-81346777D01*
X158486756Y-81351979D01*
X158486758Y-81351983D01*
X158501656Y-81376046D01*
X158505663Y-81383648D01*
X158517096Y-81409541D01*
X158517097Y-81409543D01*
X158520841Y-81413287D01*
X158538585Y-81435687D01*
X158541372Y-81440188D01*
X158563959Y-81457245D01*
X158570436Y-81462881D01*
X159462512Y-82354956D01*
X159468149Y-82361434D01*
X159474714Y-82370129D01*
X159507268Y-82399805D01*
X159509339Y-82401783D01*
X159521961Y-82414405D01*
X159523741Y-82415624D01*
X159530455Y-82420943D01*
X159551385Y-82440022D01*
X159556325Y-82441935D01*
X159581602Y-82455259D01*
X159585971Y-82458252D01*
X159613528Y-82464733D01*
X159621723Y-82467271D01*
X159648126Y-82477500D01*
X159648127Y-82477500D01*
X159648130Y-82477501D01*
X159654415Y-82478676D01*
X159716696Y-82510344D01*
X159751968Y-82570657D01*
X159749034Y-82640465D01*
X159719310Y-82688245D01*
X158595050Y-83812504D01*
X158588570Y-83818144D01*
X158579875Y-83824711D01*
X158579872Y-83824713D01*
X158579872Y-83824714D01*
X158574150Y-83830991D01*
X158550205Y-83857256D01*
X158548231Y-83859324D01*
X158535592Y-83871963D01*
X158535582Y-83871975D01*
X158534365Y-83873752D01*
X158529044Y-83880468D01*
X158509978Y-83901384D01*
X158509977Y-83901386D01*
X158508063Y-83906327D01*
X158494741Y-83931600D01*
X158491750Y-83935966D01*
X158491747Y-83935971D01*
X158485266Y-83963523D01*
X158482725Y-83971730D01*
X158472500Y-83998125D01*
X158472500Y-84003422D01*
X158469206Y-84031812D01*
X158467995Y-84036958D01*
X158467995Y-84036962D01*
X158471905Y-84064991D01*
X158472500Y-84073566D01*
X158472500Y-85588408D01*
X158458985Y-85644700D01*
X158410574Y-85739714D01*
X158410572Y-85739718D01*
X158393106Y-85849997D01*
X158393106Y-85850002D01*
X158410572Y-85960281D01*
X158410573Y-85960284D01*
X158410574Y-85960286D01*
X158461169Y-86059584D01*
X158461268Y-86059778D01*
X158461271Y-86059782D01*
X158536608Y-86135119D01*
X158570093Y-86196442D01*
X158565109Y-86266134D01*
X158523237Y-86322067D01*
X158457773Y-86346484D01*
X158448927Y-86346800D01*
X157855251Y-86346800D01*
X157788212Y-86327115D01*
X157767570Y-86310481D01*
X156886019Y-85428930D01*
X156852534Y-85367607D01*
X156849700Y-85341249D01*
X156849700Y-83185521D01*
X156869385Y-83118482D01*
X156917405Y-83075036D01*
X156929777Y-83068733D01*
X156998508Y-83000002D01*
X157523106Y-83000002D01*
X157540572Y-83110281D01*
X157540573Y-83110284D01*
X157540574Y-83110286D01*
X157584934Y-83197347D01*
X157591268Y-83209778D01*
X157591271Y-83209782D01*
X157670217Y-83288728D01*
X157670221Y-83288731D01*
X157670223Y-83288733D01*
X157769714Y-83339426D01*
X157769716Y-83339426D01*
X157769718Y-83339427D01*
X157879998Y-83356894D01*
X157880000Y-83356894D01*
X157880002Y-83356894D01*
X157990281Y-83339427D01*
X157990281Y-83339426D01*
X157990286Y-83339426D01*
X158089777Y-83288733D01*
X158168733Y-83209777D01*
X158219426Y-83110286D01*
X158225223Y-83073688D01*
X158236894Y-83000002D01*
X158236894Y-82999997D01*
X158219427Y-82889718D01*
X158219426Y-82889716D01*
X158219426Y-82889714D01*
X158168733Y-82790223D01*
X158168731Y-82790221D01*
X158168728Y-82790217D01*
X158089782Y-82711271D01*
X158089778Y-82711268D01*
X158089777Y-82711267D01*
X157990286Y-82660574D01*
X157990284Y-82660573D01*
X157990281Y-82660572D01*
X157880002Y-82643106D01*
X157879998Y-82643106D01*
X157769718Y-82660572D01*
X157769714Y-82660573D01*
X157769714Y-82660574D01*
X157757310Y-82666894D01*
X157670221Y-82711268D01*
X157670217Y-82711271D01*
X157591271Y-82790217D01*
X157591268Y-82790221D01*
X157540572Y-82889718D01*
X157523106Y-82999997D01*
X157523106Y-83000002D01*
X156998508Y-83000002D01*
X157008733Y-82989777D01*
X157059426Y-82890286D01*
X157059517Y-82889714D01*
X157076894Y-82780002D01*
X157076894Y-82779997D01*
X157059427Y-82669718D01*
X157059426Y-82669716D01*
X157059426Y-82669714D01*
X157008733Y-82570223D01*
X157008731Y-82570221D01*
X157008728Y-82570217D01*
X156929782Y-82491271D01*
X156929779Y-82491269D01*
X156929777Y-82491267D01*
X156830286Y-82440574D01*
X156830284Y-82440573D01*
X156821591Y-82436144D01*
X156823231Y-82432924D01*
X156780473Y-82403660D01*
X156753302Y-82339290D01*
X156752500Y-82325208D01*
X156752500Y-75412879D01*
X156772185Y-75345840D01*
X156824989Y-75300085D01*
X156894147Y-75290141D01*
X156895898Y-75290406D01*
X156999998Y-75306894D01*
X157000000Y-75306894D01*
X157000002Y-75306894D01*
X157110280Y-75289427D01*
X157110280Y-75289426D01*
X157110286Y-75289426D01*
X157117206Y-75285900D01*
X157185870Y-75273003D01*
X157250611Y-75299276D01*
X157290870Y-75356381D01*
X157297500Y-75396384D01*
X157297500Y-77062913D01*
X157295117Y-77087105D01*
X157292552Y-77100000D01*
X157297972Y-77127245D01*
X157312149Y-77198520D01*
X157316784Y-77205457D01*
X157367957Y-77282043D01*
X157378890Y-77289348D01*
X157397680Y-77304769D01*
X157807580Y-77714669D01*
X157823001Y-77733459D01*
X157830308Y-77744394D01*
X157910725Y-77798126D01*
X157913830Y-77800201D01*
X158002361Y-77817811D01*
X158056657Y-77846213D01*
X158057288Y-77845345D01*
X158063179Y-77849624D01*
X158064271Y-77850196D01*
X158065138Y-77851048D01*
X158065185Y-77851082D01*
X158065187Y-77851084D01*
X158164678Y-77901777D01*
X158164680Y-77901777D01*
X158164682Y-77901778D01*
X158274962Y-77919245D01*
X158274964Y-77919245D01*
X158274966Y-77919245D01*
X158385245Y-77901778D01*
X158385245Y-77901777D01*
X158385250Y-77901777D01*
X158484741Y-77851084D01*
X158563697Y-77772128D01*
X158614390Y-77672637D01*
X158619524Y-77640223D01*
X158631858Y-77562353D01*
X158631858Y-77562348D01*
X158614391Y-77452069D01*
X158614390Y-77452067D01*
X158614390Y-77452065D01*
X158563697Y-77352574D01*
X158563695Y-77352572D01*
X158563692Y-77352568D01*
X158484746Y-77273622D01*
X158484742Y-77273619D01*
X158484741Y-77273618D01*
X158431545Y-77246513D01*
X158380751Y-77198540D01*
X158363956Y-77130720D01*
X158386493Y-77064585D01*
X158400162Y-77048348D01*
X158438729Y-77009781D01*
X158438733Y-77009777D01*
X158489426Y-76910286D01*
X158496902Y-76863086D01*
X158506894Y-76800002D01*
X158506894Y-76799997D01*
X158489427Y-76689718D01*
X158489426Y-76689716D01*
X158489426Y-76689714D01*
X158438733Y-76590223D01*
X158438731Y-76590221D01*
X158438728Y-76590217D01*
X158359782Y-76511271D01*
X158359778Y-76511268D01*
X158359777Y-76511267D01*
X158260286Y-76460574D01*
X158260284Y-76460573D01*
X158260281Y-76460572D01*
X158150002Y-76443106D01*
X158149998Y-76443106D01*
X158039716Y-76460572D01*
X157982794Y-76489576D01*
X157914125Y-76502472D01*
X157849385Y-76476195D01*
X157809128Y-76419088D01*
X157802500Y-76379091D01*
X157802500Y-74297372D01*
X157822185Y-74230333D01*
X157838572Y-74209997D01*
X157838728Y-74209781D01*
X157838733Y-74209777D01*
X157889426Y-74110286D01*
X157889427Y-74110281D01*
X157906894Y-74000002D01*
X157906894Y-73999997D01*
X157889427Y-73889718D01*
X157889426Y-73889716D01*
X157889426Y-73889714D01*
X157838733Y-73790223D01*
X157838731Y-73790221D01*
X157838728Y-73790217D01*
X157759782Y-73711271D01*
X157759778Y-73711268D01*
X157759777Y-73711267D01*
X157660286Y-73660574D01*
X157660284Y-73660573D01*
X157660281Y-73660572D01*
X157550002Y-73643106D01*
X157549998Y-73643106D01*
X157439718Y-73660572D01*
X157340221Y-73711268D01*
X157340217Y-73711271D01*
X157261271Y-73790217D01*
X157261268Y-73790221D01*
X157210572Y-73889718D01*
X157193106Y-73999997D01*
X157193106Y-74000002D01*
X157210572Y-74110281D01*
X157210573Y-74110284D01*
X157210574Y-74110286D01*
X157251838Y-74191271D01*
X157261268Y-74209778D01*
X157267006Y-74217676D01*
X157265956Y-74218438D01*
X157294664Y-74271005D01*
X157297500Y-74297372D01*
X157297500Y-74503615D01*
X157277815Y-74570654D01*
X157225011Y-74616409D01*
X157155853Y-74626353D01*
X157117207Y-74614100D01*
X157110284Y-74610573D01*
X157000002Y-74593106D01*
X156999996Y-74593106D01*
X156895897Y-74609593D01*
X156826604Y-74600638D01*
X156773152Y-74555641D01*
X156752513Y-74488890D01*
X156752500Y-74487120D01*
X156752500Y-71400002D01*
X157343106Y-71400002D01*
X157360572Y-71510281D01*
X157360573Y-71510284D01*
X157360574Y-71510286D01*
X157411267Y-71609777D01*
X157411268Y-71609778D01*
X157411271Y-71609782D01*
X157490217Y-71688728D01*
X157490221Y-71688731D01*
X157490223Y-71688733D01*
X157589714Y-71739426D01*
X157589716Y-71739426D01*
X157589718Y-71739427D01*
X157699998Y-71756894D01*
X157700000Y-71756894D01*
X157700002Y-71756894D01*
X157810281Y-71739427D01*
X157810281Y-71739426D01*
X157810286Y-71739426D01*
X157909777Y-71688733D01*
X157988733Y-71609777D01*
X158039426Y-71510286D01*
X158039427Y-71510281D01*
X158056894Y-71400002D01*
X158056894Y-71399997D01*
X158039427Y-71289718D01*
X158039426Y-71289716D01*
X158039426Y-71289714D01*
X157988733Y-71190223D01*
X157988731Y-71190221D01*
X157988728Y-71190217D01*
X157909782Y-71111271D01*
X157909778Y-71111268D01*
X157909777Y-71111267D01*
X157810286Y-71060574D01*
X157810284Y-71060573D01*
X157810281Y-71060572D01*
X157700002Y-71043106D01*
X157699998Y-71043106D01*
X157589718Y-71060572D01*
X157490221Y-71111268D01*
X157490217Y-71111271D01*
X157411271Y-71190217D01*
X157411268Y-71190221D01*
X157411267Y-71190223D01*
X157368706Y-71273755D01*
X157360572Y-71289718D01*
X157343106Y-71399997D01*
X157343106Y-71400002D01*
X156752500Y-71400002D01*
X156752500Y-71291306D01*
X156772185Y-71224267D01*
X156788819Y-71203625D01*
X157574625Y-70417819D01*
X157635948Y-70384334D01*
X157662306Y-70381500D01*
X158742408Y-70381500D01*
X158798700Y-70395014D01*
G37*
%TD.AperFunction*%
%TA.AperFunction,Conductor*%
G36*
X163521787Y-72564722D02*
G01*
X163657582Y-72700517D01*
X163691066Y-72761838D01*
X163693900Y-72788197D01*
X163693900Y-74016550D01*
X163674215Y-74083589D01*
X163621411Y-74129344D01*
X163552253Y-74139288D01*
X163550503Y-74139023D01*
X163450003Y-74123106D01*
X163449998Y-74123106D01*
X163339718Y-74140572D01*
X163240221Y-74191268D01*
X163240217Y-74191271D01*
X163161271Y-74270217D01*
X163161268Y-74270221D01*
X163161267Y-74270223D01*
X163125929Y-74339579D01*
X163110572Y-74369718D01*
X163093106Y-74479997D01*
X163093106Y-74480002D01*
X163110572Y-74590281D01*
X163110573Y-74590284D01*
X163110574Y-74590286D01*
X163159261Y-74685840D01*
X163161268Y-74689778D01*
X163161271Y-74689782D01*
X163240217Y-74768728D01*
X163240221Y-74768731D01*
X163240223Y-74768733D01*
X163339714Y-74819426D01*
X163339716Y-74819426D01*
X163339718Y-74819427D01*
X163449998Y-74836894D01*
X163450000Y-74836894D01*
X163450002Y-74836894D01*
X163550502Y-74820976D01*
X163619795Y-74829930D01*
X163673247Y-74874926D01*
X163693887Y-74941678D01*
X163693900Y-74943449D01*
X163693900Y-76001920D01*
X163690788Y-76020239D01*
X163691539Y-76020324D01*
X163689974Y-76034205D01*
X163691046Y-76043715D01*
X163693510Y-76065586D01*
X163693900Y-76072523D01*
X163693900Y-76080556D01*
X163695687Y-76088387D01*
X163696851Y-76095240D01*
X163700385Y-76126607D01*
X163704262Y-76137688D01*
X163709350Y-76148252D01*
X163709351Y-76148254D01*
X163709352Y-76148255D01*
X163729038Y-76172940D01*
X163733048Y-76178591D01*
X163737331Y-76185407D01*
X163737334Y-76185410D01*
X163743005Y-76191081D01*
X163747641Y-76196268D01*
X163753558Y-76203687D01*
X163767328Y-76220954D01*
X163778253Y-76229666D01*
X163777780Y-76230258D01*
X163792932Y-76241008D01*
X164351926Y-76800002D01*
X164890581Y-77338656D01*
X164924066Y-77399979D01*
X164926900Y-77426337D01*
X164926900Y-80023661D01*
X164907215Y-80090700D01*
X164890581Y-80111342D01*
X164315330Y-80686592D01*
X164300181Y-80697342D01*
X164300653Y-80697933D01*
X164289728Y-80706645D01*
X164270046Y-80731324D01*
X164265417Y-80736505D01*
X164259732Y-80742190D01*
X164259732Y-80742191D01*
X164259731Y-80742193D01*
X164255453Y-80749000D01*
X164251432Y-80754667D01*
X164231752Y-80779344D01*
X164226657Y-80789922D01*
X164222786Y-80800989D01*
X164219251Y-80832363D01*
X164218086Y-80839218D01*
X164216300Y-80847046D01*
X164216300Y-80855075D01*
X164215910Y-80862014D01*
X164213791Y-80880825D01*
X164212375Y-80893391D01*
X164213940Y-80907275D01*
X164213187Y-80907359D01*
X164216300Y-80925679D01*
X164216300Y-82259961D01*
X164196615Y-82327000D01*
X164179981Y-82347642D01*
X163791030Y-82736592D01*
X163757073Y-82760668D01*
X163756684Y-82760855D01*
X163687735Y-82772160D01*
X163623620Y-82744393D01*
X163584694Y-82686370D01*
X163583318Y-82616514D01*
X163592471Y-82592813D01*
X163629426Y-82520286D01*
X163629507Y-82519778D01*
X163646894Y-82410002D01*
X163646894Y-82409997D01*
X163629427Y-82299718D01*
X163629426Y-82299716D01*
X163629426Y-82299714D01*
X163578733Y-82200223D01*
X163578731Y-82200221D01*
X163578728Y-82200217D01*
X163573902Y-82195391D01*
X163540417Y-82134068D01*
X163545401Y-82064376D01*
X163573902Y-82020029D01*
X163616444Y-81977488D01*
X163667137Y-81877997D01*
X163667138Y-81877992D01*
X163684605Y-81767713D01*
X163684605Y-81767708D01*
X163667138Y-81657429D01*
X163667137Y-81657427D01*
X163667137Y-81657425D01*
X163616444Y-81557934D01*
X163616442Y-81557932D01*
X163616439Y-81557928D01*
X163537493Y-81478982D01*
X163537489Y-81478979D01*
X163537488Y-81478978D01*
X163437997Y-81428285D01*
X163437995Y-81428284D01*
X163437992Y-81428283D01*
X163327713Y-81410817D01*
X163327709Y-81410817D01*
X163217429Y-81428283D01*
X163117932Y-81478979D01*
X163117928Y-81478982D01*
X163038982Y-81557928D01*
X163038979Y-81557932D01*
X162988283Y-81657429D01*
X162970817Y-81767708D01*
X162970817Y-81777470D01*
X162968767Y-81777470D01*
X162961419Y-81834269D01*
X162935588Y-81872039D01*
X162111181Y-82696447D01*
X162049858Y-82729932D01*
X161980167Y-82724948D01*
X161924233Y-82683076D01*
X161899816Y-82617612D01*
X161899500Y-82608766D01*
X161899500Y-81563629D01*
X161919185Y-81496590D01*
X161971989Y-81450835D01*
X162041147Y-81440891D01*
X162104703Y-81469916D01*
X162111181Y-81475948D01*
X162118897Y-81483664D01*
X162118901Y-81483667D01*
X162118903Y-81483669D01*
X162218394Y-81534362D01*
X162218396Y-81534362D01*
X162218398Y-81534363D01*
X162328678Y-81551830D01*
X162328680Y-81551830D01*
X162328682Y-81551830D01*
X162438961Y-81534363D01*
X162438961Y-81534362D01*
X162438966Y-81534362D01*
X162538457Y-81483669D01*
X162617413Y-81404713D01*
X162668106Y-81305222D01*
X162672779Y-81275722D01*
X162679098Y-81235823D01*
X162685574Y-81194936D01*
X162669577Y-81093937D01*
X162678531Y-81024644D01*
X162723527Y-80971192D01*
X162735742Y-80964061D01*
X162760289Y-80951555D01*
X162839245Y-80872599D01*
X162889938Y-80773108D01*
X162890357Y-80770462D01*
X162907406Y-80662824D01*
X162907406Y-80662819D01*
X162889939Y-80552540D01*
X162889938Y-80552538D01*
X162889938Y-80552536D01*
X162839245Y-80453045D01*
X162839243Y-80453043D01*
X162839240Y-80453039D01*
X162760294Y-80374093D01*
X162760290Y-80374090D01*
X162760289Y-80374089D01*
X162660798Y-80323396D01*
X162660796Y-80323395D01*
X162660793Y-80323394D01*
X162562901Y-80307889D01*
X162499766Y-80277959D01*
X162462836Y-80218647D01*
X162458300Y-80185416D01*
X162458300Y-76161136D01*
X162477985Y-76094097D01*
X162494615Y-76073459D01*
X162704664Y-75863409D01*
X162719816Y-75852660D01*
X162719344Y-75852069D01*
X162730268Y-75843356D01*
X162730271Y-75843355D01*
X162749960Y-75818664D01*
X162754591Y-75813483D01*
X162760268Y-75807807D01*
X162764539Y-75801008D01*
X162768554Y-75795348D01*
X162788248Y-75770655D01*
X162788248Y-75770651D01*
X162793339Y-75760082D01*
X162797211Y-75749013D01*
X162797214Y-75749009D01*
X162800749Y-75717626D01*
X162801915Y-75710772D01*
X162803700Y-75702954D01*
X162803700Y-75694923D01*
X162804089Y-75687986D01*
X162807625Y-75656606D01*
X162807625Y-75656605D01*
X162806061Y-75642724D01*
X162806811Y-75642639D01*
X162803700Y-75624320D01*
X162803700Y-73385737D01*
X162823385Y-73318698D01*
X162840018Y-73298057D01*
X162866009Y-73272066D01*
X162895915Y-73242159D01*
X162957236Y-73208675D01*
X162990240Y-73207733D01*
X162990240Y-73206894D01*
X163000002Y-73206894D01*
X163110281Y-73189427D01*
X163110281Y-73189426D01*
X163110286Y-73189426D01*
X163209777Y-73138733D01*
X163288733Y-73059777D01*
X163339426Y-72960286D01*
X163341367Y-72948031D01*
X163356894Y-72850002D01*
X163356894Y-72849997D01*
X163339427Y-72739717D01*
X163339426Y-72739715D01*
X163339426Y-72739714D01*
X163323622Y-72708697D01*
X163310726Y-72640032D01*
X163337001Y-72575292D01*
X163394107Y-72535034D01*
X163463913Y-72532040D01*
X163521787Y-72564722D01*
G37*
%TD.AperFunction*%
%TA.AperFunction,Conductor*%
G36*
X160322700Y-71157014D02*
G01*
X160417714Y-71205426D01*
X160417716Y-71205426D01*
X160417718Y-71205427D01*
X160527998Y-71222894D01*
X160528000Y-71222894D01*
X160528002Y-71222894D01*
X160647925Y-71203900D01*
X160648267Y-71206062D01*
X160705006Y-71204434D01*
X160764844Y-71240506D01*
X160795681Y-71303203D01*
X160797500Y-71324365D01*
X160797500Y-73587120D01*
X160777815Y-73654159D01*
X160725011Y-73699914D01*
X160655853Y-73709858D01*
X160654103Y-73709593D01*
X160550004Y-73693106D01*
X160540242Y-73693106D01*
X160540242Y-73690985D01*
X160483690Y-73683672D01*
X160445915Y-73657839D01*
X159840019Y-73051943D01*
X159806534Y-72990620D01*
X159803700Y-72964262D01*
X159803700Y-71946172D01*
X159823385Y-71879133D01*
X159840020Y-71858490D01*
X159888729Y-71809781D01*
X159888733Y-71809777D01*
X159939426Y-71710286D01*
X159942841Y-71688728D01*
X159956894Y-71600002D01*
X159956894Y-71599997D01*
X159939427Y-71489718D01*
X159939426Y-71489716D01*
X159939426Y-71489714D01*
X159888733Y-71390223D01*
X159888731Y-71390221D01*
X159888728Y-71390217D01*
X159853692Y-71355181D01*
X159820207Y-71293858D01*
X159825191Y-71224166D01*
X159867063Y-71168233D01*
X159932527Y-71143816D01*
X159941373Y-71143500D01*
X160266408Y-71143500D01*
X160322700Y-71157014D01*
G37*
%TD.AperFunction*%
%TA.AperFunction,Conductor*%
G36*
X169500732Y-74997185D02*
G01*
X169521374Y-75013819D01*
X170621306Y-76113750D01*
X170654791Y-76175073D01*
X170656098Y-76182032D01*
X170660572Y-76210283D01*
X170670750Y-76230258D01*
X170711267Y-76309777D01*
X170711269Y-76309779D01*
X170711271Y-76309782D01*
X170790217Y-76388728D01*
X170790221Y-76388731D01*
X170790223Y-76388733D01*
X170889714Y-76439426D01*
X170915137Y-76443452D01*
X170978271Y-76473382D01*
X170979276Y-76474288D01*
X171007256Y-76499794D01*
X171009328Y-76501773D01*
X171021961Y-76514406D01*
X171023733Y-76515620D01*
X171030467Y-76520954D01*
X171051383Y-76540020D01*
X171051385Y-76540022D01*
X171056322Y-76541934D01*
X171081600Y-76555259D01*
X171085971Y-76558253D01*
X171108872Y-76563638D01*
X171113524Y-76564733D01*
X171121740Y-76567277D01*
X171148126Y-76577500D01*
X171153419Y-76577500D01*
X171181809Y-76580793D01*
X171186963Y-76582006D01*
X171215001Y-76578094D01*
X171223575Y-76577500D01*
X171698500Y-76577500D01*
X171765539Y-76597185D01*
X171811294Y-76649989D01*
X171822500Y-76701500D01*
X171822500Y-77083694D01*
X171802815Y-77150733D01*
X171786181Y-77171375D01*
X171421375Y-77536181D01*
X171360052Y-77569666D01*
X171333694Y-77572500D01*
X170011592Y-77572500D01*
X169955299Y-77558985D01*
X169860286Y-77510574D01*
X169860284Y-77510573D01*
X169860281Y-77510572D01*
X169750002Y-77493106D01*
X169749998Y-77493106D01*
X169639718Y-77510572D01*
X169540221Y-77561268D01*
X169540217Y-77561271D01*
X169461271Y-77640217D01*
X169461268Y-77640221D01*
X169410572Y-77739718D01*
X169393106Y-77849997D01*
X169393106Y-77850002D01*
X169410572Y-77960281D01*
X169410573Y-77960284D01*
X169410574Y-77960286D01*
X169458986Y-78055300D01*
X169472500Y-78111591D01*
X169472500Y-78183693D01*
X169452815Y-78250732D01*
X169436181Y-78271374D01*
X169176851Y-78530703D01*
X169115528Y-78564188D01*
X169045836Y-78559204D01*
X168989903Y-78517332D01*
X168965486Y-78451868D01*
X168969358Y-78420156D01*
X168967900Y-78419925D01*
X168986894Y-78300002D01*
X168986894Y-78299997D01*
X168969427Y-78189718D01*
X168969426Y-78189716D01*
X168969426Y-78189714D01*
X168921014Y-78094700D01*
X168907500Y-78038408D01*
X168907500Y-76455373D01*
X168927185Y-76388334D01*
X168979989Y-76342579D01*
X169049147Y-76332635D01*
X169112703Y-76361660D01*
X169119181Y-76367692D01*
X169150917Y-76399428D01*
X169150921Y-76399431D01*
X169150923Y-76399433D01*
X169250414Y-76450126D01*
X169250416Y-76450126D01*
X169250418Y-76450127D01*
X169360698Y-76467594D01*
X169360700Y-76467594D01*
X169360702Y-76467594D01*
X169470981Y-76450127D01*
X169470981Y-76450126D01*
X169470986Y-76450126D01*
X169570477Y-76399433D01*
X169649433Y-76320477D01*
X169700126Y-76220986D01*
X169705761Y-76185410D01*
X169717594Y-76110702D01*
X169717594Y-76110697D01*
X169700127Y-76000418D01*
X169700126Y-76000416D01*
X169700126Y-76000414D01*
X169649433Y-75900923D01*
X169649431Y-75900921D01*
X169649428Y-75900917D01*
X169570482Y-75821971D01*
X169570478Y-75821968D01*
X169570477Y-75821967D01*
X169470986Y-75771274D01*
X169470984Y-75771273D01*
X169470981Y-75771272D01*
X169360702Y-75753806D01*
X169360698Y-75753806D01*
X169250418Y-75771272D01*
X169150921Y-75821968D01*
X169150917Y-75821971D01*
X169071971Y-75900917D01*
X169071969Y-75900921D01*
X169071967Y-75900923D01*
X169026724Y-75989718D01*
X169023187Y-75996660D01*
X168975212Y-76047456D01*
X168907391Y-76064251D01*
X168841256Y-76041714D01*
X168837973Y-76039317D01*
X168816035Y-76022749D01*
X168809551Y-76017107D01*
X168731819Y-75939375D01*
X168698334Y-75878052D01*
X168695500Y-75851694D01*
X168695500Y-75166838D01*
X168715185Y-75099799D01*
X168767989Y-75054044D01*
X168837147Y-75044100D01*
X168838851Y-75044357D01*
X168890694Y-75052569D01*
X168917999Y-75056894D01*
X168918000Y-75056894D01*
X168918002Y-75056894D01*
X169028281Y-75039427D01*
X169028281Y-75039426D01*
X169028286Y-75039426D01*
X169123299Y-74991014D01*
X169179592Y-74977500D01*
X169433693Y-74977500D01*
X169500732Y-74997185D01*
G37*
%TD.AperFunction*%
%TA.AperFunction,Conductor*%
G36*
X171300732Y-71197185D02*
G01*
X171321369Y-71213814D01*
X171486277Y-71378722D01*
X171519761Y-71440043D01*
X171514777Y-71509734D01*
X171472906Y-71565668D01*
X171407441Y-71590085D01*
X171342302Y-71576887D01*
X171337189Y-71574282D01*
X171310286Y-71560574D01*
X171310285Y-71560573D01*
X171310282Y-71560572D01*
X171200002Y-71543106D01*
X171199998Y-71543106D01*
X171089718Y-71560572D01*
X170990221Y-71611268D01*
X170990217Y-71611271D01*
X170911271Y-71690217D01*
X170911268Y-71690221D01*
X170911267Y-71690223D01*
X170865897Y-71779268D01*
X170860572Y-71789718D01*
X170843106Y-71899997D01*
X170843106Y-71900002D01*
X170860572Y-72010281D01*
X170860573Y-72010284D01*
X170860574Y-72010286D01*
X170911267Y-72109777D01*
X170911268Y-72109778D01*
X170911271Y-72109782D01*
X170990217Y-72188728D01*
X170990221Y-72188731D01*
X170990223Y-72188733D01*
X171089714Y-72239426D01*
X171089716Y-72239426D01*
X171089718Y-72239427D01*
X171199998Y-72256894D01*
X171200000Y-72256894D01*
X171200002Y-72256894D01*
X171310281Y-72239427D01*
X171310281Y-72239426D01*
X171310286Y-72239426D01*
X171409777Y-72188733D01*
X171488733Y-72109777D01*
X171539426Y-72010286D01*
X171540310Y-72004703D01*
X171556894Y-71900002D01*
X171556894Y-71899997D01*
X171539427Y-71789717D01*
X171539426Y-71789715D01*
X171539426Y-71789714D01*
X171523112Y-71757696D01*
X171510216Y-71689031D01*
X171536491Y-71624291D01*
X171593597Y-71584033D01*
X171663403Y-71581039D01*
X171721277Y-71613721D01*
X171786182Y-71678626D01*
X171819666Y-71739947D01*
X171822500Y-71766306D01*
X171822500Y-75898500D01*
X171802815Y-75965539D01*
X171750011Y-76011294D01*
X171698500Y-76022500D01*
X171432118Y-76022500D01*
X171365079Y-76002815D01*
X171321633Y-75954794D01*
X171313777Y-75939375D01*
X171288733Y-75890223D01*
X171288730Y-75890220D01*
X171288728Y-75890217D01*
X171209782Y-75811271D01*
X171209779Y-75811269D01*
X171209777Y-75811267D01*
X171110286Y-75760574D01*
X171082032Y-75756098D01*
X171018899Y-75726168D01*
X171013752Y-75721307D01*
X170901125Y-75608680D01*
X170867640Y-75547357D01*
X170872624Y-75477665D01*
X170914496Y-75421732D01*
X170932499Y-75410521D01*
X171021596Y-75365125D01*
X171100552Y-75286169D01*
X171151245Y-75186678D01*
X171151412Y-75185624D01*
X171168713Y-75076394D01*
X171168713Y-75076389D01*
X171151246Y-74966110D01*
X171151245Y-74966108D01*
X171151245Y-74966106D01*
X171100552Y-74866615D01*
X171100550Y-74866613D01*
X171100547Y-74866609D01*
X171021601Y-74787663D01*
X171021598Y-74787661D01*
X171021596Y-74787659D01*
X170963250Y-74757930D01*
X170912455Y-74709956D01*
X170895660Y-74642135D01*
X170918198Y-74576000D01*
X170952932Y-74545908D01*
X170951885Y-74544466D01*
X170959770Y-74538736D01*
X170959777Y-74538733D01*
X171038733Y-74459777D01*
X171089426Y-74360286D01*
X171091782Y-74345411D01*
X171106894Y-74250002D01*
X171106894Y-74249997D01*
X171089427Y-74139718D01*
X171089426Y-74139716D01*
X171089426Y-74139714D01*
X171038733Y-74040223D01*
X171038731Y-74040221D01*
X171038728Y-74040217D01*
X170959782Y-73961271D01*
X170959778Y-73961268D01*
X170959777Y-73961267D01*
X170860286Y-73910574D01*
X170860284Y-73910573D01*
X170860281Y-73910572D01*
X170750002Y-73893106D01*
X170749998Y-73893106D01*
X170639718Y-73910572D01*
X170639714Y-73910573D01*
X170639714Y-73910574D01*
X170544700Y-73958985D01*
X170488408Y-73972500D01*
X169816307Y-73972500D01*
X169749268Y-73952815D01*
X169728626Y-73936181D01*
X169463819Y-73671374D01*
X169430334Y-73610051D01*
X169427500Y-73583693D01*
X169427500Y-72358365D01*
X169428095Y-72349789D01*
X169429598Y-72339008D01*
X169429600Y-72339003D01*
X169427566Y-72295009D01*
X169427500Y-72292146D01*
X169427500Y-72274282D01*
X169427107Y-72272182D01*
X169426115Y-72263637D01*
X169425803Y-72256894D01*
X169424808Y-72235366D01*
X169424806Y-72235361D01*
X169422669Y-72230520D01*
X169414216Y-72203222D01*
X169413244Y-72198023D01*
X169413243Y-72198021D01*
X169413243Y-72198019D01*
X169398339Y-72173950D01*
X169394338Y-72166358D01*
X169382903Y-72140458D01*
X169379156Y-72136711D01*
X169361412Y-72114310D01*
X169358627Y-72109811D01*
X169358624Y-72109809D01*
X169358624Y-72109808D01*
X169336035Y-72092749D01*
X169329552Y-72087107D01*
X168692022Y-71449577D01*
X168658537Y-71388254D01*
X168663521Y-71318562D01*
X168705393Y-71262629D01*
X168751260Y-71243246D01*
X168751000Y-71242444D01*
X168760279Y-71239428D01*
X168760281Y-71239426D01*
X168760286Y-71239426D01*
X168855299Y-71191014D01*
X168911592Y-71177500D01*
X171233693Y-71177500D01*
X171300732Y-71197185D01*
G37*
%TD.AperFunction*%
%TA.AperFunction,Conductor*%
G36*
X174499737Y-50800598D02*
G01*
X174533041Y-50802467D01*
X174613603Y-50806992D01*
X174785691Y-50817401D01*
X174792297Y-50818160D01*
X174863907Y-50830327D01*
X174928343Y-50841277D01*
X175021462Y-50858340D01*
X175077227Y-50868560D01*
X175083198Y-50869963D01*
X175220032Y-50909384D01*
X175360850Y-50953265D01*
X175366092Y-50955164D01*
X175499420Y-51010391D01*
X175632609Y-51070334D01*
X175637147Y-51072605D01*
X175693759Y-51103893D01*
X175764443Y-51142958D01*
X175820186Y-51176656D01*
X175888935Y-51218217D01*
X175892739Y-51220711D01*
X176010726Y-51304427D01*
X176013072Y-51306176D01*
X176108416Y-51380874D01*
X176126332Y-51394910D01*
X176129409Y-51397486D01*
X176237430Y-51494018D01*
X176239957Y-51496408D01*
X176341590Y-51598041D01*
X176343980Y-51600568D01*
X176440512Y-51708589D01*
X176443088Y-51711666D01*
X176531811Y-51824912D01*
X176533571Y-51827272D01*
X176617287Y-51945259D01*
X176619781Y-51949063D01*
X176695043Y-52073560D01*
X176765393Y-52200851D01*
X176767668Y-52205398D01*
X176827609Y-52338581D01*
X176882831Y-52471899D01*
X176884744Y-52477183D01*
X176902691Y-52534776D01*
X176928631Y-52618021D01*
X176968032Y-52754790D01*
X176969440Y-52760781D01*
X176996722Y-52909656D01*
X177019835Y-53045683D01*
X177020599Y-53052330D01*
X177031012Y-53224475D01*
X177037402Y-53338263D01*
X177037500Y-53341741D01*
X177037500Y-99058258D01*
X177037402Y-99061736D01*
X177031012Y-99175524D01*
X177020599Y-99347668D01*
X177019835Y-99354315D01*
X176996722Y-99490343D01*
X176969440Y-99639217D01*
X176968032Y-99645208D01*
X176928625Y-99782001D01*
X176884744Y-99922815D01*
X176882831Y-99928099D01*
X176827609Y-100061418D01*
X176767668Y-100194600D01*
X176765394Y-100199147D01*
X176695043Y-100326439D01*
X176619781Y-100450936D01*
X176617287Y-100454739D01*
X176533571Y-100572726D01*
X176531811Y-100575086D01*
X176443088Y-100688332D01*
X176440512Y-100691409D01*
X176343980Y-100799430D01*
X176341590Y-100801957D01*
X176239957Y-100903590D01*
X176237430Y-100905980D01*
X176129409Y-101002512D01*
X176126332Y-101005088D01*
X176013086Y-101093811D01*
X176010726Y-101095571D01*
X175892739Y-101179287D01*
X175888936Y-101181781D01*
X175764439Y-101257043D01*
X175637147Y-101327394D01*
X175632600Y-101329668D01*
X175499418Y-101389609D01*
X175366099Y-101444831D01*
X175360815Y-101446744D01*
X175243231Y-101483385D01*
X175219990Y-101490627D01*
X175083208Y-101530032D01*
X175077217Y-101531440D01*
X174928343Y-101558722D01*
X174792315Y-101581835D01*
X174785668Y-101582599D01*
X174613524Y-101593012D01*
X174499736Y-101599402D01*
X174496258Y-101599500D01*
X165902588Y-101599500D01*
X165835549Y-101579815D01*
X165789794Y-101527011D01*
X165779850Y-101457853D01*
X165808875Y-101394297D01*
X165855135Y-101360939D01*
X165991154Y-101304598D01*
X166209574Y-101170750D01*
X166209573Y-101170750D01*
X166209579Y-101170747D01*
X166404375Y-101004375D01*
X166570747Y-100809579D01*
X166704598Y-100591154D01*
X166711254Y-100575086D01*
X166802631Y-100354481D01*
X166802631Y-100354480D01*
X166809364Y-100326434D01*
X166862434Y-100105384D01*
X166876800Y-99922850D01*
X166877500Y-99913953D01*
X166877500Y-98364000D01*
X170681000Y-98364000D01*
X170681000Y-100264000D01*
X172771000Y-100264000D01*
X172771000Y-98364000D01*
X170681000Y-98364000D01*
X166877500Y-98364000D01*
X166877500Y-95076390D01*
X166877691Y-95071524D01*
X166878002Y-95067570D01*
X166882533Y-95010000D01*
X166862434Y-94754615D01*
X166802631Y-94505519D01*
X166762024Y-94407486D01*
X166762024Y-94407485D01*
X166704600Y-94268849D01*
X166704598Y-94268846D01*
X166570750Y-94050425D01*
X166570749Y-94050424D01*
X166570748Y-94050423D01*
X166570747Y-94050421D01*
X166404375Y-93855625D01*
X166357442Y-93815540D01*
X166353879Y-93812247D01*
X160892750Y-88351118D01*
X160889457Y-88347555D01*
X160873125Y-88328433D01*
X160849375Y-88300625D01*
X160654579Y-88134253D01*
X160654577Y-88134251D01*
X160654575Y-88134250D01*
X160654574Y-88134249D01*
X160436153Y-88000401D01*
X160436150Y-88000399D01*
X160254808Y-87925286D01*
X160199485Y-87902370D01*
X160199482Y-87902369D01*
X160019157Y-87859077D01*
X159950384Y-87842566D01*
X159950382Y-87842565D01*
X159950381Y-87842565D01*
X159718852Y-87824344D01*
X159695000Y-87822467D01*
X159694999Y-87822467D01*
X159633475Y-87827309D01*
X159628609Y-87827500D01*
X155901500Y-87827500D01*
X155834461Y-87807815D01*
X155788706Y-87755011D01*
X155777500Y-87703500D01*
X155777500Y-71111962D01*
X156192995Y-71111962D01*
X156196905Y-71139991D01*
X156197500Y-71148566D01*
X156197500Y-82476632D01*
X156196905Y-82485206D01*
X156195400Y-82495993D01*
X156197434Y-82539990D01*
X156197500Y-82542853D01*
X156197500Y-82560709D01*
X156197501Y-82560722D01*
X156197893Y-82562819D01*
X156198883Y-82571352D01*
X156200191Y-82599634D01*
X156202333Y-82604484D01*
X156210784Y-82631777D01*
X156211756Y-82636979D01*
X156211758Y-82636983D01*
X156226656Y-82661046D01*
X156230663Y-82668648D01*
X156242096Y-82694541D01*
X156242097Y-82694543D01*
X156245841Y-82698287D01*
X156263585Y-82720687D01*
X156266372Y-82725188D01*
X156288955Y-82742242D01*
X156295440Y-82747885D01*
X156311235Y-82763681D01*
X156344720Y-82825004D01*
X156345172Y-82875552D01*
X156340897Y-82897046D01*
X156339752Y-82902800D01*
X156342262Y-82915419D01*
X156342317Y-82915692D01*
X156344700Y-82939886D01*
X156344700Y-85460113D01*
X156342317Y-85484305D01*
X156339752Y-85497199D01*
X156339752Y-85497200D01*
X156354572Y-85571701D01*
X156359350Y-85595722D01*
X156381203Y-85628427D01*
X156415157Y-85679243D01*
X156426090Y-85686548D01*
X156444880Y-85701969D01*
X157494529Y-86751618D01*
X157509950Y-86770408D01*
X157517254Y-86781340D01*
X157517257Y-86781343D01*
X157600777Y-86837149D01*
X157600779Y-86837150D01*
X157611139Y-86839210D01*
X157614563Y-86839892D01*
X157699299Y-86856748D01*
X157699300Y-86856748D01*
X157712194Y-86854182D01*
X157736387Y-86851800D01*
X160452627Y-86851800D01*
X160519666Y-86871485D01*
X160539996Y-86887868D01*
X160540221Y-86888031D01*
X160540223Y-86888033D01*
X160639714Y-86938726D01*
X160639716Y-86938726D01*
X160639718Y-86938727D01*
X160749998Y-86956194D01*
X160750000Y-86956194D01*
X160750002Y-86956194D01*
X160860281Y-86938727D01*
X160860281Y-86938726D01*
X160860286Y-86938726D01*
X160959777Y-86888033D01*
X161038733Y-86809077D01*
X161089426Y-86709586D01*
X161090944Y-86700002D01*
X161106894Y-86599302D01*
X161106894Y-86599297D01*
X161089427Y-86489018D01*
X161089426Y-86489016D01*
X161089426Y-86489014D01*
X161038733Y-86389523D01*
X161038731Y-86389521D01*
X161038728Y-86389517D01*
X160959782Y-86310571D01*
X160959778Y-86310568D01*
X160959777Y-86310567D01*
X160860286Y-86259874D01*
X160860284Y-86259873D01*
X160860281Y-86259872D01*
X160750002Y-86242406D01*
X160749998Y-86242406D01*
X160639718Y-86259872D01*
X160540221Y-86310568D01*
X160532324Y-86316306D01*
X160531561Y-86315256D01*
X160478985Y-86343966D01*
X160452627Y-86346800D01*
X159051073Y-86346800D01*
X158984034Y-86327115D01*
X158938279Y-86274311D01*
X158928335Y-86205153D01*
X158957360Y-86141597D01*
X158963392Y-86135119D01*
X159038728Y-86059782D01*
X159038733Y-86059777D01*
X159089426Y-85960286D01*
X159091677Y-85946077D01*
X159106894Y-85850002D01*
X159106894Y-85849997D01*
X159089427Y-85739718D01*
X159089426Y-85739716D01*
X159089426Y-85739714D01*
X159041014Y-85644700D01*
X159027500Y-85588408D01*
X159027500Y-84216306D01*
X159047185Y-84149267D01*
X159063814Y-84128630D01*
X160492461Y-82699982D01*
X160553782Y-82666499D01*
X160560694Y-82665200D01*
X160660286Y-82649426D01*
X160759777Y-82598733D01*
X160838733Y-82519777D01*
X160889426Y-82420286D01*
X160889427Y-82420281D01*
X160906894Y-82310002D01*
X160906894Y-82309997D01*
X160889427Y-82199718D01*
X160889426Y-82199716D01*
X160889426Y-82199714D01*
X160841014Y-82104700D01*
X160827500Y-82048408D01*
X160827500Y-81808365D01*
X160828095Y-81799789D01*
X160829598Y-81789008D01*
X160829600Y-81789003D01*
X160827566Y-81745009D01*
X160827500Y-81742146D01*
X160827500Y-81724282D01*
X160827107Y-81722182D01*
X160826115Y-81713637D01*
X160825985Y-81710819D01*
X160824808Y-81685366D01*
X160824806Y-81685361D01*
X160822669Y-81680520D01*
X160814216Y-81653222D01*
X160813244Y-81648023D01*
X160813243Y-81648021D01*
X160813243Y-81648019D01*
X160798342Y-81623954D01*
X160794332Y-81616346D01*
X160782903Y-81590458D01*
X160779160Y-81586715D01*
X160761415Y-81564314D01*
X160758626Y-81559809D01*
X160736036Y-81542750D01*
X160729551Y-81537107D01*
X159713819Y-80521375D01*
X159680334Y-80460052D01*
X159677500Y-80433694D01*
X159677500Y-79014654D01*
X159697185Y-78947615D01*
X159749989Y-78901860D01*
X159819147Y-78891916D01*
X159882703Y-78920941D01*
X159889181Y-78926973D01*
X160096120Y-79133912D01*
X160129605Y-79195235D01*
X160130675Y-79232617D01*
X160130694Y-79232617D01*
X160130694Y-79233291D01*
X160130914Y-79240980D01*
X160130694Y-79242369D01*
X160130694Y-79242377D01*
X160148160Y-79352658D01*
X160191076Y-79436885D01*
X160203972Y-79505554D01*
X160177695Y-79570294D01*
X160168274Y-79580859D01*
X160142769Y-79606364D01*
X160092073Y-79705861D01*
X160074607Y-79816140D01*
X160074607Y-79816145D01*
X160092073Y-79926424D01*
X160092074Y-79926427D01*
X160092075Y-79926429D01*
X160141617Y-80023661D01*
X160142769Y-80025921D01*
X160142772Y-80025925D01*
X160221718Y-80104871D01*
X160221722Y-80104874D01*
X160221724Y-80104876D01*
X160243327Y-80115883D01*
X160294122Y-80163856D01*
X160310917Y-80231677D01*
X160309504Y-80245765D01*
X160293106Y-80349297D01*
X160293106Y-80349302D01*
X160310572Y-80459581D01*
X160310573Y-80459584D01*
X160310574Y-80459586D01*
X160361267Y-80559077D01*
X160361268Y-80559078D01*
X160361271Y-80559082D01*
X160440217Y-80638028D01*
X160440221Y-80638031D01*
X160440223Y-80638033D01*
X160539714Y-80688726D01*
X160539716Y-80688726D01*
X160539718Y-80688727D01*
X160649998Y-80706194D01*
X160650000Y-80706194D01*
X160650002Y-80706194D01*
X160760281Y-80688727D01*
X160760281Y-80688726D01*
X160760286Y-80688726D01*
X160859777Y-80638033D01*
X160938733Y-80559077D01*
X160955216Y-80526726D01*
X161003189Y-80475932D01*
X161071009Y-80459136D01*
X161137145Y-80481673D01*
X161180597Y-80536387D01*
X161189700Y-80583022D01*
X161189700Y-83320861D01*
X161170015Y-83387900D01*
X161153381Y-83408542D01*
X160845330Y-83716592D01*
X160830181Y-83727342D01*
X160830653Y-83727933D01*
X160819728Y-83736645D01*
X160800046Y-83761324D01*
X160795417Y-83766505D01*
X160789732Y-83772190D01*
X160789732Y-83772191D01*
X160789731Y-83772193D01*
X160785453Y-83779000D01*
X160781432Y-83784667D01*
X160761752Y-83809344D01*
X160756657Y-83819922D01*
X160752786Y-83830989D01*
X160749251Y-83862363D01*
X160748086Y-83869218D01*
X160746300Y-83877046D01*
X160746300Y-83885075D01*
X160745910Y-83892014D01*
X160744711Y-83902661D01*
X160742375Y-83923391D01*
X160743940Y-83937275D01*
X160743187Y-83937359D01*
X160746300Y-83955679D01*
X160746300Y-84444320D01*
X160743188Y-84462639D01*
X160743939Y-84462724D01*
X160742374Y-84476605D01*
X160744442Y-84494954D01*
X160745910Y-84507986D01*
X160746300Y-84514923D01*
X160746300Y-84522956D01*
X160748087Y-84530787D01*
X160749251Y-84537640D01*
X160752785Y-84569007D01*
X160756662Y-84580088D01*
X160761750Y-84590652D01*
X160761751Y-84590654D01*
X160761752Y-84590655D01*
X160781438Y-84615340D01*
X160785448Y-84620991D01*
X160789731Y-84627807D01*
X160789734Y-84627810D01*
X160795405Y-84633481D01*
X160800041Y-84638668D01*
X160800646Y-84639426D01*
X160819728Y-84663354D01*
X160830653Y-84672066D01*
X160830180Y-84672658D01*
X160845332Y-84683408D01*
X161107839Y-84945915D01*
X161141324Y-85007238D01*
X161142268Y-85040242D01*
X161143106Y-85040242D01*
X161143106Y-85050002D01*
X161160572Y-85160281D01*
X161160573Y-85160284D01*
X161160574Y-85160286D01*
X161211267Y-85259777D01*
X161211268Y-85259778D01*
X161211271Y-85259782D01*
X161290217Y-85338728D01*
X161290221Y-85338731D01*
X161290223Y-85338733D01*
X161389714Y-85389426D01*
X161389716Y-85389426D01*
X161389718Y-85389427D01*
X161499998Y-85406894D01*
X161500000Y-85406894D01*
X161500002Y-85406894D01*
X161610280Y-85389427D01*
X161610280Y-85389426D01*
X161610286Y-85389426D01*
X161614206Y-85387428D01*
X161619485Y-85386436D01*
X161619562Y-85386412D01*
X161619565Y-85386421D01*
X161682872Y-85374532D01*
X161747613Y-85400807D01*
X161787871Y-85457912D01*
X161794500Y-85497913D01*
X161794500Y-86944355D01*
X161791390Y-86962663D01*
X161792143Y-86962748D01*
X161790578Y-86976628D01*
X161792783Y-86996192D01*
X161794110Y-87007971D01*
X161794500Y-87014910D01*
X161794500Y-87022925D01*
X161796283Y-87030741D01*
X161797447Y-87037594D01*
X161800979Y-87068938D01*
X161804850Y-87080000D01*
X161809937Y-87090562D01*
X161809938Y-87090566D01*
X161829606Y-87115230D01*
X161833619Y-87120884D01*
X161837892Y-87127684D01*
X161843553Y-87133345D01*
X161848191Y-87138534D01*
X161867857Y-87163194D01*
X161867860Y-87163195D01*
X161878782Y-87171906D01*
X161878308Y-87172499D01*
X161893452Y-87183244D01*
X166314756Y-91604548D01*
X166325501Y-91619691D01*
X166326094Y-91619219D01*
X166334805Y-91630142D01*
X166359462Y-91649806D01*
X166364649Y-91654442D01*
X166370311Y-91660104D01*
X166370314Y-91660106D01*
X166370316Y-91660108D01*
X166370318Y-91660109D01*
X166377107Y-91664376D01*
X166382776Y-91668399D01*
X166407431Y-91688060D01*
X166407434Y-91688062D01*
X166407436Y-91688062D01*
X166418002Y-91693150D01*
X166429058Y-91697019D01*
X166429060Y-91697020D01*
X166460413Y-91700552D01*
X166467240Y-91701712D01*
X166475073Y-91703500D01*
X166483088Y-91703500D01*
X166490028Y-91703889D01*
X166521371Y-91707421D01*
X166521371Y-91707420D01*
X166521372Y-91707421D01*
X166535255Y-91705857D01*
X166535339Y-91706610D01*
X166553646Y-91703500D01*
X170044354Y-91703500D01*
X170062660Y-91706610D01*
X170062745Y-91705857D01*
X170076627Y-91707421D01*
X170076628Y-91707420D01*
X170076629Y-91707421D01*
X170107971Y-91703889D01*
X170114912Y-91703500D01*
X170122925Y-91703500D01*
X170122927Y-91703500D01*
X170130759Y-91701712D01*
X170137582Y-91700552D01*
X170168940Y-91697020D01*
X170168943Y-91697017D01*
X170180003Y-91693148D01*
X170190562Y-91688062D01*
X170190566Y-91688062D01*
X170215233Y-91668390D01*
X170220891Y-91664376D01*
X170227684Y-91660108D01*
X170233349Y-91654441D01*
X170238539Y-91649804D01*
X170239817Y-91648784D01*
X170263194Y-91630143D01*
X170263194Y-91630142D01*
X170263197Y-91630140D01*
X170271908Y-91619217D01*
X170272501Y-91619690D01*
X170283243Y-91604547D01*
X170635162Y-91252628D01*
X170650305Y-91241886D01*
X170649832Y-91241293D01*
X170660755Y-91232582D01*
X170660757Y-91232579D01*
X170660758Y-91232579D01*
X170680419Y-91207924D01*
X170685059Y-91202732D01*
X170690723Y-91197069D01*
X170694995Y-91190269D01*
X170699005Y-91184618D01*
X170718677Y-91159951D01*
X170718677Y-91159947D01*
X170723763Y-91149388D01*
X170727632Y-91138328D01*
X170727635Y-91138325D01*
X170731167Y-91106967D01*
X170732327Y-91100144D01*
X170734115Y-91092312D01*
X170734115Y-91084295D01*
X170734504Y-91077356D01*
X170738036Y-91046014D01*
X170738036Y-91046013D01*
X170736472Y-91032133D01*
X170737224Y-91032048D01*
X170734115Y-91013740D01*
X170734115Y-90915758D01*
X170753800Y-90848719D01*
X170770434Y-90828077D01*
X170819343Y-90779167D01*
X170819348Y-90779162D01*
X170870041Y-90679671D01*
X170875767Y-90643519D01*
X170887509Y-90569387D01*
X170887509Y-90569382D01*
X170870042Y-90459103D01*
X170870041Y-90459101D01*
X170870041Y-90459099D01*
X170819348Y-90359608D01*
X170819346Y-90359606D01*
X170819343Y-90359602D01*
X170740397Y-90280656D01*
X170740393Y-90280653D01*
X170740392Y-90280652D01*
X170640901Y-90229959D01*
X170640899Y-90229958D01*
X170640896Y-90229957D01*
X170530617Y-90212491D01*
X170530613Y-90212491D01*
X170420333Y-90229957D01*
X170320836Y-90280653D01*
X170320832Y-90280656D01*
X170241886Y-90359602D01*
X170241883Y-90359606D01*
X170241882Y-90359608D01*
X170191376Y-90458733D01*
X170191187Y-90459103D01*
X170173721Y-90569382D01*
X170173721Y-90569388D01*
X170174487Y-90574226D01*
X170165529Y-90643519D01*
X170120531Y-90696969D01*
X170053779Y-90717606D01*
X169995719Y-90704104D01*
X169910283Y-90660572D01*
X169800002Y-90643106D01*
X169799998Y-90643106D01*
X169689718Y-90660572D01*
X169590221Y-90711268D01*
X169590217Y-90711271D01*
X169511271Y-90790217D01*
X169511268Y-90790221D01*
X169460572Y-90889717D01*
X169460544Y-90889900D01*
X169460446Y-90890106D01*
X169457556Y-90899000D01*
X169456406Y-90898626D01*
X169430613Y-90953034D01*
X169371301Y-90989964D01*
X169338071Y-90994500D01*
X166833655Y-90994500D01*
X166766616Y-90974815D01*
X166745974Y-90958181D01*
X164303174Y-88515381D01*
X164269689Y-88454058D01*
X164274673Y-88384366D01*
X164316545Y-88328433D01*
X164382009Y-88304016D01*
X164390855Y-88303700D01*
X164753828Y-88303700D01*
X164820867Y-88323385D01*
X164841510Y-88340020D01*
X164890218Y-88388729D01*
X164890221Y-88388731D01*
X164890223Y-88388733D01*
X164989714Y-88439426D01*
X164989716Y-88439426D01*
X164989718Y-88439427D01*
X165099998Y-88456894D01*
X165100000Y-88456894D01*
X165100002Y-88456894D01*
X165210281Y-88439427D01*
X165210281Y-88439426D01*
X165210286Y-88439426D01*
X165309777Y-88388733D01*
X165388733Y-88309777D01*
X165439426Y-88210286D01*
X165447883Y-88156894D01*
X165456894Y-88100002D01*
X165456894Y-88099997D01*
X165439427Y-87989718D01*
X165439426Y-87989716D01*
X165439426Y-87989714D01*
X165388733Y-87890223D01*
X165388731Y-87890221D01*
X165388728Y-87890217D01*
X165309782Y-87811271D01*
X165309778Y-87811268D01*
X165309777Y-87811267D01*
X165210286Y-87760574D01*
X165210284Y-87760573D01*
X165210281Y-87760572D01*
X165100002Y-87743106D01*
X165099998Y-87743106D01*
X164999810Y-87758974D01*
X164930516Y-87750019D01*
X164877064Y-87705023D01*
X164857939Y-87655898D01*
X164839427Y-87539018D01*
X164839426Y-87539016D01*
X164839426Y-87539014D01*
X164788733Y-87439523D01*
X164788731Y-87439521D01*
X164788728Y-87439517D01*
X164709782Y-87360571D01*
X164709778Y-87360568D01*
X164709777Y-87360567D01*
X164610286Y-87309874D01*
X164610284Y-87309873D01*
X164610281Y-87309872D01*
X164500002Y-87292406D01*
X164499998Y-87292406D01*
X164389716Y-87309872D01*
X164309031Y-87350984D01*
X164240362Y-87363880D01*
X164175622Y-87337603D01*
X164165056Y-87328180D01*
X163787119Y-86950243D01*
X163753634Y-86888920D01*
X163758618Y-86819228D01*
X163800490Y-86763295D01*
X163855404Y-86740088D01*
X163859586Y-86739426D01*
X163959077Y-86688733D01*
X163994246Y-86653564D01*
X164036969Y-86610842D01*
X164098292Y-86577357D01*
X164167984Y-86582341D01*
X164212331Y-86610842D01*
X164290217Y-86688728D01*
X164290221Y-86688731D01*
X164290223Y-86688733D01*
X164389714Y-86739426D01*
X164389716Y-86739426D01*
X164389718Y-86739427D01*
X164499998Y-86756894D01*
X164500000Y-86756894D01*
X164500002Y-86756894D01*
X164610281Y-86739427D01*
X164610281Y-86739426D01*
X164610286Y-86739426D01*
X164709777Y-86688733D01*
X164788733Y-86609777D01*
X164839426Y-86510286D01*
X164844788Y-86476433D01*
X164856894Y-86400002D01*
X164856894Y-86400000D01*
X164854088Y-86382286D01*
X164863041Y-86312995D01*
X164908036Y-86259542D01*
X164974787Y-86238901D01*
X164995956Y-86240414D01*
X165063463Y-86251107D01*
X165099999Y-86256894D01*
X165100000Y-86256894D01*
X165100002Y-86256894D01*
X165210281Y-86239427D01*
X165210281Y-86239426D01*
X165210286Y-86239426D01*
X165309777Y-86188733D01*
X165388733Y-86109777D01*
X165439426Y-86010286D01*
X165439427Y-86010281D01*
X165456894Y-85900002D01*
X165456894Y-85899997D01*
X165439428Y-85789724D01*
X165439427Y-85789721D01*
X165439426Y-85789714D01*
X165439422Y-85789707D01*
X165438301Y-85786256D01*
X165438173Y-85781800D01*
X165437900Y-85780075D01*
X165438122Y-85780039D01*
X165436300Y-85716415D01*
X165472375Y-85656579D01*
X165535073Y-85625745D01*
X165579751Y-85628942D01*
X165580075Y-85626900D01*
X165699998Y-85645894D01*
X165700000Y-85645894D01*
X165700002Y-85645894D01*
X165810281Y-85628427D01*
X165810281Y-85628426D01*
X165810286Y-85628426D01*
X165909777Y-85577733D01*
X165988733Y-85498777D01*
X166039426Y-85399286D01*
X166041304Y-85387429D01*
X166056894Y-85289002D01*
X166056894Y-85288997D01*
X166050718Y-85250002D01*
X166492406Y-85250002D01*
X166509872Y-85360281D01*
X166509873Y-85360284D01*
X166509874Y-85360286D01*
X166544850Y-85428930D01*
X166560568Y-85459778D01*
X166560571Y-85459782D01*
X166639517Y-85538728D01*
X166639521Y-85538731D01*
X166639523Y-85538733D01*
X166739014Y-85589426D01*
X166739016Y-85589426D01*
X166739018Y-85589427D01*
X166849298Y-85606894D01*
X166849300Y-85606894D01*
X166849302Y-85606894D01*
X166959581Y-85589427D01*
X166959581Y-85589426D01*
X166959586Y-85589426D01*
X167059077Y-85538733D01*
X167138033Y-85459777D01*
X167188726Y-85360286D01*
X167191447Y-85343106D01*
X167206194Y-85250002D01*
X167206194Y-85249997D01*
X167188727Y-85139718D01*
X167188726Y-85139716D01*
X167188726Y-85139714D01*
X167138033Y-85040223D01*
X167138031Y-85040221D01*
X167138028Y-85040217D01*
X167059082Y-84961271D01*
X167059078Y-84961268D01*
X167059077Y-84961267D01*
X166959586Y-84910574D01*
X166959584Y-84910573D01*
X166959581Y-84910572D01*
X166849302Y-84893106D01*
X166849298Y-84893106D01*
X166739018Y-84910572D01*
X166639521Y-84961268D01*
X166639517Y-84961271D01*
X166560571Y-85040217D01*
X166560568Y-85040221D01*
X166509872Y-85139718D01*
X166492406Y-85249997D01*
X166492406Y-85250002D01*
X166050718Y-85250002D01*
X166039427Y-85178718D01*
X166039426Y-85178716D01*
X166039426Y-85178714D01*
X165988733Y-85079223D01*
X165988731Y-85079221D01*
X165988728Y-85079217D01*
X165909778Y-85000267D01*
X165905613Y-84997241D01*
X165862948Y-84941910D01*
X165854500Y-84896924D01*
X165854500Y-84726779D01*
X165874185Y-84659740D01*
X165890815Y-84639102D01*
X166283604Y-84246312D01*
X166302382Y-84230901D01*
X166313484Y-84223484D01*
X166321846Y-84210969D01*
X166327680Y-84202236D01*
X166327684Y-84202234D01*
X166369734Y-84139301D01*
X166373920Y-84118255D01*
X166384500Y-84065067D01*
X166384500Y-84065066D01*
X166385687Y-84059099D01*
X166385689Y-84059082D01*
X166389485Y-84039999D01*
X166386882Y-84026911D01*
X166384500Y-84002723D01*
X166384500Y-83933073D01*
X166404185Y-83866034D01*
X166456989Y-83820279D01*
X166526147Y-83810335D01*
X166589703Y-83839360D01*
X166596181Y-83845392D01*
X166639517Y-83888728D01*
X166639521Y-83888731D01*
X166639523Y-83888733D01*
X166739014Y-83939426D01*
X166739016Y-83939426D01*
X166739018Y-83939427D01*
X166849298Y-83956894D01*
X166849300Y-83956894D01*
X166849302Y-83956894D01*
X166959581Y-83939427D01*
X166959581Y-83939426D01*
X166959586Y-83939426D01*
X167059077Y-83888733D01*
X167138033Y-83809777D01*
X167188726Y-83710286D01*
X167188806Y-83709782D01*
X167206194Y-83600002D01*
X167206194Y-83599997D01*
X167188727Y-83489718D01*
X167188726Y-83489716D01*
X167188726Y-83489714D01*
X167138033Y-83390223D01*
X167138031Y-83390221D01*
X167138028Y-83390217D01*
X167059082Y-83311271D01*
X167059078Y-83311268D01*
X167059077Y-83311267D01*
X166959586Y-83260574D01*
X166959584Y-83260573D01*
X166959581Y-83260572D01*
X166849302Y-83243106D01*
X166849298Y-83243106D01*
X166739018Y-83260572D01*
X166739014Y-83260573D01*
X166739014Y-83260574D01*
X166716785Y-83271900D01*
X166639521Y-83311268D01*
X166639517Y-83311271D01*
X166596181Y-83354608D01*
X166534858Y-83388093D01*
X166465166Y-83383109D01*
X166409233Y-83341237D01*
X166384816Y-83275773D01*
X166384500Y-83266927D01*
X166384500Y-81726779D01*
X166404185Y-81659740D01*
X166420815Y-81639102D01*
X166733604Y-81326312D01*
X166752382Y-81310901D01*
X166763484Y-81303484D01*
X166777680Y-81282237D01*
X166777684Y-81282234D01*
X166819734Y-81219301D01*
X166822632Y-81204731D01*
X166824581Y-81194935D01*
X166832204Y-81156608D01*
X166834500Y-81145067D01*
X166834500Y-81145065D01*
X166835686Y-81139103D01*
X166835689Y-81139082D01*
X166836397Y-81135527D01*
X166839485Y-81120000D01*
X166836882Y-81106911D01*
X166834500Y-81082723D01*
X166834500Y-76887276D01*
X166836882Y-76863086D01*
X166837633Y-76859309D01*
X166839485Y-76850000D01*
X166835687Y-76830906D01*
X166835686Y-76830893D01*
X166819735Y-76750701D01*
X166819734Y-76750699D01*
X166817026Y-76746646D01*
X166788918Y-76704579D01*
X166777684Y-76687766D01*
X166777682Y-76687764D01*
X166774299Y-76682701D01*
X166763485Y-76666518D01*
X166763484Y-76666516D01*
X166763482Y-76666515D01*
X166763481Y-76666513D01*
X166752389Y-76659102D01*
X166733599Y-76643681D01*
X165890819Y-75800901D01*
X165857334Y-75739578D01*
X165854500Y-75713220D01*
X165854500Y-75046451D01*
X165874185Y-74979412D01*
X165926989Y-74933657D01*
X165996147Y-74923713D01*
X166034795Y-74935966D01*
X166040220Y-74938730D01*
X166040223Y-74938733D01*
X166139714Y-74989426D01*
X166139716Y-74989426D01*
X166139718Y-74989427D01*
X166249998Y-75006894D01*
X166250000Y-75006894D01*
X166250002Y-75006894D01*
X166360281Y-74989427D01*
X166360281Y-74989426D01*
X166360286Y-74989426D01*
X166459777Y-74938733D01*
X166538733Y-74859777D01*
X166589426Y-74760286D01*
X166590849Y-74751304D01*
X166606894Y-74650002D01*
X166606894Y-74649997D01*
X166589427Y-74539718D01*
X166589426Y-74539716D01*
X166589426Y-74539714D01*
X166538733Y-74440223D01*
X166538731Y-74440221D01*
X166538728Y-74440217D01*
X166459782Y-74361271D01*
X166459778Y-74361268D01*
X166459777Y-74361267D01*
X166360286Y-74310574D01*
X166360284Y-74310573D01*
X166360281Y-74310572D01*
X166250002Y-74293106D01*
X166249998Y-74293106D01*
X166139716Y-74310572D01*
X166034794Y-74364033D01*
X165966125Y-74376929D01*
X165901385Y-74350652D01*
X165861128Y-74293546D01*
X165854500Y-74253548D01*
X165854500Y-71762072D01*
X165874185Y-71695033D01*
X165885009Y-71681601D01*
X165888728Y-71676481D01*
X165888733Y-71676477D01*
X165939426Y-71576986D01*
X165940681Y-71569065D01*
X165956894Y-71466702D01*
X165956894Y-71466697D01*
X165939427Y-71356418D01*
X165939426Y-71356416D01*
X165939426Y-71356414D01*
X165888733Y-71256923D01*
X165888731Y-71256921D01*
X165888728Y-71256917D01*
X165809782Y-71177971D01*
X165809778Y-71177968D01*
X165809777Y-71177967D01*
X165710286Y-71127274D01*
X165710284Y-71127273D01*
X165710281Y-71127272D01*
X165600002Y-71109806D01*
X165599998Y-71109806D01*
X165489718Y-71127272D01*
X165390221Y-71177968D01*
X165390217Y-71177971D01*
X165311271Y-71256917D01*
X165311268Y-71256921D01*
X165260572Y-71356418D01*
X165243106Y-71466697D01*
X165243106Y-71466702D01*
X165251321Y-71518569D01*
X165242366Y-71587862D01*
X165197370Y-71641314D01*
X165130619Y-71661954D01*
X165109451Y-71660440D01*
X165000004Y-71643106D01*
X164999998Y-71643106D01*
X164889718Y-71660572D01*
X164889714Y-71660573D01*
X164889714Y-71660574D01*
X164858501Y-71676478D01*
X164790221Y-71711268D01*
X164790217Y-71711271D01*
X164711271Y-71790217D01*
X164711265Y-71790226D01*
X164710111Y-71792491D01*
X164707983Y-71794743D01*
X164705534Y-71798115D01*
X164705098Y-71797798D01*
X164662135Y-71843285D01*
X164594313Y-71860077D01*
X164528179Y-71837536D01*
X164511948Y-71823872D01*
X164324019Y-71635943D01*
X164290534Y-71574620D01*
X164287700Y-71548262D01*
X164287700Y-70264287D01*
X165318586Y-70264287D01*
X165349515Y-70386422D01*
X165418422Y-70491892D01*
X165418423Y-70491893D01*
X165418424Y-70491894D01*
X165440538Y-70509106D01*
X165517845Y-70569277D01*
X165517847Y-70569278D01*
X165637004Y-70610185D01*
X165637006Y-70610185D01*
X165701734Y-70610185D01*
X165768773Y-70629870D01*
X165789415Y-70646504D01*
X167091181Y-71948270D01*
X167124666Y-72009593D01*
X167127500Y-72035951D01*
X167127500Y-72103120D01*
X167107815Y-72170159D01*
X167055011Y-72215914D01*
X166985853Y-72225858D01*
X166984103Y-72225593D01*
X166880004Y-72209106D01*
X166879998Y-72209106D01*
X166769718Y-72226572D01*
X166769714Y-72226573D01*
X166769714Y-72226574D01*
X166710207Y-72256894D01*
X166670221Y-72277268D01*
X166670217Y-72277271D01*
X166591271Y-72356217D01*
X166591268Y-72356221D01*
X166540572Y-72455718D01*
X166523106Y-72565997D01*
X166523106Y-72566002D01*
X166540572Y-72676281D01*
X166540573Y-72676284D01*
X166540574Y-72676286D01*
X166572894Y-72739717D01*
X166591268Y-72775778D01*
X166591271Y-72775782D01*
X166670217Y-72854728D01*
X166670221Y-72854731D01*
X166670223Y-72854733D01*
X166769714Y-72905426D01*
X166769716Y-72905426D01*
X166769718Y-72905427D01*
X166879998Y-72922894D01*
X166880000Y-72922894D01*
X166880002Y-72922894D01*
X166984102Y-72906406D01*
X167053395Y-72915360D01*
X167106847Y-72960357D01*
X167127487Y-73027108D01*
X167127500Y-73028879D01*
X167127500Y-74433185D01*
X167125118Y-74457374D01*
X167123000Y-74468022D01*
X167123000Y-75727127D01*
X167103315Y-75794166D01*
X167086681Y-75814808D01*
X167011271Y-75890217D01*
X167011268Y-75890221D01*
X167011267Y-75890223D01*
X166975902Y-75959632D01*
X166960572Y-75989718D01*
X166943106Y-76099997D01*
X166943106Y-76100002D01*
X166960572Y-76210281D01*
X166960573Y-76210284D01*
X166960574Y-76210286D01*
X167011267Y-76309777D01*
X167011268Y-76309778D01*
X167011271Y-76309782D01*
X167090217Y-76388728D01*
X167090221Y-76388731D01*
X167090223Y-76388733D01*
X167189714Y-76439426D01*
X167189716Y-76439426D01*
X167189718Y-76439427D01*
X167299998Y-76456894D01*
X167300000Y-76456894D01*
X167300002Y-76456894D01*
X167410281Y-76439427D01*
X167410281Y-76439426D01*
X167410286Y-76439426D01*
X167509777Y-76388733D01*
X167588733Y-76309777D01*
X167639426Y-76210286D01*
X167639758Y-76208189D01*
X167656894Y-76100002D01*
X167656894Y-76099997D01*
X167640526Y-75996660D01*
X167639426Y-75989714D01*
X167639425Y-75989712D01*
X167636412Y-75980438D01*
X167638166Y-75979867D01*
X167628000Y-75937520D01*
X167628000Y-74548098D01*
X167630382Y-74523908D01*
X167632500Y-74513263D01*
X167632500Y-72986908D01*
X167652185Y-72919869D01*
X167704989Y-72874114D01*
X167774147Y-72864170D01*
X167812792Y-72876423D01*
X167869714Y-72905426D01*
X167894855Y-72909408D01*
X167979998Y-72922894D01*
X167980000Y-72922894D01*
X167980002Y-72922894D01*
X168084102Y-72906406D01*
X168153395Y-72915360D01*
X168206847Y-72960357D01*
X168227487Y-73027108D01*
X168227500Y-73028879D01*
X168227500Y-74241559D01*
X168207815Y-74308598D01*
X168205766Y-74311685D01*
X168202361Y-74316651D01*
X168197043Y-74323362D01*
X168177978Y-74344276D01*
X168177977Y-74344279D01*
X168176063Y-74349220D01*
X168162741Y-74374493D01*
X168159750Y-74378859D01*
X168159747Y-74378864D01*
X168153266Y-74406416D01*
X168150725Y-74414623D01*
X168140500Y-74441018D01*
X168140500Y-74446315D01*
X168137206Y-74474705D01*
X168135995Y-74479855D01*
X168136957Y-74486755D01*
X168139905Y-74507884D01*
X168140500Y-74516459D01*
X168140500Y-75959632D01*
X168139905Y-75968206D01*
X168138400Y-75978993D01*
X168140434Y-76022990D01*
X168140500Y-76025853D01*
X168140500Y-76043709D01*
X168140501Y-76043722D01*
X168140893Y-76045819D01*
X168141883Y-76054352D01*
X168143191Y-76082634D01*
X168145333Y-76087484D01*
X168153784Y-76114777D01*
X168154756Y-76119979D01*
X168154758Y-76119983D01*
X168169656Y-76144046D01*
X168173663Y-76151648D01*
X168185096Y-76177541D01*
X168185097Y-76177543D01*
X168188841Y-76181287D01*
X168206585Y-76203687D01*
X168209372Y-76208188D01*
X168209373Y-76208189D01*
X168231955Y-76225242D01*
X168238440Y-76230885D01*
X168246796Y-76239242D01*
X168280281Y-76300565D01*
X168275297Y-76370257D01*
X168233425Y-76426190D01*
X168167961Y-76450607D01*
X168139718Y-76449396D01*
X168100003Y-76443106D01*
X168099998Y-76443106D01*
X167989718Y-76460572D01*
X167890221Y-76511268D01*
X167890217Y-76511271D01*
X167811271Y-76590217D01*
X167811268Y-76590221D01*
X167760572Y-76689718D01*
X167743106Y-76799997D01*
X167743106Y-76800002D01*
X167760572Y-76910281D01*
X167760573Y-76910284D01*
X167760574Y-76910286D01*
X167811267Y-77009777D01*
X167811268Y-77009778D01*
X167811271Y-77009782D01*
X167890217Y-77088728D01*
X167890221Y-77088731D01*
X167890223Y-77088733D01*
X167989714Y-77139426D01*
X167989716Y-77139426D01*
X167989718Y-77139427D01*
X168099998Y-77156894D01*
X168100000Y-77156894D01*
X168100002Y-77156894D01*
X168209102Y-77139614D01*
X168278395Y-77148568D01*
X168331847Y-77193565D01*
X168352487Y-77260316D01*
X168352500Y-77262087D01*
X168352500Y-78038407D01*
X168338985Y-78094701D01*
X168320711Y-78130566D01*
X168290574Y-78189714D01*
X168286099Y-78217966D01*
X168256168Y-78281101D01*
X168251307Y-78286247D01*
X167945050Y-78592504D01*
X167938570Y-78598144D01*
X167929875Y-78604711D01*
X167900205Y-78637256D01*
X167898231Y-78639324D01*
X167885592Y-78651963D01*
X167885582Y-78651975D01*
X167884365Y-78653752D01*
X167879044Y-78660468D01*
X167859978Y-78681384D01*
X167859977Y-78681386D01*
X167858063Y-78686327D01*
X167844741Y-78711600D01*
X167841750Y-78715966D01*
X167841747Y-78715971D01*
X167835266Y-78743523D01*
X167832725Y-78751730D01*
X167822500Y-78778125D01*
X167822500Y-78783422D01*
X167819206Y-78811812D01*
X167817995Y-78816958D01*
X167817995Y-78816962D01*
X167821749Y-78843877D01*
X167821905Y-78844991D01*
X167822500Y-78853566D01*
X167822500Y-86333693D01*
X167802815Y-86400732D01*
X167786181Y-86421374D01*
X167200313Y-87007242D01*
X167138990Y-87040727D01*
X167109759Y-87041562D01*
X167109759Y-87043106D01*
X167099998Y-87043106D01*
X166989718Y-87060572D01*
X166989714Y-87060573D01*
X166989714Y-87060574D01*
X166951588Y-87080000D01*
X166890221Y-87111268D01*
X166890217Y-87111271D01*
X166811271Y-87190217D01*
X166811268Y-87190221D01*
X166760572Y-87289718D01*
X166743106Y-87399997D01*
X166743106Y-87400002D01*
X166760572Y-87510281D01*
X166760573Y-87510284D01*
X166760574Y-87510286D01*
X166811082Y-87609413D01*
X166811268Y-87609778D01*
X166811271Y-87609782D01*
X166890217Y-87688728D01*
X166890221Y-87688731D01*
X166890223Y-87688733D01*
X166989714Y-87739426D01*
X166989716Y-87739426D01*
X166989718Y-87739427D01*
X167099998Y-87756894D01*
X167100000Y-87756894D01*
X167100002Y-87756894D01*
X167210281Y-87739427D01*
X167210281Y-87739426D01*
X167210286Y-87739426D01*
X167309777Y-87688733D01*
X167385740Y-87612770D01*
X167387835Y-87610770D01*
X167390184Y-87608629D01*
X167390189Y-87608627D01*
X167407250Y-87586032D01*
X167412872Y-87579571D01*
X168254955Y-86737487D01*
X168261437Y-86731847D01*
X168270123Y-86725288D01*
X168270128Y-86725286D01*
X168299825Y-86692708D01*
X168301733Y-86690709D01*
X168314405Y-86678039D01*
X168315620Y-86676264D01*
X168320948Y-86669536D01*
X168340022Y-86648615D01*
X168341932Y-86643681D01*
X168355266Y-86618387D01*
X168358252Y-86614030D01*
X168364732Y-86586473D01*
X168367271Y-86578272D01*
X168377500Y-86551874D01*
X168377500Y-86546577D01*
X168380794Y-86518185D01*
X168382005Y-86513038D01*
X168378094Y-86485005D01*
X168377500Y-86476433D01*
X168377500Y-80253853D01*
X168397185Y-80186814D01*
X168449989Y-80141059D01*
X168519147Y-80131115D01*
X168582703Y-80160140D01*
X168611985Y-80197559D01*
X168621266Y-80215776D01*
X168621271Y-80215782D01*
X168700217Y-80294728D01*
X168700221Y-80294731D01*
X168700223Y-80294733D01*
X168799714Y-80345426D01*
X168799716Y-80345426D01*
X168799718Y-80345427D01*
X168909998Y-80362894D01*
X168910000Y-80362894D01*
X168910002Y-80362894D01*
X169020281Y-80345427D01*
X169020281Y-80345426D01*
X169020286Y-80345426D01*
X169119777Y-80294733D01*
X169198733Y-80215777D01*
X169249426Y-80116286D01*
X169249490Y-80115882D01*
X169266894Y-80006002D01*
X169266894Y-80005997D01*
X169249427Y-79895718D01*
X169249426Y-79895716D01*
X169249426Y-79895714D01*
X169201014Y-79800700D01*
X169187500Y-79744408D01*
X169187500Y-79356305D01*
X169207185Y-79289266D01*
X169223815Y-79268628D01*
X169904955Y-78587487D01*
X169911437Y-78581847D01*
X169920123Y-78575288D01*
X169920128Y-78575286D01*
X169949825Y-78542708D01*
X169951733Y-78540709D01*
X169964405Y-78528039D01*
X169965620Y-78526264D01*
X169970948Y-78519536D01*
X169990022Y-78498615D01*
X169991932Y-78493681D01*
X170005266Y-78468387D01*
X170008252Y-78464030D01*
X170014732Y-78436473D01*
X170017271Y-78428272D01*
X170027500Y-78401874D01*
X170027500Y-78396577D01*
X170030794Y-78368185D01*
X170032005Y-78363038D01*
X170028094Y-78335005D01*
X170027500Y-78326433D01*
X170027500Y-78251500D01*
X170047185Y-78184461D01*
X170099989Y-78138706D01*
X170151500Y-78127500D01*
X171441632Y-78127500D01*
X171450206Y-78128095D01*
X171460993Y-78129599D01*
X171460993Y-78129598D01*
X171460997Y-78129600D01*
X171499848Y-78127803D01*
X171504990Y-78127566D01*
X171507853Y-78127500D01*
X171525711Y-78127500D01*
X171525715Y-78127500D01*
X171527821Y-78127106D01*
X171536353Y-78126115D01*
X171564635Y-78124808D01*
X171564635Y-78124807D01*
X171576116Y-78124277D01*
X171576281Y-78127851D01*
X171626084Y-78130566D01*
X171682719Y-78171484D01*
X171708242Y-78236525D01*
X171694550Y-78305040D01*
X171672407Y-78335147D01*
X170845050Y-79162504D01*
X170838570Y-79168144D01*
X170829875Y-79174711D01*
X170800205Y-79207256D01*
X170798231Y-79209324D01*
X170785592Y-79221963D01*
X170785582Y-79221975D01*
X170784365Y-79223752D01*
X170779044Y-79230468D01*
X170759978Y-79251384D01*
X170759977Y-79251386D01*
X170758063Y-79256327D01*
X170744741Y-79281600D01*
X170741750Y-79285966D01*
X170741747Y-79285971D01*
X170735266Y-79313523D01*
X170732725Y-79321730D01*
X170722500Y-79348125D01*
X170722500Y-79353422D01*
X170719206Y-79381812D01*
X170717995Y-79386958D01*
X170717995Y-79386962D01*
X170720834Y-79407318D01*
X170721905Y-79414991D01*
X170722500Y-79423566D01*
X170722500Y-87533693D01*
X170702815Y-87600732D01*
X170686181Y-87621374D01*
X169786247Y-88521307D01*
X169724924Y-88554792D01*
X169717966Y-88556099D01*
X169689712Y-88560574D01*
X169591902Y-88610411D01*
X169523233Y-88623307D01*
X169458493Y-88597030D01*
X169418236Y-88539924D01*
X169411608Y-88499926D01*
X169411608Y-83423545D01*
X169431293Y-83356506D01*
X169447923Y-83335868D01*
X169675671Y-83108119D01*
X169736992Y-83074636D01*
X169770240Y-83073688D01*
X169770240Y-83072894D01*
X169780002Y-83072894D01*
X169890281Y-83055427D01*
X169890281Y-83055426D01*
X169890286Y-83055426D01*
X169989777Y-83004733D01*
X170068733Y-82925777D01*
X170119426Y-82826286D01*
X170120370Y-82820328D01*
X170136894Y-82716002D01*
X170136894Y-82715997D01*
X170119427Y-82605718D01*
X170119426Y-82605716D01*
X170119426Y-82605714D01*
X170068733Y-82506223D01*
X170068731Y-82506221D01*
X170068728Y-82506217D01*
X169989782Y-82427271D01*
X169989778Y-82427268D01*
X169989777Y-82427267D01*
X169890286Y-82376574D01*
X169890284Y-82376573D01*
X169890281Y-82376572D01*
X169780002Y-82359106D01*
X169779998Y-82359106D01*
X169669718Y-82376572D01*
X169570221Y-82427268D01*
X169570217Y-82427271D01*
X169491271Y-82506217D01*
X169491268Y-82506221D01*
X169491267Y-82506223D01*
X169458658Y-82570223D01*
X169440572Y-82605718D01*
X169423106Y-82715997D01*
X169423106Y-82725759D01*
X169421053Y-82725759D01*
X169413716Y-82782542D01*
X169387879Y-82820328D01*
X169321287Y-82886919D01*
X169259967Y-82920403D01*
X169190275Y-82915419D01*
X169134341Y-82873548D01*
X169109924Y-82808084D01*
X169109608Y-82799237D01*
X169109608Y-82334538D01*
X169129293Y-82267499D01*
X169182097Y-82221744D01*
X169214211Y-82212065D01*
X169257711Y-82205175D01*
X169257711Y-82205174D01*
X169257716Y-82205174D01*
X169357207Y-82154481D01*
X169436163Y-82075525D01*
X169486856Y-81976034D01*
X169489646Y-81958418D01*
X169504324Y-81865750D01*
X169504324Y-81865745D01*
X169486857Y-81755466D01*
X169486856Y-81755464D01*
X169486856Y-81755462D01*
X169436163Y-81655971D01*
X169436161Y-81655969D01*
X169436158Y-81655965D01*
X169357212Y-81577019D01*
X169357208Y-81577016D01*
X169357207Y-81577015D01*
X169257716Y-81526322D01*
X169257714Y-81526321D01*
X169257711Y-81526320D01*
X169147432Y-81508854D01*
X169147428Y-81508854D01*
X169037148Y-81526320D01*
X168937651Y-81577016D01*
X168937647Y-81577019D01*
X168858701Y-81655965D01*
X168858698Y-81655969D01*
X168808002Y-81755466D01*
X168790536Y-81865745D01*
X168790536Y-81875507D01*
X168788113Y-81875507D01*
X168780938Y-81931005D01*
X168764367Y-81958418D01*
X168756305Y-81968527D01*
X168751675Y-81973709D01*
X168746001Y-81979383D01*
X168745997Y-81979388D01*
X168741730Y-81986177D01*
X168737712Y-81991840D01*
X168718047Y-82016501D01*
X168712957Y-82027070D01*
X168709087Y-82038130D01*
X168705556Y-82069470D01*
X168704392Y-82076324D01*
X168702608Y-82084141D01*
X168702608Y-82092158D01*
X168702218Y-82099106D01*
X168698686Y-82130442D01*
X168700251Y-82144325D01*
X168699497Y-82144409D01*
X168702608Y-82162716D01*
X168702608Y-88258237D01*
X168682923Y-88325276D01*
X168666289Y-88345918D01*
X168143040Y-88869167D01*
X168081717Y-88902652D01*
X168012025Y-88897668D01*
X167967678Y-88869167D01*
X167959782Y-88861271D01*
X167959778Y-88861268D01*
X167959777Y-88861267D01*
X167860286Y-88810574D01*
X167860284Y-88810573D01*
X167860281Y-88810572D01*
X167750002Y-88793106D01*
X167749998Y-88793106D01*
X167639718Y-88810572D01*
X167540221Y-88861268D01*
X167540217Y-88861271D01*
X167461271Y-88940217D01*
X167461268Y-88940221D01*
X167410572Y-89039718D01*
X167393106Y-89149997D01*
X167393106Y-89150002D01*
X167410572Y-89260281D01*
X167410573Y-89260284D01*
X167410574Y-89260286D01*
X167455010Y-89347496D01*
X167461268Y-89359778D01*
X167461271Y-89359782D01*
X167540217Y-89438728D01*
X167540221Y-89438731D01*
X167540223Y-89438733D01*
X167634943Y-89486995D01*
X167685738Y-89534968D01*
X167702533Y-89602789D01*
X167679996Y-89668924D01*
X167666332Y-89685157D01*
X167661268Y-89690221D01*
X167661267Y-89690223D01*
X167635319Y-89741150D01*
X167610572Y-89789718D01*
X167593106Y-89899997D01*
X167593106Y-89900002D01*
X167610572Y-90010281D01*
X167610573Y-90010284D01*
X167610574Y-90010286D01*
X167635759Y-90059714D01*
X167661268Y-90109778D01*
X167661271Y-90109782D01*
X167740217Y-90188728D01*
X167740221Y-90188731D01*
X167740223Y-90188733D01*
X167839714Y-90239426D01*
X167839716Y-90239426D01*
X167839718Y-90239427D01*
X167949998Y-90256894D01*
X167950000Y-90256894D01*
X167950002Y-90256894D01*
X168060281Y-90239427D01*
X168060281Y-90239426D01*
X168060286Y-90239426D01*
X168159777Y-90188733D01*
X168238733Y-90109777D01*
X168289426Y-90010286D01*
X168296646Y-89964703D01*
X168306894Y-89900002D01*
X168306894Y-89890240D01*
X168308948Y-89890240D01*
X168316278Y-89833466D01*
X168342118Y-89795672D01*
X168419203Y-89718587D01*
X168480524Y-89685104D01*
X168550216Y-89690088D01*
X168606149Y-89731960D01*
X168629692Y-89789131D01*
X168631904Y-89804984D01*
X168632500Y-89813564D01*
X168632500Y-89908408D01*
X168618985Y-89964700D01*
X168595759Y-90010286D01*
X168570572Y-90059718D01*
X168553106Y-90169997D01*
X168553106Y-90170002D01*
X168570572Y-90280281D01*
X168570573Y-90280284D01*
X168570574Y-90280286D01*
X168621267Y-90379777D01*
X168621268Y-90379778D01*
X168621271Y-90379782D01*
X168700217Y-90458728D01*
X168700221Y-90458731D01*
X168700223Y-90458733D01*
X168799714Y-90509426D01*
X168799716Y-90509426D01*
X168799718Y-90509427D01*
X168909998Y-90526894D01*
X168910000Y-90526894D01*
X168910002Y-90526894D01*
X169020281Y-90509427D01*
X169020281Y-90509426D01*
X169020286Y-90509426D01*
X169119777Y-90458733D01*
X169198733Y-90379777D01*
X169249426Y-90280286D01*
X169263927Y-90188733D01*
X169266894Y-90170002D01*
X169266894Y-90169997D01*
X169249427Y-90059718D01*
X169249426Y-90059716D01*
X169249426Y-90059714D01*
X169217181Y-89996430D01*
X169204286Y-89927763D01*
X169230562Y-89863023D01*
X169239977Y-89852466D01*
X169813753Y-89278690D01*
X169875074Y-89245207D01*
X169882006Y-89243904D01*
X169910286Y-89239426D01*
X170009777Y-89188733D01*
X170088733Y-89109777D01*
X170139426Y-89010286D01*
X170143900Y-88982033D01*
X170173826Y-88918902D01*
X170178674Y-88913768D01*
X170392440Y-88700002D01*
X171643106Y-88700002D01*
X171660572Y-88810281D01*
X171660573Y-88810284D01*
X171660574Y-88810286D01*
X171711267Y-88909777D01*
X171711268Y-88909778D01*
X171711271Y-88909782D01*
X171790217Y-88988728D01*
X171790221Y-88988731D01*
X171790223Y-88988733D01*
X171889714Y-89039426D01*
X171889716Y-89039426D01*
X171889718Y-89039427D01*
X171999998Y-89056894D01*
X172000000Y-89056894D01*
X172000002Y-89056894D01*
X172110281Y-89039427D01*
X172110281Y-89039426D01*
X172110286Y-89039426D01*
X172209777Y-88988733D01*
X172288733Y-88909777D01*
X172339426Y-88810286D01*
X172340250Y-88805086D01*
X172341293Y-88798502D01*
X172623106Y-88798502D01*
X172640572Y-88908781D01*
X172640573Y-88908784D01*
X172640574Y-88908786D01*
X172687050Y-89000000D01*
X172691268Y-89008278D01*
X172691271Y-89008282D01*
X172770217Y-89087228D01*
X172770221Y-89087231D01*
X172770223Y-89087233D01*
X172869714Y-89137926D01*
X172869716Y-89137926D01*
X172869718Y-89137927D01*
X172979998Y-89155394D01*
X172980000Y-89155394D01*
X172980002Y-89155394D01*
X173090281Y-89137927D01*
X173090281Y-89137926D01*
X173090286Y-89137926D01*
X173189777Y-89087233D01*
X173268733Y-89008277D01*
X173319426Y-88908786D01*
X173326952Y-88861271D01*
X173336894Y-88798502D01*
X173336894Y-88798497D01*
X173319427Y-88688218D01*
X173319426Y-88688216D01*
X173319426Y-88688214D01*
X173268733Y-88588723D01*
X173268731Y-88588721D01*
X173268728Y-88588717D01*
X173189782Y-88509771D01*
X173189778Y-88509768D01*
X173189777Y-88509767D01*
X173090286Y-88459074D01*
X173090284Y-88459073D01*
X173090281Y-88459072D01*
X172980002Y-88441606D01*
X172979998Y-88441606D01*
X172869718Y-88459072D01*
X172770221Y-88509768D01*
X172770217Y-88509771D01*
X172691271Y-88588717D01*
X172691268Y-88588721D01*
X172640572Y-88688218D01*
X172623106Y-88798497D01*
X172623106Y-88798502D01*
X172341293Y-88798502D01*
X172356894Y-88700002D01*
X172356894Y-88699997D01*
X172339427Y-88589718D01*
X172339426Y-88589716D01*
X172339426Y-88589714D01*
X172288733Y-88490223D01*
X172288731Y-88490221D01*
X172288728Y-88490217D01*
X172209782Y-88411271D01*
X172209778Y-88411268D01*
X172209777Y-88411267D01*
X172110286Y-88360574D01*
X172110284Y-88360573D01*
X172110281Y-88360572D01*
X172000002Y-88343106D01*
X171999998Y-88343106D01*
X171889718Y-88360572D01*
X171790221Y-88411268D01*
X171790217Y-88411271D01*
X171711271Y-88490217D01*
X171711268Y-88490221D01*
X171660572Y-88589718D01*
X171643106Y-88699997D01*
X171643106Y-88700002D01*
X170392440Y-88700002D01*
X171154955Y-87937487D01*
X171161437Y-87931847D01*
X171170123Y-87925288D01*
X171170128Y-87925286D01*
X171199825Y-87892708D01*
X171201733Y-87890709D01*
X171214405Y-87878039D01*
X171215620Y-87876264D01*
X171220948Y-87869536D01*
X171240022Y-87848615D01*
X171241932Y-87843681D01*
X171255266Y-87818387D01*
X171258252Y-87814030D01*
X171261551Y-87800002D01*
X172543106Y-87800002D01*
X172560572Y-87910281D01*
X172560573Y-87910284D01*
X172560574Y-87910286D01*
X172611267Y-88009777D01*
X172611268Y-88009778D01*
X172611271Y-88009782D01*
X172690217Y-88088728D01*
X172690221Y-88088731D01*
X172690223Y-88088733D01*
X172789714Y-88139426D01*
X172789716Y-88139426D01*
X172789718Y-88139427D01*
X172899998Y-88156894D01*
X172900000Y-88156894D01*
X172900002Y-88156894D01*
X173010281Y-88139427D01*
X173010281Y-88139426D01*
X173010286Y-88139426D01*
X173109777Y-88088733D01*
X173188733Y-88009777D01*
X173239426Y-87910286D01*
X173244534Y-87878039D01*
X173256894Y-87800002D01*
X173256894Y-87799997D01*
X173239427Y-87689718D01*
X173239426Y-87689716D01*
X173239426Y-87689714D01*
X173188733Y-87590223D01*
X173188731Y-87590221D01*
X173188728Y-87590217D01*
X173109782Y-87511271D01*
X173109778Y-87511268D01*
X173109777Y-87511267D01*
X173010286Y-87460574D01*
X173010284Y-87460573D01*
X173010281Y-87460572D01*
X172900002Y-87443106D01*
X172899998Y-87443106D01*
X172789718Y-87460572D01*
X172690221Y-87511268D01*
X172690217Y-87511271D01*
X172611271Y-87590217D01*
X172611268Y-87590221D01*
X172560572Y-87689718D01*
X172543106Y-87799997D01*
X172543106Y-87800002D01*
X171261551Y-87800002D01*
X171264732Y-87786473D01*
X171267271Y-87778272D01*
X171277500Y-87751874D01*
X171277500Y-87746577D01*
X171280794Y-87718185D01*
X171282005Y-87713038D01*
X171278094Y-87685005D01*
X171277500Y-87676433D01*
X171277500Y-86700002D01*
X172543106Y-86700002D01*
X172560572Y-86810281D01*
X172560573Y-86810284D01*
X172560574Y-86810286D01*
X172600187Y-86888031D01*
X172611268Y-86909778D01*
X172611271Y-86909782D01*
X172690217Y-86988728D01*
X172690221Y-86988731D01*
X172690223Y-86988733D01*
X172789714Y-87039426D01*
X172789716Y-87039426D01*
X172789718Y-87039427D01*
X172899998Y-87056894D01*
X172900000Y-87056894D01*
X172900002Y-87056894D01*
X173010281Y-87039427D01*
X173010281Y-87039426D01*
X173010286Y-87039426D01*
X173109777Y-86988733D01*
X173188733Y-86909777D01*
X173239426Y-86810286D01*
X173239617Y-86809082D01*
X173256894Y-86700002D01*
X173256894Y-86699997D01*
X173239427Y-86589718D01*
X173239426Y-86589716D01*
X173239426Y-86589714D01*
X173188733Y-86490223D01*
X173188731Y-86490221D01*
X173188728Y-86490217D01*
X173109782Y-86411271D01*
X173109778Y-86411268D01*
X173109777Y-86411267D01*
X173010286Y-86360574D01*
X173010284Y-86360573D01*
X173010281Y-86360572D01*
X172900002Y-86343106D01*
X172899998Y-86343106D01*
X172789718Y-86360572D01*
X172690221Y-86411268D01*
X172690217Y-86411271D01*
X172611271Y-86490217D01*
X172611268Y-86490221D01*
X172560572Y-86589718D01*
X172543106Y-86699997D01*
X172543106Y-86700002D01*
X171277500Y-86700002D01*
X171277500Y-79566305D01*
X171297185Y-79499266D01*
X171313815Y-79478628D01*
X172254955Y-78537487D01*
X172261437Y-78531847D01*
X172270123Y-78525288D01*
X172270128Y-78525286D01*
X172299825Y-78492708D01*
X172301733Y-78490709D01*
X172314405Y-78478039D01*
X172315616Y-78476270D01*
X172320942Y-78469543D01*
X172340022Y-78448615D01*
X172341935Y-78443675D01*
X172355264Y-78418390D01*
X172358252Y-78414029D01*
X172364733Y-78386469D01*
X172367269Y-78378280D01*
X172377500Y-78351874D01*
X172377500Y-78346582D01*
X172380794Y-78318190D01*
X172382006Y-78313038D01*
X172378095Y-78284999D01*
X172377500Y-78276425D01*
X172377500Y-77296577D01*
X172380794Y-77268185D01*
X172382005Y-77263038D01*
X172378094Y-77235005D01*
X172377500Y-77226433D01*
X172377500Y-76356008D01*
X172380082Y-76337495D01*
X172380043Y-76337492D01*
X172381103Y-76326048D01*
X172377765Y-76290021D01*
X172377500Y-76284298D01*
X172377500Y-74430503D01*
X172397185Y-74363464D01*
X172449989Y-74317709D01*
X172519147Y-74307765D01*
X172520898Y-74308030D01*
X172639998Y-74326894D01*
X172640000Y-74326894D01*
X172640002Y-74326894D01*
X172750281Y-74309427D01*
X172750281Y-74309426D01*
X172750286Y-74309426D01*
X172849777Y-74258733D01*
X172928733Y-74179777D01*
X172979426Y-74080286D01*
X172984223Y-74050000D01*
X172996894Y-73970002D01*
X172996894Y-73969997D01*
X172979427Y-73859718D01*
X172979426Y-73859716D01*
X172979426Y-73859714D01*
X172928733Y-73760223D01*
X172928731Y-73760221D01*
X172928728Y-73760217D01*
X172849782Y-73681271D01*
X172849778Y-73681268D01*
X172849777Y-73681267D01*
X172750286Y-73630574D01*
X172750284Y-73630573D01*
X172750281Y-73630572D01*
X172640002Y-73613106D01*
X172639997Y-73613106D01*
X172520897Y-73631969D01*
X172451604Y-73623014D01*
X172398152Y-73578018D01*
X172377513Y-73511266D01*
X172377500Y-73509496D01*
X172377500Y-71658364D01*
X172378095Y-71649788D01*
X172379598Y-71639007D01*
X172379600Y-71639002D01*
X172377797Y-71600000D01*
X172377566Y-71595008D01*
X172377500Y-71592145D01*
X172377500Y-71574282D01*
X172377107Y-71572182D01*
X172376115Y-71563637D01*
X172375748Y-71555695D01*
X172374808Y-71535365D01*
X172372668Y-71530518D01*
X172364215Y-71503220D01*
X172363243Y-71498019D01*
X172348339Y-71473948D01*
X172344335Y-71466351D01*
X172336928Y-71449577D01*
X172332902Y-71440458D01*
X172332901Y-71440457D01*
X172332901Y-71440456D01*
X172329160Y-71436715D01*
X172311415Y-71414314D01*
X172308626Y-71409809D01*
X172286036Y-71392750D01*
X172279551Y-71387107D01*
X171965569Y-71073125D01*
X171637487Y-70745043D01*
X171631850Y-70738565D01*
X171625286Y-70729872D01*
X171592730Y-70700193D01*
X171590680Y-70698236D01*
X171578039Y-70685595D01*
X171578029Y-70685587D01*
X171576259Y-70684374D01*
X171569529Y-70679043D01*
X171548616Y-70659978D01*
X171548614Y-70659977D01*
X171543671Y-70658062D01*
X171518398Y-70644740D01*
X171514033Y-70641750D01*
X171514030Y-70641748D01*
X171486483Y-70635269D01*
X171478274Y-70632727D01*
X171465497Y-70627777D01*
X171451874Y-70622500D01*
X171451873Y-70622500D01*
X171446577Y-70622500D01*
X171418188Y-70619206D01*
X171413038Y-70617995D01*
X171413037Y-70617995D01*
X171385008Y-70621905D01*
X171376433Y-70622500D01*
X171310726Y-70622500D01*
X171243687Y-70602815D01*
X171197932Y-70550011D01*
X171187988Y-70480853D01*
X171217013Y-70417297D01*
X171223045Y-70410819D01*
X172006345Y-69627519D01*
X173130158Y-68503706D01*
X173150017Y-68487581D01*
X173159209Y-68481576D01*
X173181140Y-68453396D01*
X173186230Y-68447634D01*
X173189052Y-68444814D01*
X173202695Y-68425705D01*
X173236592Y-68382155D01*
X173236592Y-68382152D01*
X173240344Y-68375219D01*
X173243829Y-68368093D01*
X173243832Y-68368089D01*
X173246618Y-68358731D01*
X173259579Y-68315194D01*
X173273138Y-68275699D01*
X173277500Y-68262994D01*
X173277500Y-68262993D01*
X173278800Y-68255201D01*
X173279781Y-68247338D01*
X173277500Y-68192197D01*
X173277500Y-65418719D01*
X173272208Y-65387006D01*
X173261983Y-65325731D01*
X173202020Y-65214929D01*
X173109328Y-65129600D01*
X172993952Y-65078991D01*
X172993949Y-65078990D01*
X172993948Y-65078990D01*
X172868397Y-65068586D01*
X172746262Y-65099515D01*
X172640792Y-65168422D01*
X172563407Y-65267845D01*
X172563406Y-65267847D01*
X172522500Y-65387003D01*
X172522500Y-67992272D01*
X172502815Y-68059311D01*
X172486181Y-68079953D01*
X170747268Y-69818866D01*
X170685945Y-69852351D01*
X170659587Y-69855185D01*
X165668719Y-69855185D01*
X165575733Y-69870701D01*
X165575731Y-69870701D01*
X165575731Y-69870702D01*
X165464929Y-69930665D01*
X165464928Y-69930665D01*
X165464928Y-69930666D01*
X165449266Y-69947680D01*
X165379600Y-70023357D01*
X165328991Y-70138733D01*
X165328990Y-70138736D01*
X165318586Y-70264287D01*
X164287700Y-70264287D01*
X164287700Y-69309679D01*
X164290812Y-69291359D01*
X164290060Y-69291275D01*
X164291623Y-69277399D01*
X164291625Y-69277394D01*
X164288089Y-69246014D01*
X164287700Y-69239075D01*
X164287700Y-69231047D01*
X164287700Y-69231046D01*
X164285915Y-69223226D01*
X164284748Y-69216363D01*
X164281214Y-69184991D01*
X164281212Y-69184988D01*
X164277336Y-69173909D01*
X164272249Y-69163346D01*
X164266512Y-69156153D01*
X164252562Y-69138659D01*
X164248542Y-69132993D01*
X164244271Y-69126197D01*
X164244265Y-69126190D01*
X164238594Y-69120519D01*
X164233959Y-69115332D01*
X164213530Y-69089716D01*
X164187120Y-69025031D01*
X164187543Y-69009760D01*
X164186894Y-69009760D01*
X164186894Y-68999997D01*
X164169427Y-68889718D01*
X164169426Y-68889716D01*
X164169426Y-68889714D01*
X164118733Y-68790223D01*
X164118731Y-68790221D01*
X164118728Y-68790217D01*
X164039782Y-68711271D01*
X164039778Y-68711268D01*
X164039777Y-68711267D01*
X163940286Y-68660574D01*
X163940284Y-68660573D01*
X163940281Y-68660572D01*
X163830002Y-68643106D01*
X163829998Y-68643106D01*
X163719718Y-68660572D01*
X163620221Y-68711268D01*
X163620217Y-68711271D01*
X163541271Y-68790217D01*
X163541268Y-68790221D01*
X163490572Y-68889718D01*
X163473106Y-68999997D01*
X163473106Y-69000002D01*
X163490572Y-69110281D01*
X163490573Y-69110284D01*
X163490574Y-69110286D01*
X163530544Y-69188731D01*
X163541268Y-69209778D01*
X163541271Y-69209782D01*
X163620217Y-69288728D01*
X163620221Y-69288731D01*
X163620223Y-69288733D01*
X163719714Y-69339426D01*
X163775700Y-69348293D01*
X163838832Y-69378221D01*
X163875764Y-69437532D01*
X163880300Y-69470766D01*
X163880300Y-71237301D01*
X163860615Y-71304340D01*
X163807811Y-71350095D01*
X163738653Y-71360039D01*
X163700006Y-71347786D01*
X163610283Y-71302070D01*
X163500002Y-71284604D01*
X163499998Y-71284604D01*
X163389718Y-71302070D01*
X163290221Y-71352766D01*
X163290219Y-71352767D01*
X163280621Y-71362366D01*
X163219296Y-71395849D01*
X163149605Y-71390862D01*
X163105229Y-71357641D01*
X163103261Y-71359610D01*
X163017409Y-71273758D01*
X163017405Y-71273755D01*
X163017404Y-71273754D01*
X162917913Y-71223061D01*
X162917911Y-71223060D01*
X162917908Y-71223059D01*
X162807629Y-71205593D01*
X162807625Y-71205593D01*
X162697345Y-71223059D01*
X162597848Y-71273755D01*
X162597844Y-71273758D01*
X162518898Y-71352704D01*
X162518895Y-71352708D01*
X162507685Y-71374709D01*
X162476092Y-71436715D01*
X162468199Y-71452205D01*
X162450733Y-71562484D01*
X162450733Y-71562489D01*
X162468199Y-71672768D01*
X162468200Y-71672771D01*
X162468201Y-71672773D01*
X162515859Y-71766307D01*
X162518895Y-71772265D01*
X162518898Y-71772269D01*
X162597844Y-71851215D01*
X162597848Y-71851218D01*
X162597850Y-71851220D01*
X162697341Y-71901913D01*
X162697343Y-71901913D01*
X162697345Y-71901914D01*
X162807625Y-71919381D01*
X162817387Y-71919381D01*
X162817387Y-71921505D01*
X162873911Y-71928803D01*
X162911711Y-71954647D01*
X163272054Y-72314990D01*
X163285275Y-72328210D01*
X163318760Y-72389533D01*
X163313776Y-72459224D01*
X163271905Y-72515158D01*
X163206440Y-72539575D01*
X163141301Y-72526377D01*
X163110282Y-72510572D01*
X163000002Y-72493106D01*
X162999998Y-72493106D01*
X162889718Y-72510572D01*
X162790221Y-72561268D01*
X162790217Y-72561271D01*
X162737681Y-72613808D01*
X162676358Y-72647293D01*
X162606666Y-72642309D01*
X162562319Y-72613808D01*
X162509782Y-72561271D01*
X162509778Y-72561268D01*
X162509777Y-72561267D01*
X162410286Y-72510574D01*
X162410284Y-72510573D01*
X162410281Y-72510572D01*
X162300002Y-72493106D01*
X162299998Y-72493106D01*
X162189718Y-72510572D01*
X162090221Y-72561268D01*
X162090217Y-72561271D01*
X162011271Y-72640217D01*
X162011268Y-72640222D01*
X162011267Y-72640223D01*
X162007665Y-72647293D01*
X161988185Y-72685525D01*
X161940210Y-72736321D01*
X161872389Y-72753116D01*
X161806254Y-72730578D01*
X161762803Y-72675863D01*
X161753700Y-72629230D01*
X161753700Y-71996172D01*
X161773385Y-71929133D01*
X161790020Y-71908490D01*
X161838729Y-71859781D01*
X161838733Y-71859777D01*
X161889426Y-71760286D01*
X161891346Y-71748164D01*
X161906894Y-71650002D01*
X161906894Y-71649997D01*
X161889427Y-71539718D01*
X161889426Y-71539716D01*
X161889426Y-71539714D01*
X161838733Y-71440223D01*
X161838731Y-71440221D01*
X161838728Y-71440217D01*
X161759782Y-71361271D01*
X161759778Y-71361268D01*
X161759777Y-71361267D01*
X161660286Y-71310574D01*
X161660284Y-71310573D01*
X161660281Y-71310572D01*
X161550002Y-71293106D01*
X161549996Y-71293106D01*
X161445897Y-71309593D01*
X161376604Y-71300638D01*
X161323152Y-71255641D01*
X161302513Y-71188890D01*
X161302500Y-71187120D01*
X161302500Y-70487086D01*
X161304883Y-70462892D01*
X161307448Y-70450000D01*
X161289833Y-70361448D01*
X161287850Y-70351479D01*
X161232043Y-70267957D01*
X161232040Y-70267954D01*
X161221108Y-70260650D01*
X161202318Y-70245229D01*
X160904769Y-69947680D01*
X160889348Y-69928890D01*
X160882043Y-69917957D01*
X160798521Y-69862150D01*
X160798518Y-69862149D01*
X160783214Y-69859105D01*
X160700001Y-69842552D01*
X160700000Y-69842552D01*
X160687106Y-69845117D01*
X160662913Y-69847500D01*
X159297373Y-69847500D01*
X159230334Y-69827815D01*
X159221752Y-69820900D01*
X159221676Y-69821006D01*
X159213778Y-69815268D01*
X159213777Y-69815267D01*
X159114286Y-69764574D01*
X159114284Y-69764573D01*
X159114281Y-69764572D01*
X159004002Y-69747106D01*
X159003998Y-69747106D01*
X158893718Y-69764572D01*
X158893714Y-69764573D01*
X158893714Y-69764574D01*
X158798700Y-69812985D01*
X158742408Y-69826500D01*
X157554368Y-69826500D01*
X157545794Y-69825905D01*
X157535006Y-69824400D01*
X157535003Y-69824400D01*
X157514355Y-69825354D01*
X157491010Y-69826434D01*
X157488147Y-69826500D01*
X157470283Y-69826500D01*
X157468172Y-69826894D01*
X157459645Y-69827883D01*
X157431369Y-69829190D01*
X157431364Y-69829192D01*
X157426513Y-69831334D01*
X157399223Y-69839784D01*
X157394019Y-69840756D01*
X157394017Y-69840757D01*
X157369950Y-69855658D01*
X157362349Y-69859664D01*
X157336458Y-69871096D01*
X157332710Y-69874845D01*
X157310317Y-69892582D01*
X157305811Y-69895371D01*
X157305811Y-69895372D01*
X157288754Y-69917958D01*
X157283112Y-69924442D01*
X156320050Y-70887504D01*
X156313570Y-70893144D01*
X156304875Y-70899711D01*
X156304872Y-70899713D01*
X156304872Y-70899714D01*
X156294751Y-70910815D01*
X156275205Y-70932256D01*
X156273231Y-70934324D01*
X156260592Y-70946963D01*
X156260582Y-70946975D01*
X156259365Y-70948752D01*
X156254044Y-70955468D01*
X156234978Y-70976384D01*
X156234977Y-70976386D01*
X156233063Y-70981327D01*
X156219741Y-71006600D01*
X156216750Y-71010966D01*
X156216747Y-71010971D01*
X156210266Y-71038523D01*
X156207725Y-71046730D01*
X156197500Y-71073125D01*
X156197500Y-71078422D01*
X156194206Y-71106812D01*
X156192995Y-71111958D01*
X156192995Y-71111962D01*
X155777500Y-71111962D01*
X155777500Y-70857494D01*
X155797185Y-70790455D01*
X155813819Y-70769813D01*
X156736132Y-69847500D01*
X157660036Y-68923596D01*
X157784747Y-68777579D01*
X157918597Y-68559155D01*
X158016631Y-68322481D01*
X158076434Y-68073384D01*
X158094144Y-67848351D01*
X158717597Y-67848351D01*
X158735063Y-67958630D01*
X158735064Y-67958633D01*
X158735065Y-67958635D01*
X158775792Y-68038566D01*
X158785759Y-68058127D01*
X158785762Y-68058131D01*
X158864708Y-68137077D01*
X158864712Y-68137080D01*
X158864714Y-68137082D01*
X158964205Y-68187775D01*
X158964207Y-68187775D01*
X158964209Y-68187776D01*
X159074489Y-68205243D01*
X159084250Y-68205243D01*
X159084250Y-68207164D01*
X159141487Y-68214558D01*
X159168908Y-68231130D01*
X159170339Y-68232271D01*
X159177135Y-68236542D01*
X159182801Y-68240562D01*
X159191301Y-68247340D01*
X159207488Y-68260249D01*
X159218051Y-68265336D01*
X159229130Y-68269212D01*
X159229133Y-68269214D01*
X159260508Y-68272748D01*
X159267368Y-68273915D01*
X159268704Y-68274219D01*
X159275188Y-68275700D01*
X159283219Y-68275700D01*
X159290155Y-68276089D01*
X159321536Y-68279625D01*
X159335418Y-68278061D01*
X159335502Y-68278811D01*
X159353822Y-68275700D01*
X162977828Y-68275700D01*
X163044867Y-68295385D01*
X163065510Y-68312020D01*
X163112218Y-68358729D01*
X163112221Y-68358731D01*
X163112223Y-68358733D01*
X163211714Y-68409426D01*
X163211716Y-68409426D01*
X163211718Y-68409427D01*
X163321998Y-68426894D01*
X163322000Y-68426894D01*
X163322002Y-68426894D01*
X163432281Y-68409427D01*
X163432281Y-68409426D01*
X163432286Y-68409426D01*
X163531777Y-68358733D01*
X163580490Y-68310020D01*
X163641813Y-68276534D01*
X163668172Y-68273700D01*
X164984262Y-68273700D01*
X165051301Y-68293385D01*
X165071943Y-68310019D01*
X165757839Y-68995915D01*
X165791324Y-69057238D01*
X165792268Y-69090242D01*
X165793106Y-69090242D01*
X165793106Y-69100002D01*
X165810572Y-69210281D01*
X165810573Y-69210284D01*
X165810574Y-69210286D01*
X165861267Y-69309777D01*
X165861268Y-69309778D01*
X165861271Y-69309782D01*
X165940217Y-69388728D01*
X165940221Y-69388731D01*
X165940223Y-69388733D01*
X166039714Y-69439426D01*
X166039716Y-69439426D01*
X166039718Y-69439427D01*
X166149998Y-69456894D01*
X166150000Y-69456894D01*
X166150002Y-69456894D01*
X166260281Y-69439427D01*
X166260281Y-69439426D01*
X166260286Y-69439426D01*
X166359777Y-69388733D01*
X166438733Y-69309777D01*
X166489426Y-69210286D01*
X166489506Y-69209782D01*
X166506894Y-69100002D01*
X166506894Y-69099997D01*
X166489427Y-68989718D01*
X166489426Y-68989716D01*
X166489426Y-68989714D01*
X166438733Y-68890223D01*
X166438731Y-68890221D01*
X166438728Y-68890217D01*
X166359782Y-68811271D01*
X166359778Y-68811268D01*
X166359777Y-68811267D01*
X166260286Y-68760574D01*
X166260284Y-68760573D01*
X166260281Y-68760572D01*
X166150003Y-68743106D01*
X166140242Y-68743106D01*
X166140242Y-68740985D01*
X166083690Y-68733672D01*
X166045915Y-68707839D01*
X165303408Y-67965332D01*
X165292658Y-67950180D01*
X165292066Y-67950653D01*
X165283354Y-67939728D01*
X165271884Y-67930581D01*
X165258668Y-67920041D01*
X165253481Y-67915405D01*
X165247810Y-67909734D01*
X165247811Y-67909734D01*
X165247808Y-67909732D01*
X165247807Y-67909731D01*
X165240991Y-67905448D01*
X165235340Y-67901438D01*
X165210655Y-67881752D01*
X165210654Y-67881751D01*
X165210652Y-67881750D01*
X165200088Y-67876662D01*
X165189007Y-67872785D01*
X165157640Y-67869251D01*
X165150787Y-67868087D01*
X165142956Y-67866300D01*
X165142954Y-67866300D01*
X165134923Y-67866300D01*
X165127986Y-67865910D01*
X165114954Y-67864442D01*
X165096605Y-67862374D01*
X165082724Y-67863939D01*
X165082639Y-67863188D01*
X165064320Y-67866300D01*
X163668172Y-67866300D01*
X163601133Y-67846615D01*
X163580490Y-67829980D01*
X163531781Y-67781270D01*
X163531778Y-67781268D01*
X163531777Y-67781267D01*
X163432286Y-67730574D01*
X163432284Y-67730573D01*
X163432281Y-67730572D01*
X163322002Y-67713106D01*
X163321998Y-67713106D01*
X163211718Y-67730572D01*
X163112221Y-67781268D01*
X163112217Y-67781271D01*
X163061508Y-67831981D01*
X163000185Y-67865466D01*
X162973827Y-67868300D01*
X159540451Y-67868300D01*
X159473412Y-67848615D01*
X159427657Y-67795811D01*
X159417978Y-67763698D01*
X159413918Y-67738067D01*
X159413917Y-67738065D01*
X159413917Y-67738063D01*
X159363224Y-67638572D01*
X159363222Y-67638570D01*
X159363219Y-67638566D01*
X159284273Y-67559620D01*
X159284269Y-67559617D01*
X159284268Y-67559616D01*
X159184777Y-67508923D01*
X159184775Y-67508922D01*
X159184772Y-67508921D01*
X159074493Y-67491455D01*
X159074489Y-67491455D01*
X158964209Y-67508921D01*
X158864712Y-67559617D01*
X158864708Y-67559620D01*
X158785762Y-67638566D01*
X158785759Y-67638570D01*
X158735063Y-67738067D01*
X158717597Y-67848346D01*
X158717597Y-67848351D01*
X158094144Y-67848351D01*
X158096533Y-67818000D01*
X158076434Y-67562616D01*
X158016631Y-67313519D01*
X157956509Y-67168374D01*
X157918597Y-67076844D01*
X157784750Y-66858425D01*
X157784749Y-66858424D01*
X157784748Y-66858423D01*
X157784747Y-66858421D01*
X157618375Y-66663625D01*
X157423579Y-66497253D01*
X157423577Y-66497251D01*
X157423575Y-66497250D01*
X157423574Y-66497249D01*
X157205155Y-66363402D01*
X156968476Y-66265367D01*
X156719380Y-66205565D01*
X156719381Y-66205565D01*
X156464000Y-66185467D01*
X156208618Y-66205565D01*
X155959523Y-66265367D01*
X155722844Y-66363402D01*
X155504425Y-66497249D01*
X155504424Y-66497250D01*
X155440506Y-66551841D01*
X155358404Y-66621964D01*
X154890150Y-67090217D01*
X154744797Y-67235570D01*
X154683474Y-67269055D01*
X154613782Y-67264071D01*
X154569435Y-67235570D01*
X153547761Y-66213895D01*
X153514276Y-66152572D01*
X153519260Y-66082880D01*
X153561132Y-66026947D01*
X153626596Y-66002530D01*
X153654837Y-66003740D01*
X153700000Y-66010894D01*
X153700002Y-66010894D01*
X153810281Y-65993427D01*
X153810281Y-65993426D01*
X153810286Y-65993426D01*
X153909777Y-65942733D01*
X153988733Y-65863777D01*
X154039426Y-65764286D01*
X154043708Y-65737254D01*
X154056894Y-65654002D01*
X154056894Y-65653997D01*
X154039427Y-65543718D01*
X154039426Y-65543716D01*
X154039426Y-65543714D01*
X153988733Y-65444223D01*
X153988731Y-65444221D01*
X153988728Y-65444217D01*
X153909782Y-65365271D01*
X153909778Y-65365268D01*
X153909777Y-65365267D01*
X153810286Y-65314574D01*
X153810284Y-65314573D01*
X153810281Y-65314572D01*
X153700002Y-65297106D01*
X153699998Y-65297106D01*
X153589718Y-65314572D01*
X153589714Y-65314573D01*
X153589714Y-65314574D01*
X153572315Y-65323439D01*
X153490221Y-65365268D01*
X153490217Y-65365271D01*
X153411271Y-65444217D01*
X153411268Y-65444221D01*
X153411267Y-65444223D01*
X153378845Y-65507856D01*
X153360572Y-65543718D01*
X153343106Y-65653997D01*
X153343106Y-65654002D01*
X153350258Y-65699159D01*
X153341303Y-65768453D01*
X153296307Y-65821905D01*
X153229555Y-65842544D01*
X153162242Y-65823819D01*
X153140104Y-65806238D01*
X152513819Y-65179953D01*
X152480334Y-65118630D01*
X152477500Y-65092272D01*
X152477500Y-63100002D01*
X153643106Y-63100002D01*
X153660572Y-63210281D01*
X153660573Y-63210284D01*
X153660574Y-63210286D01*
X153711267Y-63309777D01*
X153711268Y-63309778D01*
X153711271Y-63309782D01*
X153790217Y-63388728D01*
X153790221Y-63388731D01*
X153790223Y-63388733D01*
X153889714Y-63439426D01*
X153889716Y-63439426D01*
X153889718Y-63439427D01*
X153999998Y-63456894D01*
X154000000Y-63456894D01*
X154000002Y-63456894D01*
X154110281Y-63439427D01*
X154110281Y-63439426D01*
X154110286Y-63439426D01*
X154209777Y-63388733D01*
X154288733Y-63309777D01*
X154339426Y-63210286D01*
X154344784Y-63176458D01*
X154356894Y-63100002D01*
X154356894Y-63099997D01*
X154339427Y-62989718D01*
X154339426Y-62989716D01*
X154339426Y-62989714D01*
X154288733Y-62890223D01*
X154288731Y-62890221D01*
X154288728Y-62890217D01*
X154209782Y-62811271D01*
X154209778Y-62811268D01*
X154209777Y-62811267D01*
X154110286Y-62760574D01*
X154110284Y-62760573D01*
X154110281Y-62760572D01*
X154000002Y-62743106D01*
X153999998Y-62743106D01*
X153889718Y-62760572D01*
X153790221Y-62811268D01*
X153790217Y-62811271D01*
X153711271Y-62890217D01*
X153711268Y-62890221D01*
X153660572Y-62989718D01*
X153643106Y-63099997D01*
X153643106Y-63100002D01*
X152477500Y-63100002D01*
X152477500Y-58700002D01*
X153643106Y-58700002D01*
X153660572Y-58810281D01*
X153660573Y-58810284D01*
X153660574Y-58810286D01*
X153711267Y-58909777D01*
X153711268Y-58909778D01*
X153711271Y-58909782D01*
X153790217Y-58988728D01*
X153790221Y-58988731D01*
X153790223Y-58988733D01*
X153889714Y-59039426D01*
X153889716Y-59039426D01*
X153889718Y-59039427D01*
X153999998Y-59056894D01*
X154009760Y-59056894D01*
X154009760Y-59058949D01*
X154066527Y-59066276D01*
X154104329Y-59092121D01*
X154860181Y-59847973D01*
X154893666Y-59909296D01*
X154896500Y-59935654D01*
X154896500Y-62244355D01*
X154893390Y-62262663D01*
X154894143Y-62262748D01*
X154892578Y-62276628D01*
X154894783Y-62296192D01*
X154896110Y-62307971D01*
X154896500Y-62314910D01*
X154896500Y-62322925D01*
X154898283Y-62330741D01*
X154899447Y-62337594D01*
X154902979Y-62368938D01*
X154906850Y-62380000D01*
X154911937Y-62390562D01*
X154911938Y-62390566D01*
X154931606Y-62415230D01*
X154935619Y-62420884D01*
X154939892Y-62427684D01*
X154945553Y-62433345D01*
X154950191Y-62438534D01*
X154969857Y-62463194D01*
X154969860Y-62463195D01*
X154980782Y-62471906D01*
X154980308Y-62472499D01*
X154995452Y-62483244D01*
X155216756Y-62704548D01*
X155227501Y-62719691D01*
X155228094Y-62719219D01*
X155236805Y-62730142D01*
X155261462Y-62749806D01*
X155266649Y-62754442D01*
X155272311Y-62760104D01*
X155272314Y-62760106D01*
X155272316Y-62760108D01*
X155273058Y-62760574D01*
X155279107Y-62764376D01*
X155284776Y-62768399D01*
X155309431Y-62788060D01*
X155309434Y-62788062D01*
X155309436Y-62788062D01*
X155320002Y-62793150D01*
X155331058Y-62797019D01*
X155331060Y-62797020D01*
X155362413Y-62800552D01*
X155369240Y-62801712D01*
X155377073Y-62803500D01*
X155385088Y-62803500D01*
X155392028Y-62803889D01*
X155423371Y-62807421D01*
X155423371Y-62807420D01*
X155423372Y-62807421D01*
X155437255Y-62805857D01*
X155437339Y-62806610D01*
X155455646Y-62803500D01*
X155981784Y-62803500D01*
X155985347Y-62803700D01*
X155987046Y-62803700D01*
X161937170Y-62803700D01*
X162004209Y-62823385D01*
X162024851Y-62840019D01*
X162784836Y-63600004D01*
X162787503Y-63602387D01*
X163838150Y-64653034D01*
X164591663Y-65406547D01*
X164602408Y-65421690D01*
X164603001Y-65421218D01*
X164611712Y-65432141D01*
X164636369Y-65451805D01*
X164641556Y-65456441D01*
X164647218Y-65462103D01*
X164647221Y-65462105D01*
X164647223Y-65462107D01*
X164647225Y-65462108D01*
X164654014Y-65466375D01*
X164659683Y-65470398D01*
X164684338Y-65490059D01*
X164684341Y-65490061D01*
X164684343Y-65490061D01*
X164694909Y-65495149D01*
X164705965Y-65499018D01*
X164705967Y-65499019D01*
X164737320Y-65502551D01*
X164744147Y-65503711D01*
X164751980Y-65505499D01*
X164759995Y-65505499D01*
X164766935Y-65505888D01*
X164798278Y-65509420D01*
X164798278Y-65509419D01*
X164798279Y-65509420D01*
X164812162Y-65507856D01*
X164812246Y-65508609D01*
X164830553Y-65505499D01*
X167166345Y-65505499D01*
X167233384Y-65525184D01*
X167254026Y-65541818D01*
X167658181Y-65945973D01*
X167691666Y-66007296D01*
X167694500Y-66033654D01*
X167694500Y-67892355D01*
X167691390Y-67910663D01*
X167692143Y-67910748D01*
X167690578Y-67924628D01*
X167692280Y-67939728D01*
X167694110Y-67955971D01*
X167694500Y-67962910D01*
X167694500Y-67970925D01*
X167696283Y-67978741D01*
X167697447Y-67985594D01*
X167700979Y-68016938D01*
X167704850Y-68028000D01*
X167709937Y-68038562D01*
X167709938Y-68038566D01*
X167729606Y-68063230D01*
X167733619Y-68068884D01*
X167736445Y-68073381D01*
X167737892Y-68075684D01*
X167743553Y-68081345D01*
X167748191Y-68086534D01*
X167767857Y-68111194D01*
X167767860Y-68111195D01*
X167778782Y-68119906D01*
X167778308Y-68120499D01*
X167793452Y-68131244D01*
X167857878Y-68195670D01*
X167891363Y-68256993D01*
X167892314Y-68290242D01*
X167893106Y-68290242D01*
X167893106Y-68300002D01*
X167910572Y-68410281D01*
X167910573Y-68410284D01*
X167910574Y-68410286D01*
X167961267Y-68509777D01*
X167961268Y-68509778D01*
X167961271Y-68509782D01*
X168040217Y-68588728D01*
X168040221Y-68588731D01*
X168040223Y-68588733D01*
X168139714Y-68639426D01*
X168139716Y-68639426D01*
X168139718Y-68639427D01*
X168249998Y-68656894D01*
X168250000Y-68656894D01*
X168250002Y-68656894D01*
X168360281Y-68639427D01*
X168360281Y-68639426D01*
X168360286Y-68639426D01*
X168459777Y-68588733D01*
X168538733Y-68509777D01*
X168556859Y-68474201D01*
X168604831Y-68423407D01*
X168672652Y-68406611D01*
X168738787Y-68429147D01*
X168755024Y-68442816D01*
X169316756Y-69004548D01*
X169327501Y-69019691D01*
X169328094Y-69019219D01*
X169336805Y-69030142D01*
X169361462Y-69049806D01*
X169366649Y-69054442D01*
X169372311Y-69060104D01*
X169372314Y-69060106D01*
X169372316Y-69060108D01*
X169372318Y-69060109D01*
X169379107Y-69064376D01*
X169384776Y-69068399D01*
X169406206Y-69085488D01*
X169409434Y-69088062D01*
X169409436Y-69088062D01*
X169420002Y-69093150D01*
X169431058Y-69097019D01*
X169431060Y-69097020D01*
X169462413Y-69100552D01*
X169469240Y-69101712D01*
X169477073Y-69103500D01*
X169485088Y-69103500D01*
X169492028Y-69103889D01*
X169523371Y-69107421D01*
X169523371Y-69107420D01*
X169523372Y-69107421D01*
X169537255Y-69105857D01*
X169537339Y-69106610D01*
X169555646Y-69103500D01*
X170153627Y-69103500D01*
X170220666Y-69123185D01*
X170241308Y-69139819D01*
X170290217Y-69188728D01*
X170290221Y-69188731D01*
X170290223Y-69188733D01*
X170389714Y-69239426D01*
X170389716Y-69239426D01*
X170389718Y-69239427D01*
X170499998Y-69256894D01*
X170500000Y-69256894D01*
X170500002Y-69256894D01*
X170610281Y-69239427D01*
X170610281Y-69239426D01*
X170610286Y-69239426D01*
X170709777Y-69188733D01*
X170788733Y-69109777D01*
X170839426Y-69010286D01*
X170839427Y-69010281D01*
X170856894Y-68900002D01*
X170856894Y-68899997D01*
X170839427Y-68789718D01*
X170839426Y-68789716D01*
X170839426Y-68789714D01*
X170788733Y-68690223D01*
X170788731Y-68690221D01*
X170788728Y-68690217D01*
X170709782Y-68611271D01*
X170709778Y-68611268D01*
X170709777Y-68611267D01*
X170610286Y-68560574D01*
X170610284Y-68560573D01*
X170610281Y-68560572D01*
X170500002Y-68543106D01*
X170499998Y-68543106D01*
X170389718Y-68560572D01*
X170290221Y-68611268D01*
X170290217Y-68611271D01*
X170241308Y-68660181D01*
X170179985Y-68693666D01*
X170153627Y-68696500D01*
X169635654Y-68696500D01*
X169568615Y-68676815D01*
X169547973Y-68660181D01*
X168439819Y-67552027D01*
X168406334Y-67490704D01*
X168403500Y-67464346D01*
X168403500Y-67318002D01*
X169061106Y-67318002D01*
X169078572Y-67428281D01*
X169078573Y-67428284D01*
X169078574Y-67428286D01*
X169129267Y-67527777D01*
X169129268Y-67527778D01*
X169129271Y-67527782D01*
X169208217Y-67606728D01*
X169208221Y-67606731D01*
X169208223Y-67606733D01*
X169307714Y-67657426D01*
X169307716Y-67657426D01*
X169307718Y-67657427D01*
X169417998Y-67674894D01*
X169418000Y-67674894D01*
X169418002Y-67674894D01*
X169528281Y-67657427D01*
X169528281Y-67657426D01*
X169528286Y-67657426D01*
X169627777Y-67606733D01*
X169650485Y-67584025D01*
X169680319Y-67554192D01*
X169741642Y-67520707D01*
X169811334Y-67525691D01*
X169855681Y-67554192D01*
X169890217Y-67588728D01*
X169890221Y-67588731D01*
X169890223Y-67588733D01*
X169989714Y-67639426D01*
X169989716Y-67639426D01*
X169989718Y-67639427D01*
X170099998Y-67656894D01*
X170100000Y-67656894D01*
X170100002Y-67656894D01*
X170210281Y-67639427D01*
X170210281Y-67639426D01*
X170210286Y-67639426D01*
X170309777Y-67588733D01*
X170335894Y-67562616D01*
X170362319Y-67536192D01*
X170423642Y-67502707D01*
X170493334Y-67507691D01*
X170537681Y-67536192D01*
X170590217Y-67588728D01*
X170590221Y-67588731D01*
X170590223Y-67588733D01*
X170689714Y-67639426D01*
X170689716Y-67639426D01*
X170689718Y-67639427D01*
X170799998Y-67656894D01*
X170800000Y-67656894D01*
X170800002Y-67656894D01*
X170910281Y-67639427D01*
X170910281Y-67639426D01*
X170910286Y-67639426D01*
X170993708Y-67596920D01*
X171062374Y-67584025D01*
X171106290Y-67596919D01*
X171189714Y-67639426D01*
X171189716Y-67639426D01*
X171189718Y-67639427D01*
X171299998Y-67656894D01*
X171300000Y-67656894D01*
X171300002Y-67656894D01*
X171410281Y-67639427D01*
X171410281Y-67639426D01*
X171410286Y-67639426D01*
X171509777Y-67588733D01*
X171588733Y-67509777D01*
X171639426Y-67410286D01*
X171650000Y-67343525D01*
X171656894Y-67300002D01*
X171656894Y-67299997D01*
X171639427Y-67189718D01*
X171639426Y-67189716D01*
X171639426Y-67189714D01*
X171588733Y-67090223D01*
X171588731Y-67090221D01*
X171588728Y-67090217D01*
X171509782Y-67011271D01*
X171509778Y-67011268D01*
X171509777Y-67011267D01*
X171410286Y-66960574D01*
X171410284Y-66960573D01*
X171410281Y-66960572D01*
X171300002Y-66943106D01*
X171299998Y-66943106D01*
X171189716Y-66960572D01*
X171106294Y-67003078D01*
X171037625Y-67015974D01*
X170993706Y-67003078D01*
X170910283Y-66960572D01*
X170800002Y-66943106D01*
X170799998Y-66943106D01*
X170689718Y-66960572D01*
X170590221Y-67011268D01*
X170590217Y-67011271D01*
X170537681Y-67063808D01*
X170476358Y-67097293D01*
X170406666Y-67092309D01*
X170362319Y-67063808D01*
X170309782Y-67011271D01*
X170309778Y-67011268D01*
X170309777Y-67011267D01*
X170210286Y-66960574D01*
X170210284Y-66960573D01*
X170210281Y-66960572D01*
X170100002Y-66943106D01*
X170099998Y-66943106D01*
X169989718Y-66960572D01*
X169890221Y-67011268D01*
X169890217Y-67011271D01*
X169837681Y-67063808D01*
X169776358Y-67097293D01*
X169706666Y-67092309D01*
X169662319Y-67063808D01*
X169627782Y-67029271D01*
X169627778Y-67029268D01*
X169627777Y-67029267D01*
X169528286Y-66978574D01*
X169528284Y-66978573D01*
X169528281Y-66978572D01*
X169418002Y-66961106D01*
X169417998Y-66961106D01*
X169307718Y-66978572D01*
X169208221Y-67029268D01*
X169208217Y-67029271D01*
X169129271Y-67108217D01*
X169129268Y-67108221D01*
X169078572Y-67207718D01*
X169061106Y-67317997D01*
X169061106Y-67318002D01*
X168403500Y-67318002D01*
X168403500Y-65755642D01*
X168406610Y-65737339D01*
X168405856Y-65737254D01*
X168407420Y-65723371D01*
X168403890Y-65692044D01*
X168403500Y-65685096D01*
X168403500Y-65677075D01*
X168403500Y-65677073D01*
X168401710Y-65669231D01*
X168400551Y-65662414D01*
X168397019Y-65631060D01*
X168397017Y-65631056D01*
X168393145Y-65619988D01*
X168388063Y-65609435D01*
X168368401Y-65584780D01*
X168364374Y-65579104D01*
X168360111Y-65572319D01*
X168360105Y-65572312D01*
X168354439Y-65566646D01*
X168349802Y-65561458D01*
X168330143Y-65536805D01*
X168319221Y-65528095D01*
X168319693Y-65527502D01*
X168304551Y-65516758D01*
X167683244Y-64895452D01*
X167672499Y-64880308D01*
X167671906Y-64880782D01*
X167663195Y-64869860D01*
X167663194Y-64869857D01*
X167638534Y-64850191D01*
X167633345Y-64845553D01*
X167627684Y-64839892D01*
X167620884Y-64835619D01*
X167615230Y-64831606D01*
X167590566Y-64811938D01*
X167590562Y-64811937D01*
X167580000Y-64806850D01*
X167568938Y-64802979D01*
X167537594Y-64799447D01*
X167530741Y-64798283D01*
X167524719Y-64796909D01*
X167522927Y-64796500D01*
X167522926Y-64796500D01*
X167514912Y-64796500D01*
X167507971Y-64796110D01*
X167497119Y-64794887D01*
X167476627Y-64792578D01*
X167462745Y-64794143D01*
X167462660Y-64793389D01*
X167444354Y-64796500D01*
X165003978Y-64796500D01*
X164936939Y-64776815D01*
X164916297Y-64760181D01*
X163754930Y-63598814D01*
X162416827Y-62260711D01*
X162416825Y-62260710D01*
X162395868Y-62239753D01*
X162372049Y-62215934D01*
X162361297Y-62200778D01*
X162360704Y-62201252D01*
X162351993Y-62190328D01*
X162327305Y-62170640D01*
X162322117Y-62166003D01*
X162316447Y-62160333D01*
X162316445Y-62160331D01*
X162312648Y-62157945D01*
X162309647Y-62156059D01*
X162303976Y-62152035D01*
X162279293Y-62132351D01*
X162268723Y-62127261D01*
X162257646Y-62123384D01*
X162226274Y-62119850D01*
X162219419Y-62118686D01*
X162211593Y-62116900D01*
X162203572Y-62116900D01*
X162196626Y-62116510D01*
X162165242Y-62112974D01*
X162151361Y-62114539D01*
X162151276Y-62113787D01*
X162132958Y-62116900D01*
X156323396Y-62116900D01*
X156256357Y-62097215D01*
X156210602Y-62044411D01*
X156200923Y-62012298D01*
X156189427Y-61939718D01*
X156189426Y-61939716D01*
X156189426Y-61939714D01*
X156138733Y-61840223D01*
X156138731Y-61840221D01*
X156138728Y-61840217D01*
X156059782Y-61761271D01*
X156059778Y-61761268D01*
X156059777Y-61761267D01*
X155960286Y-61710574D01*
X155960284Y-61710573D01*
X155960281Y-61710572D01*
X155850002Y-61693106D01*
X155849998Y-61693106D01*
X155739718Y-61710572D01*
X155640221Y-61761268D01*
X155640217Y-61761271D01*
X155561271Y-61840217D01*
X155561268Y-61840221D01*
X155561267Y-61840223D01*
X155537983Y-61885919D01*
X155490011Y-61936714D01*
X155422190Y-61953509D01*
X155356055Y-61930972D01*
X155312603Y-61876257D01*
X155303500Y-61829623D01*
X155303500Y-59855646D01*
X155306610Y-59837339D01*
X155305857Y-59837255D01*
X155307421Y-59823372D01*
X155303890Y-59792036D01*
X155303500Y-59785088D01*
X155303500Y-59777076D01*
X155303500Y-59777073D01*
X155301712Y-59769240D01*
X155300552Y-59762413D01*
X155297020Y-59731060D01*
X155297019Y-59731058D01*
X155293150Y-59720002D01*
X155288062Y-59709436D01*
X155288062Y-59709434D01*
X155288060Y-59709431D01*
X155268399Y-59684776D01*
X155264376Y-59679107D01*
X155260109Y-59672318D01*
X155260104Y-59672311D01*
X155254442Y-59666649D01*
X155249806Y-59661462D01*
X155230142Y-59636805D01*
X155219219Y-59628094D01*
X155219691Y-59627501D01*
X155204548Y-59616756D01*
X154392121Y-58804329D01*
X154358636Y-58743006D01*
X154357689Y-58709760D01*
X154356894Y-58709760D01*
X154356894Y-58699997D01*
X154339427Y-58589718D01*
X154339426Y-58589716D01*
X154339426Y-58589714D01*
X154288733Y-58490223D01*
X154288731Y-58490221D01*
X154288728Y-58490217D01*
X154209782Y-58411271D01*
X154209778Y-58411268D01*
X154209777Y-58411267D01*
X154110286Y-58360574D01*
X154110284Y-58360573D01*
X154110281Y-58360572D01*
X154000002Y-58343106D01*
X153999998Y-58343106D01*
X153889718Y-58360572D01*
X153790221Y-58411268D01*
X153790217Y-58411271D01*
X153711271Y-58490217D01*
X153711268Y-58490221D01*
X153660572Y-58589718D01*
X153643106Y-58699997D01*
X153643106Y-58700002D01*
X152477500Y-58700002D01*
X152477500Y-56007727D01*
X152497185Y-55940688D01*
X152513819Y-55920046D01*
X153120047Y-55313819D01*
X153181370Y-55280334D01*
X153207728Y-55277500D01*
X153604150Y-55277500D01*
X153671189Y-55297185D01*
X153716944Y-55349989D01*
X153726888Y-55419147D01*
X153697863Y-55482703D01*
X153694542Y-55486384D01*
X153600306Y-55586733D01*
X153600303Y-55586738D01*
X153523929Y-55725662D01*
X153523926Y-55725672D01*
X153484500Y-55879224D01*
X153484500Y-56429032D01*
X153482772Y-56444681D01*
X153483054Y-56444708D01*
X153482319Y-56452475D01*
X153484500Y-56521859D01*
X153484500Y-56551477D01*
X153485371Y-56558380D01*
X153485829Y-56564199D01*
X153487298Y-56610942D01*
X153492916Y-56630275D01*
X153496862Y-56649329D01*
X153499383Y-56669287D01*
X153499386Y-56669299D01*
X153516595Y-56712765D01*
X153518487Y-56718293D01*
X153531530Y-56763187D01*
X153531530Y-56763188D01*
X153541777Y-56780515D01*
X153550335Y-56797985D01*
X153557745Y-56816701D01*
X153585229Y-56854529D01*
X153588437Y-56859413D01*
X153612234Y-56899652D01*
X153612240Y-56899660D01*
X153626469Y-56913888D01*
X153639109Y-56928687D01*
X153650934Y-56944964D01*
X153650936Y-56944965D01*
X153650937Y-56944967D01*
X153686957Y-56974765D01*
X153691268Y-56978687D01*
X155202798Y-58490217D01*
X156597624Y-59885043D01*
X156607471Y-59897333D01*
X156607689Y-59897154D01*
X156612657Y-59903160D01*
X156663257Y-59950677D01*
X156684201Y-59971620D01*
X156684207Y-59971626D01*
X156689697Y-59975883D01*
X156694148Y-59979684D01*
X156728235Y-60011695D01*
X156728237Y-60011696D01*
X156745868Y-60021388D01*
X156762137Y-60032074D01*
X156778037Y-60044407D01*
X156778037Y-60044408D01*
X156820944Y-60062975D01*
X156826193Y-60065547D01*
X156867161Y-60088070D01*
X156867164Y-60088071D01*
X156867166Y-60088072D01*
X156886659Y-60093076D01*
X156905067Y-60099379D01*
X156923541Y-60107374D01*
X156955890Y-60112497D01*
X156969723Y-60114688D01*
X156975438Y-60115871D01*
X157020728Y-60127500D01*
X157040858Y-60127500D01*
X157060255Y-60129026D01*
X157080133Y-60132175D01*
X157122779Y-60128143D01*
X157126679Y-60127775D01*
X157132517Y-60127500D01*
X164630651Y-60127500D01*
X164697690Y-60147185D01*
X164743445Y-60199989D01*
X164753389Y-60269147D01*
X164724364Y-60332703D01*
X164686948Y-60361983D01*
X164593020Y-60409841D01*
X164590221Y-60411268D01*
X164590217Y-60411271D01*
X164511271Y-60490217D01*
X164511268Y-60490221D01*
X164460572Y-60589718D01*
X164443106Y-60699997D01*
X164443106Y-60700004D01*
X164444203Y-60706933D01*
X164435245Y-60776226D01*
X164409410Y-60814006D01*
X164367181Y-60856235D01*
X164305858Y-60889720D01*
X164236166Y-60884736D01*
X164180233Y-60842864D01*
X164155816Y-60777400D01*
X164156894Y-60752285D01*
X164156894Y-60749997D01*
X164139427Y-60639718D01*
X164139426Y-60639716D01*
X164139426Y-60639714D01*
X164088733Y-60540223D01*
X164088731Y-60540221D01*
X164088728Y-60540217D01*
X164009782Y-60461271D01*
X164009778Y-60461268D01*
X164009777Y-60461267D01*
X163910286Y-60410574D01*
X163910284Y-60410573D01*
X163910281Y-60410572D01*
X163800002Y-60393106D01*
X163799998Y-60393106D01*
X163689718Y-60410572D01*
X163590221Y-60461268D01*
X163590217Y-60461271D01*
X163511271Y-60540217D01*
X163511268Y-60540221D01*
X163460572Y-60639718D01*
X163443106Y-60749997D01*
X163443106Y-60750002D01*
X163460572Y-60860281D01*
X163460573Y-60860284D01*
X163460574Y-60860286D01*
X163505897Y-60949237D01*
X163511268Y-60959778D01*
X163511271Y-60959782D01*
X163590217Y-61038728D01*
X163590221Y-61038731D01*
X163590223Y-61038733D01*
X163689714Y-61089426D01*
X163689716Y-61089426D01*
X163689718Y-61089427D01*
X163767937Y-61101815D01*
X163800000Y-61106894D01*
X163800000Y-61106893D01*
X163805153Y-61107710D01*
X163868288Y-61137639D01*
X163905220Y-61196950D01*
X163909756Y-61230183D01*
X163909756Y-62540987D01*
X163906721Y-62558849D01*
X163907552Y-62558943D01*
X163905987Y-62572822D01*
X163908171Y-62592198D01*
X163909366Y-62602805D01*
X163909756Y-62609744D01*
X163909756Y-62617316D01*
X163911440Y-62624698D01*
X163912605Y-62631553D01*
X163915983Y-62661534D01*
X163919704Y-62672167D01*
X163924593Y-62682320D01*
X163943407Y-62705912D01*
X163947428Y-62711579D01*
X163951458Y-62717993D01*
X163956808Y-62723343D01*
X163961444Y-62728530D01*
X163962730Y-62730143D01*
X163980256Y-62752119D01*
X163991180Y-62760831D01*
X163990658Y-62761485D01*
X164005431Y-62771966D01*
X165003033Y-63769568D01*
X165013517Y-63784341D01*
X165014170Y-63783821D01*
X165022880Y-63794742D01*
X165022882Y-63794745D01*
X165046475Y-63813560D01*
X165051644Y-63818179D01*
X165057007Y-63823542D01*
X165063088Y-63827362D01*
X165063413Y-63827567D01*
X165069090Y-63831595D01*
X165081776Y-63841712D01*
X165092680Y-63850407D01*
X165092684Y-63850407D01*
X165102837Y-63855297D01*
X165113461Y-63859015D01*
X165113462Y-63859015D01*
X165113464Y-63859016D01*
X165143460Y-63862395D01*
X165150291Y-63863556D01*
X165157685Y-63865244D01*
X165165255Y-63865244D01*
X165172193Y-63865633D01*
X165202178Y-63869012D01*
X165202178Y-63869011D01*
X165202179Y-63869012D01*
X165216061Y-63867448D01*
X165216154Y-63868278D01*
X165234015Y-63865244D01*
X172397347Y-63865244D01*
X172464386Y-63884929D01*
X172485028Y-63901563D01*
X173598437Y-65014972D01*
X173631922Y-65076295D01*
X173634756Y-65102653D01*
X173634756Y-79047346D01*
X173615071Y-79114385D01*
X173598437Y-79135027D01*
X172180427Y-80553036D01*
X172165654Y-80563520D01*
X172166175Y-80564173D01*
X172155254Y-80572881D01*
X172136444Y-80596468D01*
X172131815Y-80601648D01*
X172126461Y-80607002D01*
X172126454Y-80607011D01*
X172122425Y-80613422D01*
X172118406Y-80619086D01*
X172099594Y-80642678D01*
X172094702Y-80652835D01*
X172090983Y-80663462D01*
X172087604Y-80693450D01*
X172086440Y-80700299D01*
X172084756Y-80707683D01*
X172084756Y-80715254D01*
X172084366Y-80722202D01*
X172080987Y-80752178D01*
X172082552Y-80766061D01*
X172081721Y-80766154D01*
X172084756Y-80784015D01*
X172084756Y-83415987D01*
X172081721Y-83433849D01*
X172082552Y-83433943D01*
X172080987Y-83447822D01*
X172083171Y-83467198D01*
X172084366Y-83477805D01*
X172084756Y-83484744D01*
X172084756Y-83492316D01*
X172086440Y-83499698D01*
X172087605Y-83506553D01*
X172090983Y-83536534D01*
X172094704Y-83547167D01*
X172099593Y-83557320D01*
X172118407Y-83580912D01*
X172122428Y-83586579D01*
X172126458Y-83592993D01*
X172131808Y-83598343D01*
X172136445Y-83603531D01*
X172155256Y-83627119D01*
X172166180Y-83635831D01*
X172165658Y-83636485D01*
X172180431Y-83646966D01*
X172703033Y-84169568D01*
X172713517Y-84184341D01*
X172714170Y-84183821D01*
X172722880Y-84194742D01*
X172722882Y-84194745D01*
X172746475Y-84213560D01*
X172751644Y-84218179D01*
X172757007Y-84223542D01*
X172763088Y-84227362D01*
X172763413Y-84227567D01*
X172769090Y-84231595D01*
X172776721Y-84237680D01*
X172792680Y-84250407D01*
X172792684Y-84250407D01*
X172802837Y-84255297D01*
X172813460Y-84259013D01*
X172813464Y-84259016D01*
X172843454Y-84262394D01*
X172850287Y-84263555D01*
X172857685Y-84265244D01*
X172865261Y-84265244D01*
X172872200Y-84265633D01*
X172895672Y-84268278D01*
X172902177Y-84269011D01*
X172902177Y-84269010D01*
X172902178Y-84269011D01*
X172902178Y-84269010D01*
X172916058Y-84267447D01*
X172916151Y-84268278D01*
X172934011Y-84265244D01*
X173631695Y-84265244D01*
X173698734Y-84284929D01*
X173744489Y-84337733D01*
X173754168Y-84369845D01*
X173760572Y-84410282D01*
X173760573Y-84410285D01*
X173760574Y-84410286D01*
X173788650Y-84465389D01*
X173811268Y-84509778D01*
X173811271Y-84509782D01*
X173890217Y-84588728D01*
X173890221Y-84588731D01*
X173890223Y-84588733D01*
X173989714Y-84639426D01*
X173989716Y-84639426D01*
X173989718Y-84639427D01*
X174099998Y-84656894D01*
X174100000Y-84656894D01*
X174100002Y-84656894D01*
X174210281Y-84639427D01*
X174210281Y-84639426D01*
X174210286Y-84639426D01*
X174309777Y-84588733D01*
X174388733Y-84509777D01*
X174439426Y-84410286D01*
X174443191Y-84386516D01*
X174456894Y-84300002D01*
X174456894Y-84299997D01*
X174439427Y-84189718D01*
X174439426Y-84189716D01*
X174439426Y-84189714D01*
X174388733Y-84090223D01*
X174388731Y-84090221D01*
X174388728Y-84090217D01*
X174309782Y-84011271D01*
X174309779Y-84011269D01*
X174309777Y-84011267D01*
X174308241Y-84010484D01*
X174306714Y-84009042D01*
X174301885Y-84005534D01*
X174302338Y-84004909D01*
X174257446Y-83962514D01*
X174240649Y-83894694D01*
X174263184Y-83828558D01*
X174302133Y-83794807D01*
X174301885Y-83794466D01*
X174305863Y-83791575D01*
X174308240Y-83789515D01*
X174309777Y-83788733D01*
X174388733Y-83709777D01*
X174439426Y-83610286D01*
X174447815Y-83557320D01*
X174456894Y-83500002D01*
X174456894Y-83499997D01*
X174439427Y-83389718D01*
X174439426Y-83389716D01*
X174439426Y-83389714D01*
X174388733Y-83290223D01*
X174388731Y-83290221D01*
X174388728Y-83290217D01*
X174309782Y-83211271D01*
X174309778Y-83211268D01*
X174309777Y-83211267D01*
X174210286Y-83160574D01*
X174210284Y-83160573D01*
X174210281Y-83160572D01*
X174100002Y-83143106D01*
X174099998Y-83143106D01*
X173989718Y-83160572D01*
X173890221Y-83211268D01*
X173890217Y-83211271D01*
X173811271Y-83290217D01*
X173811268Y-83290221D01*
X173760572Y-83389717D01*
X173751052Y-83449827D01*
X173721122Y-83512961D01*
X173661810Y-83549892D01*
X173628579Y-83554428D01*
X173172324Y-83554428D01*
X173105285Y-83534743D01*
X173084643Y-83518109D01*
X172851563Y-83285028D01*
X172818078Y-83223705D01*
X172815244Y-83197347D01*
X172815244Y-81002652D01*
X172834929Y-80935613D01*
X172851558Y-80914976D01*
X174269570Y-79496963D01*
X174284345Y-79486482D01*
X174283823Y-79485827D01*
X174294740Y-79477120D01*
X174294745Y-79477118D01*
X174303473Y-79466173D01*
X174313551Y-79453536D01*
X174318191Y-79448343D01*
X174323542Y-79442993D01*
X174327575Y-79436572D01*
X174331586Y-79430919D01*
X174350407Y-79407320D01*
X174350407Y-79407316D01*
X174355293Y-79397173D01*
X174359013Y-79386539D01*
X174359016Y-79386536D01*
X174362395Y-79356537D01*
X174363559Y-79349691D01*
X174365244Y-79342315D01*
X174365244Y-79334744D01*
X174365633Y-79327805D01*
X174369012Y-79297822D01*
X174367448Y-79283943D01*
X174368278Y-79283849D01*
X174365244Y-79265987D01*
X174365244Y-64884015D01*
X174368278Y-64866154D01*
X174367448Y-64866061D01*
X174369012Y-64852178D01*
X174368544Y-64848022D01*
X174365633Y-64822194D01*
X174365244Y-64815254D01*
X174365244Y-64807687D01*
X174365053Y-64806850D01*
X174363556Y-64800291D01*
X174362395Y-64793460D01*
X174359016Y-64763464D01*
X174359015Y-64763462D01*
X174359015Y-64763461D01*
X174355297Y-64752837D01*
X174350407Y-64742682D01*
X174350407Y-64742680D01*
X174331590Y-64719084D01*
X174327567Y-64713414D01*
X174323542Y-64707008D01*
X174318183Y-64701649D01*
X174313564Y-64696480D01*
X174294745Y-64672882D01*
X174283824Y-64664173D01*
X174284344Y-64663520D01*
X174269568Y-64653034D01*
X172846966Y-63230431D01*
X172836485Y-63215658D01*
X172835831Y-63216180D01*
X172827119Y-63205256D01*
X172803531Y-63186445D01*
X172798343Y-63181808D01*
X172792993Y-63176458D01*
X172786579Y-63172428D01*
X172780912Y-63168407D01*
X172757320Y-63149593D01*
X172747167Y-63144704D01*
X172736534Y-63140983D01*
X172706553Y-63137605D01*
X172699698Y-63136440D01*
X172692317Y-63134756D01*
X172692315Y-63134756D01*
X172684745Y-63134756D01*
X172677806Y-63134366D01*
X172665548Y-63132985D01*
X172647820Y-63130987D01*
X172633939Y-63132552D01*
X172633845Y-63131721D01*
X172615985Y-63134756D01*
X165452652Y-63134756D01*
X165385613Y-63115071D01*
X165364971Y-63098437D01*
X164676563Y-62410028D01*
X164643078Y-62348705D01*
X164640244Y-62322347D01*
X164640244Y-61600002D01*
X165643106Y-61600002D01*
X165660572Y-61710281D01*
X165660573Y-61710284D01*
X165660574Y-61710286D01*
X165711267Y-61809777D01*
X165711268Y-61809778D01*
X165711271Y-61809782D01*
X165790217Y-61888728D01*
X165790221Y-61888731D01*
X165790223Y-61888733D01*
X165889714Y-61939426D01*
X165889716Y-61939426D01*
X165889718Y-61939427D01*
X165999998Y-61956894D01*
X166000000Y-61956894D01*
X166000002Y-61956894D01*
X166110281Y-61939427D01*
X166110281Y-61939426D01*
X166110286Y-61939426D01*
X166209777Y-61888733D01*
X166288733Y-61809777D01*
X166339426Y-61710286D01*
X166356894Y-61600000D01*
X166344786Y-61523557D01*
X166339427Y-61489718D01*
X166339426Y-61489716D01*
X166339426Y-61489714D01*
X166288733Y-61390223D01*
X166288731Y-61390221D01*
X166288728Y-61390217D01*
X166209782Y-61311271D01*
X166209778Y-61311268D01*
X166209777Y-61311267D01*
X166110286Y-61260574D01*
X166110284Y-61260573D01*
X166110281Y-61260572D01*
X166000002Y-61243106D01*
X165999998Y-61243106D01*
X165889718Y-61260572D01*
X165790221Y-61311268D01*
X165790217Y-61311271D01*
X165711271Y-61390217D01*
X165711268Y-61390221D01*
X165660572Y-61489718D01*
X165643106Y-61599997D01*
X165643106Y-61600002D01*
X164640244Y-61600002D01*
X164640244Y-61187698D01*
X164659929Y-61120659D01*
X164676555Y-61100024D01*
X164685989Y-61090590D01*
X164747307Y-61057104D01*
X164793074Y-61055797D01*
X164800000Y-61056894D01*
X164800002Y-61056894D01*
X164910281Y-61039427D01*
X164910281Y-61039426D01*
X164910286Y-61039426D01*
X165009777Y-60988733D01*
X165088733Y-60909777D01*
X165139426Y-60810286D01*
X165145913Y-60769332D01*
X165156894Y-60700002D01*
X165156894Y-60699997D01*
X165139427Y-60589718D01*
X165139426Y-60589716D01*
X165139426Y-60589714D01*
X165088733Y-60490223D01*
X165088731Y-60490221D01*
X165088728Y-60490217D01*
X165009782Y-60411271D01*
X165009778Y-60411268D01*
X165009777Y-60411267D01*
X164913052Y-60361983D01*
X164862258Y-60314011D01*
X164845463Y-60246190D01*
X164868000Y-60180055D01*
X164922715Y-60136603D01*
X164969349Y-60127500D01*
X168988719Y-60127500D01*
X169055758Y-60147185D01*
X169076400Y-60163819D01*
X171006704Y-62094124D01*
X171100532Y-62166904D01*
X171100535Y-62166905D01*
X171100538Y-62166908D01*
X171144775Y-62186051D01*
X171246037Y-62229872D01*
X171246039Y-62229872D01*
X171246041Y-62229873D01*
X171402633Y-62254674D01*
X171560473Y-62239754D01*
X171709640Y-62186051D01*
X171709641Y-62186051D01*
X171709641Y-62186050D01*
X171709643Y-62186050D01*
X171840771Y-62096935D01*
X171945617Y-61978010D01*
X172017595Y-61836747D01*
X172052180Y-61682023D01*
X172047200Y-61523557D01*
X172002968Y-61371309D01*
X171922263Y-61234844D01*
X171922261Y-61234842D01*
X171922258Y-61234838D01*
X169802376Y-59114957D01*
X169792531Y-59102668D01*
X169792313Y-59102849D01*
X169787340Y-59096838D01*
X169782317Y-59092121D01*
X169736741Y-59049322D01*
X169726600Y-59039181D01*
X169693115Y-58977858D01*
X169698099Y-58908166D01*
X169739971Y-58852233D01*
X169805435Y-58827816D01*
X169814281Y-58827500D01*
X170620728Y-58827500D01*
X172338719Y-58827500D01*
X172405758Y-58847185D01*
X172426400Y-58863819D01*
X174936181Y-61373600D01*
X174969666Y-61434923D01*
X174972500Y-61461281D01*
X174972500Y-71739485D01*
X174982350Y-71817449D01*
X174987384Y-71857293D01*
X175015827Y-71929133D01*
X175045746Y-72004702D01*
X175049803Y-72010286D01*
X175138937Y-72132967D01*
X175261097Y-72234026D01*
X175261107Y-72234030D01*
X175264933Y-72236459D01*
X175310993Y-72288997D01*
X175322500Y-72341162D01*
X175322500Y-84633693D01*
X175302815Y-84700732D01*
X175286181Y-84721374D01*
X174840458Y-85167097D01*
X174664545Y-85343009D01*
X174603222Y-85376494D01*
X174533530Y-85371510D01*
X174520573Y-85365815D01*
X174510285Y-85360573D01*
X174510283Y-85360572D01*
X174400002Y-85343106D01*
X174399998Y-85343106D01*
X174289718Y-85360572D01*
X174190221Y-85411268D01*
X174190217Y-85411271D01*
X174111271Y-85490217D01*
X174111268Y-85490221D01*
X174060572Y-85589718D01*
X174043106Y-85699997D01*
X174043106Y-85700002D01*
X174060572Y-85810281D01*
X174060573Y-85810284D01*
X174060574Y-85810286D01*
X174111267Y-85909777D01*
X174111268Y-85909778D01*
X174111271Y-85909782D01*
X174190217Y-85988728D01*
X174190221Y-85988731D01*
X174190223Y-85988733D01*
X174289714Y-86039426D01*
X174289716Y-86039426D01*
X174289718Y-86039427D01*
X174399998Y-86056894D01*
X174400000Y-86056894D01*
X174400002Y-86056894D01*
X174510281Y-86039427D01*
X174510281Y-86039426D01*
X174510286Y-86039426D01*
X174600544Y-85993437D01*
X174651109Y-85980056D01*
X174660994Y-85979599D01*
X174660997Y-85979600D01*
X174697211Y-85977925D01*
X174704991Y-85977566D01*
X174707853Y-85977500D01*
X174725711Y-85977500D01*
X174725715Y-85977500D01*
X174727821Y-85977106D01*
X174736353Y-85976115D01*
X174764635Y-85974808D01*
X174769470Y-85972672D01*
X174796781Y-85964214D01*
X174801981Y-85963243D01*
X174826055Y-85948336D01*
X174833627Y-85944344D01*
X174859542Y-85932903D01*
X174863279Y-85929165D01*
X174885696Y-85911408D01*
X174890189Y-85908627D01*
X174907250Y-85886033D01*
X174912872Y-85879571D01*
X175142100Y-85650342D01*
X175142103Y-85650341D01*
X175159541Y-85632903D01*
X175159542Y-85632903D01*
X175754955Y-85037487D01*
X175761437Y-85031847D01*
X175770123Y-85025288D01*
X175770128Y-85025286D01*
X175799825Y-84992708D01*
X175801733Y-84990709D01*
X175814405Y-84978039D01*
X175815620Y-84976264D01*
X175820948Y-84969536D01*
X175840022Y-84948615D01*
X175841932Y-84943681D01*
X175855266Y-84918387D01*
X175858252Y-84914030D01*
X175864732Y-84886473D01*
X175867271Y-84878272D01*
X175877500Y-84851874D01*
X175877500Y-84846577D01*
X175880794Y-84818185D01*
X175882005Y-84813038D01*
X175878094Y-84785005D01*
X175877500Y-84776433D01*
X175877500Y-72335256D01*
X175897185Y-72268217D01*
X175935055Y-72230561D01*
X176003162Y-72187340D01*
X176111693Y-72071767D01*
X176188072Y-71932834D01*
X176227500Y-71779272D01*
X176227500Y-70160524D01*
X176227500Y-61232964D01*
X176229228Y-61217313D01*
X176228946Y-61217287D01*
X176229680Y-61209524D01*
X176227500Y-61140140D01*
X176227500Y-61110530D01*
X176227500Y-61110524D01*
X176226626Y-61103607D01*
X176226169Y-61097792D01*
X176224701Y-61051060D01*
X176224701Y-61051058D01*
X176219080Y-61031711D01*
X176215137Y-61012665D01*
X176212616Y-60992707D01*
X176195402Y-60949230D01*
X176193518Y-60943726D01*
X176180469Y-60898809D01*
X176170213Y-60881467D01*
X176161662Y-60864010D01*
X176154253Y-60845297D01*
X176126772Y-60807473D01*
X176123568Y-60802595D01*
X176099764Y-60762345D01*
X176099760Y-60762340D01*
X176085531Y-60748112D01*
X176072896Y-60733320D01*
X176061063Y-60717033D01*
X176061060Y-60717031D01*
X176061060Y-60717030D01*
X176061059Y-60717029D01*
X176025035Y-60687228D01*
X176020713Y-60683294D01*
X173152376Y-57814957D01*
X173142531Y-57802668D01*
X173142313Y-57802849D01*
X173137340Y-57796838D01*
X173086741Y-57749322D01*
X173076268Y-57738849D01*
X173065797Y-57728377D01*
X173060296Y-57724111D01*
X173055848Y-57720312D01*
X173021768Y-57688308D01*
X173021763Y-57688304D01*
X173004122Y-57678606D01*
X172987857Y-57667922D01*
X172971963Y-57655593D01*
X172971962Y-57655592D01*
X172956804Y-57649032D01*
X172929054Y-57637023D01*
X172923807Y-57634453D01*
X172882837Y-57611929D01*
X172882828Y-57611926D01*
X172863334Y-57606920D01*
X172844933Y-57600620D01*
X172826459Y-57592626D01*
X172826452Y-57592624D01*
X172780287Y-57585313D01*
X172774563Y-57584128D01*
X172729279Y-57572500D01*
X172729272Y-57572500D01*
X172709142Y-57572500D01*
X172689743Y-57570973D01*
X172669868Y-57567825D01*
X172669867Y-57567825D01*
X172623321Y-57572225D01*
X172617483Y-57572500D01*
X158911281Y-57572500D01*
X158844242Y-57552815D01*
X158823600Y-57536181D01*
X157715795Y-56428375D01*
X157621967Y-56355595D01*
X157621960Y-56355591D01*
X157476461Y-56292626D01*
X157476456Y-56292625D01*
X157319870Y-56267825D01*
X157319869Y-56267825D01*
X157319867Y-56267825D01*
X157162027Y-56282746D01*
X157162025Y-56282746D01*
X157162022Y-56282747D01*
X157012859Y-56336448D01*
X157012858Y-56336448D01*
X156881732Y-56425562D01*
X156881726Y-56425567D01*
X156776884Y-56544485D01*
X156776883Y-56544487D01*
X156704906Y-56685750D01*
X156704904Y-56685755D01*
X156685780Y-56771309D01*
X156672936Y-56828777D01*
X156670320Y-56840479D01*
X156675299Y-56998945D01*
X156719529Y-57151186D01*
X156719531Y-57151189D01*
X156800235Y-57287653D01*
X156800241Y-57287661D01*
X158097624Y-58585043D01*
X158107471Y-58597333D01*
X158107689Y-58597154D01*
X158112657Y-58603159D01*
X158163258Y-58650677D01*
X158173399Y-58660819D01*
X158206884Y-58722142D01*
X158201900Y-58791834D01*
X158160028Y-58847767D01*
X158094564Y-58872184D01*
X158085718Y-58872500D01*
X157411281Y-58872500D01*
X157344242Y-58852815D01*
X157323600Y-58836181D01*
X154775819Y-56288400D01*
X154742334Y-56227077D01*
X154739500Y-56200719D01*
X154739500Y-55919025D01*
X154739499Y-55919014D01*
X154736678Y-55896691D01*
X154724616Y-55801207D01*
X154666253Y-55653797D01*
X154573063Y-55525533D01*
X154538624Y-55497043D01*
X154499517Y-55439144D01*
X154497921Y-55369293D01*
X154534342Y-55309667D01*
X154597218Y-55279197D01*
X154617665Y-55277500D01*
X160609094Y-55277500D01*
X160676133Y-55297185D01*
X160721888Y-55349989D01*
X160731832Y-55419147D01*
X160702807Y-55482703D01*
X160671645Y-55506030D01*
X160672557Y-55507449D01*
X160665096Y-55512243D01*
X160555718Y-55607020D01*
X160477471Y-55728775D01*
X160436700Y-55867633D01*
X160436700Y-56012366D01*
X160477471Y-56151224D01*
X160477473Y-56151228D01*
X160477474Y-56151229D01*
X160555719Y-56272981D01*
X160665097Y-56367757D01*
X160715548Y-56390797D01*
X160796745Y-56427879D01*
X160804765Y-56429032D01*
X160904000Y-56443300D01*
X160904001Y-56443300D01*
X160975999Y-56443300D01*
X160976000Y-56443300D01*
X161083254Y-56427879D01*
X161214903Y-56367757D01*
X161324281Y-56272981D01*
X161402526Y-56151229D01*
X161402527Y-56151225D01*
X161402528Y-56151224D01*
X161443299Y-56012366D01*
X161443300Y-56012365D01*
X161443300Y-55867635D01*
X161443299Y-55867633D01*
X161402528Y-55728775D01*
X161402526Y-55728772D01*
X161402526Y-55728771D01*
X161324281Y-55607019D01*
X161214903Y-55512243D01*
X161207443Y-55507449D01*
X161208892Y-55505193D01*
X161166592Y-55468542D01*
X161146906Y-55401503D01*
X161166589Y-55334463D01*
X161219392Y-55288707D01*
X161270906Y-55277500D01*
X166389094Y-55277500D01*
X166456133Y-55297185D01*
X166501888Y-55349989D01*
X166511832Y-55419147D01*
X166482807Y-55482703D01*
X166451645Y-55506030D01*
X166452557Y-55507449D01*
X166445096Y-55512243D01*
X166335718Y-55607020D01*
X166257471Y-55728775D01*
X166216700Y-55867633D01*
X166216700Y-56012366D01*
X166257471Y-56151224D01*
X166257473Y-56151228D01*
X166257474Y-56151229D01*
X166335719Y-56272981D01*
X166445097Y-56367757D01*
X166495548Y-56390797D01*
X166576745Y-56427879D01*
X166584765Y-56429032D01*
X166684000Y-56443300D01*
X166684001Y-56443300D01*
X166755999Y-56443300D01*
X166756000Y-56443300D01*
X166863254Y-56427879D01*
X166994903Y-56367757D01*
X167104281Y-56272981D01*
X167182526Y-56151229D01*
X167182527Y-56151225D01*
X167182528Y-56151224D01*
X167223299Y-56012366D01*
X167223300Y-56012365D01*
X167223300Y-55867635D01*
X167223299Y-55867633D01*
X167182528Y-55728775D01*
X167182526Y-55728772D01*
X167182526Y-55728771D01*
X167104281Y-55607019D01*
X166994903Y-55512243D01*
X166987443Y-55507449D01*
X166988892Y-55505193D01*
X166946592Y-55468542D01*
X166926906Y-55401503D01*
X166946589Y-55334463D01*
X166999392Y-55288707D01*
X167050906Y-55277500D01*
X170642273Y-55277500D01*
X170709312Y-55297185D01*
X170729954Y-55313819D01*
X172205182Y-56789049D01*
X172205184Y-56789050D01*
X172205186Y-56789052D01*
X172217698Y-56797985D01*
X172281906Y-56843829D01*
X172281911Y-56843832D01*
X172402660Y-56879781D01*
X172402661Y-56879780D01*
X172402662Y-56879781D01*
X172412280Y-56879383D01*
X172528540Y-56874574D01*
X172645909Y-56828777D01*
X172742048Y-56747352D01*
X172806539Y-56639122D01*
X172832393Y-56515816D01*
X172816810Y-56390797D01*
X172761477Y-56277611D01*
X172761475Y-56277609D01*
X172761475Y-56277608D01*
X171153709Y-54669843D01*
X171137583Y-54649986D01*
X171131576Y-54640791D01*
X171128749Y-54638591D01*
X171103399Y-54618860D01*
X171097635Y-54613769D01*
X171094813Y-54610947D01*
X171094811Y-54610946D01*
X171075705Y-54597304D01*
X171047729Y-54575530D01*
X171032157Y-54563409D01*
X171025194Y-54559642D01*
X171018091Y-54556169D01*
X171018089Y-54556168D01*
X171005953Y-54552554D01*
X170965193Y-54540419D01*
X170912995Y-54522499D01*
X170905199Y-54521198D01*
X170897336Y-54520218D01*
X170844086Y-54522421D01*
X170842196Y-54522500D01*
X153052011Y-54522500D01*
X153026566Y-54519861D01*
X153015816Y-54517607D01*
X153015813Y-54517607D01*
X152980384Y-54522023D01*
X152972708Y-54522500D01*
X152968719Y-54522500D01*
X152951349Y-54525398D01*
X152945559Y-54526364D01*
X152890791Y-54533191D01*
X152883220Y-54535445D01*
X152875733Y-54538016D01*
X152827188Y-54564286D01*
X152777611Y-54588523D01*
X152771182Y-54593113D01*
X152764927Y-54597981D01*
X152727543Y-54638591D01*
X151869843Y-55496289D01*
X151849990Y-55512412D01*
X151840794Y-55518420D01*
X151840789Y-55518425D01*
X151818855Y-55546603D01*
X151813778Y-55552354D01*
X151810956Y-55555177D01*
X151810946Y-55555189D01*
X151797303Y-55574295D01*
X151763406Y-55617846D01*
X151759647Y-55624793D01*
X151756167Y-55631911D01*
X151740419Y-55684806D01*
X151722499Y-55737007D01*
X151721198Y-55744805D01*
X151720218Y-55752663D01*
X151722500Y-55807803D01*
X151722500Y-65247987D01*
X151719861Y-65273435D01*
X151717606Y-65284184D01*
X151722023Y-65319616D01*
X151722500Y-65327292D01*
X151722500Y-65331282D01*
X151726362Y-65354428D01*
X151733189Y-65409202D01*
X151735446Y-65416781D01*
X151738017Y-65424270D01*
X151764285Y-65472808D01*
X151788524Y-65522391D01*
X151793110Y-65528814D01*
X151797981Y-65535072D01*
X151838591Y-65572457D01*
X154035569Y-67769435D01*
X154069054Y-67830758D01*
X154064070Y-67900450D01*
X154035569Y-67944797D01*
X153046131Y-68934235D01*
X153042556Y-68937540D01*
X152995626Y-68977624D01*
X152995625Y-68977625D01*
X152976515Y-69000000D01*
X152829250Y-69172424D01*
X152829249Y-69172425D01*
X152695405Y-69390839D01*
X152695402Y-69390846D01*
X152678806Y-69430913D01*
X152597367Y-69627523D01*
X152537565Y-69876618D01*
X152517467Y-70132000D01*
X152522309Y-70193524D01*
X152522500Y-70198390D01*
X152522500Y-78725027D01*
X152502815Y-78792066D01*
X152450011Y-78837821D01*
X152380853Y-78847765D01*
X152317297Y-78818740D01*
X152310819Y-78812708D01*
X152304982Y-78806871D01*
X152304978Y-78806868D01*
X152304977Y-78806867D01*
X152205486Y-78756174D01*
X152205484Y-78756173D01*
X152205481Y-78756172D01*
X152095202Y-78738706D01*
X152095198Y-78738706D01*
X151984918Y-78756172D01*
X151885421Y-78806868D01*
X151885417Y-78806871D01*
X151806471Y-78885817D01*
X151806468Y-78885821D01*
X151755772Y-78985318D01*
X151738306Y-79095597D01*
X151738306Y-79095602D01*
X151755772Y-79205881D01*
X151755773Y-79205884D01*
X151755774Y-79205886D01*
X151806467Y-79305377D01*
X151806468Y-79305378D01*
X151806471Y-79305382D01*
X151885417Y-79384328D01*
X151885421Y-79384331D01*
X151885423Y-79384333D01*
X151984914Y-79435026D01*
X151984916Y-79435026D01*
X151984918Y-79435027D01*
X152095198Y-79452494D01*
X152095200Y-79452494D01*
X152095202Y-79452494D01*
X152205481Y-79435027D01*
X152205481Y-79435026D01*
X152205486Y-79435026D01*
X152304977Y-79384333D01*
X152307498Y-79381812D01*
X152310819Y-79378492D01*
X152372142Y-79345007D01*
X152441834Y-79349991D01*
X152497767Y-79391863D01*
X152522184Y-79457327D01*
X152522500Y-79466173D01*
X152522500Y-88933609D01*
X152522309Y-88938475D01*
X152522172Y-88940223D01*
X152517467Y-89000000D01*
X152518119Y-89008282D01*
X152522500Y-89063950D01*
X152524330Y-89087203D01*
X152537565Y-89255380D01*
X152597367Y-89504478D01*
X152625212Y-89571701D01*
X152695399Y-89741150D01*
X152695401Y-89741153D01*
X152829249Y-89959574D01*
X152829250Y-89959575D01*
X152829251Y-89959577D01*
X152829253Y-89959579D01*
X152995625Y-90154375D01*
X153042568Y-90194468D01*
X153046119Y-90197751D01*
X153407247Y-90558879D01*
X153410540Y-90562442D01*
X153450625Y-90609375D01*
X153645421Y-90775747D01*
X153645423Y-90775748D01*
X153645424Y-90775749D01*
X153645425Y-90775750D01*
X153863846Y-90909598D01*
X153863849Y-90909600D01*
X153981498Y-90958331D01*
X154021295Y-90974815D01*
X154100519Y-91007631D01*
X154349616Y-91067434D01*
X154605000Y-91087533D01*
X154662410Y-91083014D01*
X154666525Y-91082691D01*
X154671391Y-91082500D01*
X157213077Y-91082500D01*
X157280116Y-91102185D01*
X157325871Y-91154989D01*
X157327912Y-91169183D01*
X157366067Y-91111637D01*
X157430030Y-91083523D01*
X157445923Y-91082500D01*
X158969506Y-91082500D01*
X159036545Y-91102185D01*
X159057187Y-91118819D01*
X163586181Y-95647813D01*
X163619666Y-95709136D01*
X163622500Y-95735494D01*
X163622500Y-99913953D01*
X163637565Y-100105380D01*
X163697368Y-100354480D01*
X163697368Y-100354481D01*
X163795399Y-100591150D01*
X163795401Y-100591153D01*
X163929249Y-100809574D01*
X163929250Y-100809575D01*
X163929251Y-100809577D01*
X163929253Y-100809579D01*
X164095625Y-101004375D01*
X164290421Y-101170747D01*
X164290423Y-101170748D01*
X164290424Y-101170749D01*
X164290425Y-101170750D01*
X164508845Y-101304598D01*
X164644865Y-101360939D01*
X164699268Y-101404780D01*
X164721333Y-101471074D01*
X164704054Y-101538773D01*
X164652917Y-101586384D01*
X164597412Y-101599500D01*
X153163742Y-101599500D01*
X153160265Y-101599402D01*
X153046475Y-101593012D01*
X152874330Y-101582599D01*
X152867683Y-101581835D01*
X152731656Y-101558722D01*
X152582781Y-101531440D01*
X152576790Y-101530032D01*
X152440021Y-101490631D01*
X152372634Y-101469633D01*
X152299183Y-101446744D01*
X152293899Y-101444831D01*
X152160581Y-101389609D01*
X152027398Y-101329668D01*
X152022851Y-101327393D01*
X151895560Y-101257043D01*
X151771063Y-101181781D01*
X151767259Y-101179287D01*
X151649272Y-101095571D01*
X151646912Y-101093811D01*
X151533666Y-101005088D01*
X151530589Y-101002512D01*
X151422568Y-100905980D01*
X151420041Y-100903590D01*
X151318408Y-100801957D01*
X151316018Y-100799430D01*
X151219486Y-100691409D01*
X151216910Y-100688332D01*
X151140775Y-100591153D01*
X151128176Y-100575072D01*
X151126427Y-100572726D01*
X151042711Y-100454739D01*
X151040217Y-100450935D01*
X150981908Y-100354481D01*
X150964956Y-100326439D01*
X150930447Y-100264000D01*
X150894605Y-100199147D01*
X150892330Y-100194600D01*
X150832390Y-100061418D01*
X150777167Y-99928099D01*
X150775265Y-99922850D01*
X150731375Y-99782001D01*
X150691963Y-99645198D01*
X150690560Y-99639227D01*
X150680340Y-99583462D01*
X150663277Y-99490343D01*
X150652327Y-99425907D01*
X150640160Y-99354297D01*
X150639401Y-99347691D01*
X150628992Y-99175603D01*
X150624626Y-99097867D01*
X150622598Y-99061736D01*
X150622500Y-99058259D01*
X150622500Y-98364000D01*
X154933000Y-98364000D01*
X154933000Y-100264000D01*
X157023000Y-100264000D01*
X157023000Y-98364000D01*
X154933000Y-98364000D01*
X150622500Y-98364000D01*
X150622500Y-95647817D01*
X150642185Y-95580778D01*
X150694989Y-95535023D01*
X150764147Y-95525079D01*
X150827703Y-95554104D01*
X150856982Y-95591520D01*
X150877959Y-95632690D01*
X150892066Y-95660376D01*
X150892071Y-95660382D01*
X150971017Y-95739328D01*
X150971021Y-95739331D01*
X150971023Y-95739333D01*
X151070514Y-95790026D01*
X151070516Y-95790026D01*
X151070518Y-95790027D01*
X151180798Y-95807494D01*
X151180800Y-95807494D01*
X151180802Y-95807494D01*
X151291081Y-95790027D01*
X151291081Y-95790026D01*
X151291086Y-95790026D01*
X151390577Y-95739333D01*
X151469533Y-95660377D01*
X151520226Y-95560886D01*
X151521300Y-95554104D01*
X151537694Y-95450602D01*
X151537694Y-95450597D01*
X151520227Y-95340318D01*
X151520226Y-95340316D01*
X151520226Y-95340314D01*
X151469533Y-95240823D01*
X151469531Y-95240821D01*
X151463794Y-95232924D01*
X151464843Y-95232161D01*
X151436134Y-95179585D01*
X151433300Y-95153227D01*
X151433300Y-93575151D01*
X151452985Y-93508112D01*
X151469619Y-93487470D01*
X152997770Y-91959319D01*
X153059093Y-91925834D01*
X153085451Y-91923000D01*
X157032127Y-91923000D01*
X157099166Y-91942685D01*
X157119496Y-91959068D01*
X157119721Y-91959231D01*
X157119723Y-91959233D01*
X157219214Y-92009926D01*
X157219216Y-92009926D01*
X157219218Y-92009927D01*
X157329498Y-92027394D01*
X157329500Y-92027394D01*
X157329502Y-92027394D01*
X157439781Y-92009927D01*
X157439781Y-92009926D01*
X157439786Y-92009926D01*
X157539277Y-91959233D01*
X157618233Y-91880277D01*
X157668926Y-91780786D01*
X157680794Y-91705857D01*
X157686394Y-91670502D01*
X157686394Y-91670497D01*
X157668927Y-91560218D01*
X157668926Y-91560216D01*
X157668926Y-91560214D01*
X157618233Y-91460723D01*
X157618231Y-91460721D01*
X157618228Y-91460717D01*
X157539282Y-91381771D01*
X157539278Y-91381768D01*
X157539277Y-91381767D01*
X157439786Y-91331074D01*
X157439784Y-91331073D01*
X157439781Y-91331072D01*
X157426525Y-91328973D01*
X157363390Y-91299044D01*
X157327750Y-91241806D01*
X157306790Y-91287703D01*
X157248012Y-91325477D01*
X157232475Y-91328973D01*
X157219218Y-91331072D01*
X157119721Y-91381768D01*
X157111824Y-91387506D01*
X157111061Y-91386456D01*
X157058485Y-91415166D01*
X157032127Y-91418000D01*
X152966582Y-91418000D01*
X152942390Y-91415617D01*
X152929501Y-91413053D01*
X152929498Y-91413053D01*
X152830979Y-91432649D01*
X152830978Y-91432649D01*
X152747458Y-91488456D01*
X152740151Y-91499391D01*
X152724733Y-91518176D01*
X151028476Y-93214433D01*
X151009691Y-93229851D01*
X150998757Y-93237157D01*
X150942949Y-93320681D01*
X150941168Y-93326551D01*
X150940567Y-93332658D01*
X150923352Y-93419199D01*
X150925917Y-93432092D01*
X150928300Y-93456286D01*
X150928300Y-95153227D01*
X150908615Y-95220266D01*
X150892231Y-95240596D01*
X150892068Y-95240821D01*
X150892067Y-95240823D01*
X150856983Y-95309678D01*
X150809011Y-95360473D01*
X150741190Y-95377268D01*
X150675055Y-95354731D01*
X150631603Y-95300016D01*
X150622500Y-95253382D01*
X150622500Y-86106002D01*
X151154106Y-86106002D01*
X151171572Y-86216281D01*
X151171573Y-86216284D01*
X151171574Y-86216286D01*
X151220850Y-86312995D01*
X151222268Y-86315778D01*
X151222271Y-86315782D01*
X151301217Y-86394728D01*
X151301221Y-86394731D01*
X151301223Y-86394733D01*
X151400714Y-86445426D01*
X151400716Y-86445426D01*
X151400718Y-86445427D01*
X151510998Y-86462894D01*
X151511000Y-86462894D01*
X151511002Y-86462894D01*
X151621281Y-86445427D01*
X151621281Y-86445426D01*
X151621286Y-86445426D01*
X151720777Y-86394733D01*
X151799733Y-86315777D01*
X151850426Y-86216286D01*
X151851914Y-86206894D01*
X151867894Y-86106002D01*
X151867894Y-86105997D01*
X151850427Y-85995718D01*
X151850426Y-85995716D01*
X151850426Y-85995714D01*
X151799733Y-85896223D01*
X151799731Y-85896221D01*
X151799728Y-85896217D01*
X151720782Y-85817271D01*
X151720778Y-85817268D01*
X151720777Y-85817267D01*
X151621286Y-85766574D01*
X151621284Y-85766573D01*
X151621281Y-85766572D01*
X151511002Y-85749106D01*
X151510998Y-85749106D01*
X151400718Y-85766572D01*
X151301221Y-85817268D01*
X151301217Y-85817271D01*
X151222271Y-85896217D01*
X151222268Y-85896221D01*
X151220341Y-85900003D01*
X151187625Y-85964213D01*
X151171572Y-85995718D01*
X151154106Y-86105997D01*
X151154106Y-86106002D01*
X150622500Y-86106002D01*
X150622500Y-84455002D01*
X151154106Y-84455002D01*
X151171572Y-84565281D01*
X151171573Y-84565284D01*
X151171574Y-84565286D01*
X151222267Y-84664777D01*
X151222268Y-84664778D01*
X151222271Y-84664782D01*
X151301217Y-84743728D01*
X151301221Y-84743731D01*
X151301223Y-84743733D01*
X151400714Y-84794426D01*
X151400716Y-84794426D01*
X151400718Y-84794427D01*
X151510998Y-84811894D01*
X151511000Y-84811894D01*
X151511002Y-84811894D01*
X151621281Y-84794427D01*
X151621281Y-84794426D01*
X151621286Y-84794426D01*
X151720777Y-84743733D01*
X151799733Y-84664777D01*
X151850426Y-84565286D01*
X151854805Y-84537640D01*
X151867894Y-84455002D01*
X151867894Y-84454997D01*
X151850427Y-84344718D01*
X151850426Y-84344716D01*
X151850426Y-84344714D01*
X151799733Y-84245223D01*
X151799731Y-84245221D01*
X151799728Y-84245217D01*
X151720782Y-84166271D01*
X151720778Y-84166268D01*
X151720777Y-84166267D01*
X151621286Y-84115574D01*
X151621284Y-84115573D01*
X151621281Y-84115572D01*
X151511002Y-84098106D01*
X151510998Y-84098106D01*
X151400718Y-84115572D01*
X151301221Y-84166268D01*
X151301217Y-84166271D01*
X151222271Y-84245217D01*
X151222268Y-84245221D01*
X151171572Y-84344718D01*
X151154106Y-84454997D01*
X151154106Y-84455002D01*
X150622500Y-84455002D01*
X150622500Y-81153002D01*
X151154106Y-81153002D01*
X151171572Y-81263281D01*
X151171573Y-81263284D01*
X151171574Y-81263286D01*
X151222267Y-81362777D01*
X151222268Y-81362778D01*
X151222271Y-81362782D01*
X151301217Y-81441728D01*
X151301221Y-81441731D01*
X151301223Y-81441733D01*
X151400714Y-81492426D01*
X151400716Y-81492426D01*
X151400718Y-81492427D01*
X151510998Y-81509894D01*
X151511000Y-81509894D01*
X151511002Y-81509894D01*
X151621281Y-81492427D01*
X151621281Y-81492426D01*
X151621286Y-81492426D01*
X151720777Y-81441733D01*
X151799733Y-81362777D01*
X151850426Y-81263286D01*
X151850427Y-81263281D01*
X151867894Y-81153002D01*
X151867894Y-81152997D01*
X151850427Y-81042718D01*
X151850426Y-81042716D01*
X151850426Y-81042714D01*
X151799733Y-80943223D01*
X151799731Y-80943221D01*
X151799728Y-80943217D01*
X151720782Y-80864271D01*
X151720778Y-80864268D01*
X151720777Y-80864267D01*
X151621286Y-80813574D01*
X151621284Y-80813573D01*
X151621281Y-80813572D01*
X151511002Y-80796106D01*
X151510998Y-80796106D01*
X151400718Y-80813572D01*
X151301221Y-80864268D01*
X151301217Y-80864271D01*
X151222271Y-80943217D01*
X151222268Y-80943221D01*
X151171572Y-81042718D01*
X151154106Y-81152997D01*
X151154106Y-81153002D01*
X150622500Y-81153002D01*
X150622500Y-53350002D01*
X151643106Y-53350002D01*
X151660572Y-53460281D01*
X151660573Y-53460284D01*
X151660574Y-53460286D01*
X151711267Y-53559777D01*
X151711268Y-53559778D01*
X151711271Y-53559782D01*
X151790217Y-53638728D01*
X151790221Y-53638731D01*
X151790223Y-53638733D01*
X151889714Y-53689426D01*
X151889716Y-53689426D01*
X151889718Y-53689427D01*
X151999998Y-53706894D01*
X152000000Y-53706894D01*
X152000002Y-53706894D01*
X152110281Y-53689427D01*
X152110281Y-53689426D01*
X152110286Y-53689426D01*
X152209777Y-53638733D01*
X152288733Y-53559777D01*
X152339426Y-53460286D01*
X152339427Y-53460281D01*
X152356894Y-53350002D01*
X152356894Y-53349997D01*
X152339427Y-53239718D01*
X152339426Y-53239716D01*
X152339426Y-53239714D01*
X152298860Y-53160099D01*
X152286745Y-53095584D01*
X156919806Y-53095584D01*
X156924223Y-53131016D01*
X156924700Y-53138692D01*
X156924700Y-53142682D01*
X156928562Y-53165828D01*
X156935389Y-53220602D01*
X156937646Y-53228181D01*
X156940217Y-53235670D01*
X156966485Y-53284208D01*
X156990724Y-53333791D01*
X156995310Y-53340214D01*
X157000181Y-53346472D01*
X157040791Y-53383857D01*
X157481088Y-53824153D01*
X157497212Y-53844008D01*
X157503224Y-53853209D01*
X157531404Y-53875142D01*
X157537156Y-53880221D01*
X157539986Y-53883051D01*
X157559085Y-53896688D01*
X157602644Y-53930592D01*
X157609597Y-53934354D01*
X157616705Y-53937828D01*
X157616710Y-53937832D01*
X157669600Y-53953577D01*
X157721806Y-53971500D01*
X157721807Y-53971500D01*
X157729572Y-53972796D01*
X157737457Y-53973779D01*
X157737460Y-53973780D01*
X157737463Y-53973779D01*
X157737464Y-53973780D01*
X157792589Y-53971500D01*
X169543789Y-53971500D01*
X169569234Y-53974139D01*
X169579984Y-53976393D01*
X169599664Y-53973939D01*
X169615417Y-53971977D01*
X169623093Y-53971500D01*
X169627078Y-53971500D01*
X169627081Y-53971500D01*
X169650228Y-53967637D01*
X169705003Y-53960810D01*
X169705009Y-53960806D01*
X169712580Y-53958553D01*
X169720065Y-53955983D01*
X169720069Y-53955983D01*
X169753608Y-53937832D01*
X169768607Y-53929715D01*
X169781003Y-53923654D01*
X169818189Y-53905476D01*
X169818192Y-53905473D01*
X169824620Y-53900884D01*
X169830847Y-53896039D01*
X169836457Y-53893826D01*
X169840493Y-53890816D01*
X169840664Y-53890725D01*
X169841298Y-53891916D01*
X169895844Y-53870403D01*
X169907000Y-53869900D01*
X170084281Y-53869900D01*
X170177269Y-53854383D01*
X170288071Y-53794420D01*
X170373400Y-53701728D01*
X170424009Y-53586352D01*
X170434413Y-53460795D01*
X170403485Y-53338663D01*
X170367907Y-53284208D01*
X170334577Y-53233192D01*
X170313131Y-53216500D01*
X170240672Y-53160102D01*
X170235154Y-53155807D01*
X170235152Y-53155806D01*
X170115996Y-53114900D01*
X170115994Y-53114900D01*
X169749411Y-53114900D01*
X169723966Y-53112261D01*
X169713216Y-53110007D01*
X169713213Y-53110007D01*
X169677784Y-53114423D01*
X169670108Y-53114900D01*
X169666119Y-53114900D01*
X169648749Y-53117798D01*
X169642959Y-53118764D01*
X169588191Y-53125591D01*
X169580620Y-53127845D01*
X169573133Y-53130416D01*
X169524588Y-53156686D01*
X169475011Y-53180923D01*
X169468571Y-53185521D01*
X169462368Y-53190350D01*
X169457461Y-53192286D01*
X169453914Y-53194933D01*
X169453731Y-53195033D01*
X169453157Y-53193984D01*
X169397375Y-53215995D01*
X169386201Y-53216500D01*
X158124951Y-53216500D01*
X158057912Y-53196815D01*
X158037270Y-53180181D01*
X157812930Y-52955841D01*
X157779445Y-52894518D01*
X157776717Y-52873284D01*
X157774574Y-52821460D01*
X157728777Y-52704091D01*
X157656927Y-52619257D01*
X157647354Y-52607954D01*
X157647350Y-52607950D01*
X157539122Y-52543461D01*
X157415815Y-52517606D01*
X157290797Y-52533190D01*
X157290793Y-52533192D01*
X157177611Y-52588523D01*
X157177610Y-52588524D01*
X157072043Y-52694089D01*
X157052193Y-52710210D01*
X157042994Y-52716220D01*
X157042989Y-52716225D01*
X157021055Y-52744403D01*
X157015978Y-52750154D01*
X157013156Y-52752977D01*
X157013146Y-52752989D01*
X156999503Y-52772095D01*
X156965606Y-52815646D01*
X156961847Y-52822593D01*
X156958367Y-52829711D01*
X156942619Y-52882606D01*
X156924699Y-52934807D01*
X156923398Y-52942605D01*
X156922418Y-52950463D01*
X156924700Y-53005603D01*
X156924700Y-53059387D01*
X156922061Y-53084835D01*
X156919806Y-53095584D01*
X152286745Y-53095584D01*
X152285965Y-53091432D01*
X152312242Y-53026692D01*
X152321656Y-53016135D01*
X152937790Y-52400002D01*
X154143106Y-52400002D01*
X154160572Y-52510281D01*
X154160573Y-52510284D01*
X154160574Y-52510286D01*
X154211267Y-52609777D01*
X154211268Y-52609778D01*
X154211271Y-52609782D01*
X154290217Y-52688728D01*
X154290221Y-52688731D01*
X154290223Y-52688733D01*
X154389714Y-52739426D01*
X154389716Y-52739426D01*
X154389718Y-52739427D01*
X154499998Y-52756894D01*
X154500000Y-52756894D01*
X154500002Y-52756894D01*
X154610281Y-52739427D01*
X154610281Y-52739426D01*
X154610286Y-52739426D01*
X154709777Y-52688733D01*
X154788733Y-52609777D01*
X154839426Y-52510286D01*
X154851464Y-52434286D01*
X154856894Y-52400002D01*
X154856894Y-52399997D01*
X154839427Y-52289718D01*
X154839426Y-52289716D01*
X154839426Y-52289714D01*
X154788733Y-52190223D01*
X154788731Y-52190221D01*
X154788728Y-52190217D01*
X154709782Y-52111271D01*
X154709778Y-52111268D01*
X154709777Y-52111267D01*
X154610286Y-52060574D01*
X154610284Y-52060573D01*
X154610281Y-52060572D01*
X154500002Y-52043106D01*
X154499998Y-52043106D01*
X154389718Y-52060572D01*
X154290221Y-52111268D01*
X154290217Y-52111271D01*
X154211271Y-52190217D01*
X154211268Y-52190221D01*
X154160572Y-52289718D01*
X154143106Y-52399997D01*
X154143106Y-52400002D01*
X152937790Y-52400002D01*
X153833974Y-51503819D01*
X153895297Y-51470334D01*
X153921655Y-51467500D01*
X156557483Y-51467500D01*
X156624522Y-51487185D01*
X156670277Y-51539989D01*
X156680221Y-51609147D01*
X156651196Y-51672703D01*
X156613778Y-51701985D01*
X156607716Y-51705073D01*
X156607714Y-51705074D01*
X156510834Y-51754436D01*
X156508221Y-51755768D01*
X156508217Y-51755771D01*
X156429271Y-51834717D01*
X156429268Y-51834721D01*
X156378572Y-51934218D01*
X156361106Y-52044497D01*
X156361106Y-52044502D01*
X156378572Y-52154781D01*
X156378573Y-52154784D01*
X156378574Y-52154786D01*
X156421051Y-52238152D01*
X156429268Y-52254278D01*
X156429271Y-52254282D01*
X156508217Y-52333228D01*
X156508221Y-52333231D01*
X156508223Y-52333233D01*
X156607714Y-52383926D01*
X156607716Y-52383926D01*
X156607718Y-52383927D01*
X156717998Y-52401394D01*
X156718000Y-52401394D01*
X156718002Y-52401394D01*
X156828281Y-52383927D01*
X156828281Y-52383926D01*
X156828286Y-52383926D01*
X156927777Y-52333233D01*
X156937008Y-52324002D01*
X170585106Y-52324002D01*
X170602572Y-52434281D01*
X170602573Y-52434284D01*
X170602574Y-52434286D01*
X170652969Y-52533192D01*
X170653268Y-52533778D01*
X170653271Y-52533782D01*
X170732217Y-52612728D01*
X170732221Y-52612731D01*
X170732223Y-52612733D01*
X170831714Y-52663426D01*
X170831716Y-52663426D01*
X170831718Y-52663427D01*
X170941998Y-52680894D01*
X170942000Y-52680894D01*
X170942002Y-52680894D01*
X171052281Y-52663427D01*
X171052281Y-52663426D01*
X171052286Y-52663426D01*
X171151777Y-52612733D01*
X171230733Y-52533777D01*
X171281426Y-52434286D01*
X171286856Y-52400002D01*
X171298894Y-52324002D01*
X171298894Y-52323997D01*
X171281427Y-52213718D01*
X171281426Y-52213716D01*
X171281426Y-52213714D01*
X171274439Y-52200002D01*
X171843106Y-52200002D01*
X171860572Y-52310281D01*
X171860573Y-52310284D01*
X171860574Y-52310286D01*
X171906996Y-52401394D01*
X171911268Y-52409778D01*
X171911271Y-52409782D01*
X171990217Y-52488728D01*
X171990221Y-52488731D01*
X171990223Y-52488733D01*
X172089714Y-52539426D01*
X172089716Y-52539426D01*
X172089718Y-52539427D01*
X172199998Y-52556894D01*
X172200000Y-52556894D01*
X172200002Y-52556894D01*
X172310281Y-52539427D01*
X172310281Y-52539426D01*
X172310286Y-52539426D01*
X172409777Y-52488733D01*
X172488733Y-52409777D01*
X172539426Y-52310286D01*
X172542684Y-52289718D01*
X172556894Y-52200002D01*
X172556894Y-52199997D01*
X172539427Y-52089718D01*
X172539426Y-52089716D01*
X172539426Y-52089714D01*
X172488733Y-51990223D01*
X172488731Y-51990221D01*
X172488728Y-51990217D01*
X172409782Y-51911271D01*
X172409778Y-51911268D01*
X172409777Y-51911267D01*
X172310286Y-51860574D01*
X172310284Y-51860573D01*
X172310281Y-51860572D01*
X172200002Y-51843106D01*
X172199998Y-51843106D01*
X172089718Y-51860572D01*
X172089714Y-51860573D01*
X172089714Y-51860574D01*
X172023386Y-51894369D01*
X171990221Y-51911268D01*
X171990217Y-51911271D01*
X171911271Y-51990217D01*
X171911268Y-51990221D01*
X171860572Y-52089718D01*
X171843106Y-52199997D01*
X171843106Y-52200002D01*
X171274439Y-52200002D01*
X171230733Y-52114223D01*
X171230731Y-52114221D01*
X171230728Y-52114217D01*
X171151782Y-52035271D01*
X171151778Y-52035268D01*
X171151777Y-52035267D01*
X171052286Y-51984574D01*
X171052284Y-51984573D01*
X171052281Y-51984572D01*
X170942002Y-51967106D01*
X170941998Y-51967106D01*
X170831718Y-51984572D01*
X170732221Y-52035268D01*
X170732217Y-52035271D01*
X170653271Y-52114217D01*
X170653268Y-52114221D01*
X170602572Y-52213718D01*
X170585106Y-52323997D01*
X170585106Y-52324002D01*
X156937008Y-52324002D01*
X157006733Y-52254277D01*
X157057426Y-52154786D01*
X157063852Y-52114217D01*
X157074894Y-52044502D01*
X157074894Y-52044497D01*
X157057427Y-51934218D01*
X157057426Y-51934216D01*
X157057426Y-51934214D01*
X157006733Y-51834723D01*
X157006731Y-51834721D01*
X157006728Y-51834717D01*
X156927782Y-51755771D01*
X156927778Y-51755768D01*
X156927777Y-51755767D01*
X156828286Y-51705074D01*
X156828283Y-51705073D01*
X156822222Y-51701985D01*
X156771426Y-51654011D01*
X156754631Y-51586190D01*
X156777168Y-51520055D01*
X156831883Y-51476603D01*
X156878517Y-51467500D01*
X173028346Y-51467500D01*
X173095385Y-51487185D01*
X173116027Y-51503819D01*
X174310181Y-52697973D01*
X174343666Y-52759296D01*
X174346500Y-52785654D01*
X174346500Y-55953627D01*
X174326815Y-56020666D01*
X174310181Y-56041308D01*
X174261271Y-56090217D01*
X174261268Y-56090221D01*
X174210572Y-56189718D01*
X174193106Y-56299997D01*
X174193106Y-56300002D01*
X174210572Y-56410281D01*
X174210573Y-56410284D01*
X174210574Y-56410286D01*
X174261267Y-56509777D01*
X174261268Y-56509778D01*
X174261271Y-56509782D01*
X174340217Y-56588728D01*
X174340221Y-56588731D01*
X174340223Y-56588733D01*
X174439714Y-56639426D01*
X174439716Y-56639426D01*
X174439718Y-56639427D01*
X174549998Y-56656894D01*
X174550000Y-56656894D01*
X174550002Y-56656894D01*
X174660281Y-56639427D01*
X174660281Y-56639426D01*
X174660286Y-56639426D01*
X174759777Y-56588733D01*
X174838733Y-56509777D01*
X174889426Y-56410286D01*
X174896162Y-56367756D01*
X174906894Y-56300002D01*
X174906894Y-56299997D01*
X174889427Y-56189718D01*
X174889426Y-56189716D01*
X174889426Y-56189714D01*
X174838733Y-56090223D01*
X174838731Y-56090221D01*
X174838728Y-56090217D01*
X174789819Y-56041308D01*
X174756334Y-55979985D01*
X174753500Y-55953627D01*
X174753500Y-52705646D01*
X174756610Y-52687339D01*
X174755857Y-52687255D01*
X174757421Y-52673372D01*
X174757421Y-52673371D01*
X174753889Y-52642028D01*
X174753500Y-52635088D01*
X174753500Y-52627076D01*
X174753500Y-52627073D01*
X174751712Y-52619240D01*
X174750552Y-52612413D01*
X174747020Y-52581060D01*
X174747019Y-52581058D01*
X174743150Y-52570002D01*
X174738062Y-52559436D01*
X174738062Y-52559434D01*
X174738060Y-52559431D01*
X174718399Y-52534776D01*
X174714376Y-52529107D01*
X174710109Y-52522318D01*
X174710104Y-52522311D01*
X174704442Y-52516649D01*
X174699806Y-52511462D01*
X174680142Y-52486805D01*
X174669219Y-52478094D01*
X174669691Y-52477501D01*
X174654548Y-52466756D01*
X173347244Y-51159452D01*
X173336499Y-51144308D01*
X173335906Y-51144782D01*
X173327194Y-51133858D01*
X173327194Y-51133857D01*
X173302534Y-51114191D01*
X173297345Y-51109553D01*
X173291684Y-51103892D01*
X173291679Y-51103889D01*
X173284884Y-51099619D01*
X173279230Y-51095606D01*
X173254566Y-51075938D01*
X173254562Y-51075937D01*
X173244000Y-51070850D01*
X173232938Y-51066979D01*
X173201594Y-51063447D01*
X173194741Y-51062283D01*
X173192911Y-51061865D01*
X173186927Y-51060500D01*
X173186926Y-51060500D01*
X173178912Y-51060500D01*
X173171971Y-51060110D01*
X173161119Y-51058887D01*
X173140627Y-51056578D01*
X173126745Y-51058143D01*
X173126660Y-51057389D01*
X173108354Y-51060500D01*
X153841640Y-51060500D01*
X153823335Y-51057390D01*
X153823251Y-51058144D01*
X153809370Y-51056579D01*
X153788966Y-51058879D01*
X153778036Y-51060110D01*
X153771098Y-51060500D01*
X153763071Y-51060500D01*
X153755239Y-51062287D01*
X153748390Y-51063450D01*
X153717059Y-51066980D01*
X153705993Y-51070852D01*
X153695433Y-51075938D01*
X153670773Y-51095603D01*
X153665103Y-51099625D01*
X153658318Y-51103889D01*
X153658312Y-51103893D01*
X153652635Y-51109570D01*
X153647454Y-51114200D01*
X153622805Y-51133858D01*
X153614095Y-51144780D01*
X153613503Y-51144307D01*
X153602759Y-51159446D01*
X151895447Y-52866759D01*
X151880307Y-52877502D01*
X151880780Y-52878095D01*
X151869858Y-52886805D01*
X151850196Y-52911459D01*
X151845566Y-52916640D01*
X151839893Y-52922313D01*
X151839889Y-52922318D01*
X151835622Y-52929107D01*
X151831604Y-52934770D01*
X151811939Y-52959431D01*
X151806849Y-52970000D01*
X151802979Y-52981061D01*
X151799447Y-53012404D01*
X151798282Y-53019264D01*
X151796191Y-53028421D01*
X151762983Y-53088505D01*
X151711271Y-53140217D01*
X151711268Y-53140221D01*
X151660572Y-53239718D01*
X151643106Y-53349997D01*
X151643106Y-53350002D01*
X150622500Y-53350002D01*
X150622500Y-53341740D01*
X150622598Y-53338263D01*
X150625633Y-53284208D01*
X150628995Y-53224333D01*
X150639401Y-53052304D01*
X150640160Y-53045706D01*
X150659003Y-52934806D01*
X150663277Y-52909656D01*
X150680504Y-52815646D01*
X150690562Y-52760763D01*
X150691961Y-52754810D01*
X150731387Y-52617956D01*
X150775270Y-52477135D01*
X150777158Y-52471921D01*
X150832397Y-52338565D01*
X150892343Y-52205370D01*
X150894599Y-52200861D01*
X150964958Y-52073557D01*
X151040228Y-51949044D01*
X151042693Y-51945286D01*
X151126461Y-51827226D01*
X151128145Y-51824967D01*
X151216932Y-51711638D01*
X151219472Y-51708605D01*
X151316052Y-51600531D01*
X151318373Y-51598077D01*
X151420077Y-51496373D01*
X151422531Y-51494052D01*
X151530605Y-51397472D01*
X151533638Y-51394932D01*
X151646967Y-51306145D01*
X151649226Y-51304461D01*
X151767286Y-51220693D01*
X151771044Y-51218228D01*
X151895557Y-51142958D01*
X152022861Y-51072599D01*
X152027370Y-51070343D01*
X152160565Y-51010397D01*
X152293921Y-50955158D01*
X152299135Y-50953270D01*
X152439956Y-50909387D01*
X152576810Y-50869961D01*
X152582763Y-50868562D01*
X152665324Y-50853432D01*
X152731656Y-50841277D01*
X152779941Y-50833072D01*
X152867706Y-50818160D01*
X152874304Y-50817401D01*
X153046333Y-50806995D01*
X153132782Y-50802140D01*
X153160263Y-50800598D01*
X153163740Y-50800500D01*
X174496260Y-50800500D01*
X174499737Y-50800598D01*
G37*
%TD.AperFunction*%
%TD*%
M02*
