%TF.GenerationSoftware,KiCad,Pcbnew,7.0.9*%
%TF.CreationDate,2024-08-31T07:55:37+08:00*%
%TF.ProjectId,IOT,494f542e-6b69-4636-9164-5f7063625858,rev?*%
%TF.SameCoordinates,Original*%
%TF.FileFunction,Copper,L2,Inr*%
%TF.FilePolarity,Positive*%
%FSLAX46Y46*%
G04 Gerber Fmt 4.6, Leading zero omitted, Abs format (unit mm)*
G04 Created by KiCad (PCBNEW 7.0.9) date 2024-08-31 07:55:37*
%MOMM*%
%LPD*%
G01*
G04 APERTURE LIST*
%TA.AperFunction,ComponentPad*%
%ADD10O,1.000000X2.100000*%
%TD*%
%TA.AperFunction,ComponentPad*%
%ADD11O,1.000000X1.600000*%
%TD*%
%TA.AperFunction,ViaPad*%
%ADD12C,0.450000*%
%TD*%
%TA.AperFunction,ViaPad*%
%ADD13C,0.300000*%
%TD*%
%TA.AperFunction,ViaPad*%
%ADD14C,0.500000*%
%TD*%
G04 APERTURE END LIST*
D10*
%TO.N,GND*%
%TO.C,J1*%
X168150000Y-56470000D03*
D11*
X168150000Y-52290000D03*
D10*
X159510000Y-56470000D03*
D11*
X159510000Y-52290000D03*
%TD*%
D12*
%TO.N,Net-(J4-I{slash}O)*%
X162807627Y-71562487D03*
X163749300Y-86400000D03*
%TO.N,GND*%
X152044400Y-94030800D03*
X175000000Y-73660000D03*
X154228800Y-94157800D03*
D13*
X167436800Y-54229000D03*
D12*
X168224200Y-99212400D03*
X152044400Y-96520000D03*
D13*
X167850000Y-76200000D03*
D12*
X152800000Y-63950000D03*
X167157400Y-99085400D03*
X157700000Y-64250000D03*
X167200000Y-92250000D03*
X158546800Y-93522800D03*
X157505400Y-98983800D03*
D13*
X152069800Y-66370200D03*
D12*
X162700000Y-88550000D03*
X155727400Y-93878400D03*
X170027600Y-96774000D03*
X157505400Y-100914200D03*
X159816800Y-93522800D03*
X168600000Y-69450000D03*
D13*
X157000000Y-83260000D03*
D12*
X153771600Y-94437200D03*
D13*
X161000000Y-83000000D03*
X160450000Y-71600000D03*
D12*
X158191200Y-100914200D03*
D13*
X170103800Y-55803800D03*
D12*
X164820000Y-64179000D03*
X169780000Y-81257500D03*
D13*
X158350000Y-60600000D03*
D12*
X158550000Y-92700000D03*
X167875500Y-74700000D03*
X175437800Y-99009200D03*
X153771600Y-98018600D03*
X173964600Y-101041200D03*
X153873200Y-92303600D03*
X157150000Y-63700000D03*
D13*
X161600000Y-88450000D03*
D12*
X163800000Y-65750000D03*
X167894000Y-98171000D03*
D13*
X166166800Y-54229000D03*
D12*
X154432000Y-98018600D03*
X167843200Y-96469200D03*
X170281600Y-93675200D03*
X157505400Y-97739200D03*
X169570400Y-100304600D03*
X163561896Y-69732685D03*
X168900000Y-91950500D03*
X167600000Y-62400000D03*
X170550000Y-59350000D03*
X167208200Y-100406200D03*
X172085000Y-97155000D03*
X168986200Y-100101400D03*
X158800000Y-67300000D03*
X169824400Y-101142800D03*
D13*
X166700000Y-81650000D03*
X152146000Y-80568800D03*
D12*
X171069000Y-64312800D03*
X155300000Y-64250000D03*
X168122600Y-95478600D03*
X157150000Y-64250000D03*
D13*
X151850000Y-70500000D03*
D12*
X171710000Y-81520000D03*
X155727400Y-93294200D03*
D13*
X166350000Y-71600000D03*
D12*
X158600000Y-69350000D03*
X156133800Y-97129600D03*
X168630600Y-93370400D03*
X175000000Y-76504800D03*
X161036000Y-95326200D03*
X157505400Y-99618800D03*
X158191200Y-100253800D03*
X167106600Y-101142800D03*
X153690000Y-95190000D03*
X167300000Y-67650000D03*
D13*
X175590200Y-53035200D03*
X154150000Y-63750000D03*
D12*
X171069000Y-93675200D03*
X167563800Y-64312800D03*
D13*
X163030000Y-80470000D03*
D12*
X154787600Y-94157800D03*
X163410000Y-61850000D03*
X173950000Y-82570000D03*
X151300000Y-66350000D03*
X169050000Y-62400000D03*
X171650000Y-54350000D03*
D13*
X152350000Y-71050000D03*
D12*
X155727400Y-92760800D03*
D13*
X173456600Y-55295800D03*
D12*
X156464000Y-64254000D03*
X171100000Y-77150000D03*
X160200000Y-61100000D03*
X174670000Y-66060000D03*
X167208863Y-77446797D03*
X169849800Y-93370400D03*
D13*
X151300000Y-71050000D03*
D12*
X152831800Y-99898200D03*
X157700000Y-63700000D03*
X166954200Y-64312800D03*
X155300000Y-64800000D03*
D13*
X176377600Y-54127400D03*
D12*
X158191200Y-98298000D03*
X164600000Y-90400000D03*
X156450000Y-64800000D03*
X157000000Y-78250000D03*
D13*
X166700000Y-82900000D03*
D12*
X174310000Y-80330000D03*
X151300000Y-59750000D03*
X172585500Y-54300000D03*
X157505400Y-97129600D03*
X168122600Y-97586800D03*
X169850000Y-62400000D03*
X155850000Y-64800000D03*
X155850000Y-64250000D03*
D13*
X161696400Y-51866800D03*
D12*
X151300000Y-55850000D03*
D13*
X166350000Y-75900000D03*
D12*
X166375000Y-73875000D03*
D13*
X161315400Y-54229000D03*
D12*
X165600000Y-86450000D03*
X166150000Y-85900000D03*
X174000000Y-55300000D03*
X162100000Y-67250000D03*
X151300000Y-54350000D03*
X167157400Y-96367600D03*
X174660000Y-69040000D03*
D13*
X167550000Y-77220000D03*
D12*
X158191200Y-98983800D03*
D13*
X152750000Y-60100000D03*
D12*
X167843200Y-95935800D03*
X173450000Y-56400000D03*
X173250000Y-72610000D03*
X165120000Y-64510000D03*
D13*
X151300000Y-70500000D03*
D12*
X161050000Y-68800000D03*
X174760000Y-84240000D03*
X163118800Y-97612200D03*
D13*
X163460000Y-80470000D03*
D12*
X167995600Y-100406200D03*
X156895800Y-97129600D03*
X153771600Y-97358200D03*
X170100000Y-61750000D03*
X163446900Y-75510314D03*
X170400000Y-73500000D03*
D13*
X170350000Y-71450000D03*
D12*
X163118800Y-99110800D03*
X171150000Y-59150000D03*
X153873200Y-100507800D03*
X158568609Y-66708398D03*
X163980000Y-63330000D03*
X171720000Y-83270000D03*
D13*
X163880800Y-51866800D03*
X166700000Y-82200000D03*
D12*
X155422600Y-97129600D03*
X168650000Y-61750000D03*
D13*
X176250600Y-91059000D03*
X171100000Y-66200000D03*
D12*
X151950000Y-78450000D03*
D13*
X171450000Y-73500000D03*
D12*
X167157400Y-98526600D03*
X152044400Y-95300800D03*
D13*
X151003000Y-80441800D03*
D12*
X158191200Y-97739200D03*
X170180000Y-100304600D03*
X151300000Y-64150000D03*
D13*
X175260000Y-91059000D03*
D12*
X163150000Y-61350000D03*
X158191200Y-97129600D03*
X153339800Y-100279200D03*
D13*
X162200000Y-81800000D03*
D12*
X173177200Y-100431600D03*
X164650000Y-67500000D03*
X170256200Y-64312800D03*
X171710000Y-84020000D03*
X163118800Y-98425000D03*
X168757600Y-64312800D03*
X153947900Y-53747900D03*
D13*
X156300000Y-86550000D03*
D12*
X151200000Y-78450000D03*
X156500000Y-92700000D03*
X166950000Y-88550000D03*
X174828200Y-100533200D03*
D13*
X169392600Y-56489600D03*
D12*
X166750000Y-86500000D03*
X171450000Y-97155000D03*
D13*
X152350000Y-70500000D03*
D12*
X171831000Y-93675200D03*
X175010000Y-78880000D03*
X151300000Y-58550000D03*
X172350000Y-59150000D03*
X151300000Y-68200000D03*
X160451800Y-93522800D03*
D13*
X152750000Y-60600000D03*
D12*
X163800000Y-65050000D03*
X159181800Y-93522800D03*
X168300000Y-62400000D03*
X163118800Y-96850200D03*
X163850000Y-90300000D03*
X168100000Y-92250000D03*
X173177200Y-99745800D03*
X157250000Y-92700000D03*
X152044400Y-95885000D03*
X163400000Y-62400000D03*
D13*
X169291000Y-60960000D03*
X153300000Y-63950000D03*
D12*
X163118800Y-96037400D03*
X170815000Y-97155000D03*
X175150000Y-55000000D03*
X151130000Y-76426000D03*
X175437800Y-97612200D03*
X168554400Y-99720400D03*
D13*
X158750000Y-82800000D03*
D12*
X157700000Y-64800000D03*
X159842200Y-101117400D03*
D13*
X156300000Y-87500000D03*
X169940000Y-77280000D03*
X170390000Y-77290000D03*
X158950000Y-91750000D03*
D12*
X165450000Y-92250000D03*
X168122600Y-97002600D03*
X173230000Y-70940000D03*
X155651200Y-92202000D03*
X152044400Y-94665800D03*
D13*
X166801800Y-90424000D03*
D12*
X151300000Y-61050000D03*
X151900000Y-76400000D03*
X158851600Y-100253800D03*
X151300000Y-65250000D03*
X152069800Y-99161600D03*
X155346400Y-94157800D03*
D13*
X160400000Y-83200000D03*
X170103800Y-57251600D03*
D12*
X169300000Y-61750000D03*
X167919400Y-98755200D03*
X162150000Y-69334958D03*
X176352200Y-80060800D03*
X170650000Y-62400000D03*
X152069800Y-98018600D03*
X162737800Y-101117400D03*
D13*
X166420800Y-90246200D03*
D12*
X153771600Y-96621600D03*
X175437800Y-99745800D03*
D13*
X166200000Y-84850000D03*
D12*
X168021000Y-93040200D03*
D13*
X158250000Y-91750000D03*
D12*
X173177200Y-101041200D03*
D13*
X167060000Y-80290000D03*
X158750000Y-79250000D03*
D12*
X167182800Y-97434400D03*
X168021000Y-93624400D03*
X154635200Y-97129600D03*
X167182800Y-97942400D03*
X154406600Y-100507800D03*
X173960000Y-81750000D03*
D13*
X163870000Y-78080000D03*
X159050000Y-60600000D03*
D12*
X152450800Y-99542600D03*
X175006000Y-75692000D03*
D13*
X152750000Y-59600000D03*
D12*
X171700000Y-60550000D03*
D13*
X162790000Y-81600000D03*
X171881800Y-86055200D03*
X157000000Y-84300000D03*
D12*
X162400000Y-61350000D03*
D13*
X163576000Y-54229000D03*
D12*
X167157400Y-99695000D03*
X163400000Y-67300000D03*
X166878000Y-93624400D03*
X161620200Y-95326200D03*
X158191200Y-99618800D03*
D13*
X152755600Y-59029600D03*
X167070000Y-79760000D03*
D12*
X170027600Y-97536000D03*
X175437800Y-98323400D03*
X170027600Y-96113600D03*
X173151800Y-97612200D03*
D13*
X167050000Y-85900000D03*
X163430000Y-78080000D03*
D12*
X162850000Y-67250000D03*
X167182800Y-96875600D03*
X171150000Y-88550000D03*
X151300000Y-63150000D03*
X151300000Y-69600000D03*
X162179000Y-95326200D03*
X159800000Y-92700000D03*
X174260000Y-85010000D03*
X167900000Y-69450000D03*
X167894000Y-101142800D03*
D13*
X174701200Y-51841400D03*
D12*
X168910000Y-101142800D03*
X173450000Y-57300000D03*
X157150000Y-64800000D03*
X164850000Y-87050000D03*
X158851600Y-99618800D03*
X166450000Y-88000000D03*
X158851600Y-100914200D03*
X174000000Y-54300000D03*
X169214800Y-93370400D03*
X155300000Y-63700000D03*
D13*
X152750000Y-61200000D03*
X163200000Y-81040000D03*
D12*
X173240000Y-71860000D03*
X151300000Y-68850000D03*
X166200000Y-92250000D03*
X166890000Y-60710000D03*
D13*
X151850000Y-71050000D03*
D12*
X157505400Y-100253800D03*
X175793400Y-59525000D03*
X171750000Y-59150000D03*
X172847000Y-97155000D03*
X158800000Y-75700000D03*
D13*
X159750000Y-60600000D03*
D12*
X152069800Y-98577400D03*
X157505400Y-98298000D03*
X153771600Y-95961200D03*
X155850000Y-63700000D03*
X167157400Y-95808800D03*
X171856400Y-94310200D03*
X156450000Y-63700000D03*
X160934400Y-101117400D03*
D13*
X171800000Y-66200000D03*
D12*
X168198800Y-64312800D03*
X170027600Y-95529400D03*
X174760000Y-83590000D03*
X173177200Y-99034600D03*
X159400000Y-61100000D03*
X172313600Y-60655200D03*
X173177200Y-98323400D03*
X161061400Y-93522800D03*
D13*
X166573200Y-51866800D03*
D12*
%TO.N,Net-(J4-CLK)*%
X163500000Y-71641498D03*
X164500000Y-86400000D03*
%TO.N,Net-(J4-RST)*%
X165000000Y-72000000D03*
X165100000Y-85900000D03*
%TO.N,Net-(J4-VCC)*%
X163322000Y-68070000D03*
X165700000Y-85289000D03*
X165600000Y-71466700D03*
X166150000Y-69100000D03*
X159074491Y-67848349D03*
%TO.N,Net-(U2-PS{slash}SYNC)*%
X154000000Y-63100000D03*
X153700000Y-65654000D03*
%TO.N,+3V8*%
X172450000Y-56500000D03*
X165850000Y-100300000D03*
X165550000Y-100700000D03*
X156450000Y-67600000D03*
X155850000Y-68900000D03*
X164650000Y-100300000D03*
X166150000Y-99900000D03*
X165250000Y-100300000D03*
X166150000Y-100700000D03*
X156450000Y-68200000D03*
X155850000Y-68200000D03*
X165550000Y-99900000D03*
X164950000Y-99900000D03*
X157100000Y-68200000D03*
X157100000Y-68900000D03*
X155850000Y-67600000D03*
X164950000Y-100700000D03*
X164350000Y-99900000D03*
X156450000Y-68900000D03*
X164350000Y-100700000D03*
%TO.N,+3.3V*%
X170053000Y-53492400D03*
D13*
X170750000Y-74250000D03*
D12*
X160300000Y-75200000D03*
X151180800Y-95450600D03*
X159004000Y-70104000D03*
X172900000Y-65450000D03*
X168630000Y-78300000D03*
X172897800Y-65913000D03*
X160750000Y-86599300D03*
X165700000Y-70232685D03*
X157329500Y-91670500D03*
X157400000Y-52900000D03*
D14*
X167100000Y-87400000D03*
D12*
X156720000Y-82780000D03*
X167300000Y-76100000D03*
%TO.N,Net-(D2-K)*%
X163830000Y-69000000D03*
X164648671Y-83404635D03*
%TO.N,VUSB*%
X175600000Y-70800000D03*
X157650000Y-56900000D03*
X175600000Y-71900000D03*
X175600000Y-71400000D03*
X174400000Y-85700000D03*
X157050000Y-56900000D03*
X170100000Y-58200000D03*
X170700000Y-58200000D03*
%TO.N,Net-(D5-K)*%
X154500000Y-52400000D03*
%TO.N,Net-(D6-K)*%
X172200000Y-52200000D03*
%TO.N,+1V8*%
X160528000Y-70866000D03*
D13*
X171000000Y-76100000D03*
X169800000Y-88900000D03*
X168910000Y-80006000D03*
X169750000Y-77850000D03*
X158750000Y-80010000D03*
X168910000Y-90170000D03*
X158750000Y-85850000D03*
D12*
X160550000Y-82310000D03*
X168650000Y-70900000D03*
D13*
X168918000Y-74700000D03*
D12*
%TO.N,BATT*%
X153850000Y-56500000D03*
X170942000Y-61137800D03*
X171300000Y-67300000D03*
X154400000Y-56500000D03*
X154112000Y-55958500D03*
X171221400Y-61595000D03*
X170800000Y-67300000D03*
X170584300Y-60784300D03*
X170100000Y-67300000D03*
X169418000Y-67318000D03*
%TO.N,EN*%
X170500000Y-68900000D03*
X155850000Y-62050000D03*
%TO.N,/Interface/D13*%
X160932796Y-78876118D03*
X171000000Y-75100000D03*
%TO.N,/Interface/SCL*%
X163327711Y-81767711D03*
X170530615Y-90569385D03*
%TO.N,/Interface/SDA*%
X163290000Y-82410000D03*
X169800000Y-91000000D03*
%TO.N,PWRKEY*%
X174550000Y-56300000D03*
X152000000Y-53350000D03*
%TO.N,/Interface/A0*%
X159600000Y-71600000D03*
X160550000Y-74050000D03*
%TO.N,/Interface/A2*%
X157550000Y-74000000D03*
X158274964Y-77562351D03*
%TO.N,/Interface/A3*%
X157000000Y-74950000D03*
X160218470Y-75770708D03*
%TO.N,/BG95/NET_STATUS*%
X168250000Y-68300000D03*
X154000000Y-58700000D03*
%TO.N,Net-(Q3-G)*%
X166000000Y-61600000D03*
%TO.N,Net-(U1-USB_BOOT)*%
X160454502Y-84100700D03*
X157880000Y-83000000D03*
%TO.N,Net-(U1-MAIN_RXD)*%
X152095200Y-79095600D03*
%TO.N,Net-(U1-MAIN_TXD)*%
X151511000Y-81153000D03*
%TO.N,Net-(U1-MAIN_DTR)*%
X157700000Y-71400000D03*
%TO.N,Net-(U1-MAIN_CTS)*%
X151511000Y-84455000D03*
%TO.N,Net-(U1-MAIN_RTS)*%
X151511000Y-86106000D03*
%TO.N,BG95_GPIO1*%
X172000000Y-88700000D03*
%TO.N,BG95_GPIO2*%
X172980000Y-88798500D03*
%TO.N,BG95_GPIO3*%
X172900000Y-87800000D03*
%TO.N,BG95_GPIO4*%
X172900000Y-86700000D03*
%TO.N,BG95_SPI2_SCLK*%
X172640000Y-73970000D03*
%TO.N,BG95_SPI2_CS*%
X171200000Y-71900000D03*
%TO.N,BG95_SPI2_MISO*%
X167980000Y-72566000D03*
%TO.N,BG95_SPI2_MOSI*%
X166880000Y-72566000D03*
%TO.N,BG95_SPI0_CS*%
X162550512Y-80662822D03*
X163000000Y-72850000D03*
%TO.N,BG95_SPI0_SCLK*%
X162300000Y-72850000D03*
X162328680Y-81194936D03*
%TO.N,BG95_SPI0_MOSI*%
X161400700Y-84250000D03*
X161550000Y-71650000D03*
%TO.N,BG95_SPI0_MISO*%
X161600000Y-74199300D03*
X161500000Y-85050000D03*
%TO.N,BG95_I2C1_SCL*%
X163248800Y-83000000D03*
X164500000Y-87649300D03*
%TO.N,BG95_I2C1_SDA*%
X162798100Y-83611326D03*
X165100000Y-88100000D03*
%TO.N,BG95_UART2_TXD*%
X166849300Y-85250000D03*
%TO.N,BG95_UART2_RXD*%
X166849300Y-83600000D03*
%TO.N,BG95_GPIO17*%
X169780000Y-82716000D03*
X167950000Y-89900000D03*
%TO.N,BG95_GPIO18*%
X160650000Y-80349300D03*
%TO.N,BG95_GPIO19*%
X169147430Y-81865748D03*
X167750000Y-89150000D03*
%TO.N,BG95_GPIO20*%
X160431501Y-79816143D03*
%TO.N,BG95_GPIO21*%
X160487588Y-79242375D03*
X159641228Y-74775484D03*
%TO.N,Net-(U10-B3)*%
X163450000Y-74480000D03*
X166250000Y-74650000D03*
%TO.N,Net-(U10-B2)*%
X158150000Y-76800000D03*
X169360700Y-76110700D03*
%TO.N,Net-(U10-B1)*%
X168100000Y-76800000D03*
X160840000Y-76750000D03*
%TO.N,Net-(D5-A)*%
X156718000Y-52044500D03*
%TO.N,Net-(D6-A)*%
X170942000Y-52324000D03*
%TO.N,/BG95/USB_P*%
X163800000Y-60750000D03*
X174100000Y-84300000D03*
%TO.N,/BG95/USB_N*%
X164800000Y-60700000D03*
X174100000Y-83500000D03*
%TD*%
%TA.AperFunction,Conductor*%
%TO.N,GND*%
G36*
X174499737Y-50800598D02*
G01*
X174533041Y-50802467D01*
X174613603Y-50806992D01*
X174785691Y-50817401D01*
X174792297Y-50818160D01*
X174863907Y-50830327D01*
X174928343Y-50841277D01*
X175021462Y-50858340D01*
X175077227Y-50868560D01*
X175083198Y-50869963D01*
X175220032Y-50909384D01*
X175360850Y-50953265D01*
X175366092Y-50955164D01*
X175499420Y-51010391D01*
X175632609Y-51070334D01*
X175637147Y-51072605D01*
X175710221Y-51112991D01*
X175764422Y-51142947D01*
X175764439Y-51142956D01*
X175888935Y-51218217D01*
X175892739Y-51220711D01*
X176010726Y-51304427D01*
X176013072Y-51306176D01*
X176108416Y-51380874D01*
X176126332Y-51394910D01*
X176129409Y-51397486D01*
X176237430Y-51494018D01*
X176239957Y-51496408D01*
X176341590Y-51598041D01*
X176343980Y-51600568D01*
X176440512Y-51708589D01*
X176443088Y-51711666D01*
X176531811Y-51824912D01*
X176533571Y-51827272D01*
X176617287Y-51945259D01*
X176619781Y-51949063D01*
X176695043Y-52073560D01*
X176765393Y-52200851D01*
X176767668Y-52205398D01*
X176827609Y-52338581D01*
X176882831Y-52471899D01*
X176884744Y-52477183D01*
X176904141Y-52539427D01*
X176928631Y-52618021D01*
X176968032Y-52754790D01*
X176969440Y-52760781D01*
X176996722Y-52909656D01*
X177019835Y-53045683D01*
X177020599Y-53052330D01*
X177031012Y-53224475D01*
X177037402Y-53338263D01*
X177037500Y-53341741D01*
X177037500Y-99058258D01*
X177037402Y-99061736D01*
X177031012Y-99175524D01*
X177020599Y-99347668D01*
X177019835Y-99354315D01*
X176996722Y-99490343D01*
X176969440Y-99639217D01*
X176968032Y-99645208D01*
X176928625Y-99782001D01*
X176884744Y-99922815D01*
X176882831Y-99928099D01*
X176827609Y-100061418D01*
X176767668Y-100194600D01*
X176765394Y-100199147D01*
X176695043Y-100326439D01*
X176619781Y-100450936D01*
X176617287Y-100454739D01*
X176533571Y-100572726D01*
X176531811Y-100575086D01*
X176443088Y-100688332D01*
X176440512Y-100691409D01*
X176343980Y-100799430D01*
X176341590Y-100801957D01*
X176239957Y-100903590D01*
X176237430Y-100905980D01*
X176129409Y-101002512D01*
X176126332Y-101005088D01*
X176013086Y-101093811D01*
X176010726Y-101095571D01*
X175892739Y-101179287D01*
X175888936Y-101181781D01*
X175764439Y-101257043D01*
X175637147Y-101327394D01*
X175632600Y-101329668D01*
X175499418Y-101389609D01*
X175366099Y-101444831D01*
X175360815Y-101446744D01*
X175243231Y-101483385D01*
X175219990Y-101490627D01*
X175083208Y-101530032D01*
X175077217Y-101531440D01*
X174928343Y-101558722D01*
X174792315Y-101581835D01*
X174785668Y-101582599D01*
X174613524Y-101593012D01*
X174499736Y-101599402D01*
X174496258Y-101599500D01*
X153163742Y-101599500D01*
X153160265Y-101599402D01*
X153046475Y-101593012D01*
X152874330Y-101582599D01*
X152867683Y-101581835D01*
X152731656Y-101558722D01*
X152582781Y-101531440D01*
X152576790Y-101530032D01*
X152440021Y-101490631D01*
X152372634Y-101469633D01*
X152299183Y-101446744D01*
X152293899Y-101444831D01*
X152160581Y-101389609D01*
X152027398Y-101329668D01*
X152022851Y-101327393D01*
X151895560Y-101257043D01*
X151771063Y-101181781D01*
X151767259Y-101179287D01*
X151649272Y-101095571D01*
X151646912Y-101093811D01*
X151533666Y-101005088D01*
X151530589Y-101002512D01*
X151422568Y-100905980D01*
X151420041Y-100903590D01*
X151318408Y-100801957D01*
X151316018Y-100799430D01*
X151227165Y-100700002D01*
X163993106Y-100700002D01*
X164010572Y-100810281D01*
X164010573Y-100810284D01*
X164010574Y-100810286D01*
X164061267Y-100909777D01*
X164061268Y-100909778D01*
X164061271Y-100909782D01*
X164140217Y-100988728D01*
X164140221Y-100988731D01*
X164140223Y-100988733D01*
X164239714Y-101039426D01*
X164239716Y-101039426D01*
X164239718Y-101039427D01*
X164349998Y-101056894D01*
X164350000Y-101056894D01*
X164350002Y-101056894D01*
X164460281Y-101039427D01*
X164460281Y-101039426D01*
X164460286Y-101039426D01*
X164559777Y-100988733D01*
X164562316Y-100986193D01*
X164566163Y-100984092D01*
X164567676Y-100982994D01*
X164567817Y-100983189D01*
X164623635Y-100952707D01*
X164693327Y-100957688D01*
X164737683Y-100986193D01*
X164740223Y-100988733D01*
X164839714Y-101039426D01*
X164839716Y-101039426D01*
X164839718Y-101039427D01*
X164949998Y-101056894D01*
X164950000Y-101056894D01*
X164950002Y-101056894D01*
X165060281Y-101039427D01*
X165060281Y-101039426D01*
X165060286Y-101039426D01*
X165159777Y-100988733D01*
X165162316Y-100986193D01*
X165166163Y-100984092D01*
X165167676Y-100982994D01*
X165167817Y-100983189D01*
X165223635Y-100952707D01*
X165293327Y-100957688D01*
X165337683Y-100986193D01*
X165340223Y-100988733D01*
X165439714Y-101039426D01*
X165439716Y-101039426D01*
X165439718Y-101039427D01*
X165549998Y-101056894D01*
X165550000Y-101056894D01*
X165550002Y-101056894D01*
X165660281Y-101039427D01*
X165660281Y-101039426D01*
X165660286Y-101039426D01*
X165759777Y-100988733D01*
X165762316Y-100986193D01*
X165766163Y-100984092D01*
X165767676Y-100982994D01*
X165767817Y-100983189D01*
X165823635Y-100952707D01*
X165893327Y-100957688D01*
X165937683Y-100986193D01*
X165940223Y-100988733D01*
X166039714Y-101039426D01*
X166039716Y-101039426D01*
X166039718Y-101039427D01*
X166149998Y-101056894D01*
X166150000Y-101056894D01*
X166150002Y-101056894D01*
X166260281Y-101039427D01*
X166260281Y-101039426D01*
X166260286Y-101039426D01*
X166359777Y-100988733D01*
X166438733Y-100909777D01*
X166489426Y-100810286D01*
X166490745Y-100801957D01*
X166506894Y-100700002D01*
X166506894Y-100699997D01*
X166489427Y-100589718D01*
X166489426Y-100589716D01*
X166489426Y-100589714D01*
X166438733Y-100490223D01*
X166438731Y-100490221D01*
X166438728Y-100490217D01*
X166359782Y-100411271D01*
X166359778Y-100411268D01*
X166359777Y-100411267D01*
X166359775Y-100411266D01*
X166359771Y-100411263D01*
X166358236Y-100410481D01*
X166356708Y-100409038D01*
X166351885Y-100405534D01*
X166352338Y-100404910D01*
X166307442Y-100362505D01*
X166290649Y-100294683D01*
X166313189Y-100228549D01*
X166352134Y-100194809D01*
X166351885Y-100194466D01*
X166355881Y-100191562D01*
X166358248Y-100189511D01*
X166359777Y-100188733D01*
X166438733Y-100109777D01*
X166489426Y-100010286D01*
X166499925Y-99944000D01*
X166506894Y-99900002D01*
X166506894Y-99899997D01*
X166489427Y-99789718D01*
X166489426Y-99789716D01*
X166489426Y-99789714D01*
X166438733Y-99690223D01*
X166438731Y-99690221D01*
X166438728Y-99690217D01*
X166359782Y-99611271D01*
X166359778Y-99611268D01*
X166359777Y-99611267D01*
X166260286Y-99560574D01*
X166260284Y-99560573D01*
X166260281Y-99560572D01*
X166150002Y-99543106D01*
X166149998Y-99543106D01*
X166039718Y-99560572D01*
X165940221Y-99611268D01*
X165940217Y-99611271D01*
X165937681Y-99613808D01*
X165933836Y-99615907D01*
X165932324Y-99617006D01*
X165932182Y-99616810D01*
X165876358Y-99647293D01*
X165806666Y-99642309D01*
X165762319Y-99613808D01*
X165759782Y-99611271D01*
X165759778Y-99611268D01*
X165759777Y-99611267D01*
X165660286Y-99560574D01*
X165660284Y-99560573D01*
X165660281Y-99560572D01*
X165550002Y-99543106D01*
X165549998Y-99543106D01*
X165439718Y-99560572D01*
X165340221Y-99611268D01*
X165340217Y-99611271D01*
X165337681Y-99613808D01*
X165333836Y-99615907D01*
X165332324Y-99617006D01*
X165332182Y-99616810D01*
X165276358Y-99647293D01*
X165206666Y-99642309D01*
X165162319Y-99613808D01*
X165159782Y-99611271D01*
X165159778Y-99611268D01*
X165159777Y-99611267D01*
X165060286Y-99560574D01*
X165060284Y-99560573D01*
X165060281Y-99560572D01*
X164950002Y-99543106D01*
X164949998Y-99543106D01*
X164839718Y-99560572D01*
X164740221Y-99611268D01*
X164740217Y-99611271D01*
X164737681Y-99613808D01*
X164733836Y-99615907D01*
X164732324Y-99617006D01*
X164732182Y-99616810D01*
X164676358Y-99647293D01*
X164606666Y-99642309D01*
X164562319Y-99613808D01*
X164559782Y-99611271D01*
X164559778Y-99611268D01*
X164559777Y-99611267D01*
X164460286Y-99560574D01*
X164460284Y-99560573D01*
X164460281Y-99560572D01*
X164350002Y-99543106D01*
X164349998Y-99543106D01*
X164239718Y-99560572D01*
X164140221Y-99611268D01*
X164140217Y-99611271D01*
X164061271Y-99690217D01*
X164061268Y-99690221D01*
X164061267Y-99690223D01*
X164023468Y-99764409D01*
X164010572Y-99789718D01*
X163993106Y-99899997D01*
X163993106Y-99900002D01*
X164010572Y-100010281D01*
X164010573Y-100010284D01*
X164010574Y-100010286D01*
X164036627Y-100061418D01*
X164061268Y-100109778D01*
X164061271Y-100109782D01*
X164140218Y-100188729D01*
X164140220Y-100188730D01*
X164140223Y-100188733D01*
X164141754Y-100189513D01*
X164143277Y-100190951D01*
X164148115Y-100194466D01*
X164147660Y-100195090D01*
X164192550Y-100237481D01*
X164209351Y-100305300D01*
X164186818Y-100371437D01*
X164147867Y-100405193D01*
X164148115Y-100405534D01*
X164144150Y-100408413D01*
X164141768Y-100410479D01*
X164140227Y-100411263D01*
X164140217Y-100411271D01*
X164061271Y-100490217D01*
X164061268Y-100490221D01*
X164010572Y-100589718D01*
X163993106Y-100699997D01*
X163993106Y-100700002D01*
X151227165Y-100700002D01*
X151219486Y-100691409D01*
X151216910Y-100688332D01*
X151202874Y-100670416D01*
X151128176Y-100575072D01*
X151126427Y-100572726D01*
X151042711Y-100454739D01*
X151040217Y-100450935D01*
X150964956Y-100326439D01*
X150894605Y-100199147D01*
X150892330Y-100194600D01*
X150890039Y-100189510D01*
X150832387Y-100061411D01*
X150811210Y-100010286D01*
X150777164Y-99928092D01*
X150775265Y-99922850D01*
X150731375Y-99782001D01*
X150691963Y-99645198D01*
X150690560Y-99639227D01*
X150676146Y-99560572D01*
X150663277Y-99490343D01*
X150652327Y-99425907D01*
X150640160Y-99354297D01*
X150639401Y-99347691D01*
X150628992Y-99175603D01*
X150624626Y-99097867D01*
X150622598Y-99061736D01*
X150622500Y-99058259D01*
X150622500Y-98830000D01*
X152440000Y-98830000D01*
X153400000Y-99790000D01*
X153628638Y-99790000D01*
X153695677Y-99809685D01*
X153716319Y-99826319D01*
X153970000Y-100080000D01*
X154809000Y-100080000D01*
X154876039Y-100099685D01*
X154921794Y-100152489D01*
X154933000Y-100204000D01*
X154933000Y-100264000D01*
X157023000Y-100264000D01*
X157023000Y-98364000D01*
X154933000Y-98364000D01*
X154933000Y-98466000D01*
X154913315Y-98533039D01*
X154860511Y-98578794D01*
X154809000Y-98590000D01*
X153721362Y-98590000D01*
X153654323Y-98570315D01*
X153633681Y-98553681D01*
X153436319Y-98356319D01*
X153402834Y-98294996D01*
X153400000Y-98268638D01*
X153400000Y-94341362D01*
X153419685Y-94274323D01*
X153436319Y-94253681D01*
X153823681Y-93866319D01*
X153885004Y-93832834D01*
X153911362Y-93830000D01*
X155430000Y-93830000D01*
X155450000Y-93810000D01*
X155450000Y-93780000D01*
X168520000Y-93780000D01*
X168520000Y-98880000D01*
X169460000Y-99820000D01*
X170557000Y-99820000D01*
X170624039Y-99839685D01*
X170669794Y-99892489D01*
X170681000Y-99944000D01*
X170681000Y-100264000D01*
X172771000Y-100264000D01*
X172771000Y-98364000D01*
X170681000Y-98364000D01*
X170681000Y-98476000D01*
X170661315Y-98543039D01*
X170608511Y-98588794D01*
X170557000Y-98600000D01*
X169851362Y-98600000D01*
X169784323Y-98580315D01*
X169763681Y-98563681D01*
X169666319Y-98466319D01*
X169632834Y-98404996D01*
X169630000Y-98378638D01*
X169630000Y-93780000D01*
X168520000Y-93780000D01*
X155450000Y-93780000D01*
X155450000Y-92700000D01*
X153510000Y-92700000D01*
X153509999Y-92700000D01*
X152440000Y-93769999D01*
X152440000Y-93770000D01*
X152440000Y-98830000D01*
X150622500Y-98830000D01*
X150622500Y-95647817D01*
X150642185Y-95580778D01*
X150694989Y-95535023D01*
X150764147Y-95525079D01*
X150827703Y-95554104D01*
X150856982Y-95591520D01*
X150877959Y-95632690D01*
X150892066Y-95660376D01*
X150892071Y-95660382D01*
X150971017Y-95739328D01*
X150971021Y-95739331D01*
X150971023Y-95739333D01*
X151070514Y-95790026D01*
X151070516Y-95790026D01*
X151070518Y-95790027D01*
X151180798Y-95807494D01*
X151180800Y-95807494D01*
X151180802Y-95807494D01*
X151291081Y-95790027D01*
X151291081Y-95790026D01*
X151291086Y-95790026D01*
X151390577Y-95739333D01*
X151469533Y-95660377D01*
X151520226Y-95560886D01*
X151521300Y-95554104D01*
X151537694Y-95450602D01*
X151537694Y-95450597D01*
X151520227Y-95340318D01*
X151520226Y-95340316D01*
X151520226Y-95340314D01*
X151469533Y-95240823D01*
X151469531Y-95240821D01*
X151469528Y-95240817D01*
X151390582Y-95161871D01*
X151390578Y-95161868D01*
X151390577Y-95161867D01*
X151291086Y-95111174D01*
X151291084Y-95111173D01*
X151291081Y-95111172D01*
X151180802Y-95093706D01*
X151180798Y-95093706D01*
X151070518Y-95111172D01*
X150971021Y-95161868D01*
X150971017Y-95161871D01*
X150892071Y-95240817D01*
X150892068Y-95240821D01*
X150892067Y-95240823D01*
X150856983Y-95309678D01*
X150809011Y-95360473D01*
X150741190Y-95377268D01*
X150675055Y-95354731D01*
X150631603Y-95300016D01*
X150622500Y-95253382D01*
X150622500Y-91670502D01*
X156972606Y-91670502D01*
X156990072Y-91780781D01*
X156990073Y-91780784D01*
X156990074Y-91780786D01*
X157040767Y-91880277D01*
X157040768Y-91880278D01*
X157040771Y-91880282D01*
X157119717Y-91959228D01*
X157119721Y-91959231D01*
X157119723Y-91959233D01*
X157219214Y-92009926D01*
X157219216Y-92009926D01*
X157219218Y-92009927D01*
X157329498Y-92027394D01*
X157329500Y-92027394D01*
X157329502Y-92027394D01*
X157439781Y-92009927D01*
X157439781Y-92009926D01*
X157439786Y-92009926D01*
X157539277Y-91959233D01*
X157618233Y-91880277D01*
X157668926Y-91780786D01*
X157686394Y-91670500D01*
X157668926Y-91560214D01*
X157618233Y-91460723D01*
X157618231Y-91460721D01*
X157618228Y-91460717D01*
X157539282Y-91381771D01*
X157539278Y-91381768D01*
X157539277Y-91381767D01*
X157439786Y-91331074D01*
X157439784Y-91331073D01*
X157439781Y-91331072D01*
X157329502Y-91313606D01*
X157329498Y-91313606D01*
X157219218Y-91331072D01*
X157119721Y-91381768D01*
X157119717Y-91381771D01*
X157040771Y-91460717D01*
X157040768Y-91460721D01*
X156990072Y-91560218D01*
X156972606Y-91670497D01*
X156972606Y-91670502D01*
X150622500Y-91670502D01*
X150622500Y-91000002D01*
X169443106Y-91000002D01*
X169460572Y-91110281D01*
X169460573Y-91110284D01*
X169460574Y-91110286D01*
X169511267Y-91209777D01*
X169511268Y-91209778D01*
X169511271Y-91209782D01*
X169590217Y-91288728D01*
X169590221Y-91288731D01*
X169590223Y-91288733D01*
X169689714Y-91339426D01*
X169689716Y-91339426D01*
X169689718Y-91339427D01*
X169799998Y-91356894D01*
X169800000Y-91356894D01*
X169800002Y-91356894D01*
X169910281Y-91339427D01*
X169910281Y-91339426D01*
X169910286Y-91339426D01*
X170009777Y-91288733D01*
X170088733Y-91209777D01*
X170139426Y-91110286D01*
X170156894Y-91000000D01*
X170156128Y-90995164D01*
X170165082Y-90925871D01*
X170210077Y-90872419D01*
X170276828Y-90851778D01*
X170334892Y-90865279D01*
X170420329Y-90908811D01*
X170420331Y-90908811D01*
X170420333Y-90908812D01*
X170530613Y-90926279D01*
X170530615Y-90926279D01*
X170530617Y-90926279D01*
X170640896Y-90908812D01*
X170640896Y-90908811D01*
X170640901Y-90908811D01*
X170740392Y-90858118D01*
X170819348Y-90779162D01*
X170870041Y-90679671D01*
X170875767Y-90643519D01*
X170887509Y-90569387D01*
X170887509Y-90569382D01*
X170870042Y-90459103D01*
X170870041Y-90459101D01*
X170870041Y-90459099D01*
X170819348Y-90359608D01*
X170819346Y-90359606D01*
X170819343Y-90359602D01*
X170740397Y-90280656D01*
X170740393Y-90280653D01*
X170740392Y-90280652D01*
X170640901Y-90229959D01*
X170640899Y-90229958D01*
X170640896Y-90229957D01*
X170530617Y-90212491D01*
X170530613Y-90212491D01*
X170420333Y-90229957D01*
X170320836Y-90280653D01*
X170320832Y-90280656D01*
X170241886Y-90359602D01*
X170241883Y-90359606D01*
X170191187Y-90459103D01*
X170173721Y-90569382D01*
X170173721Y-90569388D01*
X170174487Y-90574226D01*
X170165529Y-90643519D01*
X170120531Y-90696969D01*
X170053779Y-90717606D01*
X169995719Y-90704104D01*
X169910283Y-90660572D01*
X169800002Y-90643106D01*
X169799998Y-90643106D01*
X169689718Y-90660572D01*
X169590221Y-90711268D01*
X169590217Y-90711271D01*
X169511271Y-90790217D01*
X169511268Y-90790221D01*
X169460572Y-90889718D01*
X169443106Y-90999997D01*
X169443106Y-91000002D01*
X150622500Y-91000002D01*
X150622500Y-89150002D01*
X167393106Y-89150002D01*
X167410572Y-89260281D01*
X167410573Y-89260284D01*
X167410574Y-89260286D01*
X167461267Y-89359777D01*
X167461268Y-89359778D01*
X167461271Y-89359782D01*
X167540217Y-89438728D01*
X167540221Y-89438731D01*
X167540223Y-89438733D01*
X167634943Y-89486995D01*
X167685738Y-89534968D01*
X167702533Y-89602789D01*
X167679996Y-89668924D01*
X167666332Y-89685157D01*
X167661268Y-89690221D01*
X167610572Y-89789718D01*
X167593106Y-89899997D01*
X167593106Y-89900002D01*
X167610572Y-90010281D01*
X167610573Y-90010284D01*
X167610574Y-90010286D01*
X167642706Y-90073348D01*
X167661268Y-90109778D01*
X167661271Y-90109782D01*
X167740217Y-90188728D01*
X167740221Y-90188731D01*
X167740223Y-90188733D01*
X167839714Y-90239426D01*
X167839716Y-90239426D01*
X167839718Y-90239427D01*
X167949998Y-90256894D01*
X167950000Y-90256894D01*
X167950002Y-90256894D01*
X168060281Y-90239427D01*
X168060281Y-90239426D01*
X168060286Y-90239426D01*
X168159777Y-90188733D01*
X168178510Y-90170000D01*
X168627407Y-90170000D01*
X168644448Y-90266649D01*
X168644450Y-90266654D01*
X168693521Y-90351648D01*
X168768697Y-90414729D01*
X168768700Y-90414730D01*
X168768703Y-90414733D01*
X168860928Y-90448300D01*
X168860930Y-90448300D01*
X168959070Y-90448300D01*
X168959072Y-90448300D01*
X169051297Y-90414733D01*
X169126479Y-90351647D01*
X169175551Y-90266652D01*
X169192593Y-90170000D01*
X169175551Y-90073348D01*
X169126479Y-89988353D01*
X169126478Y-89988351D01*
X169051302Y-89925270D01*
X169051298Y-89925268D01*
X169051297Y-89925267D01*
X168959072Y-89891700D01*
X168860928Y-89891700D01*
X168768704Y-89925267D01*
X168768703Y-89925267D01*
X168768702Y-89925268D01*
X168693523Y-89988351D01*
X168693518Y-89988356D01*
X168644450Y-90073345D01*
X168644448Y-90073350D01*
X168627407Y-90169999D01*
X168627407Y-90170000D01*
X168178510Y-90170000D01*
X168238733Y-90109777D01*
X168289426Y-90010286D01*
X168289427Y-90010281D01*
X168306894Y-89900002D01*
X168306894Y-89899997D01*
X168289427Y-89789718D01*
X168289426Y-89789716D01*
X168289426Y-89789714D01*
X168238733Y-89690223D01*
X168238731Y-89690221D01*
X168238728Y-89690217D01*
X168159782Y-89611271D01*
X168159779Y-89611269D01*
X168159777Y-89611267D01*
X168065056Y-89563004D01*
X168014261Y-89515030D01*
X167997466Y-89447209D01*
X168020004Y-89381074D01*
X168033668Y-89364841D01*
X168038733Y-89359777D01*
X168089426Y-89260286D01*
X168106894Y-89150000D01*
X168106059Y-89144729D01*
X168089427Y-89039718D01*
X168089426Y-89039716D01*
X168089426Y-89039714D01*
X168038733Y-88940223D01*
X168038731Y-88940221D01*
X168038728Y-88940217D01*
X167998511Y-88900000D01*
X169517407Y-88900000D01*
X169534448Y-88996649D01*
X169534450Y-88996654D01*
X169583521Y-89081648D01*
X169658697Y-89144729D01*
X169658700Y-89144730D01*
X169658703Y-89144733D01*
X169750928Y-89178300D01*
X169750930Y-89178300D01*
X169849070Y-89178300D01*
X169849072Y-89178300D01*
X169941297Y-89144733D01*
X170009825Y-89087231D01*
X170016478Y-89081648D01*
X170030770Y-89056894D01*
X170065551Y-88996652D01*
X170082593Y-88900000D01*
X170065551Y-88803348D01*
X170016479Y-88718353D01*
X170016478Y-88718351D01*
X169994611Y-88700002D01*
X171643106Y-88700002D01*
X171660572Y-88810281D01*
X171660573Y-88810284D01*
X171660574Y-88810286D01*
X171711267Y-88909777D01*
X171711268Y-88909778D01*
X171711271Y-88909782D01*
X171790217Y-88988728D01*
X171790221Y-88988731D01*
X171790223Y-88988733D01*
X171889714Y-89039426D01*
X171889716Y-89039426D01*
X171889718Y-89039427D01*
X171999998Y-89056894D01*
X172000000Y-89056894D01*
X172000002Y-89056894D01*
X172110281Y-89039427D01*
X172110281Y-89039426D01*
X172110286Y-89039426D01*
X172209777Y-88988733D01*
X172288733Y-88909777D01*
X172339426Y-88810286D01*
X172340525Y-88803348D01*
X172341293Y-88798502D01*
X172623106Y-88798502D01*
X172640572Y-88908781D01*
X172640573Y-88908784D01*
X172640574Y-88908786D01*
X172685344Y-88996652D01*
X172691268Y-89008278D01*
X172691271Y-89008282D01*
X172770217Y-89087228D01*
X172770221Y-89087231D01*
X172770223Y-89087233D01*
X172869714Y-89137926D01*
X172869716Y-89137926D01*
X172869718Y-89137927D01*
X172979998Y-89155394D01*
X172980000Y-89155394D01*
X172980002Y-89155394D01*
X173090281Y-89137927D01*
X173090281Y-89137926D01*
X173090286Y-89137926D01*
X173189777Y-89087233D01*
X173268733Y-89008277D01*
X173319426Y-88908786D01*
X173326952Y-88861271D01*
X173336894Y-88798502D01*
X173336894Y-88798497D01*
X173319427Y-88688218D01*
X173319426Y-88688216D01*
X173319426Y-88688214D01*
X173268733Y-88588723D01*
X173268731Y-88588721D01*
X173268728Y-88588717D01*
X173189782Y-88509771D01*
X173189778Y-88509768D01*
X173189777Y-88509767D01*
X173090286Y-88459074D01*
X173090284Y-88459073D01*
X173090281Y-88459072D01*
X172980002Y-88441606D01*
X172979998Y-88441606D01*
X172869718Y-88459072D01*
X172770221Y-88509768D01*
X172770217Y-88509771D01*
X172691271Y-88588717D01*
X172691268Y-88588721D01*
X172640572Y-88688218D01*
X172623106Y-88798497D01*
X172623106Y-88798502D01*
X172341293Y-88798502D01*
X172356894Y-88700002D01*
X172356894Y-88699997D01*
X172339427Y-88589718D01*
X172339426Y-88589716D01*
X172339426Y-88589714D01*
X172288733Y-88490223D01*
X172288731Y-88490221D01*
X172288728Y-88490217D01*
X172209782Y-88411271D01*
X172209778Y-88411268D01*
X172209777Y-88411267D01*
X172110286Y-88360574D01*
X172110284Y-88360573D01*
X172110281Y-88360572D01*
X172000002Y-88343106D01*
X171999998Y-88343106D01*
X171889718Y-88360572D01*
X171790221Y-88411268D01*
X171790217Y-88411271D01*
X171711271Y-88490217D01*
X171711268Y-88490221D01*
X171660572Y-88589718D01*
X171643106Y-88699997D01*
X171643106Y-88700002D01*
X169994611Y-88700002D01*
X169941302Y-88655270D01*
X169941298Y-88655268D01*
X169941297Y-88655267D01*
X169849072Y-88621700D01*
X169750928Y-88621700D01*
X169658704Y-88655267D01*
X169658703Y-88655267D01*
X169658702Y-88655268D01*
X169583523Y-88718351D01*
X169583518Y-88718356D01*
X169534450Y-88803345D01*
X169534448Y-88803350D01*
X169517407Y-88899999D01*
X169517407Y-88900000D01*
X167998511Y-88900000D01*
X167959782Y-88861271D01*
X167959778Y-88861268D01*
X167959777Y-88861267D01*
X167860286Y-88810574D01*
X167860284Y-88810573D01*
X167860281Y-88810572D01*
X167750002Y-88793106D01*
X167749998Y-88793106D01*
X167639718Y-88810572D01*
X167540221Y-88861268D01*
X167540217Y-88861271D01*
X167461271Y-88940217D01*
X167461268Y-88940221D01*
X167410572Y-89039718D01*
X167393106Y-89149997D01*
X167393106Y-89150002D01*
X150622500Y-89150002D01*
X150622500Y-87649302D01*
X164143106Y-87649302D01*
X164160572Y-87759581D01*
X164160573Y-87759584D01*
X164160574Y-87759586D01*
X164186909Y-87811271D01*
X164211268Y-87859078D01*
X164211271Y-87859082D01*
X164290217Y-87938028D01*
X164290221Y-87938031D01*
X164290223Y-87938033D01*
X164389714Y-87988726D01*
X164389716Y-87988726D01*
X164389718Y-87988727D01*
X164499998Y-88006194D01*
X164500000Y-88006194D01*
X164500001Y-88006194D01*
X164528219Y-88001724D01*
X164600189Y-87990325D01*
X164669482Y-87999279D01*
X164722934Y-88044275D01*
X164742060Y-88093400D01*
X164760572Y-88210281D01*
X164760573Y-88210284D01*
X164760574Y-88210286D01*
X164811267Y-88309777D01*
X164811268Y-88309778D01*
X164811271Y-88309782D01*
X164890217Y-88388728D01*
X164890221Y-88388731D01*
X164890223Y-88388733D01*
X164989714Y-88439426D01*
X164989716Y-88439426D01*
X164989718Y-88439427D01*
X165099998Y-88456894D01*
X165100000Y-88456894D01*
X165100002Y-88456894D01*
X165210281Y-88439427D01*
X165210281Y-88439426D01*
X165210286Y-88439426D01*
X165309777Y-88388733D01*
X165388733Y-88309777D01*
X165439426Y-88210286D01*
X165447883Y-88156894D01*
X165456894Y-88100002D01*
X165456894Y-88099997D01*
X165439427Y-87989718D01*
X165439426Y-87989716D01*
X165439426Y-87989714D01*
X165388733Y-87890223D01*
X165388731Y-87890221D01*
X165388728Y-87890217D01*
X165309782Y-87811271D01*
X165309778Y-87811268D01*
X165309777Y-87811267D01*
X165287668Y-87800002D01*
X172543106Y-87800002D01*
X172560572Y-87910281D01*
X172560573Y-87910284D01*
X172560574Y-87910286D01*
X172611267Y-88009777D01*
X172611268Y-88009778D01*
X172611271Y-88009782D01*
X172690217Y-88088728D01*
X172690221Y-88088731D01*
X172690223Y-88088733D01*
X172789714Y-88139426D01*
X172789716Y-88139426D01*
X172789718Y-88139427D01*
X172899998Y-88156894D01*
X172900000Y-88156894D01*
X172900002Y-88156894D01*
X173010281Y-88139427D01*
X173010281Y-88139426D01*
X173010286Y-88139426D01*
X173109777Y-88088733D01*
X173188733Y-88009777D01*
X173239426Y-87910286D01*
X173255109Y-87811271D01*
X173256894Y-87800002D01*
X173256894Y-87799997D01*
X173239427Y-87689718D01*
X173239426Y-87689716D01*
X173239426Y-87689714D01*
X173188733Y-87590223D01*
X173188731Y-87590221D01*
X173188728Y-87590217D01*
X173109782Y-87511271D01*
X173109778Y-87511268D01*
X173109777Y-87511267D01*
X173010286Y-87460574D01*
X173010284Y-87460573D01*
X173010281Y-87460572D01*
X172900002Y-87443106D01*
X172899998Y-87443106D01*
X172789718Y-87460572D01*
X172690221Y-87511268D01*
X172690217Y-87511271D01*
X172611271Y-87590217D01*
X172611268Y-87590221D01*
X172560572Y-87689718D01*
X172543106Y-87799997D01*
X172543106Y-87800002D01*
X165287668Y-87800002D01*
X165210286Y-87760574D01*
X165210284Y-87760573D01*
X165210281Y-87760572D01*
X165100002Y-87743106D01*
X165099998Y-87743106D01*
X164999810Y-87758974D01*
X164930516Y-87750019D01*
X164877064Y-87705023D01*
X164857939Y-87655898D01*
X164839427Y-87539018D01*
X164839426Y-87539016D01*
X164839426Y-87539014D01*
X164788733Y-87439523D01*
X164788731Y-87439521D01*
X164788728Y-87439517D01*
X164749214Y-87400003D01*
X166717794Y-87400003D01*
X166736498Y-87518104D01*
X166736498Y-87518105D01*
X166790790Y-87624657D01*
X166875342Y-87709209D01*
X166875344Y-87709210D01*
X166875345Y-87709211D01*
X166981892Y-87763500D01*
X166981893Y-87763500D01*
X166981895Y-87763501D01*
X167099997Y-87782206D01*
X167100000Y-87782206D01*
X167100003Y-87782206D01*
X167218104Y-87763501D01*
X167218105Y-87763501D01*
X167218106Y-87763500D01*
X167218108Y-87763500D01*
X167324655Y-87709211D01*
X167409211Y-87624655D01*
X167463500Y-87518108D01*
X167463500Y-87518106D01*
X167463501Y-87518105D01*
X167463501Y-87518104D01*
X167482206Y-87400003D01*
X167482206Y-87399996D01*
X167463501Y-87281895D01*
X167463501Y-87281894D01*
X167409209Y-87175342D01*
X167324657Y-87090790D01*
X167223852Y-87039427D01*
X167218108Y-87036500D01*
X167218107Y-87036499D01*
X167218104Y-87036498D01*
X167100003Y-87017794D01*
X167099997Y-87017794D01*
X166981895Y-87036498D01*
X166981894Y-87036498D01*
X166875342Y-87090790D01*
X166790790Y-87175342D01*
X166736498Y-87281894D01*
X166736498Y-87281895D01*
X166717794Y-87399996D01*
X166717794Y-87400003D01*
X164749214Y-87400003D01*
X164709782Y-87360571D01*
X164709778Y-87360568D01*
X164709777Y-87360567D01*
X164610286Y-87309874D01*
X164610284Y-87309873D01*
X164610281Y-87309872D01*
X164500002Y-87292406D01*
X164499998Y-87292406D01*
X164389718Y-87309872D01*
X164290221Y-87360568D01*
X164290217Y-87360571D01*
X164211271Y-87439517D01*
X164211268Y-87439521D01*
X164160572Y-87539018D01*
X164143106Y-87649297D01*
X164143106Y-87649302D01*
X150622500Y-87649302D01*
X150622500Y-86599302D01*
X160393106Y-86599302D01*
X160410572Y-86709581D01*
X160410573Y-86709584D01*
X160410574Y-86709586D01*
X160425779Y-86739427D01*
X160461268Y-86809078D01*
X160461271Y-86809082D01*
X160540217Y-86888028D01*
X160540221Y-86888031D01*
X160540223Y-86888033D01*
X160639714Y-86938726D01*
X160639716Y-86938726D01*
X160639718Y-86938727D01*
X160749998Y-86956194D01*
X160750000Y-86956194D01*
X160750002Y-86956194D01*
X160860281Y-86938727D01*
X160860281Y-86938726D01*
X160860286Y-86938726D01*
X160959777Y-86888033D01*
X161038733Y-86809077D01*
X161089426Y-86709586D01*
X161090944Y-86700002D01*
X161106894Y-86599302D01*
X161106894Y-86599297D01*
X161089427Y-86489018D01*
X161089426Y-86489016D01*
X161089426Y-86489014D01*
X161044072Y-86400002D01*
X163392406Y-86400002D01*
X163409872Y-86510281D01*
X163409873Y-86510284D01*
X163409874Y-86510286D01*
X163455229Y-86599300D01*
X163460568Y-86609778D01*
X163460571Y-86609782D01*
X163539517Y-86688728D01*
X163539521Y-86688731D01*
X163539523Y-86688733D01*
X163639014Y-86739426D01*
X163639016Y-86739426D01*
X163639018Y-86739427D01*
X163749298Y-86756894D01*
X163749300Y-86756894D01*
X163749302Y-86756894D01*
X163859581Y-86739427D01*
X163859581Y-86739426D01*
X163859586Y-86739426D01*
X163959077Y-86688733D01*
X163959082Y-86688728D01*
X164036969Y-86610842D01*
X164098292Y-86577357D01*
X164167984Y-86582341D01*
X164212331Y-86610842D01*
X164290217Y-86688728D01*
X164290221Y-86688731D01*
X164290223Y-86688733D01*
X164389714Y-86739426D01*
X164389716Y-86739426D01*
X164389718Y-86739427D01*
X164499998Y-86756894D01*
X164500000Y-86756894D01*
X164500002Y-86756894D01*
X164610281Y-86739427D01*
X164610281Y-86739426D01*
X164610286Y-86739426D01*
X164687660Y-86700002D01*
X172543106Y-86700002D01*
X172560572Y-86810281D01*
X172560573Y-86810284D01*
X172560574Y-86810286D01*
X172600187Y-86888031D01*
X172611268Y-86909778D01*
X172611271Y-86909782D01*
X172690217Y-86988728D01*
X172690221Y-86988731D01*
X172690223Y-86988733D01*
X172789714Y-87039426D01*
X172789716Y-87039426D01*
X172789718Y-87039427D01*
X172899998Y-87056894D01*
X172900000Y-87056894D01*
X172900002Y-87056894D01*
X173010281Y-87039427D01*
X173010281Y-87039426D01*
X173010286Y-87039426D01*
X173109777Y-86988733D01*
X173188733Y-86909777D01*
X173239426Y-86810286D01*
X173239617Y-86809082D01*
X173256894Y-86700002D01*
X173256894Y-86699997D01*
X173239427Y-86589718D01*
X173239426Y-86589716D01*
X173239426Y-86589714D01*
X173188733Y-86490223D01*
X173188731Y-86490221D01*
X173188728Y-86490217D01*
X173109782Y-86411271D01*
X173109778Y-86411268D01*
X173109777Y-86411267D01*
X173010286Y-86360574D01*
X173010284Y-86360573D01*
X173010281Y-86360572D01*
X172900002Y-86343106D01*
X172899998Y-86343106D01*
X172789718Y-86360572D01*
X172690221Y-86411268D01*
X172690217Y-86411271D01*
X172611271Y-86490217D01*
X172611268Y-86490221D01*
X172560572Y-86589718D01*
X172543106Y-86699997D01*
X172543106Y-86700002D01*
X164687660Y-86700002D01*
X164709777Y-86688733D01*
X164788733Y-86609777D01*
X164839426Y-86510286D01*
X164842795Y-86489014D01*
X164856894Y-86400002D01*
X164856894Y-86400000D01*
X164854088Y-86382286D01*
X164863041Y-86312995D01*
X164908036Y-86259542D01*
X164974787Y-86238901D01*
X164995956Y-86240414D01*
X165063463Y-86251107D01*
X165099999Y-86256894D01*
X165100000Y-86256894D01*
X165100002Y-86256894D01*
X165210281Y-86239427D01*
X165210281Y-86239426D01*
X165210286Y-86239426D01*
X165309777Y-86188733D01*
X165388733Y-86109777D01*
X165439426Y-86010286D01*
X165439427Y-86010281D01*
X165456894Y-85900002D01*
X165456894Y-85899997D01*
X165439428Y-85789724D01*
X165439427Y-85789721D01*
X165439426Y-85789714D01*
X165439422Y-85789707D01*
X165438301Y-85786256D01*
X165438173Y-85781800D01*
X165437900Y-85780075D01*
X165438122Y-85780039D01*
X165436300Y-85716415D01*
X165446195Y-85700002D01*
X174043106Y-85700002D01*
X174060572Y-85810281D01*
X174060573Y-85810284D01*
X174060574Y-85810286D01*
X174106287Y-85900003D01*
X174111268Y-85909778D01*
X174111271Y-85909782D01*
X174190217Y-85988728D01*
X174190221Y-85988731D01*
X174190223Y-85988733D01*
X174289714Y-86039426D01*
X174289716Y-86039426D01*
X174289718Y-86039427D01*
X174399998Y-86056894D01*
X174400000Y-86056894D01*
X174400002Y-86056894D01*
X174510281Y-86039427D01*
X174510281Y-86039426D01*
X174510286Y-86039426D01*
X174609777Y-85988733D01*
X174688733Y-85909777D01*
X174739426Y-85810286D01*
X174742684Y-85789718D01*
X174756894Y-85700002D01*
X174756894Y-85699997D01*
X174739427Y-85589718D01*
X174739426Y-85589716D01*
X174739426Y-85589714D01*
X174688733Y-85490223D01*
X174688731Y-85490221D01*
X174688728Y-85490217D01*
X174609782Y-85411271D01*
X174609778Y-85411268D01*
X174609777Y-85411267D01*
X174510286Y-85360574D01*
X174510284Y-85360573D01*
X174510281Y-85360572D01*
X174400002Y-85343106D01*
X174399998Y-85343106D01*
X174289718Y-85360572D01*
X174190221Y-85411268D01*
X174190217Y-85411271D01*
X174111271Y-85490217D01*
X174111268Y-85490221D01*
X174111267Y-85490223D01*
X174074056Y-85563255D01*
X174060572Y-85589718D01*
X174043106Y-85699997D01*
X174043106Y-85700002D01*
X165446195Y-85700002D01*
X165472375Y-85656579D01*
X165535073Y-85625745D01*
X165579751Y-85628942D01*
X165580075Y-85626900D01*
X165699998Y-85645894D01*
X165700000Y-85645894D01*
X165700002Y-85645894D01*
X165810281Y-85628427D01*
X165810281Y-85628426D01*
X165810286Y-85628426D01*
X165909777Y-85577733D01*
X165988733Y-85498777D01*
X166039426Y-85399286D01*
X166045604Y-85360281D01*
X166056894Y-85289002D01*
X166056894Y-85288997D01*
X166050718Y-85250002D01*
X166492406Y-85250002D01*
X166509872Y-85360281D01*
X166509873Y-85360284D01*
X166509874Y-85360286D01*
X166560567Y-85459777D01*
X166560568Y-85459778D01*
X166560571Y-85459782D01*
X166639517Y-85538728D01*
X166639521Y-85538731D01*
X166639523Y-85538733D01*
X166739014Y-85589426D01*
X166739016Y-85589426D01*
X166739018Y-85589427D01*
X166849298Y-85606894D01*
X166849300Y-85606894D01*
X166849302Y-85606894D01*
X166959581Y-85589427D01*
X166959581Y-85589426D01*
X166959586Y-85589426D01*
X167059077Y-85538733D01*
X167138033Y-85459777D01*
X167188726Y-85360286D01*
X167200017Y-85289000D01*
X167206194Y-85250002D01*
X167206194Y-85249997D01*
X167188727Y-85139718D01*
X167188726Y-85139716D01*
X167188726Y-85139714D01*
X167138033Y-85040223D01*
X167138031Y-85040221D01*
X167138028Y-85040217D01*
X167059082Y-84961271D01*
X167059078Y-84961268D01*
X167059077Y-84961267D01*
X166959586Y-84910574D01*
X166959584Y-84910573D01*
X166959581Y-84910572D01*
X166849302Y-84893106D01*
X166849298Y-84893106D01*
X166739018Y-84910572D01*
X166639521Y-84961268D01*
X166639517Y-84961271D01*
X166560571Y-85040217D01*
X166560568Y-85040221D01*
X166509872Y-85139718D01*
X166492406Y-85249997D01*
X166492406Y-85250002D01*
X166050718Y-85250002D01*
X166039427Y-85178718D01*
X166039426Y-85178716D01*
X166039426Y-85178714D01*
X165988733Y-85079223D01*
X165988731Y-85079221D01*
X165988728Y-85079217D01*
X165909782Y-85000271D01*
X165909778Y-85000268D01*
X165909777Y-85000267D01*
X165810286Y-84949574D01*
X165810284Y-84949573D01*
X165810281Y-84949572D01*
X165700002Y-84932106D01*
X165699998Y-84932106D01*
X165589718Y-84949572D01*
X165490221Y-85000268D01*
X165490217Y-85000271D01*
X165411271Y-85079217D01*
X165411268Y-85079221D01*
X165411267Y-85079223D01*
X165369964Y-85160286D01*
X165360572Y-85178718D01*
X165343106Y-85288997D01*
X165343106Y-85289002D01*
X165360573Y-85399284D01*
X165361699Y-85402749D01*
X165361826Y-85407197D01*
X165362100Y-85408925D01*
X165361876Y-85408960D01*
X165363698Y-85472590D01*
X165327620Y-85532424D01*
X165264920Y-85563255D01*
X165220248Y-85560060D01*
X165219925Y-85562100D01*
X165100002Y-85543106D01*
X165099998Y-85543106D01*
X164989718Y-85560572D01*
X164890221Y-85611268D01*
X164890217Y-85611271D01*
X164811271Y-85690217D01*
X164811268Y-85690221D01*
X164760572Y-85789718D01*
X164743106Y-85899997D01*
X164743106Y-85900003D01*
X164745911Y-85917714D01*
X164736956Y-85987007D01*
X164691960Y-86040459D01*
X164625208Y-86061098D01*
X164604040Y-86059584D01*
X164500002Y-86043106D01*
X164499998Y-86043106D01*
X164389718Y-86060572D01*
X164290221Y-86111268D01*
X164290217Y-86111271D01*
X164212331Y-86189158D01*
X164151008Y-86222643D01*
X164081316Y-86217659D01*
X164036969Y-86189158D01*
X163959082Y-86111271D01*
X163959078Y-86111268D01*
X163959077Y-86111267D01*
X163859586Y-86060574D01*
X163859584Y-86060573D01*
X163859581Y-86060572D01*
X163749302Y-86043106D01*
X163749298Y-86043106D01*
X163639018Y-86060572D01*
X163539521Y-86111268D01*
X163539517Y-86111271D01*
X163460571Y-86190217D01*
X163460568Y-86190221D01*
X163409872Y-86289718D01*
X163392406Y-86399997D01*
X163392406Y-86400002D01*
X161044072Y-86400002D01*
X161038733Y-86389523D01*
X161038731Y-86389521D01*
X161038728Y-86389517D01*
X160959782Y-86310571D01*
X160959778Y-86310568D01*
X160959777Y-86310567D01*
X160860286Y-86259874D01*
X160860284Y-86259873D01*
X160860281Y-86259872D01*
X160750002Y-86242406D01*
X160749998Y-86242406D01*
X160639718Y-86259872D01*
X160540221Y-86310568D01*
X160540217Y-86310571D01*
X160461271Y-86389517D01*
X160461268Y-86389521D01*
X160410572Y-86489018D01*
X160393106Y-86599297D01*
X160393106Y-86599302D01*
X150622500Y-86599302D01*
X150622500Y-86106002D01*
X151154106Y-86106002D01*
X151171572Y-86216281D01*
X151171573Y-86216284D01*
X151171574Y-86216286D01*
X151220850Y-86312995D01*
X151222268Y-86315778D01*
X151222271Y-86315782D01*
X151301217Y-86394728D01*
X151301221Y-86394731D01*
X151301223Y-86394733D01*
X151400714Y-86445426D01*
X151400716Y-86445426D01*
X151400718Y-86445427D01*
X151510998Y-86462894D01*
X151511000Y-86462894D01*
X151511002Y-86462894D01*
X151621281Y-86445427D01*
X151621281Y-86445426D01*
X151621286Y-86445426D01*
X151720777Y-86394733D01*
X151799733Y-86315777D01*
X151850426Y-86216286D01*
X151854554Y-86190223D01*
X151867894Y-86106002D01*
X151867894Y-86105997D01*
X151850427Y-85995718D01*
X151850426Y-85995716D01*
X151850426Y-85995714D01*
X151799733Y-85896223D01*
X151799731Y-85896221D01*
X151799728Y-85896217D01*
X151753511Y-85850000D01*
X158467407Y-85850000D01*
X158484448Y-85946649D01*
X158484450Y-85946654D01*
X158533521Y-86031648D01*
X158608697Y-86094729D01*
X158608700Y-86094730D01*
X158608703Y-86094733D01*
X158700928Y-86128300D01*
X158700930Y-86128300D01*
X158799070Y-86128300D01*
X158799072Y-86128300D01*
X158891297Y-86094733D01*
X158933186Y-86059584D01*
X158966478Y-86031648D01*
X158966479Y-86031647D01*
X159015551Y-85946652D01*
X159032593Y-85850000D01*
X159015551Y-85753348D01*
X158966479Y-85668353D01*
X158966478Y-85668351D01*
X158891302Y-85605270D01*
X158891298Y-85605268D01*
X158891297Y-85605267D01*
X158799072Y-85571700D01*
X158700928Y-85571700D01*
X158608704Y-85605267D01*
X158608703Y-85605267D01*
X158608702Y-85605268D01*
X158533523Y-85668351D01*
X158533518Y-85668356D01*
X158484450Y-85753345D01*
X158484448Y-85753350D01*
X158467407Y-85849999D01*
X158467407Y-85850000D01*
X151753511Y-85850000D01*
X151720782Y-85817271D01*
X151720778Y-85817268D01*
X151720777Y-85817267D01*
X151621286Y-85766574D01*
X151621284Y-85766573D01*
X151621281Y-85766572D01*
X151511002Y-85749106D01*
X151510998Y-85749106D01*
X151400718Y-85766572D01*
X151301221Y-85817268D01*
X151301217Y-85817271D01*
X151222271Y-85896217D01*
X151222268Y-85896221D01*
X151171572Y-85995718D01*
X151154106Y-86105997D01*
X151154106Y-86106002D01*
X150622500Y-86106002D01*
X150622500Y-84455002D01*
X151154106Y-84455002D01*
X151171572Y-84565281D01*
X151171573Y-84565284D01*
X151171574Y-84565286D01*
X151222267Y-84664777D01*
X151222268Y-84664778D01*
X151222271Y-84664782D01*
X151301217Y-84743728D01*
X151301221Y-84743731D01*
X151301223Y-84743733D01*
X151400714Y-84794426D01*
X151400716Y-84794426D01*
X151400718Y-84794427D01*
X151510998Y-84811894D01*
X151511000Y-84811894D01*
X151511002Y-84811894D01*
X151621281Y-84794427D01*
X151621281Y-84794426D01*
X151621286Y-84794426D01*
X151720777Y-84743733D01*
X151799733Y-84664777D01*
X151850426Y-84565286D01*
X151854632Y-84538731D01*
X151867894Y-84455002D01*
X151867894Y-84454997D01*
X151850427Y-84344718D01*
X151850426Y-84344716D01*
X151850426Y-84344714D01*
X151799733Y-84245223D01*
X151799731Y-84245221D01*
X151799728Y-84245217D01*
X151720782Y-84166271D01*
X151720778Y-84166268D01*
X151720777Y-84166267D01*
X151621286Y-84115574D01*
X151621284Y-84115573D01*
X151621281Y-84115572D01*
X151527393Y-84100702D01*
X160097608Y-84100702D01*
X160115074Y-84210981D01*
X160115075Y-84210984D01*
X160115076Y-84210986D01*
X160160431Y-84300000D01*
X160165770Y-84310478D01*
X160165773Y-84310482D01*
X160244719Y-84389428D01*
X160244723Y-84389431D01*
X160244725Y-84389433D01*
X160344216Y-84440126D01*
X160344218Y-84440126D01*
X160344220Y-84440127D01*
X160454500Y-84457594D01*
X160454502Y-84457594D01*
X160454504Y-84457594D01*
X160564783Y-84440127D01*
X160564783Y-84440126D01*
X160564788Y-84440126D01*
X160664279Y-84389433D01*
X160743235Y-84310477D01*
X160774048Y-84250002D01*
X161043806Y-84250002D01*
X161061272Y-84360281D01*
X161061273Y-84360284D01*
X161061274Y-84360286D01*
X161110855Y-84457594D01*
X161111968Y-84459778D01*
X161111971Y-84459782D01*
X161190917Y-84538728D01*
X161190921Y-84538731D01*
X161190923Y-84538733D01*
X161252057Y-84569882D01*
X161302851Y-84617853D01*
X161319647Y-84685674D01*
X161297111Y-84751809D01*
X161283443Y-84768046D01*
X161211268Y-84840221D01*
X161160572Y-84939718D01*
X161143106Y-85049997D01*
X161143106Y-85050002D01*
X161160572Y-85160281D01*
X161160573Y-85160284D01*
X161160574Y-85160286D01*
X161211267Y-85259777D01*
X161211268Y-85259778D01*
X161211271Y-85259782D01*
X161290217Y-85338728D01*
X161290221Y-85338731D01*
X161290223Y-85338733D01*
X161389714Y-85389426D01*
X161389716Y-85389426D01*
X161389718Y-85389427D01*
X161499998Y-85406894D01*
X161500000Y-85406894D01*
X161500002Y-85406894D01*
X161610281Y-85389427D01*
X161610281Y-85389426D01*
X161610286Y-85389426D01*
X161709777Y-85338733D01*
X161788733Y-85259777D01*
X161839426Y-85160286D01*
X161842684Y-85139718D01*
X161856894Y-85050002D01*
X161856894Y-85049997D01*
X161839427Y-84939718D01*
X161839426Y-84939716D01*
X161839426Y-84939714D01*
X161788733Y-84840223D01*
X161788731Y-84840221D01*
X161788728Y-84840217D01*
X161709782Y-84761271D01*
X161709776Y-84761266D01*
X161675364Y-84743733D01*
X161648642Y-84730117D01*
X161597848Y-84682145D01*
X161581052Y-84614324D01*
X161603589Y-84548189D01*
X161617251Y-84531958D01*
X161689433Y-84459777D01*
X161740126Y-84360286D01*
X161742592Y-84344718D01*
X161749675Y-84300002D01*
X173743106Y-84300002D01*
X173760572Y-84410281D01*
X173760573Y-84410284D01*
X173760574Y-84410286D01*
X173811267Y-84509777D01*
X173811268Y-84509778D01*
X173811271Y-84509782D01*
X173890217Y-84588728D01*
X173890221Y-84588731D01*
X173890223Y-84588733D01*
X173989714Y-84639426D01*
X173989716Y-84639426D01*
X173989718Y-84639427D01*
X174099998Y-84656894D01*
X174100000Y-84656894D01*
X174100002Y-84656894D01*
X174210281Y-84639427D01*
X174210281Y-84639426D01*
X174210286Y-84639426D01*
X174309777Y-84588733D01*
X174388733Y-84509777D01*
X174439426Y-84410286D01*
X174442730Y-84389428D01*
X174456894Y-84300002D01*
X174456894Y-84299997D01*
X174439427Y-84189718D01*
X174439426Y-84189716D01*
X174439426Y-84189714D01*
X174388733Y-84090223D01*
X174388731Y-84090221D01*
X174388728Y-84090217D01*
X174309782Y-84011271D01*
X174309779Y-84011269D01*
X174309777Y-84011267D01*
X174308241Y-84010484D01*
X174306714Y-84009042D01*
X174301885Y-84005534D01*
X174302338Y-84004909D01*
X174257446Y-83962514D01*
X174240649Y-83894694D01*
X174263184Y-83828558D01*
X174302133Y-83794807D01*
X174301885Y-83794466D01*
X174305863Y-83791575D01*
X174308240Y-83789515D01*
X174309777Y-83788733D01*
X174388733Y-83709777D01*
X174439426Y-83610286D01*
X174454531Y-83514921D01*
X174456894Y-83500002D01*
X174456894Y-83499997D01*
X174439427Y-83389718D01*
X174439426Y-83389716D01*
X174439426Y-83389714D01*
X174388733Y-83290223D01*
X174388731Y-83290221D01*
X174388728Y-83290217D01*
X174309782Y-83211271D01*
X174309778Y-83211268D01*
X174309777Y-83211267D01*
X174210286Y-83160574D01*
X174210284Y-83160573D01*
X174210281Y-83160572D01*
X174100002Y-83143106D01*
X174099998Y-83143106D01*
X173989718Y-83160572D01*
X173890221Y-83211268D01*
X173890217Y-83211271D01*
X173811271Y-83290217D01*
X173811268Y-83290221D01*
X173760572Y-83389718D01*
X173743106Y-83499997D01*
X173743106Y-83500002D01*
X173760572Y-83610281D01*
X173760573Y-83610284D01*
X173760574Y-83610286D01*
X173811267Y-83709777D01*
X173811268Y-83709778D01*
X173811271Y-83709782D01*
X173890217Y-83788728D01*
X173890219Y-83788729D01*
X173890223Y-83788733D01*
X173891760Y-83789516D01*
X173893288Y-83790959D01*
X173898115Y-83794466D01*
X173897661Y-83795089D01*
X173942555Y-83837490D01*
X173959350Y-83905311D01*
X173936812Y-83971446D01*
X173897866Y-84005192D01*
X173898115Y-84005534D01*
X173894140Y-84008421D01*
X173891760Y-84010483D01*
X173890223Y-84011267D01*
X173890222Y-84011268D01*
X173890217Y-84011271D01*
X173811271Y-84090217D01*
X173811268Y-84090221D01*
X173760572Y-84189718D01*
X173743106Y-84299997D01*
X173743106Y-84300002D01*
X161749675Y-84300002D01*
X161757594Y-84250002D01*
X161757594Y-84249997D01*
X161740127Y-84139718D01*
X161740126Y-84139716D01*
X161740126Y-84139714D01*
X161689433Y-84040223D01*
X161689431Y-84040221D01*
X161689428Y-84040217D01*
X161610482Y-83961271D01*
X161610478Y-83961268D01*
X161610477Y-83961267D01*
X161510986Y-83910574D01*
X161510984Y-83910573D01*
X161510981Y-83910572D01*
X161400702Y-83893106D01*
X161400698Y-83893106D01*
X161290418Y-83910572D01*
X161190921Y-83961268D01*
X161190917Y-83961271D01*
X161111971Y-84040217D01*
X161111968Y-84040221D01*
X161061272Y-84139718D01*
X161043806Y-84249997D01*
X161043806Y-84250002D01*
X160774048Y-84250002D01*
X160793928Y-84210986D01*
X160797297Y-84189714D01*
X160811396Y-84100702D01*
X160811396Y-84100697D01*
X160793929Y-83990418D01*
X160793928Y-83990416D01*
X160793928Y-83990414D01*
X160743235Y-83890923D01*
X160743233Y-83890921D01*
X160743230Y-83890917D01*
X160664284Y-83811971D01*
X160664280Y-83811968D01*
X160664279Y-83811967D01*
X160564788Y-83761274D01*
X160564786Y-83761273D01*
X160564783Y-83761272D01*
X160454504Y-83743806D01*
X160454500Y-83743806D01*
X160344220Y-83761272D01*
X160244723Y-83811968D01*
X160244719Y-83811971D01*
X160165773Y-83890917D01*
X160165770Y-83890921D01*
X160115074Y-83990418D01*
X160097608Y-84100697D01*
X160097608Y-84100702D01*
X151527393Y-84100702D01*
X151511002Y-84098106D01*
X151510998Y-84098106D01*
X151400718Y-84115572D01*
X151301221Y-84166268D01*
X151301217Y-84166271D01*
X151222271Y-84245217D01*
X151222268Y-84245221D01*
X151171572Y-84344718D01*
X151154106Y-84454997D01*
X151154106Y-84455002D01*
X150622500Y-84455002D01*
X150622500Y-83611328D01*
X162441206Y-83611328D01*
X162458672Y-83721607D01*
X162458673Y-83721610D01*
X162458674Y-83721612D01*
X162509367Y-83821103D01*
X162509368Y-83821104D01*
X162509371Y-83821108D01*
X162588317Y-83900054D01*
X162588321Y-83900057D01*
X162588323Y-83900059D01*
X162687814Y-83950752D01*
X162687816Y-83950752D01*
X162687818Y-83950753D01*
X162798098Y-83968220D01*
X162798100Y-83968220D01*
X162798102Y-83968220D01*
X162908381Y-83950753D01*
X162908381Y-83950752D01*
X162908386Y-83950752D01*
X163007877Y-83900059D01*
X163086833Y-83821103D01*
X163137526Y-83721612D01*
X163139400Y-83709782D01*
X163154994Y-83611328D01*
X163154994Y-83611325D01*
X163147508Y-83564068D01*
X163137526Y-83501040D01*
X163137525Y-83501039D01*
X163137375Y-83500088D01*
X163146329Y-83430794D01*
X163168348Y-83404637D01*
X164291777Y-83404637D01*
X164309243Y-83514916D01*
X164309244Y-83514919D01*
X164309245Y-83514921D01*
X164358366Y-83611326D01*
X164359939Y-83614413D01*
X164359942Y-83614417D01*
X164438888Y-83693363D01*
X164438892Y-83693366D01*
X164438894Y-83693368D01*
X164538385Y-83744061D01*
X164538387Y-83744061D01*
X164538389Y-83744062D01*
X164648669Y-83761529D01*
X164648671Y-83761529D01*
X164648673Y-83761529D01*
X164758952Y-83744062D01*
X164758952Y-83744061D01*
X164758957Y-83744061D01*
X164858448Y-83693368D01*
X164937404Y-83614412D01*
X164944746Y-83600002D01*
X166492406Y-83600002D01*
X166509872Y-83710281D01*
X166509873Y-83710284D01*
X166509874Y-83710286D01*
X166560567Y-83809777D01*
X166560568Y-83809778D01*
X166560571Y-83809782D01*
X166639517Y-83888728D01*
X166639521Y-83888731D01*
X166639523Y-83888733D01*
X166739014Y-83939426D01*
X166739016Y-83939426D01*
X166739018Y-83939427D01*
X166849298Y-83956894D01*
X166849300Y-83956894D01*
X166849302Y-83956894D01*
X166959581Y-83939427D01*
X166959581Y-83939426D01*
X166959586Y-83939426D01*
X167059077Y-83888733D01*
X167138033Y-83809777D01*
X167188726Y-83710286D01*
X167188806Y-83709782D01*
X167206194Y-83600002D01*
X167206194Y-83599997D01*
X167188727Y-83489718D01*
X167188726Y-83489716D01*
X167188726Y-83489714D01*
X167138033Y-83390223D01*
X167138031Y-83390221D01*
X167138028Y-83390217D01*
X167059082Y-83311271D01*
X167059078Y-83311268D01*
X167059077Y-83311267D01*
X166959586Y-83260574D01*
X166959584Y-83260573D01*
X166959581Y-83260572D01*
X166849302Y-83243106D01*
X166849298Y-83243106D01*
X166739018Y-83260572D01*
X166639521Y-83311268D01*
X166639517Y-83311271D01*
X166560571Y-83390217D01*
X166560568Y-83390221D01*
X166509872Y-83489718D01*
X166492406Y-83599997D01*
X166492406Y-83600002D01*
X164944746Y-83600002D01*
X164988097Y-83514921D01*
X164990296Y-83501040D01*
X165005565Y-83404637D01*
X165005565Y-83404632D01*
X164988098Y-83294353D01*
X164988097Y-83294351D01*
X164988097Y-83294349D01*
X164937404Y-83194858D01*
X164937402Y-83194856D01*
X164937399Y-83194852D01*
X164858453Y-83115906D01*
X164858449Y-83115903D01*
X164858448Y-83115902D01*
X164758957Y-83065209D01*
X164758955Y-83065208D01*
X164758952Y-83065207D01*
X164648673Y-83047741D01*
X164648669Y-83047741D01*
X164538389Y-83065207D01*
X164438892Y-83115903D01*
X164438888Y-83115906D01*
X164359942Y-83194852D01*
X164359939Y-83194856D01*
X164359938Y-83194858D01*
X164312107Y-83288733D01*
X164309243Y-83294353D01*
X164291777Y-83404632D01*
X164291777Y-83404637D01*
X163168348Y-83404637D01*
X163191325Y-83377342D01*
X163240451Y-83358216D01*
X163248798Y-83356893D01*
X163248800Y-83356894D01*
X163317322Y-83346040D01*
X163359081Y-83339427D01*
X163359081Y-83339426D01*
X163359086Y-83339426D01*
X163458577Y-83288733D01*
X163537533Y-83209777D01*
X163588226Y-83110286D01*
X163588227Y-83110281D01*
X163605694Y-83000002D01*
X163605694Y-82999997D01*
X163588227Y-82889718D01*
X163588226Y-82889716D01*
X163588226Y-82889714D01*
X163537533Y-82790223D01*
X163537530Y-82790220D01*
X163534807Y-82784875D01*
X163521911Y-82716206D01*
X163521994Y-82716002D01*
X169423106Y-82716002D01*
X169440572Y-82826281D01*
X169440573Y-82826284D01*
X169440574Y-82826286D01*
X169473181Y-82890281D01*
X169491268Y-82925778D01*
X169491271Y-82925782D01*
X169570217Y-83004728D01*
X169570221Y-83004731D01*
X169570223Y-83004733D01*
X169669714Y-83055426D01*
X169669716Y-83055426D01*
X169669718Y-83055427D01*
X169779998Y-83072894D01*
X169780000Y-83072894D01*
X169780002Y-83072894D01*
X169890281Y-83055427D01*
X169890281Y-83055426D01*
X169890286Y-83055426D01*
X169989777Y-83004733D01*
X170068733Y-82925777D01*
X170119426Y-82826286D01*
X170125138Y-82790223D01*
X170136894Y-82716002D01*
X170136894Y-82715997D01*
X170119427Y-82605718D01*
X170119426Y-82605716D01*
X170119426Y-82605714D01*
X170068733Y-82506223D01*
X170068731Y-82506221D01*
X170068728Y-82506217D01*
X169989782Y-82427271D01*
X169989778Y-82427268D01*
X169989777Y-82427267D01*
X169890286Y-82376574D01*
X169890284Y-82376573D01*
X169890281Y-82376572D01*
X169780002Y-82359106D01*
X169779998Y-82359106D01*
X169669718Y-82376572D01*
X169570221Y-82427268D01*
X169570217Y-82427271D01*
X169491271Y-82506217D01*
X169491268Y-82506221D01*
X169491267Y-82506223D01*
X169458658Y-82570223D01*
X169440572Y-82605718D01*
X169423106Y-82715997D01*
X169423106Y-82716002D01*
X163521994Y-82716002D01*
X163548187Y-82651465D01*
X163557603Y-82640906D01*
X163578733Y-82619777D01*
X163629426Y-82520286D01*
X163629506Y-82519782D01*
X163646894Y-82410002D01*
X163646894Y-82409997D01*
X163629427Y-82299718D01*
X163629426Y-82299716D01*
X163629426Y-82299714D01*
X163578733Y-82200223D01*
X163578731Y-82200221D01*
X163578728Y-82200217D01*
X163573902Y-82195391D01*
X163540417Y-82134068D01*
X163545401Y-82064376D01*
X163573902Y-82020029D01*
X163616444Y-81977488D01*
X163667137Y-81877997D01*
X163669077Y-81865750D01*
X168790536Y-81865750D01*
X168808002Y-81976029D01*
X168808003Y-81976032D01*
X168808004Y-81976034D01*
X168858697Y-82075525D01*
X168858698Y-82075526D01*
X168858701Y-82075530D01*
X168937647Y-82154476D01*
X168937651Y-82154479D01*
X168937653Y-82154481D01*
X169037144Y-82205174D01*
X169037146Y-82205174D01*
X169037148Y-82205175D01*
X169147428Y-82222642D01*
X169147430Y-82222642D01*
X169147432Y-82222642D01*
X169257711Y-82205175D01*
X169257711Y-82205174D01*
X169257716Y-82205174D01*
X169357207Y-82154481D01*
X169436163Y-82075525D01*
X169486856Y-81976034D01*
X169504324Y-81865748D01*
X169488796Y-81767713D01*
X169486857Y-81755466D01*
X169486856Y-81755464D01*
X169486856Y-81755462D01*
X169436163Y-81655971D01*
X169436161Y-81655969D01*
X169436158Y-81655965D01*
X169357212Y-81577019D01*
X169357208Y-81577016D01*
X169357207Y-81577015D01*
X169257716Y-81526322D01*
X169257714Y-81526321D01*
X169257711Y-81526320D01*
X169147432Y-81508854D01*
X169147428Y-81508854D01*
X169037148Y-81526320D01*
X168937651Y-81577016D01*
X168937647Y-81577019D01*
X168858701Y-81655965D01*
X168858698Y-81655969D01*
X168808002Y-81755466D01*
X168790536Y-81865745D01*
X168790536Y-81865750D01*
X163669077Y-81865750D01*
X163684605Y-81767711D01*
X163667137Y-81657425D01*
X163616444Y-81557934D01*
X163616442Y-81557932D01*
X163616439Y-81557928D01*
X163537493Y-81478982D01*
X163537489Y-81478979D01*
X163537488Y-81478978D01*
X163437997Y-81428285D01*
X163437995Y-81428284D01*
X163437992Y-81428283D01*
X163327713Y-81410817D01*
X163327709Y-81410817D01*
X163217429Y-81428283D01*
X163117932Y-81478979D01*
X163117928Y-81478982D01*
X163038982Y-81557928D01*
X163038979Y-81557932D01*
X162988283Y-81657429D01*
X162970817Y-81767708D01*
X162970817Y-81767713D01*
X162988283Y-81877992D01*
X162988284Y-81877995D01*
X162988285Y-81877997D01*
X163038978Y-81977488D01*
X163038979Y-81977489D01*
X163038982Y-81977493D01*
X163043808Y-81982319D01*
X163077293Y-82043642D01*
X163072309Y-82113334D01*
X163043808Y-82157681D01*
X163001271Y-82200217D01*
X163001268Y-82200221D01*
X162950572Y-82299718D01*
X162933106Y-82409997D01*
X162933106Y-82410002D01*
X162950572Y-82520283D01*
X163003992Y-82625125D01*
X163016888Y-82693794D01*
X162990611Y-82758534D01*
X162981190Y-82769099D01*
X162960068Y-82790221D01*
X162909372Y-82889718D01*
X162891906Y-82999997D01*
X162891906Y-83000002D01*
X162909524Y-83111238D01*
X162900569Y-83180532D01*
X162855573Y-83233984D01*
X162806449Y-83253109D01*
X162687818Y-83271898D01*
X162588321Y-83322594D01*
X162588317Y-83322597D01*
X162509371Y-83401543D01*
X162509368Y-83401547D01*
X162458672Y-83501044D01*
X162441206Y-83611323D01*
X162441206Y-83611328D01*
X150622500Y-83611328D01*
X150622500Y-82780002D01*
X156363106Y-82780002D01*
X156380572Y-82890281D01*
X156380573Y-82890284D01*
X156380574Y-82890286D01*
X156431267Y-82989777D01*
X156431268Y-82989778D01*
X156431271Y-82989782D01*
X156510217Y-83068728D01*
X156510221Y-83068731D01*
X156510223Y-83068733D01*
X156609714Y-83119426D01*
X156609716Y-83119426D01*
X156609718Y-83119427D01*
X156719998Y-83136894D01*
X156720000Y-83136894D01*
X156720002Y-83136894D01*
X156830281Y-83119427D01*
X156830281Y-83119426D01*
X156830286Y-83119426D01*
X156929777Y-83068733D01*
X156998508Y-83000002D01*
X157523106Y-83000002D01*
X157540572Y-83110281D01*
X157540573Y-83110284D01*
X157540574Y-83110286D01*
X157591267Y-83209777D01*
X157591268Y-83209778D01*
X157591271Y-83209782D01*
X157670217Y-83288728D01*
X157670221Y-83288731D01*
X157670223Y-83288733D01*
X157769714Y-83339426D01*
X157769716Y-83339426D01*
X157769718Y-83339427D01*
X157879998Y-83356894D01*
X157880000Y-83356894D01*
X157880002Y-83356894D01*
X157990281Y-83339427D01*
X157990281Y-83339426D01*
X157990286Y-83339426D01*
X158089777Y-83288733D01*
X158168733Y-83209777D01*
X158219426Y-83110286D01*
X158219427Y-83110281D01*
X158236894Y-83000002D01*
X158236894Y-82999997D01*
X158219427Y-82889718D01*
X158219426Y-82889716D01*
X158219426Y-82889714D01*
X158168733Y-82790223D01*
X158168731Y-82790221D01*
X158168728Y-82790217D01*
X158089782Y-82711271D01*
X158089778Y-82711268D01*
X158089777Y-82711267D01*
X157990286Y-82660574D01*
X157990284Y-82660573D01*
X157990281Y-82660572D01*
X157880002Y-82643106D01*
X157879998Y-82643106D01*
X157769718Y-82660572D01*
X157670221Y-82711268D01*
X157670217Y-82711271D01*
X157591271Y-82790217D01*
X157591268Y-82790221D01*
X157540572Y-82889718D01*
X157523106Y-82999997D01*
X157523106Y-83000002D01*
X156998508Y-83000002D01*
X157008733Y-82989777D01*
X157059426Y-82890286D01*
X157076894Y-82780000D01*
X157075167Y-82769099D01*
X157059427Y-82669718D01*
X157059426Y-82669716D01*
X157059426Y-82669714D01*
X157008733Y-82570223D01*
X157008731Y-82570221D01*
X157008728Y-82570217D01*
X156929782Y-82491271D01*
X156929778Y-82491268D01*
X156929777Y-82491267D01*
X156830286Y-82440574D01*
X156830284Y-82440573D01*
X156830281Y-82440572D01*
X156720002Y-82423106D01*
X156719998Y-82423106D01*
X156609718Y-82440572D01*
X156510221Y-82491268D01*
X156510217Y-82491271D01*
X156431271Y-82570217D01*
X156431268Y-82570221D01*
X156380572Y-82669718D01*
X156363106Y-82779997D01*
X156363106Y-82780002D01*
X150622500Y-82780002D01*
X150622500Y-82310002D01*
X160193106Y-82310002D01*
X160210572Y-82420281D01*
X160210573Y-82420284D01*
X160210574Y-82420286D01*
X160246743Y-82491271D01*
X160261268Y-82519778D01*
X160261271Y-82519782D01*
X160340217Y-82598728D01*
X160340221Y-82598731D01*
X160340223Y-82598733D01*
X160439714Y-82649426D01*
X160439716Y-82649426D01*
X160439718Y-82649427D01*
X160549998Y-82666894D01*
X160550000Y-82666894D01*
X160550002Y-82666894D01*
X160660281Y-82649427D01*
X160660281Y-82649426D01*
X160660286Y-82649426D01*
X160759777Y-82598733D01*
X160838733Y-82519777D01*
X160889426Y-82420286D01*
X160891056Y-82409997D01*
X160906894Y-82310002D01*
X160906894Y-82309997D01*
X160889427Y-82199718D01*
X160889426Y-82199716D01*
X160889426Y-82199714D01*
X160838733Y-82100223D01*
X160838731Y-82100221D01*
X160838728Y-82100217D01*
X160759782Y-82021271D01*
X160759778Y-82021268D01*
X160759777Y-82021267D01*
X160660286Y-81970574D01*
X160660284Y-81970573D01*
X160660281Y-81970572D01*
X160550002Y-81953106D01*
X160549998Y-81953106D01*
X160439718Y-81970572D01*
X160439714Y-81970573D01*
X160439714Y-81970574D01*
X160426137Y-81977492D01*
X160340221Y-82021268D01*
X160340217Y-82021271D01*
X160261271Y-82100217D01*
X160261268Y-82100221D01*
X160210572Y-82199718D01*
X160193106Y-82309997D01*
X160193106Y-82310002D01*
X150622500Y-82310002D01*
X150622500Y-81153002D01*
X151154106Y-81153002D01*
X151171572Y-81263281D01*
X151171573Y-81263284D01*
X151171574Y-81263286D01*
X151222267Y-81362777D01*
X151222268Y-81362778D01*
X151222271Y-81362782D01*
X151301217Y-81441728D01*
X151301221Y-81441731D01*
X151301223Y-81441733D01*
X151400714Y-81492426D01*
X151400716Y-81492426D01*
X151400718Y-81492427D01*
X151510998Y-81509894D01*
X151511000Y-81509894D01*
X151511002Y-81509894D01*
X151621281Y-81492427D01*
X151621281Y-81492426D01*
X151621286Y-81492426D01*
X151720777Y-81441733D01*
X151799733Y-81362777D01*
X151850426Y-81263286D01*
X151861252Y-81194938D01*
X161971786Y-81194938D01*
X161989252Y-81305217D01*
X161989253Y-81305220D01*
X161989254Y-81305222D01*
X162039947Y-81404713D01*
X162039948Y-81404714D01*
X162039951Y-81404718D01*
X162118897Y-81483664D01*
X162118901Y-81483667D01*
X162118903Y-81483669D01*
X162218394Y-81534362D01*
X162218396Y-81534362D01*
X162218398Y-81534363D01*
X162328678Y-81551830D01*
X162328680Y-81551830D01*
X162328682Y-81551830D01*
X162438961Y-81534363D01*
X162438961Y-81534362D01*
X162438966Y-81534362D01*
X162538457Y-81483669D01*
X162617413Y-81404713D01*
X162668106Y-81305222D01*
X162685574Y-81194936D01*
X162669577Y-81093937D01*
X162678531Y-81024644D01*
X162723527Y-80971192D01*
X162735742Y-80964061D01*
X162760289Y-80951555D01*
X162839245Y-80872599D01*
X162889938Y-80773108D01*
X162891409Y-80763820D01*
X162907406Y-80662824D01*
X162907406Y-80662819D01*
X162889939Y-80552540D01*
X162889938Y-80552538D01*
X162889938Y-80552536D01*
X162839245Y-80453045D01*
X162839243Y-80453043D01*
X162839240Y-80453039D01*
X162760294Y-80374093D01*
X162760290Y-80374090D01*
X162760289Y-80374089D01*
X162660798Y-80323396D01*
X162660796Y-80323395D01*
X162660793Y-80323394D01*
X162550514Y-80305928D01*
X162550510Y-80305928D01*
X162440230Y-80323394D01*
X162340733Y-80374090D01*
X162340729Y-80374093D01*
X162261783Y-80453039D01*
X162261780Y-80453043D01*
X162211084Y-80552540D01*
X162193618Y-80662819D01*
X162193618Y-80662824D01*
X162209614Y-80763820D01*
X162200659Y-80833114D01*
X162155663Y-80886566D01*
X162143437Y-80893702D01*
X162118904Y-80906202D01*
X162118897Y-80906207D01*
X162039951Y-80985153D01*
X162039948Y-80985157D01*
X161989252Y-81084654D01*
X161971786Y-81194933D01*
X161971786Y-81194938D01*
X151861252Y-81194938D01*
X151861252Y-81194935D01*
X151867894Y-81153002D01*
X151867894Y-81152997D01*
X151850427Y-81042718D01*
X151850426Y-81042716D01*
X151850426Y-81042714D01*
X151799733Y-80943223D01*
X151799731Y-80943221D01*
X151799728Y-80943217D01*
X151720782Y-80864271D01*
X151720778Y-80864268D01*
X151720777Y-80864267D01*
X151621286Y-80813574D01*
X151621284Y-80813573D01*
X151621281Y-80813572D01*
X151511002Y-80796106D01*
X151510998Y-80796106D01*
X151400718Y-80813572D01*
X151301221Y-80864268D01*
X151301217Y-80864271D01*
X151222271Y-80943217D01*
X151222268Y-80943221D01*
X151171572Y-81042718D01*
X151154106Y-81152997D01*
X151154106Y-81153002D01*
X150622500Y-81153002D01*
X150622500Y-80010000D01*
X158467407Y-80010000D01*
X158484448Y-80106649D01*
X158484450Y-80106654D01*
X158533521Y-80191648D01*
X158608697Y-80254729D01*
X158608700Y-80254730D01*
X158608703Y-80254733D01*
X158700928Y-80288300D01*
X158700930Y-80288300D01*
X158799070Y-80288300D01*
X158799072Y-80288300D01*
X158891297Y-80254733D01*
X158966479Y-80191647D01*
X159015551Y-80106652D01*
X159032593Y-80010000D01*
X159015551Y-79913348D01*
X158966479Y-79828353D01*
X158966478Y-79828351D01*
X158951932Y-79816145D01*
X160074607Y-79816145D01*
X160092073Y-79926424D01*
X160092074Y-79926427D01*
X160092075Y-79926429D01*
X160142768Y-80025920D01*
X160142769Y-80025921D01*
X160142772Y-80025925D01*
X160221718Y-80104871D01*
X160221722Y-80104874D01*
X160221724Y-80104876D01*
X160243327Y-80115883D01*
X160294122Y-80163856D01*
X160310917Y-80231677D01*
X160309504Y-80245765D01*
X160293106Y-80349297D01*
X160293106Y-80349302D01*
X160310572Y-80459581D01*
X160310573Y-80459584D01*
X160310574Y-80459586D01*
X160361267Y-80559077D01*
X160361268Y-80559078D01*
X160361271Y-80559082D01*
X160440217Y-80638028D01*
X160440221Y-80638031D01*
X160440223Y-80638033D01*
X160539714Y-80688726D01*
X160539716Y-80688726D01*
X160539718Y-80688727D01*
X160649998Y-80706194D01*
X160650000Y-80706194D01*
X160650002Y-80706194D01*
X160760281Y-80688727D01*
X160760281Y-80688726D01*
X160760286Y-80688726D01*
X160859777Y-80638033D01*
X160938733Y-80559077D01*
X160989426Y-80459586D01*
X160990462Y-80453045D01*
X161006894Y-80349302D01*
X161006894Y-80349297D01*
X160989427Y-80239018D01*
X160989426Y-80239016D01*
X160989426Y-80239014D01*
X160938733Y-80139523D01*
X160938731Y-80139521D01*
X160938728Y-80139517D01*
X160859782Y-80060571D01*
X160859778Y-80060568D01*
X160859777Y-80060567D01*
X160858272Y-80059800D01*
X160838173Y-80049559D01*
X160792054Y-80006000D01*
X168627407Y-80006000D01*
X168644448Y-80102649D01*
X168644450Y-80102654D01*
X168693521Y-80187648D01*
X168768697Y-80250729D01*
X168768700Y-80250730D01*
X168768703Y-80250733D01*
X168860928Y-80284300D01*
X168860930Y-80284300D01*
X168959070Y-80284300D01*
X168959072Y-80284300D01*
X169051297Y-80250733D01*
X169126479Y-80187647D01*
X169175551Y-80102652D01*
X169192593Y-80006000D01*
X169191814Y-80001584D01*
X169177372Y-79919676D01*
X169175551Y-79909348D01*
X169128790Y-79828356D01*
X169126478Y-79824351D01*
X169051302Y-79761270D01*
X169051298Y-79761268D01*
X169051297Y-79761267D01*
X168959072Y-79727700D01*
X168860928Y-79727700D01*
X168768704Y-79761267D01*
X168768703Y-79761267D01*
X168768702Y-79761268D01*
X168693523Y-79824351D01*
X168693518Y-79824356D01*
X168644450Y-79909345D01*
X168644448Y-79909350D01*
X168627407Y-80005999D01*
X168627407Y-80006000D01*
X160792054Y-80006000D01*
X160787378Y-80001584D01*
X160770583Y-79933763D01*
X160771994Y-79919686D01*
X160788395Y-79816143D01*
X160780337Y-79765270D01*
X160770928Y-79705861D01*
X160770927Y-79705859D01*
X160770927Y-79705857D01*
X160728011Y-79621630D01*
X160715116Y-79552964D01*
X160741392Y-79488223D01*
X160750808Y-79477664D01*
X160776321Y-79452152D01*
X160827014Y-79352661D01*
X160829636Y-79336101D01*
X160859564Y-79272968D01*
X160918875Y-79236035D01*
X160932713Y-79233025D01*
X160932795Y-79233011D01*
X160932796Y-79233012D01*
X160978263Y-79225810D01*
X161043077Y-79215545D01*
X161043077Y-79215544D01*
X161043082Y-79215544D01*
X161142573Y-79164851D01*
X161221529Y-79085895D01*
X161272222Y-78986404D01*
X161272395Y-78985314D01*
X161289690Y-78876120D01*
X161289690Y-78876115D01*
X161272223Y-78765836D01*
X161272222Y-78765834D01*
X161272222Y-78765832D01*
X161221529Y-78666341D01*
X161221527Y-78666339D01*
X161221524Y-78666335D01*
X161142578Y-78587389D01*
X161142574Y-78587386D01*
X161142573Y-78587385D01*
X161043082Y-78536692D01*
X161043080Y-78536691D01*
X161043077Y-78536690D01*
X160932798Y-78519224D01*
X160932794Y-78519224D01*
X160822514Y-78536690D01*
X160723017Y-78587386D01*
X160723013Y-78587389D01*
X160644067Y-78666335D01*
X160644064Y-78666339D01*
X160593368Y-78765835D01*
X160590746Y-78782394D01*
X160560815Y-78845528D01*
X160501503Y-78882458D01*
X160487671Y-78885467D01*
X160377306Y-78902947D01*
X160277809Y-78953643D01*
X160277805Y-78953646D01*
X160198859Y-79032592D01*
X160198856Y-79032596D01*
X160148160Y-79132093D01*
X160130694Y-79242372D01*
X160130694Y-79242377D01*
X160148160Y-79352658D01*
X160191076Y-79436885D01*
X160203972Y-79505554D01*
X160177695Y-79570294D01*
X160168274Y-79580859D01*
X160142769Y-79606364D01*
X160092073Y-79705861D01*
X160074607Y-79816140D01*
X160074607Y-79816145D01*
X158951932Y-79816145D01*
X158891302Y-79765270D01*
X158891298Y-79765268D01*
X158891297Y-79765267D01*
X158799072Y-79731700D01*
X158700928Y-79731700D01*
X158608704Y-79765267D01*
X158608703Y-79765267D01*
X158608702Y-79765268D01*
X158533523Y-79828351D01*
X158533518Y-79828356D01*
X158484450Y-79913345D01*
X158484448Y-79913350D01*
X158467407Y-80009999D01*
X158467407Y-80010000D01*
X150622500Y-80010000D01*
X150622500Y-79095602D01*
X151738306Y-79095602D01*
X151755772Y-79205881D01*
X151755773Y-79205884D01*
X151755774Y-79205886D01*
X151789954Y-79272968D01*
X151806468Y-79305378D01*
X151806471Y-79305382D01*
X151885417Y-79384328D01*
X151885421Y-79384331D01*
X151885423Y-79384333D01*
X151984914Y-79435026D01*
X151984916Y-79435026D01*
X151984918Y-79435027D01*
X152095198Y-79452494D01*
X152095200Y-79452494D01*
X152095202Y-79452494D01*
X152205481Y-79435027D01*
X152205481Y-79435026D01*
X152205486Y-79435026D01*
X152304977Y-79384333D01*
X152383933Y-79305377D01*
X152434626Y-79205886D01*
X152434627Y-79205881D01*
X152452094Y-79095602D01*
X152452094Y-79095597D01*
X152434627Y-78985318D01*
X152434626Y-78985316D01*
X152434626Y-78985314D01*
X152383933Y-78885823D01*
X152383931Y-78885821D01*
X152383928Y-78885817D01*
X152304982Y-78806871D01*
X152304978Y-78806868D01*
X152304977Y-78806867D01*
X152205486Y-78756174D01*
X152205484Y-78756173D01*
X152205481Y-78756172D01*
X152095202Y-78738706D01*
X152095198Y-78738706D01*
X151984918Y-78756172D01*
X151885421Y-78806868D01*
X151885417Y-78806871D01*
X151806471Y-78885817D01*
X151806468Y-78885821D01*
X151755772Y-78985318D01*
X151738306Y-79095597D01*
X151738306Y-79095602D01*
X150622500Y-79095602D01*
X150622500Y-78300002D01*
X168273106Y-78300002D01*
X168290572Y-78410281D01*
X168290573Y-78410284D01*
X168290574Y-78410286D01*
X168341267Y-78509777D01*
X168341268Y-78509778D01*
X168341271Y-78509782D01*
X168420217Y-78588728D01*
X168420221Y-78588731D01*
X168420223Y-78588733D01*
X168519714Y-78639426D01*
X168519716Y-78639426D01*
X168519718Y-78639427D01*
X168629998Y-78656894D01*
X168630000Y-78656894D01*
X168630002Y-78656894D01*
X168740281Y-78639427D01*
X168740281Y-78639426D01*
X168740286Y-78639426D01*
X168839777Y-78588733D01*
X168918733Y-78509777D01*
X168969426Y-78410286D01*
X168986894Y-78300000D01*
X168969426Y-78189714D01*
X168918733Y-78090223D01*
X168918731Y-78090221D01*
X168918728Y-78090217D01*
X168839782Y-78011271D01*
X168839778Y-78011268D01*
X168839777Y-78011267D01*
X168740286Y-77960574D01*
X168740284Y-77960573D01*
X168740281Y-77960572D01*
X168630002Y-77943106D01*
X168629998Y-77943106D01*
X168519718Y-77960572D01*
X168420221Y-78011268D01*
X168420217Y-78011271D01*
X168341271Y-78090217D01*
X168341268Y-78090221D01*
X168290572Y-78189718D01*
X168273106Y-78299997D01*
X168273106Y-78300002D01*
X150622500Y-78300002D01*
X150622500Y-76800002D01*
X157793106Y-76800002D01*
X157810572Y-76910281D01*
X157810573Y-76910284D01*
X157810574Y-76910286D01*
X157861267Y-77009777D01*
X157861268Y-77009778D01*
X157861271Y-77009782D01*
X157940217Y-77088728D01*
X157940220Y-77088730D01*
X157940223Y-77088733D01*
X157993416Y-77115836D01*
X158044211Y-77163809D01*
X158061007Y-77231630D01*
X158038470Y-77297765D01*
X158024803Y-77314000D01*
X157986235Y-77352568D01*
X157986232Y-77352572D01*
X157935536Y-77452069D01*
X157918070Y-77562348D01*
X157918070Y-77562353D01*
X157935536Y-77672632D01*
X157935537Y-77672635D01*
X157935538Y-77672637D01*
X157986231Y-77772128D01*
X157986232Y-77772129D01*
X157986235Y-77772133D01*
X158065181Y-77851079D01*
X158065185Y-77851082D01*
X158065187Y-77851084D01*
X158164678Y-77901777D01*
X158164680Y-77901777D01*
X158164682Y-77901778D01*
X158274962Y-77919245D01*
X158274964Y-77919245D01*
X158274966Y-77919245D01*
X158385245Y-77901778D01*
X158385245Y-77901777D01*
X158385250Y-77901777D01*
X158484741Y-77851084D01*
X158485825Y-77850000D01*
X169467407Y-77850000D01*
X169484448Y-77946649D01*
X169484450Y-77946654D01*
X169533521Y-78031648D01*
X169608697Y-78094729D01*
X169608700Y-78094730D01*
X169608703Y-78094733D01*
X169700928Y-78128300D01*
X169700930Y-78128300D01*
X169799070Y-78128300D01*
X169799072Y-78128300D01*
X169891297Y-78094733D01*
X169966479Y-78031647D01*
X170015551Y-77946652D01*
X170032593Y-77850000D01*
X170015551Y-77753348D01*
X169984439Y-77699461D01*
X169966478Y-77668351D01*
X169891302Y-77605270D01*
X169891298Y-77605268D01*
X169891297Y-77605267D01*
X169799072Y-77571700D01*
X169700928Y-77571700D01*
X169608704Y-77605267D01*
X169608703Y-77605267D01*
X169608702Y-77605268D01*
X169533523Y-77668351D01*
X169533518Y-77668356D01*
X169484450Y-77753345D01*
X169484448Y-77753350D01*
X169467407Y-77849999D01*
X169467407Y-77850000D01*
X158485825Y-77850000D01*
X158563697Y-77772128D01*
X158614390Y-77672637D01*
X158625060Y-77605270D01*
X158631858Y-77562353D01*
X158631858Y-77562348D01*
X158614391Y-77452069D01*
X158614390Y-77452067D01*
X158614390Y-77452065D01*
X158563697Y-77352574D01*
X158563695Y-77352572D01*
X158563692Y-77352568D01*
X158484746Y-77273622D01*
X158484742Y-77273619D01*
X158484741Y-77273618D01*
X158431545Y-77246513D01*
X158380751Y-77198540D01*
X158363956Y-77130720D01*
X158386493Y-77064585D01*
X158400162Y-77048348D01*
X158438729Y-77009781D01*
X158438733Y-77009777D01*
X158489426Y-76910286D01*
X158489427Y-76910281D01*
X158506894Y-76800002D01*
X158506894Y-76799997D01*
X158498975Y-76750002D01*
X160483106Y-76750002D01*
X160500572Y-76860281D01*
X160500573Y-76860284D01*
X160500574Y-76860286D01*
X160551267Y-76959777D01*
X160551268Y-76959778D01*
X160551271Y-76959782D01*
X160630217Y-77038728D01*
X160630221Y-77038731D01*
X160630223Y-77038733D01*
X160729714Y-77089426D01*
X160729716Y-77089426D01*
X160729718Y-77089427D01*
X160839998Y-77106894D01*
X160840000Y-77106894D01*
X160840002Y-77106894D01*
X160950281Y-77089427D01*
X160950281Y-77089426D01*
X160950286Y-77089426D01*
X161049777Y-77038733D01*
X161128733Y-76959777D01*
X161179426Y-76860286D01*
X161179427Y-76860281D01*
X161188975Y-76800002D01*
X167743106Y-76800002D01*
X167760572Y-76910281D01*
X167760573Y-76910284D01*
X167760574Y-76910286D01*
X167811267Y-77009777D01*
X167811268Y-77009778D01*
X167811271Y-77009782D01*
X167890217Y-77088728D01*
X167890221Y-77088731D01*
X167890223Y-77088733D01*
X167989714Y-77139426D01*
X167989716Y-77139426D01*
X167989718Y-77139427D01*
X168099998Y-77156894D01*
X168100000Y-77156894D01*
X168100002Y-77156894D01*
X168210281Y-77139427D01*
X168210281Y-77139426D01*
X168210286Y-77139426D01*
X168309777Y-77088733D01*
X168388733Y-77009777D01*
X168439426Y-76910286D01*
X168439427Y-76910281D01*
X168456894Y-76800002D01*
X168456894Y-76799997D01*
X168439427Y-76689718D01*
X168439426Y-76689716D01*
X168439426Y-76689714D01*
X168388733Y-76590223D01*
X168388731Y-76590221D01*
X168388728Y-76590217D01*
X168309782Y-76511271D01*
X168309778Y-76511268D01*
X168309777Y-76511267D01*
X168210286Y-76460574D01*
X168210284Y-76460573D01*
X168210281Y-76460572D01*
X168100002Y-76443106D01*
X168099998Y-76443106D01*
X167989718Y-76460572D01*
X167890221Y-76511268D01*
X167890217Y-76511271D01*
X167811271Y-76590217D01*
X167811268Y-76590221D01*
X167760572Y-76689718D01*
X167743106Y-76799997D01*
X167743106Y-76800002D01*
X161188975Y-76800002D01*
X161196894Y-76750002D01*
X161196894Y-76749997D01*
X161179427Y-76639718D01*
X161179426Y-76639716D01*
X161179426Y-76639714D01*
X161128733Y-76540223D01*
X161128731Y-76540221D01*
X161128728Y-76540217D01*
X161049782Y-76461271D01*
X161049778Y-76461268D01*
X161049777Y-76461267D01*
X160950286Y-76410574D01*
X160950284Y-76410573D01*
X160950281Y-76410572D01*
X160840002Y-76393106D01*
X160839998Y-76393106D01*
X160729718Y-76410572D01*
X160630221Y-76461268D01*
X160630217Y-76461271D01*
X160551271Y-76540217D01*
X160551268Y-76540221D01*
X160500572Y-76639718D01*
X160483106Y-76749997D01*
X160483106Y-76750002D01*
X158498975Y-76750002D01*
X158489427Y-76689718D01*
X158489426Y-76689716D01*
X158489426Y-76689714D01*
X158438733Y-76590223D01*
X158438731Y-76590221D01*
X158438728Y-76590217D01*
X158359782Y-76511271D01*
X158359778Y-76511268D01*
X158359777Y-76511267D01*
X158260286Y-76460574D01*
X158260284Y-76460573D01*
X158260281Y-76460572D01*
X158150002Y-76443106D01*
X158149998Y-76443106D01*
X158039718Y-76460572D01*
X157940221Y-76511268D01*
X157940217Y-76511271D01*
X157861271Y-76590217D01*
X157861268Y-76590221D01*
X157810572Y-76689718D01*
X157793106Y-76799997D01*
X157793106Y-76800002D01*
X150622500Y-76800002D01*
X150622500Y-74950002D01*
X156643106Y-74950002D01*
X156660572Y-75060281D01*
X156660573Y-75060284D01*
X156660574Y-75060286D01*
X156697307Y-75132378D01*
X156711268Y-75159778D01*
X156711271Y-75159782D01*
X156790217Y-75238728D01*
X156790221Y-75238731D01*
X156790223Y-75238733D01*
X156889714Y-75289426D01*
X156889716Y-75289426D01*
X156889718Y-75289427D01*
X156999998Y-75306894D01*
X157000000Y-75306894D01*
X157000002Y-75306894D01*
X157110281Y-75289427D01*
X157110281Y-75289426D01*
X157110286Y-75289426D01*
X157209777Y-75238733D01*
X157288733Y-75159777D01*
X157339426Y-75060286D01*
X157350523Y-74990223D01*
X157356894Y-74950002D01*
X157356894Y-74949997D01*
X157339427Y-74839718D01*
X157339426Y-74839716D01*
X157339426Y-74839714D01*
X157306700Y-74775486D01*
X159284334Y-74775486D01*
X159301800Y-74885765D01*
X159301801Y-74885768D01*
X159301802Y-74885770D01*
X159352495Y-74985261D01*
X159352496Y-74985262D01*
X159352499Y-74985266D01*
X159431445Y-75064212D01*
X159431449Y-75064215D01*
X159431451Y-75064217D01*
X159530942Y-75114910D01*
X159530944Y-75114910D01*
X159530946Y-75114911D01*
X159641226Y-75132378D01*
X159641228Y-75132378D01*
X159641230Y-75132378D01*
X159751510Y-75114911D01*
X159751511Y-75114910D01*
X159751514Y-75114910D01*
X159764258Y-75108416D01*
X159832924Y-75095519D01*
X159897665Y-75121793D01*
X159937924Y-75178898D01*
X159943026Y-75199501D01*
X159960573Y-75310283D01*
X159960573Y-75310284D01*
X159960574Y-75310286D01*
X159982260Y-75352848D01*
X159993867Y-75375628D01*
X160006763Y-75444297D01*
X159980486Y-75509038D01*
X159971064Y-75519602D01*
X159929741Y-75560925D01*
X159929738Y-75560929D01*
X159879042Y-75660426D01*
X159861576Y-75770705D01*
X159861576Y-75770710D01*
X159879042Y-75880989D01*
X159879043Y-75880992D01*
X159879044Y-75880994D01*
X159898081Y-75918356D01*
X159929738Y-75980486D01*
X159929741Y-75980490D01*
X160008687Y-76059436D01*
X160008691Y-76059439D01*
X160008693Y-76059441D01*
X160108184Y-76110134D01*
X160108186Y-76110134D01*
X160108188Y-76110135D01*
X160218468Y-76127602D01*
X160218470Y-76127602D01*
X160218472Y-76127602D01*
X160328751Y-76110135D01*
X160328751Y-76110134D01*
X160328756Y-76110134D01*
X160348641Y-76100002D01*
X166943106Y-76100002D01*
X166960572Y-76210281D01*
X166960573Y-76210284D01*
X166960574Y-76210286D01*
X166996935Y-76281648D01*
X167011268Y-76309778D01*
X167011271Y-76309782D01*
X167090217Y-76388728D01*
X167090221Y-76388731D01*
X167090223Y-76388733D01*
X167189714Y-76439426D01*
X167189716Y-76439426D01*
X167189718Y-76439427D01*
X167299998Y-76456894D01*
X167300000Y-76456894D01*
X167300002Y-76456894D01*
X167410281Y-76439427D01*
X167410281Y-76439426D01*
X167410286Y-76439426D01*
X167509777Y-76388733D01*
X167588733Y-76309777D01*
X167639426Y-76210286D01*
X167641585Y-76196654D01*
X167655199Y-76110702D01*
X169003806Y-76110702D01*
X169021272Y-76220981D01*
X169021273Y-76220984D01*
X169021274Y-76220986D01*
X169066516Y-76309778D01*
X169071968Y-76320478D01*
X169071971Y-76320482D01*
X169150917Y-76399428D01*
X169150921Y-76399431D01*
X169150923Y-76399433D01*
X169250414Y-76450126D01*
X169250416Y-76450126D01*
X169250418Y-76450127D01*
X169360698Y-76467594D01*
X169360700Y-76467594D01*
X169360702Y-76467594D01*
X169470981Y-76450127D01*
X169470981Y-76450126D01*
X169470986Y-76450126D01*
X169570477Y-76399433D01*
X169649433Y-76320477D01*
X169700126Y-76220986D01*
X169717594Y-76110700D01*
X169717504Y-76110134D01*
X169715899Y-76100000D01*
X170717407Y-76100000D01*
X170734448Y-76196649D01*
X170734450Y-76196654D01*
X170783521Y-76281648D01*
X170858697Y-76344729D01*
X170858700Y-76344730D01*
X170858703Y-76344733D01*
X170950928Y-76378300D01*
X170950930Y-76378300D01*
X171049070Y-76378300D01*
X171049072Y-76378300D01*
X171141297Y-76344733D01*
X171182950Y-76309782D01*
X171216478Y-76281648D01*
X171216479Y-76281647D01*
X171265551Y-76196652D01*
X171282593Y-76100000D01*
X171282592Y-76099997D01*
X171276912Y-76067782D01*
X171265551Y-76003348D01*
X171216479Y-75918353D01*
X171216478Y-75918351D01*
X171141302Y-75855270D01*
X171141298Y-75855268D01*
X171141297Y-75855267D01*
X171049072Y-75821700D01*
X170950928Y-75821700D01*
X170858704Y-75855267D01*
X170858703Y-75855267D01*
X170858702Y-75855268D01*
X170783523Y-75918351D01*
X170783518Y-75918356D01*
X170734450Y-76003345D01*
X170734448Y-76003350D01*
X170717407Y-76099999D01*
X170717407Y-76100000D01*
X169715899Y-76100000D01*
X169700127Y-76000418D01*
X169700126Y-76000416D01*
X169700126Y-76000414D01*
X169649433Y-75900923D01*
X169649431Y-75900921D01*
X169649428Y-75900917D01*
X169570482Y-75821971D01*
X169570478Y-75821968D01*
X169570477Y-75821967D01*
X169470986Y-75771274D01*
X169470984Y-75771273D01*
X169470981Y-75771272D01*
X169360702Y-75753806D01*
X169360698Y-75753806D01*
X169250418Y-75771272D01*
X169150921Y-75821968D01*
X169150917Y-75821971D01*
X169071971Y-75900917D01*
X169071968Y-75900921D01*
X169021272Y-76000418D01*
X169003806Y-76110697D01*
X169003806Y-76110702D01*
X167655199Y-76110702D01*
X167656894Y-76100002D01*
X167656894Y-76099997D01*
X167639427Y-75989718D01*
X167639426Y-75989716D01*
X167639426Y-75989714D01*
X167588733Y-75890223D01*
X167588731Y-75890221D01*
X167588728Y-75890217D01*
X167509782Y-75811271D01*
X167509778Y-75811268D01*
X167509777Y-75811267D01*
X167410286Y-75760574D01*
X167410284Y-75760573D01*
X167410281Y-75760572D01*
X167300002Y-75743106D01*
X167299998Y-75743106D01*
X167189718Y-75760572D01*
X167090221Y-75811268D01*
X167090217Y-75811271D01*
X167011271Y-75890217D01*
X167011268Y-75890221D01*
X166960572Y-75989718D01*
X166943106Y-76099997D01*
X166943106Y-76100002D01*
X160348641Y-76100002D01*
X160428247Y-76059441D01*
X160507203Y-75980485D01*
X160557896Y-75880994D01*
X160557897Y-75880989D01*
X160575364Y-75770710D01*
X160575364Y-75770705D01*
X160557897Y-75660426D01*
X160557896Y-75660424D01*
X160557896Y-75660422D01*
X160524601Y-75595077D01*
X160511706Y-75526410D01*
X160537983Y-75461670D01*
X160547407Y-75451103D01*
X160588729Y-75409781D01*
X160588733Y-75409777D01*
X160639426Y-75310286D01*
X160639506Y-75309782D01*
X160656894Y-75200002D01*
X160656894Y-75199997D01*
X160641056Y-75100002D01*
X170643106Y-75100002D01*
X170660572Y-75210281D01*
X170660573Y-75210284D01*
X170660574Y-75210286D01*
X170711267Y-75309777D01*
X170711268Y-75309778D01*
X170711271Y-75309782D01*
X170790217Y-75388728D01*
X170790221Y-75388731D01*
X170790223Y-75388733D01*
X170889714Y-75439426D01*
X170889716Y-75439426D01*
X170889718Y-75439427D01*
X170999998Y-75456894D01*
X171000000Y-75456894D01*
X171000002Y-75456894D01*
X171110281Y-75439427D01*
X171110281Y-75439426D01*
X171110286Y-75439426D01*
X171209777Y-75388733D01*
X171288733Y-75309777D01*
X171339426Y-75210286D01*
X171341134Y-75199501D01*
X171356894Y-75100002D01*
X171356894Y-75099997D01*
X171339427Y-74989718D01*
X171339426Y-74989716D01*
X171339426Y-74989714D01*
X171288733Y-74890223D01*
X171288731Y-74890221D01*
X171288728Y-74890217D01*
X171209782Y-74811271D01*
X171209778Y-74811268D01*
X171209777Y-74811267D01*
X171110286Y-74760574D01*
X171110284Y-74760573D01*
X171110281Y-74760572D01*
X171000002Y-74743106D01*
X170999998Y-74743106D01*
X170889718Y-74760572D01*
X170790221Y-74811268D01*
X170790217Y-74811271D01*
X170711271Y-74890217D01*
X170711268Y-74890221D01*
X170660572Y-74989718D01*
X170643106Y-75099997D01*
X170643106Y-75100002D01*
X160641056Y-75100002D01*
X160639427Y-75089718D01*
X160639426Y-75089716D01*
X160639426Y-75089714D01*
X160588733Y-74990223D01*
X160588731Y-74990221D01*
X160588728Y-74990217D01*
X160509782Y-74911271D01*
X160509778Y-74911268D01*
X160509777Y-74911267D01*
X160410286Y-74860574D01*
X160410284Y-74860573D01*
X160410281Y-74860572D01*
X160300002Y-74843106D01*
X160299998Y-74843106D01*
X160189715Y-74860573D01*
X160176966Y-74867069D01*
X160108296Y-74879964D01*
X160043557Y-74853686D01*
X160003301Y-74796578D01*
X159998201Y-74775981D01*
X159980655Y-74665202D01*
X159980654Y-74665200D01*
X159980654Y-74665198D01*
X159929961Y-74565707D01*
X159929959Y-74565705D01*
X159929956Y-74565701D01*
X159851010Y-74486755D01*
X159851006Y-74486752D01*
X159851005Y-74486751D01*
X159751514Y-74436058D01*
X159751512Y-74436057D01*
X159751509Y-74436056D01*
X159641230Y-74418590D01*
X159641226Y-74418590D01*
X159530946Y-74436056D01*
X159530942Y-74436057D01*
X159530942Y-74436058D01*
X159522772Y-74440221D01*
X159431449Y-74486752D01*
X159431445Y-74486755D01*
X159352499Y-74565701D01*
X159352496Y-74565705D01*
X159301800Y-74665202D01*
X159284334Y-74775481D01*
X159284334Y-74775486D01*
X157306700Y-74775486D01*
X157288733Y-74740223D01*
X157288731Y-74740221D01*
X157288728Y-74740217D01*
X157209782Y-74661271D01*
X157209778Y-74661268D01*
X157209777Y-74661267D01*
X157110286Y-74610574D01*
X157110284Y-74610573D01*
X157110281Y-74610572D01*
X157000002Y-74593106D01*
X156999998Y-74593106D01*
X156889718Y-74610572D01*
X156790221Y-74661268D01*
X156790217Y-74661271D01*
X156711271Y-74740217D01*
X156711268Y-74740221D01*
X156660572Y-74839718D01*
X156643106Y-74949997D01*
X156643106Y-74950002D01*
X150622500Y-74950002D01*
X150622500Y-74000002D01*
X157193106Y-74000002D01*
X157210572Y-74110281D01*
X157210573Y-74110284D01*
X157210574Y-74110286D01*
X157255929Y-74199300D01*
X157261268Y-74209778D01*
X157261271Y-74209782D01*
X157340217Y-74288728D01*
X157340221Y-74288731D01*
X157340223Y-74288733D01*
X157439714Y-74339426D01*
X157439716Y-74339426D01*
X157439718Y-74339427D01*
X157549998Y-74356894D01*
X157550000Y-74356894D01*
X157550002Y-74356894D01*
X157660281Y-74339427D01*
X157660281Y-74339426D01*
X157660286Y-74339426D01*
X157759777Y-74288733D01*
X157838733Y-74209777D01*
X157889426Y-74110286D01*
X157894178Y-74080286D01*
X157898975Y-74050002D01*
X160193106Y-74050002D01*
X160210572Y-74160281D01*
X160210573Y-74160284D01*
X160210574Y-74160286D01*
X160261267Y-74259777D01*
X160261268Y-74259778D01*
X160261271Y-74259782D01*
X160340217Y-74338728D01*
X160340221Y-74338731D01*
X160340223Y-74338733D01*
X160439714Y-74389426D01*
X160439716Y-74389426D01*
X160439718Y-74389427D01*
X160549998Y-74406894D01*
X160550000Y-74406894D01*
X160550002Y-74406894D01*
X160660281Y-74389427D01*
X160660281Y-74389426D01*
X160660286Y-74389426D01*
X160759777Y-74338733D01*
X160838733Y-74259777D01*
X160869546Y-74199302D01*
X161243106Y-74199302D01*
X161260572Y-74309581D01*
X161260573Y-74309584D01*
X161260574Y-74309586D01*
X161301255Y-74389427D01*
X161311268Y-74409078D01*
X161311271Y-74409082D01*
X161390217Y-74488028D01*
X161390221Y-74488031D01*
X161390223Y-74488033D01*
X161489714Y-74538726D01*
X161489716Y-74538726D01*
X161489718Y-74538727D01*
X161599998Y-74556194D01*
X161600000Y-74556194D01*
X161600002Y-74556194D01*
X161710281Y-74538727D01*
X161710281Y-74538726D01*
X161710286Y-74538726D01*
X161809777Y-74488033D01*
X161817808Y-74480002D01*
X163093106Y-74480002D01*
X163110572Y-74590281D01*
X163110573Y-74590284D01*
X163110574Y-74590286D01*
X163161267Y-74689777D01*
X163161268Y-74689778D01*
X163161271Y-74689782D01*
X163240217Y-74768728D01*
X163240221Y-74768731D01*
X163240223Y-74768733D01*
X163339714Y-74819426D01*
X163339716Y-74819426D01*
X163339718Y-74819427D01*
X163449998Y-74836894D01*
X163450000Y-74836894D01*
X163450002Y-74836894D01*
X163560281Y-74819427D01*
X163560281Y-74819426D01*
X163560286Y-74819426D01*
X163659777Y-74768733D01*
X163738733Y-74689777D01*
X163758999Y-74650002D01*
X165893106Y-74650002D01*
X165910572Y-74760281D01*
X165910573Y-74760284D01*
X165910574Y-74760286D01*
X165961267Y-74859777D01*
X165961268Y-74859778D01*
X165961271Y-74859782D01*
X166040217Y-74938728D01*
X166040221Y-74938731D01*
X166040223Y-74938733D01*
X166139714Y-74989426D01*
X166139716Y-74989426D01*
X166139718Y-74989427D01*
X166249998Y-75006894D01*
X166250000Y-75006894D01*
X166250002Y-75006894D01*
X166360281Y-74989427D01*
X166360281Y-74989426D01*
X166360286Y-74989426D01*
X166459777Y-74938733D01*
X166538733Y-74859777D01*
X166589426Y-74760286D01*
X166598975Y-74700000D01*
X168635407Y-74700000D01*
X168652448Y-74796649D01*
X168652450Y-74796654D01*
X168701521Y-74881648D01*
X168776697Y-74944729D01*
X168776700Y-74944730D01*
X168776703Y-74944733D01*
X168868928Y-74978300D01*
X168868930Y-74978300D01*
X168967070Y-74978300D01*
X168967072Y-74978300D01*
X169059297Y-74944733D01*
X169066448Y-74938733D01*
X169134478Y-74881648D01*
X169134479Y-74881647D01*
X169183551Y-74796652D01*
X169200593Y-74700000D01*
X169198790Y-74689777D01*
X169184825Y-74610574D01*
X169183551Y-74603348D01*
X169134479Y-74518353D01*
X169134478Y-74518351D01*
X169059302Y-74455270D01*
X169059298Y-74455268D01*
X169059297Y-74455267D01*
X168967072Y-74421700D01*
X168868928Y-74421700D01*
X168776704Y-74455267D01*
X168776703Y-74455267D01*
X168776702Y-74455268D01*
X168701523Y-74518351D01*
X168701518Y-74518356D01*
X168652450Y-74603345D01*
X168652448Y-74603350D01*
X168635407Y-74699999D01*
X168635407Y-74700000D01*
X166598975Y-74700000D01*
X166605109Y-74661271D01*
X166606894Y-74650002D01*
X166606894Y-74649997D01*
X166589427Y-74539718D01*
X166589426Y-74539716D01*
X166589426Y-74539714D01*
X166538733Y-74440223D01*
X166538731Y-74440221D01*
X166538728Y-74440217D01*
X166459782Y-74361271D01*
X166459778Y-74361268D01*
X166459777Y-74361267D01*
X166360286Y-74310574D01*
X166360284Y-74310573D01*
X166360281Y-74310572D01*
X166250002Y-74293106D01*
X166249998Y-74293106D01*
X166139718Y-74310572D01*
X166040221Y-74361268D01*
X166040217Y-74361271D01*
X165961271Y-74440217D01*
X165961268Y-74440221D01*
X165910572Y-74539718D01*
X165893106Y-74649997D01*
X165893106Y-74650002D01*
X163758999Y-74650002D01*
X163789426Y-74590286D01*
X163793319Y-74565707D01*
X163806894Y-74480002D01*
X163806894Y-74479997D01*
X163789427Y-74369718D01*
X163789426Y-74369716D01*
X163789426Y-74369714D01*
X163738733Y-74270223D01*
X163738731Y-74270221D01*
X163738728Y-74270217D01*
X163718511Y-74250000D01*
X170467407Y-74250000D01*
X170484448Y-74346649D01*
X170484450Y-74346654D01*
X170533521Y-74431648D01*
X170608697Y-74494729D01*
X170608700Y-74494730D01*
X170608703Y-74494733D01*
X170700928Y-74528300D01*
X170700930Y-74528300D01*
X170799070Y-74528300D01*
X170799072Y-74528300D01*
X170891297Y-74494733D01*
X170900810Y-74486751D01*
X170966478Y-74431648D01*
X170966479Y-74431647D01*
X171015551Y-74346652D01*
X171032593Y-74250000D01*
X171015551Y-74153348D01*
X170966479Y-74068353D01*
X170966478Y-74068351D01*
X170891302Y-74005270D01*
X170891298Y-74005268D01*
X170891297Y-74005267D01*
X170799072Y-73971700D01*
X170700928Y-73971700D01*
X170608704Y-74005267D01*
X170608703Y-74005267D01*
X170608702Y-74005268D01*
X170533523Y-74068351D01*
X170533518Y-74068356D01*
X170484450Y-74153345D01*
X170484448Y-74153350D01*
X170467407Y-74249999D01*
X170467407Y-74250000D01*
X163718511Y-74250000D01*
X163659782Y-74191271D01*
X163659778Y-74191268D01*
X163659777Y-74191267D01*
X163560286Y-74140574D01*
X163560284Y-74140573D01*
X163560281Y-74140572D01*
X163450002Y-74123106D01*
X163449998Y-74123106D01*
X163339718Y-74140572D01*
X163240221Y-74191268D01*
X163240217Y-74191271D01*
X163161271Y-74270217D01*
X163161268Y-74270221D01*
X163110572Y-74369718D01*
X163093106Y-74479997D01*
X163093106Y-74480002D01*
X161817808Y-74480002D01*
X161888733Y-74409077D01*
X161939426Y-74309586D01*
X161939451Y-74309427D01*
X161956894Y-74199302D01*
X161956894Y-74199297D01*
X161939427Y-74089018D01*
X161939426Y-74089016D01*
X161939426Y-74089014D01*
X161888733Y-73989523D01*
X161888731Y-73989521D01*
X161888728Y-73989517D01*
X161869213Y-73970002D01*
X172283106Y-73970002D01*
X172300572Y-74080281D01*
X172300573Y-74080284D01*
X172300574Y-74080286D01*
X172341336Y-74160286D01*
X172351268Y-74179778D01*
X172351271Y-74179782D01*
X172430217Y-74258728D01*
X172430221Y-74258731D01*
X172430223Y-74258733D01*
X172529714Y-74309426D01*
X172529716Y-74309426D01*
X172529718Y-74309427D01*
X172639998Y-74326894D01*
X172640000Y-74326894D01*
X172640002Y-74326894D01*
X172750281Y-74309427D01*
X172750281Y-74309426D01*
X172750286Y-74309426D01*
X172849777Y-74258733D01*
X172928733Y-74179777D01*
X172979426Y-74080286D01*
X172981316Y-74068353D01*
X172996894Y-73970002D01*
X172996894Y-73969997D01*
X172979427Y-73859718D01*
X172979426Y-73859716D01*
X172979426Y-73859714D01*
X172928733Y-73760223D01*
X172928731Y-73760221D01*
X172928728Y-73760217D01*
X172849782Y-73681271D01*
X172849778Y-73681268D01*
X172849777Y-73681267D01*
X172750286Y-73630574D01*
X172750284Y-73630573D01*
X172750281Y-73630572D01*
X172640002Y-73613106D01*
X172639998Y-73613106D01*
X172529718Y-73630572D01*
X172529714Y-73630573D01*
X172529714Y-73630574D01*
X172470839Y-73660572D01*
X172430221Y-73681268D01*
X172430217Y-73681271D01*
X172351271Y-73760217D01*
X172351268Y-73760221D01*
X172300572Y-73859718D01*
X172283106Y-73969997D01*
X172283106Y-73970002D01*
X161869213Y-73970002D01*
X161809782Y-73910571D01*
X161809778Y-73910568D01*
X161809777Y-73910567D01*
X161710286Y-73859874D01*
X161710284Y-73859873D01*
X161710281Y-73859872D01*
X161600002Y-73842406D01*
X161599998Y-73842406D01*
X161489718Y-73859872D01*
X161390221Y-73910568D01*
X161390217Y-73910571D01*
X161311271Y-73989517D01*
X161311268Y-73989521D01*
X161260572Y-74089018D01*
X161243106Y-74199297D01*
X161243106Y-74199302D01*
X160869546Y-74199302D01*
X160889426Y-74160286D01*
X160890525Y-74153348D01*
X160906894Y-74050002D01*
X160906894Y-74049997D01*
X160889427Y-73939718D01*
X160889426Y-73939716D01*
X160889426Y-73939714D01*
X160838733Y-73840223D01*
X160838731Y-73840221D01*
X160838728Y-73840217D01*
X160759782Y-73761271D01*
X160759778Y-73761268D01*
X160759777Y-73761267D01*
X160660286Y-73710574D01*
X160660284Y-73710573D01*
X160660281Y-73710572D01*
X160550002Y-73693106D01*
X160549998Y-73693106D01*
X160439718Y-73710572D01*
X160340221Y-73761268D01*
X160340217Y-73761271D01*
X160261271Y-73840217D01*
X160261268Y-73840221D01*
X160210572Y-73939718D01*
X160193106Y-74049997D01*
X160193106Y-74050002D01*
X157898975Y-74050002D01*
X157906894Y-74000002D01*
X157906894Y-73999997D01*
X157889427Y-73889718D01*
X157889426Y-73889716D01*
X157889426Y-73889714D01*
X157838733Y-73790223D01*
X157838731Y-73790221D01*
X157838728Y-73790217D01*
X157759782Y-73711271D01*
X157759778Y-73711268D01*
X157759777Y-73711267D01*
X157660286Y-73660574D01*
X157660284Y-73660573D01*
X157660281Y-73660572D01*
X157550002Y-73643106D01*
X157549998Y-73643106D01*
X157439718Y-73660572D01*
X157340221Y-73711268D01*
X157340217Y-73711271D01*
X157261271Y-73790217D01*
X157261268Y-73790221D01*
X157210572Y-73889718D01*
X157193106Y-73999997D01*
X157193106Y-74000002D01*
X150622500Y-74000002D01*
X150622500Y-72850002D01*
X161943106Y-72850002D01*
X161960572Y-72960281D01*
X161960573Y-72960284D01*
X161960574Y-72960286D01*
X162011267Y-73059777D01*
X162011268Y-73059778D01*
X162011271Y-73059782D01*
X162090217Y-73138728D01*
X162090221Y-73138731D01*
X162090223Y-73138733D01*
X162189714Y-73189426D01*
X162189716Y-73189426D01*
X162189718Y-73189427D01*
X162299998Y-73206894D01*
X162300000Y-73206894D01*
X162300002Y-73206894D01*
X162410281Y-73189427D01*
X162410281Y-73189426D01*
X162410286Y-73189426D01*
X162509777Y-73138733D01*
X162509782Y-73138728D01*
X162562319Y-73086192D01*
X162623642Y-73052707D01*
X162693334Y-73057691D01*
X162737681Y-73086192D01*
X162790217Y-73138728D01*
X162790221Y-73138731D01*
X162790223Y-73138733D01*
X162889714Y-73189426D01*
X162889716Y-73189426D01*
X162889718Y-73189427D01*
X162999998Y-73206894D01*
X163000000Y-73206894D01*
X163000002Y-73206894D01*
X163110281Y-73189427D01*
X163110281Y-73189426D01*
X163110286Y-73189426D01*
X163209777Y-73138733D01*
X163288733Y-73059777D01*
X163339426Y-72960286D01*
X163339427Y-72960281D01*
X163356894Y-72850002D01*
X163356894Y-72849997D01*
X163339427Y-72739718D01*
X163339426Y-72739716D01*
X163339426Y-72739714D01*
X163288733Y-72640223D01*
X163288731Y-72640221D01*
X163288728Y-72640217D01*
X163214513Y-72566002D01*
X166523106Y-72566002D01*
X166540572Y-72676281D01*
X166540573Y-72676284D01*
X166540574Y-72676286D01*
X166591267Y-72775777D01*
X166591268Y-72775778D01*
X166591271Y-72775782D01*
X166670217Y-72854728D01*
X166670221Y-72854731D01*
X166670223Y-72854733D01*
X166769714Y-72905426D01*
X166769716Y-72905426D01*
X166769718Y-72905427D01*
X166879998Y-72922894D01*
X166880000Y-72922894D01*
X166880002Y-72922894D01*
X166990281Y-72905427D01*
X166990281Y-72905426D01*
X166990286Y-72905426D01*
X167089777Y-72854733D01*
X167168733Y-72775777D01*
X167219426Y-72676286D01*
X167225138Y-72640223D01*
X167236894Y-72566002D01*
X167623106Y-72566002D01*
X167640572Y-72676281D01*
X167640573Y-72676284D01*
X167640574Y-72676286D01*
X167691267Y-72775777D01*
X167691268Y-72775778D01*
X167691271Y-72775782D01*
X167770217Y-72854728D01*
X167770221Y-72854731D01*
X167770223Y-72854733D01*
X167869714Y-72905426D01*
X167869716Y-72905426D01*
X167869718Y-72905427D01*
X167979998Y-72922894D01*
X167980000Y-72922894D01*
X167980002Y-72922894D01*
X168090281Y-72905427D01*
X168090281Y-72905426D01*
X168090286Y-72905426D01*
X168189777Y-72854733D01*
X168268733Y-72775777D01*
X168319426Y-72676286D01*
X168325138Y-72640223D01*
X168336894Y-72566002D01*
X168336894Y-72565997D01*
X168319427Y-72455718D01*
X168319426Y-72455716D01*
X168319426Y-72455714D01*
X168268733Y-72356223D01*
X168268731Y-72356221D01*
X168268728Y-72356217D01*
X168189782Y-72277271D01*
X168189778Y-72277268D01*
X168189777Y-72277267D01*
X168090286Y-72226574D01*
X168090284Y-72226573D01*
X168090281Y-72226572D01*
X167980002Y-72209106D01*
X167979998Y-72209106D01*
X167869718Y-72226572D01*
X167869714Y-72226573D01*
X167869714Y-72226574D01*
X167810207Y-72256894D01*
X167770221Y-72277268D01*
X167770217Y-72277271D01*
X167691271Y-72356217D01*
X167691268Y-72356221D01*
X167640572Y-72455718D01*
X167623106Y-72565997D01*
X167623106Y-72566002D01*
X167236894Y-72566002D01*
X167236894Y-72565997D01*
X167219427Y-72455718D01*
X167219426Y-72455716D01*
X167219426Y-72455714D01*
X167168733Y-72356223D01*
X167168731Y-72356221D01*
X167168728Y-72356217D01*
X167089782Y-72277271D01*
X167089778Y-72277268D01*
X167089777Y-72277267D01*
X166990286Y-72226574D01*
X166990284Y-72226573D01*
X166990281Y-72226572D01*
X166880002Y-72209106D01*
X166879998Y-72209106D01*
X166769718Y-72226572D01*
X166769714Y-72226573D01*
X166769714Y-72226574D01*
X166710207Y-72256894D01*
X166670221Y-72277268D01*
X166670217Y-72277271D01*
X166591271Y-72356217D01*
X166591268Y-72356221D01*
X166540572Y-72455718D01*
X166523106Y-72565997D01*
X166523106Y-72566002D01*
X163214513Y-72566002D01*
X163209782Y-72561271D01*
X163209778Y-72561268D01*
X163209777Y-72561267D01*
X163110286Y-72510574D01*
X163110284Y-72510573D01*
X163110281Y-72510572D01*
X163000002Y-72493106D01*
X162999998Y-72493106D01*
X162889718Y-72510572D01*
X162790221Y-72561268D01*
X162790217Y-72561271D01*
X162737681Y-72613808D01*
X162676358Y-72647293D01*
X162606666Y-72642309D01*
X162562319Y-72613808D01*
X162509782Y-72561271D01*
X162509778Y-72561268D01*
X162509777Y-72561267D01*
X162410286Y-72510574D01*
X162410284Y-72510573D01*
X162410281Y-72510572D01*
X162300002Y-72493106D01*
X162299998Y-72493106D01*
X162189718Y-72510572D01*
X162090221Y-72561268D01*
X162090217Y-72561271D01*
X162011271Y-72640217D01*
X162011268Y-72640221D01*
X161960572Y-72739718D01*
X161943106Y-72849997D01*
X161943106Y-72850002D01*
X150622500Y-72850002D01*
X150622500Y-71400002D01*
X157343106Y-71400002D01*
X157360572Y-71510281D01*
X157360573Y-71510284D01*
X157360574Y-71510286D01*
X157411267Y-71609777D01*
X157411268Y-71609778D01*
X157411271Y-71609782D01*
X157490217Y-71688728D01*
X157490221Y-71688731D01*
X157490223Y-71688733D01*
X157589714Y-71739426D01*
X157589716Y-71739426D01*
X157589718Y-71739427D01*
X157699998Y-71756894D01*
X157700000Y-71756894D01*
X157700002Y-71756894D01*
X157810281Y-71739427D01*
X157810281Y-71739426D01*
X157810286Y-71739426D01*
X157909777Y-71688733D01*
X157988733Y-71609777D01*
X157993714Y-71600002D01*
X159243106Y-71600002D01*
X159260572Y-71710281D01*
X159260573Y-71710284D01*
X159260574Y-71710286D01*
X159311267Y-71809777D01*
X159311268Y-71809778D01*
X159311271Y-71809782D01*
X159390217Y-71888728D01*
X159390221Y-71888731D01*
X159390223Y-71888733D01*
X159489714Y-71939426D01*
X159489716Y-71939426D01*
X159489718Y-71939427D01*
X159599998Y-71956894D01*
X159600000Y-71956894D01*
X159600002Y-71956894D01*
X159710281Y-71939427D01*
X159710281Y-71939426D01*
X159710286Y-71939426D01*
X159809777Y-71888733D01*
X159888733Y-71809777D01*
X159939426Y-71710286D01*
X159945368Y-71672773D01*
X159948975Y-71650002D01*
X161193106Y-71650002D01*
X161210572Y-71760281D01*
X161210573Y-71760284D01*
X161210574Y-71760286D01*
X161256936Y-71851276D01*
X161261268Y-71859778D01*
X161261271Y-71859782D01*
X161340217Y-71938728D01*
X161340221Y-71938731D01*
X161340223Y-71938733D01*
X161439714Y-71989426D01*
X161439716Y-71989426D01*
X161439718Y-71989427D01*
X161549998Y-72006894D01*
X161550000Y-72006894D01*
X161550002Y-72006894D01*
X161593515Y-72000002D01*
X164643106Y-72000002D01*
X164660572Y-72110281D01*
X164660573Y-72110284D01*
X164660574Y-72110286D01*
X164711267Y-72209777D01*
X164711268Y-72209778D01*
X164711271Y-72209782D01*
X164790217Y-72288728D01*
X164790221Y-72288731D01*
X164790223Y-72288733D01*
X164889714Y-72339426D01*
X164889716Y-72339426D01*
X164889718Y-72339427D01*
X164999998Y-72356894D01*
X165000000Y-72356894D01*
X165000002Y-72356894D01*
X165110281Y-72339427D01*
X165110281Y-72339426D01*
X165110286Y-72339426D01*
X165209777Y-72288733D01*
X165288733Y-72209777D01*
X165339426Y-72110286D01*
X165339506Y-72109782D01*
X165356894Y-72000002D01*
X165356894Y-72000000D01*
X165355219Y-71989426D01*
X165348678Y-71948129D01*
X165354897Y-71900002D01*
X170843106Y-71900002D01*
X170860572Y-72010281D01*
X170860573Y-72010284D01*
X170860574Y-72010286D01*
X170911267Y-72109777D01*
X170911268Y-72109778D01*
X170911271Y-72109782D01*
X170990217Y-72188728D01*
X170990221Y-72188731D01*
X170990223Y-72188733D01*
X171089714Y-72239426D01*
X171089716Y-72239426D01*
X171089718Y-72239427D01*
X171199998Y-72256894D01*
X171200000Y-72256894D01*
X171200002Y-72256894D01*
X171310281Y-72239427D01*
X171310281Y-72239426D01*
X171310286Y-72239426D01*
X171409777Y-72188733D01*
X171488733Y-72109777D01*
X171539426Y-72010286D01*
X171542730Y-71989426D01*
X171556894Y-71900002D01*
X175243106Y-71900002D01*
X175260572Y-72010281D01*
X175260573Y-72010284D01*
X175260574Y-72010286D01*
X175311267Y-72109777D01*
X175311268Y-72109778D01*
X175311271Y-72109782D01*
X175390217Y-72188728D01*
X175390221Y-72188731D01*
X175390223Y-72188733D01*
X175489714Y-72239426D01*
X175489716Y-72239426D01*
X175489718Y-72239427D01*
X175599998Y-72256894D01*
X175600000Y-72256894D01*
X175600002Y-72256894D01*
X175710281Y-72239427D01*
X175710281Y-72239426D01*
X175710286Y-72239426D01*
X175809777Y-72188733D01*
X175888733Y-72109777D01*
X175939426Y-72010286D01*
X175942730Y-71989426D01*
X175956894Y-71900002D01*
X175956894Y-71899997D01*
X175939427Y-71789718D01*
X175939426Y-71789716D01*
X175939426Y-71789714D01*
X175896920Y-71706291D01*
X175884025Y-71637626D01*
X175896919Y-71593709D01*
X175939426Y-71510286D01*
X175942684Y-71489718D01*
X175956894Y-71400002D01*
X175956894Y-71399997D01*
X175939427Y-71289718D01*
X175939426Y-71289716D01*
X175939426Y-71289714D01*
X175888733Y-71190223D01*
X175886193Y-71187683D01*
X175884092Y-71183836D01*
X175882994Y-71182324D01*
X175883189Y-71182182D01*
X175852707Y-71126365D01*
X175857688Y-71056673D01*
X175886193Y-71012316D01*
X175888733Y-71009777D01*
X175939426Y-70910286D01*
X175946440Y-70866002D01*
X175956894Y-70800002D01*
X175956894Y-70799997D01*
X175939427Y-70689718D01*
X175939426Y-70689716D01*
X175939426Y-70689714D01*
X175888733Y-70590223D01*
X175888731Y-70590221D01*
X175888728Y-70590217D01*
X175809782Y-70511271D01*
X175809778Y-70511268D01*
X175809777Y-70511267D01*
X175710286Y-70460574D01*
X175710284Y-70460573D01*
X175710281Y-70460572D01*
X175600002Y-70443106D01*
X175599998Y-70443106D01*
X175489718Y-70460572D01*
X175390221Y-70511268D01*
X175390217Y-70511271D01*
X175311271Y-70590217D01*
X175311268Y-70590221D01*
X175260572Y-70689718D01*
X175243106Y-70799997D01*
X175243106Y-70800002D01*
X175260572Y-70910281D01*
X175260573Y-70910284D01*
X175260574Y-70910286D01*
X175311267Y-71009777D01*
X175311268Y-71009778D01*
X175311271Y-71009782D01*
X175313808Y-71012319D01*
X175315907Y-71016163D01*
X175317006Y-71017676D01*
X175316810Y-71017817D01*
X175347293Y-71073642D01*
X175342309Y-71143334D01*
X175313808Y-71187681D01*
X175311271Y-71190217D01*
X175311268Y-71190221D01*
X175311267Y-71190223D01*
X175268706Y-71273755D01*
X175260572Y-71289718D01*
X175243106Y-71399997D01*
X175243106Y-71400002D01*
X175260572Y-71510283D01*
X175303078Y-71593706D01*
X175315974Y-71662375D01*
X175303078Y-71706294D01*
X175260572Y-71789716D01*
X175243106Y-71899997D01*
X175243106Y-71900002D01*
X171556894Y-71900002D01*
X171556894Y-71899997D01*
X171539427Y-71789718D01*
X171539426Y-71789716D01*
X171539426Y-71789714D01*
X171488733Y-71690223D01*
X171488731Y-71690221D01*
X171488728Y-71690217D01*
X171409782Y-71611271D01*
X171409778Y-71611268D01*
X171409777Y-71611267D01*
X171310286Y-71560574D01*
X171310284Y-71560573D01*
X171310281Y-71560572D01*
X171200002Y-71543106D01*
X171199998Y-71543106D01*
X171089718Y-71560572D01*
X171089714Y-71560573D01*
X171089714Y-71560574D01*
X171024689Y-71593706D01*
X170990221Y-71611268D01*
X170990217Y-71611271D01*
X170911271Y-71690217D01*
X170911268Y-71690221D01*
X170860572Y-71789718D01*
X170843106Y-71899997D01*
X170843106Y-71900002D01*
X165354897Y-71900002D01*
X165357632Y-71878838D01*
X165402627Y-71825385D01*
X165469379Y-71804745D01*
X165490549Y-71806259D01*
X165599998Y-71823594D01*
X165600000Y-71823594D01*
X165600002Y-71823594D01*
X165710281Y-71806127D01*
X165710281Y-71806126D01*
X165710286Y-71806126D01*
X165809777Y-71755433D01*
X165888733Y-71676477D01*
X165939426Y-71576986D01*
X165941722Y-71562489D01*
X165956894Y-71466702D01*
X165956894Y-71466697D01*
X165939427Y-71356418D01*
X165939426Y-71356416D01*
X165939426Y-71356414D01*
X165888733Y-71256923D01*
X165888731Y-71256921D01*
X165888728Y-71256917D01*
X165809782Y-71177971D01*
X165809778Y-71177968D01*
X165809777Y-71177967D01*
X165710286Y-71127274D01*
X165710284Y-71127273D01*
X165710281Y-71127272D01*
X165600002Y-71109806D01*
X165599998Y-71109806D01*
X165489718Y-71127272D01*
X165390221Y-71177968D01*
X165390217Y-71177971D01*
X165311271Y-71256917D01*
X165311268Y-71256921D01*
X165260572Y-71356418D01*
X165243106Y-71466697D01*
X165243106Y-71466702D01*
X165251321Y-71518569D01*
X165242366Y-71587862D01*
X165197370Y-71641314D01*
X165130619Y-71661954D01*
X165109451Y-71660440D01*
X165000004Y-71643106D01*
X164999998Y-71643106D01*
X164889718Y-71660572D01*
X164889714Y-71660573D01*
X164889714Y-71660574D01*
X164858501Y-71676478D01*
X164790221Y-71711268D01*
X164790217Y-71711271D01*
X164711271Y-71790217D01*
X164711268Y-71790221D01*
X164711267Y-71790223D01*
X164685078Y-71841623D01*
X164660572Y-71889718D01*
X164643106Y-71999997D01*
X164643106Y-72000002D01*
X161593515Y-72000002D01*
X161660281Y-71989427D01*
X161660281Y-71989426D01*
X161660286Y-71989426D01*
X161759777Y-71938733D01*
X161838733Y-71859777D01*
X161889426Y-71760286D01*
X161890195Y-71755431D01*
X161906894Y-71650002D01*
X161906894Y-71649997D01*
X161893034Y-71562489D01*
X162450733Y-71562489D01*
X162468199Y-71672768D01*
X162468200Y-71672771D01*
X162468201Y-71672773D01*
X162512791Y-71760286D01*
X162518895Y-71772265D01*
X162518898Y-71772269D01*
X162597844Y-71851215D01*
X162597848Y-71851218D01*
X162597850Y-71851220D01*
X162697341Y-71901913D01*
X162697343Y-71901913D01*
X162697345Y-71901914D01*
X162807625Y-71919381D01*
X162807627Y-71919381D01*
X162807629Y-71919381D01*
X162917908Y-71901914D01*
X162917908Y-71901913D01*
X162917913Y-71901913D01*
X163017404Y-71851220D01*
X163027002Y-71841621D01*
X163088322Y-71808137D01*
X163158014Y-71813119D01*
X163202398Y-71846342D01*
X163204366Y-71844375D01*
X163290217Y-71930226D01*
X163290221Y-71930229D01*
X163290223Y-71930231D01*
X163389714Y-71980924D01*
X163389716Y-71980924D01*
X163389718Y-71980925D01*
X163499998Y-71998392D01*
X163500000Y-71998392D01*
X163500002Y-71998392D01*
X163610281Y-71980925D01*
X163610281Y-71980924D01*
X163610286Y-71980924D01*
X163709777Y-71930231D01*
X163788733Y-71851275D01*
X163839426Y-71751784D01*
X163841383Y-71739427D01*
X163856894Y-71641500D01*
X163856894Y-71641495D01*
X163839427Y-71531216D01*
X163839426Y-71531214D01*
X163839426Y-71531212D01*
X163788733Y-71431721D01*
X163788731Y-71431719D01*
X163788728Y-71431715D01*
X163709782Y-71352769D01*
X163709778Y-71352766D01*
X163709777Y-71352765D01*
X163610286Y-71302072D01*
X163610284Y-71302071D01*
X163610281Y-71302070D01*
X163500002Y-71284604D01*
X163499998Y-71284604D01*
X163389718Y-71302070D01*
X163290221Y-71352766D01*
X163290219Y-71352767D01*
X163280621Y-71362366D01*
X163219296Y-71395849D01*
X163149605Y-71390862D01*
X163105229Y-71357641D01*
X163103261Y-71359610D01*
X163017409Y-71273758D01*
X163017405Y-71273755D01*
X163017404Y-71273754D01*
X162917913Y-71223061D01*
X162917911Y-71223060D01*
X162917908Y-71223059D01*
X162807629Y-71205593D01*
X162807625Y-71205593D01*
X162697345Y-71223059D01*
X162597848Y-71273755D01*
X162597844Y-71273758D01*
X162518898Y-71352704D01*
X162518895Y-71352708D01*
X162468199Y-71452205D01*
X162450733Y-71562484D01*
X162450733Y-71562489D01*
X161893034Y-71562489D01*
X161889427Y-71539718D01*
X161889426Y-71539716D01*
X161889426Y-71539714D01*
X161838733Y-71440223D01*
X161838731Y-71440221D01*
X161838728Y-71440217D01*
X161759782Y-71361271D01*
X161759778Y-71361268D01*
X161759777Y-71361267D01*
X161660286Y-71310574D01*
X161660284Y-71310573D01*
X161660281Y-71310572D01*
X161550002Y-71293106D01*
X161549998Y-71293106D01*
X161439718Y-71310572D01*
X161340221Y-71361268D01*
X161340217Y-71361271D01*
X161261271Y-71440217D01*
X161261268Y-71440221D01*
X161210572Y-71539718D01*
X161193106Y-71649997D01*
X161193106Y-71650002D01*
X159948975Y-71650002D01*
X159956894Y-71600002D01*
X159956894Y-71599997D01*
X159939427Y-71489718D01*
X159939426Y-71489716D01*
X159939426Y-71489714D01*
X159888733Y-71390223D01*
X159888731Y-71390221D01*
X159888728Y-71390217D01*
X159809782Y-71311271D01*
X159809778Y-71311268D01*
X159809777Y-71311267D01*
X159710286Y-71260574D01*
X159710284Y-71260573D01*
X159710281Y-71260572D01*
X159600002Y-71243106D01*
X159599998Y-71243106D01*
X159489718Y-71260572D01*
X159390221Y-71311268D01*
X159390217Y-71311271D01*
X159311271Y-71390217D01*
X159311268Y-71390221D01*
X159260572Y-71489718D01*
X159243106Y-71599997D01*
X159243106Y-71600002D01*
X157993714Y-71600002D01*
X158039426Y-71510286D01*
X158042684Y-71489718D01*
X158056894Y-71400002D01*
X158056894Y-71399997D01*
X158039427Y-71289718D01*
X158039426Y-71289716D01*
X158039426Y-71289714D01*
X157988733Y-71190223D01*
X157988731Y-71190221D01*
X157988728Y-71190217D01*
X157909782Y-71111271D01*
X157909778Y-71111268D01*
X157909777Y-71111267D01*
X157810286Y-71060574D01*
X157810284Y-71060573D01*
X157810281Y-71060572D01*
X157700002Y-71043106D01*
X157699998Y-71043106D01*
X157589718Y-71060572D01*
X157490221Y-71111268D01*
X157490217Y-71111271D01*
X157411271Y-71190217D01*
X157411268Y-71190221D01*
X157411267Y-71190223D01*
X157368706Y-71273755D01*
X157360572Y-71289718D01*
X157343106Y-71399997D01*
X157343106Y-71400002D01*
X150622500Y-71400002D01*
X150622500Y-70866002D01*
X160171106Y-70866002D01*
X160188572Y-70976281D01*
X160188573Y-70976284D01*
X160188574Y-70976286D01*
X160239267Y-71075777D01*
X160239268Y-71075778D01*
X160239271Y-71075782D01*
X160318217Y-71154728D01*
X160318221Y-71154731D01*
X160318223Y-71154733D01*
X160417714Y-71205426D01*
X160417716Y-71205426D01*
X160417718Y-71205427D01*
X160527998Y-71222894D01*
X160528000Y-71222894D01*
X160528002Y-71222894D01*
X160638281Y-71205427D01*
X160638281Y-71205426D01*
X160638286Y-71205426D01*
X160737777Y-71154733D01*
X160816733Y-71075777D01*
X160867426Y-70976286D01*
X160877880Y-70910286D01*
X160879509Y-70900002D01*
X168293106Y-70900002D01*
X168310572Y-71010281D01*
X168310573Y-71010284D01*
X168310574Y-71010286D01*
X168361267Y-71109777D01*
X168361268Y-71109778D01*
X168361271Y-71109782D01*
X168440217Y-71188728D01*
X168440221Y-71188731D01*
X168440223Y-71188733D01*
X168539714Y-71239426D01*
X168539716Y-71239426D01*
X168539718Y-71239427D01*
X168649998Y-71256894D01*
X168650000Y-71256894D01*
X168650002Y-71256894D01*
X168760281Y-71239427D01*
X168760281Y-71239426D01*
X168760286Y-71239426D01*
X168859777Y-71188733D01*
X168938733Y-71109777D01*
X168989426Y-71010286D01*
X168989506Y-71009782D01*
X169006894Y-70900002D01*
X169006894Y-70899997D01*
X168989427Y-70789718D01*
X168989426Y-70789716D01*
X168989426Y-70789714D01*
X168938733Y-70690223D01*
X168938731Y-70690221D01*
X168938728Y-70690217D01*
X168859782Y-70611271D01*
X168859778Y-70611268D01*
X168859777Y-70611267D01*
X168760286Y-70560574D01*
X168760284Y-70560573D01*
X168760281Y-70560572D01*
X168650002Y-70543106D01*
X168649998Y-70543106D01*
X168539718Y-70560572D01*
X168440221Y-70611268D01*
X168440217Y-70611271D01*
X168361271Y-70690217D01*
X168361268Y-70690221D01*
X168310572Y-70789718D01*
X168293106Y-70899997D01*
X168293106Y-70900002D01*
X160879509Y-70900002D01*
X160884894Y-70866002D01*
X160884894Y-70865997D01*
X160867427Y-70755718D01*
X160867426Y-70755716D01*
X160867426Y-70755714D01*
X160816733Y-70656223D01*
X160816731Y-70656221D01*
X160816728Y-70656217D01*
X160737782Y-70577271D01*
X160737778Y-70577268D01*
X160737777Y-70577267D01*
X160638286Y-70526574D01*
X160638284Y-70526573D01*
X160638281Y-70526572D01*
X160528002Y-70509106D01*
X160527998Y-70509106D01*
X160417718Y-70526572D01*
X160318221Y-70577268D01*
X160318217Y-70577271D01*
X160239271Y-70656217D01*
X160239268Y-70656221D01*
X160188572Y-70755718D01*
X160171106Y-70865997D01*
X160171106Y-70866002D01*
X150622500Y-70866002D01*
X150622500Y-70104002D01*
X158647106Y-70104002D01*
X158664572Y-70214281D01*
X158664573Y-70214284D01*
X158664574Y-70214286D01*
X158673949Y-70232685D01*
X158715268Y-70313778D01*
X158715271Y-70313782D01*
X158794217Y-70392728D01*
X158794221Y-70392731D01*
X158794223Y-70392733D01*
X158893714Y-70443426D01*
X158893716Y-70443426D01*
X158893718Y-70443427D01*
X159003998Y-70460894D01*
X159004000Y-70460894D01*
X159004002Y-70460894D01*
X159114281Y-70443427D01*
X159114281Y-70443426D01*
X159114286Y-70443426D01*
X159213777Y-70392733D01*
X159292733Y-70313777D01*
X159334050Y-70232687D01*
X165343106Y-70232687D01*
X165360572Y-70342966D01*
X165360573Y-70342969D01*
X165360574Y-70342971D01*
X165385928Y-70392731D01*
X165411268Y-70442463D01*
X165411271Y-70442467D01*
X165490217Y-70521413D01*
X165490221Y-70521416D01*
X165490223Y-70521418D01*
X165589714Y-70572111D01*
X165589716Y-70572111D01*
X165589718Y-70572112D01*
X165699998Y-70589579D01*
X165700000Y-70589579D01*
X165700002Y-70589579D01*
X165810281Y-70572112D01*
X165810281Y-70572111D01*
X165810286Y-70572111D01*
X165909777Y-70521418D01*
X165988733Y-70442462D01*
X166039426Y-70342971D01*
X166056894Y-70232685D01*
X166039426Y-70122399D01*
X165988733Y-70022908D01*
X165988731Y-70022906D01*
X165988728Y-70022902D01*
X165909782Y-69943956D01*
X165909778Y-69943953D01*
X165909777Y-69943952D01*
X165810286Y-69893259D01*
X165810284Y-69893258D01*
X165810281Y-69893257D01*
X165700002Y-69875791D01*
X165699998Y-69875791D01*
X165589718Y-69893257D01*
X165490221Y-69943953D01*
X165490217Y-69943956D01*
X165411271Y-70022902D01*
X165411268Y-70022906D01*
X165360572Y-70122403D01*
X165343106Y-70232682D01*
X165343106Y-70232687D01*
X159334050Y-70232687D01*
X159343426Y-70214286D01*
X159360894Y-70104000D01*
X159343426Y-69993714D01*
X159292733Y-69894223D01*
X159292731Y-69894221D01*
X159292728Y-69894217D01*
X159213782Y-69815271D01*
X159213778Y-69815268D01*
X159213777Y-69815267D01*
X159114286Y-69764574D01*
X159114284Y-69764573D01*
X159114281Y-69764572D01*
X159004002Y-69747106D01*
X159003998Y-69747106D01*
X158893718Y-69764572D01*
X158794221Y-69815268D01*
X158794217Y-69815271D01*
X158715271Y-69894217D01*
X158715268Y-69894221D01*
X158664572Y-69993718D01*
X158647106Y-70103997D01*
X158647106Y-70104002D01*
X150622500Y-70104002D01*
X150622500Y-68900002D01*
X155493106Y-68900002D01*
X155510572Y-69010281D01*
X155510573Y-69010284D01*
X155510574Y-69010286D01*
X155561267Y-69109777D01*
X155561268Y-69109778D01*
X155561271Y-69109782D01*
X155640217Y-69188728D01*
X155640221Y-69188731D01*
X155640223Y-69188733D01*
X155739714Y-69239426D01*
X155739716Y-69239426D01*
X155739718Y-69239427D01*
X155849998Y-69256894D01*
X155850000Y-69256894D01*
X155850002Y-69256894D01*
X155960281Y-69239427D01*
X155960281Y-69239426D01*
X155960286Y-69239426D01*
X156059777Y-69188733D01*
X156062316Y-69186193D01*
X156066163Y-69184092D01*
X156067676Y-69182994D01*
X156067817Y-69183189D01*
X156123635Y-69152707D01*
X156193327Y-69157688D01*
X156237683Y-69186193D01*
X156240223Y-69188733D01*
X156339714Y-69239426D01*
X156339716Y-69239426D01*
X156339718Y-69239427D01*
X156449998Y-69256894D01*
X156450000Y-69256894D01*
X156450002Y-69256894D01*
X156560281Y-69239427D01*
X156560281Y-69239426D01*
X156560286Y-69239426D01*
X156659777Y-69188733D01*
X156687319Y-69161190D01*
X156748640Y-69127706D01*
X156818332Y-69132690D01*
X156862680Y-69161190D01*
X156890223Y-69188733D01*
X156989714Y-69239426D01*
X156989716Y-69239426D01*
X156989718Y-69239427D01*
X157099998Y-69256894D01*
X157100000Y-69256894D01*
X157100002Y-69256894D01*
X157210281Y-69239427D01*
X157210281Y-69239426D01*
X157210286Y-69239426D01*
X157309777Y-69188733D01*
X157388733Y-69109777D01*
X157439426Y-69010286D01*
X157441055Y-69000002D01*
X163473106Y-69000002D01*
X163490572Y-69110281D01*
X163490573Y-69110284D01*
X163490574Y-69110286D01*
X163530545Y-69188733D01*
X163541268Y-69209778D01*
X163541271Y-69209782D01*
X163620217Y-69288728D01*
X163620221Y-69288731D01*
X163620223Y-69288733D01*
X163719714Y-69339426D01*
X163719716Y-69339426D01*
X163719718Y-69339427D01*
X163829998Y-69356894D01*
X163830000Y-69356894D01*
X163830002Y-69356894D01*
X163940281Y-69339427D01*
X163940281Y-69339426D01*
X163940286Y-69339426D01*
X164039777Y-69288733D01*
X164118733Y-69209777D01*
X164169426Y-69110286D01*
X164169506Y-69109782D01*
X164171055Y-69100002D01*
X165793106Y-69100002D01*
X165810572Y-69210281D01*
X165810573Y-69210284D01*
X165810574Y-69210286D01*
X165850544Y-69288731D01*
X165861268Y-69309778D01*
X165861271Y-69309782D01*
X165940217Y-69388728D01*
X165940221Y-69388731D01*
X165940223Y-69388733D01*
X166039714Y-69439426D01*
X166039716Y-69439426D01*
X166039718Y-69439427D01*
X166149998Y-69456894D01*
X166150000Y-69456894D01*
X166150002Y-69456894D01*
X166260281Y-69439427D01*
X166260281Y-69439426D01*
X166260286Y-69439426D01*
X166359777Y-69388733D01*
X166438733Y-69309777D01*
X166489426Y-69210286D01*
X166489506Y-69209782D01*
X166506894Y-69100002D01*
X166506894Y-69099997D01*
X166489427Y-68989718D01*
X166489426Y-68989716D01*
X166489426Y-68989714D01*
X166443716Y-68900002D01*
X170143106Y-68900002D01*
X170160572Y-69010281D01*
X170160573Y-69010284D01*
X170160574Y-69010286D01*
X170211267Y-69109777D01*
X170211268Y-69109778D01*
X170211271Y-69109782D01*
X170290217Y-69188728D01*
X170290221Y-69188731D01*
X170290223Y-69188733D01*
X170389714Y-69239426D01*
X170389716Y-69239426D01*
X170389718Y-69239427D01*
X170499998Y-69256894D01*
X170500000Y-69256894D01*
X170500002Y-69256894D01*
X170610281Y-69239427D01*
X170610281Y-69239426D01*
X170610286Y-69239426D01*
X170709777Y-69188733D01*
X170788733Y-69109777D01*
X170839426Y-69010286D01*
X170842684Y-68989718D01*
X170856894Y-68900002D01*
X170856894Y-68899997D01*
X170839427Y-68789718D01*
X170839426Y-68789716D01*
X170839426Y-68789714D01*
X170788733Y-68690223D01*
X170788731Y-68690221D01*
X170788728Y-68690217D01*
X170709782Y-68611271D01*
X170709778Y-68611268D01*
X170709777Y-68611267D01*
X170610286Y-68560574D01*
X170610284Y-68560573D01*
X170610281Y-68560572D01*
X170500002Y-68543106D01*
X170499998Y-68543106D01*
X170389718Y-68560572D01*
X170290221Y-68611268D01*
X170290217Y-68611271D01*
X170211271Y-68690217D01*
X170211268Y-68690221D01*
X170160572Y-68789718D01*
X170143106Y-68899997D01*
X170143106Y-68900002D01*
X166443716Y-68900002D01*
X166438733Y-68890223D01*
X166438731Y-68890221D01*
X166438728Y-68890217D01*
X166359782Y-68811271D01*
X166359778Y-68811268D01*
X166359777Y-68811267D01*
X166260286Y-68760574D01*
X166260284Y-68760573D01*
X166260281Y-68760572D01*
X166150002Y-68743106D01*
X166149998Y-68743106D01*
X166039718Y-68760572D01*
X165940221Y-68811268D01*
X165940217Y-68811271D01*
X165861271Y-68890217D01*
X165861268Y-68890221D01*
X165810572Y-68989718D01*
X165793106Y-69099997D01*
X165793106Y-69100002D01*
X164171055Y-69100002D01*
X164186894Y-69000002D01*
X164186894Y-68999997D01*
X164169427Y-68889718D01*
X164169426Y-68889716D01*
X164169426Y-68889714D01*
X164118733Y-68790223D01*
X164118731Y-68790221D01*
X164118728Y-68790217D01*
X164039782Y-68711271D01*
X164039778Y-68711268D01*
X164039777Y-68711267D01*
X163940286Y-68660574D01*
X163940284Y-68660573D01*
X163940281Y-68660572D01*
X163830002Y-68643106D01*
X163829998Y-68643106D01*
X163719718Y-68660572D01*
X163620221Y-68711268D01*
X163620217Y-68711271D01*
X163541271Y-68790217D01*
X163541268Y-68790221D01*
X163490572Y-68889718D01*
X163473106Y-68999997D01*
X163473106Y-69000002D01*
X157441055Y-69000002D01*
X157442684Y-68989718D01*
X157456894Y-68900002D01*
X157456894Y-68899997D01*
X157439427Y-68789718D01*
X157439426Y-68789716D01*
X157439426Y-68789714D01*
X157388733Y-68690223D01*
X157388731Y-68690221D01*
X157388728Y-68690217D01*
X157336192Y-68637681D01*
X157302707Y-68576358D01*
X157307691Y-68506666D01*
X157336192Y-68462319D01*
X157388728Y-68409782D01*
X157388733Y-68409777D01*
X157439426Y-68310286D01*
X157441056Y-68299997D01*
X157456894Y-68200002D01*
X157456894Y-68199997D01*
X157439427Y-68089718D01*
X157439426Y-68089716D01*
X157439426Y-68089714D01*
X157388733Y-67990223D01*
X157388731Y-67990221D01*
X157388728Y-67990217D01*
X157309782Y-67911271D01*
X157309778Y-67911268D01*
X157309777Y-67911267D01*
X157210286Y-67860574D01*
X157210284Y-67860573D01*
X157210281Y-67860572D01*
X157133119Y-67848351D01*
X158717597Y-67848351D01*
X158735063Y-67958630D01*
X158735064Y-67958633D01*
X158735065Y-67958635D01*
X158785758Y-68058126D01*
X158785759Y-68058127D01*
X158785762Y-68058131D01*
X158864708Y-68137077D01*
X158864712Y-68137080D01*
X158864714Y-68137082D01*
X158964205Y-68187775D01*
X158964207Y-68187775D01*
X158964209Y-68187776D01*
X159074489Y-68205243D01*
X159074491Y-68205243D01*
X159074493Y-68205243D01*
X159184772Y-68187776D01*
X159184772Y-68187775D01*
X159184777Y-68187775D01*
X159284268Y-68137082D01*
X159351348Y-68070002D01*
X162965106Y-68070002D01*
X162982572Y-68180281D01*
X162982573Y-68180284D01*
X162982574Y-68180286D01*
X163033267Y-68279777D01*
X163033268Y-68279778D01*
X163033271Y-68279782D01*
X163112217Y-68358728D01*
X163112221Y-68358731D01*
X163112223Y-68358733D01*
X163211714Y-68409426D01*
X163211716Y-68409426D01*
X163211718Y-68409427D01*
X163321998Y-68426894D01*
X163322000Y-68426894D01*
X163322002Y-68426894D01*
X163432281Y-68409427D01*
X163432281Y-68409426D01*
X163432286Y-68409426D01*
X163531777Y-68358733D01*
X163590508Y-68300002D01*
X167893106Y-68300002D01*
X167910572Y-68410281D01*
X167910573Y-68410284D01*
X167910574Y-68410286D01*
X167950545Y-68488733D01*
X167961268Y-68509778D01*
X167961271Y-68509782D01*
X168040217Y-68588728D01*
X168040221Y-68588731D01*
X168040223Y-68588733D01*
X168139714Y-68639426D01*
X168139716Y-68639426D01*
X168139718Y-68639427D01*
X168249998Y-68656894D01*
X168250000Y-68656894D01*
X168250002Y-68656894D01*
X168360281Y-68639427D01*
X168360281Y-68639426D01*
X168360286Y-68639426D01*
X168459777Y-68588733D01*
X168538733Y-68509777D01*
X168589426Y-68410286D01*
X168589506Y-68409782D01*
X168606894Y-68300002D01*
X168606894Y-68299997D01*
X168589427Y-68189718D01*
X168589426Y-68189716D01*
X168589426Y-68189714D01*
X168538733Y-68090223D01*
X168538731Y-68090221D01*
X168538728Y-68090217D01*
X168459782Y-68011271D01*
X168459778Y-68011268D01*
X168459777Y-68011267D01*
X168360286Y-67960574D01*
X168360284Y-67960573D01*
X168360281Y-67960572D01*
X168250002Y-67943106D01*
X168249998Y-67943106D01*
X168139718Y-67960572D01*
X168040221Y-68011268D01*
X168040217Y-68011271D01*
X167961271Y-68090217D01*
X167961268Y-68090221D01*
X167910572Y-68189718D01*
X167893106Y-68299997D01*
X167893106Y-68300002D01*
X163590508Y-68300002D01*
X163610733Y-68279777D01*
X163661426Y-68180286D01*
X163668269Y-68137082D01*
X163678894Y-68070002D01*
X163678894Y-68069997D01*
X163661427Y-67959718D01*
X163661426Y-67959716D01*
X163661426Y-67959714D01*
X163610733Y-67860223D01*
X163610731Y-67860221D01*
X163610728Y-67860217D01*
X163531782Y-67781271D01*
X163531778Y-67781268D01*
X163531777Y-67781267D01*
X163432286Y-67730574D01*
X163432284Y-67730573D01*
X163432281Y-67730572D01*
X163322002Y-67713106D01*
X163321998Y-67713106D01*
X163211718Y-67730572D01*
X163112221Y-67781268D01*
X163112217Y-67781271D01*
X163033271Y-67860217D01*
X163033268Y-67860221D01*
X162982572Y-67959718D01*
X162965106Y-68069997D01*
X162965106Y-68070002D01*
X159351348Y-68070002D01*
X159363224Y-68058126D01*
X159413917Y-67958635D01*
X159413918Y-67958630D01*
X159431385Y-67848351D01*
X159431385Y-67848346D01*
X159413918Y-67738067D01*
X159413917Y-67738065D01*
X159413917Y-67738063D01*
X159363224Y-67638572D01*
X159363222Y-67638570D01*
X159363219Y-67638566D01*
X159284273Y-67559620D01*
X159284269Y-67559617D01*
X159284268Y-67559616D01*
X159184777Y-67508923D01*
X159184775Y-67508922D01*
X159184772Y-67508921D01*
X159074493Y-67491455D01*
X159074489Y-67491455D01*
X158964209Y-67508921D01*
X158864712Y-67559617D01*
X158864708Y-67559620D01*
X158785762Y-67638566D01*
X158785759Y-67638570D01*
X158735063Y-67738067D01*
X158717597Y-67848346D01*
X158717597Y-67848351D01*
X157133119Y-67848351D01*
X157100002Y-67843106D01*
X157099998Y-67843106D01*
X156989717Y-67860572D01*
X156955802Y-67877853D01*
X156887133Y-67890748D01*
X156822393Y-67864470D01*
X156782137Y-67807363D01*
X156779145Y-67737558D01*
X156789022Y-67711077D01*
X156789426Y-67710286D01*
X156800649Y-67639427D01*
X156806894Y-67600002D01*
X156806894Y-67599997D01*
X156789427Y-67489718D01*
X156789426Y-67489716D01*
X156789426Y-67489714D01*
X156738733Y-67390223D01*
X156738731Y-67390221D01*
X156738728Y-67390217D01*
X156666513Y-67318002D01*
X169061106Y-67318002D01*
X169078572Y-67428281D01*
X169078573Y-67428284D01*
X169078574Y-67428286D01*
X169129267Y-67527777D01*
X169129268Y-67527778D01*
X169129271Y-67527782D01*
X169208217Y-67606728D01*
X169208221Y-67606731D01*
X169208223Y-67606733D01*
X169307714Y-67657426D01*
X169307716Y-67657426D01*
X169307718Y-67657427D01*
X169417998Y-67674894D01*
X169418000Y-67674894D01*
X169418002Y-67674894D01*
X169528281Y-67657427D01*
X169528281Y-67657426D01*
X169528286Y-67657426D01*
X169627777Y-67606733D01*
X169650485Y-67584025D01*
X169680319Y-67554192D01*
X169741642Y-67520707D01*
X169811334Y-67525691D01*
X169855681Y-67554192D01*
X169890217Y-67588728D01*
X169890221Y-67588731D01*
X169890223Y-67588733D01*
X169989714Y-67639426D01*
X169989716Y-67639426D01*
X169989718Y-67639427D01*
X170099998Y-67656894D01*
X170100000Y-67656894D01*
X170100002Y-67656894D01*
X170210281Y-67639427D01*
X170210281Y-67639426D01*
X170210286Y-67639426D01*
X170309777Y-67588733D01*
X170314485Y-67584025D01*
X170362319Y-67536192D01*
X170423642Y-67502707D01*
X170493334Y-67507691D01*
X170537681Y-67536192D01*
X170590217Y-67588728D01*
X170590221Y-67588731D01*
X170590223Y-67588733D01*
X170689714Y-67639426D01*
X170689716Y-67639426D01*
X170689718Y-67639427D01*
X170799998Y-67656894D01*
X170800000Y-67656894D01*
X170800002Y-67656894D01*
X170910281Y-67639427D01*
X170910281Y-67639426D01*
X170910286Y-67639426D01*
X170993708Y-67596920D01*
X171062374Y-67584025D01*
X171106290Y-67596919D01*
X171189714Y-67639426D01*
X171189716Y-67639426D01*
X171189718Y-67639427D01*
X171299998Y-67656894D01*
X171300000Y-67656894D01*
X171300002Y-67656894D01*
X171410281Y-67639427D01*
X171410281Y-67639426D01*
X171410286Y-67639426D01*
X171509777Y-67588733D01*
X171588733Y-67509777D01*
X171639426Y-67410286D01*
X171642605Y-67390217D01*
X171656894Y-67300002D01*
X171656894Y-67299997D01*
X171639427Y-67189718D01*
X171639426Y-67189716D01*
X171639426Y-67189714D01*
X171588733Y-67090223D01*
X171588731Y-67090221D01*
X171588728Y-67090217D01*
X171509782Y-67011271D01*
X171509778Y-67011268D01*
X171509777Y-67011267D01*
X171410286Y-66960574D01*
X171410284Y-66960573D01*
X171410281Y-66960572D01*
X171300002Y-66943106D01*
X171299998Y-66943106D01*
X171189716Y-66960572D01*
X171106294Y-67003078D01*
X171037625Y-67015974D01*
X170993706Y-67003078D01*
X170910283Y-66960572D01*
X170800002Y-66943106D01*
X170799998Y-66943106D01*
X170689718Y-66960572D01*
X170590221Y-67011268D01*
X170590217Y-67011271D01*
X170537681Y-67063808D01*
X170476358Y-67097293D01*
X170406666Y-67092309D01*
X170362319Y-67063808D01*
X170309782Y-67011271D01*
X170309778Y-67011268D01*
X170309777Y-67011267D01*
X170210286Y-66960574D01*
X170210284Y-66960573D01*
X170210281Y-66960572D01*
X170100002Y-66943106D01*
X170099998Y-66943106D01*
X169989718Y-66960572D01*
X169890221Y-67011268D01*
X169890217Y-67011271D01*
X169837681Y-67063808D01*
X169776358Y-67097293D01*
X169706666Y-67092309D01*
X169662319Y-67063808D01*
X169627782Y-67029271D01*
X169627778Y-67029268D01*
X169627777Y-67029267D01*
X169528286Y-66978574D01*
X169528284Y-66978573D01*
X169528281Y-66978572D01*
X169418002Y-66961106D01*
X169417998Y-66961106D01*
X169307718Y-66978572D01*
X169208221Y-67029268D01*
X169208217Y-67029271D01*
X169129271Y-67108217D01*
X169129268Y-67108221D01*
X169078572Y-67207718D01*
X169061106Y-67317997D01*
X169061106Y-67318002D01*
X156666513Y-67318002D01*
X156659782Y-67311271D01*
X156659778Y-67311268D01*
X156659777Y-67311267D01*
X156560286Y-67260574D01*
X156560284Y-67260573D01*
X156560281Y-67260572D01*
X156450002Y-67243106D01*
X156449998Y-67243106D01*
X156339718Y-67260572D01*
X156240221Y-67311268D01*
X156240217Y-67311271D01*
X156237681Y-67313808D01*
X156233836Y-67315907D01*
X156232324Y-67317006D01*
X156232182Y-67316810D01*
X156176358Y-67347293D01*
X156106666Y-67342309D01*
X156062319Y-67313808D01*
X156059782Y-67311271D01*
X156059778Y-67311268D01*
X156059777Y-67311267D01*
X155960286Y-67260574D01*
X155960284Y-67260573D01*
X155960281Y-67260572D01*
X155850002Y-67243106D01*
X155849998Y-67243106D01*
X155739718Y-67260572D01*
X155640221Y-67311268D01*
X155640217Y-67311271D01*
X155561271Y-67390217D01*
X155561268Y-67390221D01*
X155510572Y-67489718D01*
X155493106Y-67599997D01*
X155493106Y-67600002D01*
X155510572Y-67710281D01*
X155510573Y-67710284D01*
X155510574Y-67710286D01*
X155561267Y-67809777D01*
X155561268Y-67809778D01*
X155561271Y-67809782D01*
X155563808Y-67812319D01*
X155565907Y-67816163D01*
X155567006Y-67817676D01*
X155566810Y-67817817D01*
X155597293Y-67873642D01*
X155592309Y-67943334D01*
X155563808Y-67987681D01*
X155561271Y-67990217D01*
X155561268Y-67990221D01*
X155510572Y-68089718D01*
X155493106Y-68199997D01*
X155493106Y-68200002D01*
X155510572Y-68310281D01*
X155510573Y-68310284D01*
X155510574Y-68310286D01*
X155561089Y-68409427D01*
X155561268Y-68409778D01*
X155561271Y-68409782D01*
X155613808Y-68462319D01*
X155647293Y-68523642D01*
X155642309Y-68593334D01*
X155613808Y-68637681D01*
X155561271Y-68690217D01*
X155561268Y-68690221D01*
X155510572Y-68789718D01*
X155493106Y-68899997D01*
X155493106Y-68900002D01*
X150622500Y-68900002D01*
X150622500Y-65654002D01*
X153343106Y-65654002D01*
X153360572Y-65764281D01*
X153360573Y-65764284D01*
X153360574Y-65764286D01*
X153411267Y-65863777D01*
X153411268Y-65863778D01*
X153411271Y-65863782D01*
X153490217Y-65942728D01*
X153490221Y-65942731D01*
X153490223Y-65942733D01*
X153589714Y-65993426D01*
X153589716Y-65993426D01*
X153589718Y-65993427D01*
X153699998Y-66010894D01*
X153700000Y-66010894D01*
X153700002Y-66010894D01*
X153810281Y-65993427D01*
X153810281Y-65993426D01*
X153810286Y-65993426D01*
X153909777Y-65942733D01*
X153939508Y-65913002D01*
X172540906Y-65913002D01*
X172558372Y-66023281D01*
X172558373Y-66023284D01*
X172558374Y-66023286D01*
X172609067Y-66122777D01*
X172609068Y-66122778D01*
X172609071Y-66122782D01*
X172688017Y-66201728D01*
X172688021Y-66201731D01*
X172688023Y-66201733D01*
X172787514Y-66252426D01*
X172787516Y-66252426D01*
X172787518Y-66252427D01*
X172897798Y-66269894D01*
X172897800Y-66269894D01*
X172897802Y-66269894D01*
X173008081Y-66252427D01*
X173008081Y-66252426D01*
X173008086Y-66252426D01*
X173107577Y-66201733D01*
X173186533Y-66122777D01*
X173237226Y-66023286D01*
X173239189Y-66010894D01*
X173254694Y-65913002D01*
X173254694Y-65912997D01*
X173237227Y-65802718D01*
X173237226Y-65802716D01*
X173237226Y-65802714D01*
X173205246Y-65739950D01*
X173192351Y-65671283D01*
X173205246Y-65627367D01*
X173239426Y-65560286D01*
X173242051Y-65543718D01*
X173256894Y-65450002D01*
X173256894Y-65449997D01*
X173239427Y-65339718D01*
X173239426Y-65339716D01*
X173239426Y-65339714D01*
X173188733Y-65240223D01*
X173188731Y-65240221D01*
X173188728Y-65240217D01*
X173109782Y-65161271D01*
X173109778Y-65161268D01*
X173109777Y-65161267D01*
X173010286Y-65110574D01*
X173010284Y-65110573D01*
X173010281Y-65110572D01*
X172900002Y-65093106D01*
X172899998Y-65093106D01*
X172789718Y-65110572D01*
X172690221Y-65161268D01*
X172690217Y-65161271D01*
X172611271Y-65240217D01*
X172611268Y-65240221D01*
X172560572Y-65339718D01*
X172543106Y-65449997D01*
X172543106Y-65450002D01*
X172560572Y-65560283D01*
X172592552Y-65623047D01*
X172605448Y-65691716D01*
X172592552Y-65735635D01*
X172558372Y-65802716D01*
X172540906Y-65912997D01*
X172540906Y-65913002D01*
X153939508Y-65913002D01*
X153988733Y-65863777D01*
X154039426Y-65764286D01*
X154049098Y-65703223D01*
X154056894Y-65654002D01*
X154056894Y-65653997D01*
X154039427Y-65543718D01*
X154039426Y-65543716D01*
X154039426Y-65543714D01*
X153988733Y-65444223D01*
X153988731Y-65444221D01*
X153988728Y-65444217D01*
X153909782Y-65365271D01*
X153909778Y-65365268D01*
X153909777Y-65365267D01*
X153810286Y-65314574D01*
X153810284Y-65314573D01*
X153810281Y-65314572D01*
X153700002Y-65297106D01*
X153699998Y-65297106D01*
X153589718Y-65314572D01*
X153490221Y-65365268D01*
X153490217Y-65365271D01*
X153411271Y-65444217D01*
X153411268Y-65444221D01*
X153360572Y-65543718D01*
X153343106Y-65653997D01*
X153343106Y-65654002D01*
X150622500Y-65654002D01*
X150622500Y-63100002D01*
X153643106Y-63100002D01*
X153660572Y-63210281D01*
X153660573Y-63210284D01*
X153660574Y-63210286D01*
X153711267Y-63309777D01*
X153711268Y-63309778D01*
X153711271Y-63309782D01*
X153790217Y-63388728D01*
X153790221Y-63388731D01*
X153790223Y-63388733D01*
X153889714Y-63439426D01*
X153889716Y-63439426D01*
X153889718Y-63439427D01*
X153999998Y-63456894D01*
X154000000Y-63456894D01*
X154000002Y-63456894D01*
X154110281Y-63439427D01*
X154110281Y-63439426D01*
X154110286Y-63439426D01*
X154209777Y-63388733D01*
X154288733Y-63309777D01*
X154339426Y-63210286D01*
X154356894Y-63100000D01*
X154339426Y-62989714D01*
X154288733Y-62890223D01*
X154288731Y-62890221D01*
X154288728Y-62890217D01*
X154209782Y-62811271D01*
X154209778Y-62811268D01*
X154209777Y-62811267D01*
X154110286Y-62760574D01*
X154110284Y-62760573D01*
X154110281Y-62760572D01*
X154000002Y-62743106D01*
X153999998Y-62743106D01*
X153889718Y-62760572D01*
X153790221Y-62811268D01*
X153790217Y-62811271D01*
X153711271Y-62890217D01*
X153711268Y-62890221D01*
X153660572Y-62989718D01*
X153643106Y-63099997D01*
X153643106Y-63100002D01*
X150622500Y-63100002D01*
X150622500Y-62050002D01*
X155493106Y-62050002D01*
X155510572Y-62160281D01*
X155510573Y-62160284D01*
X155510574Y-62160286D01*
X155561267Y-62259777D01*
X155561268Y-62259778D01*
X155561271Y-62259782D01*
X155640217Y-62338728D01*
X155640221Y-62338731D01*
X155640223Y-62338733D01*
X155739714Y-62389426D01*
X155739716Y-62389426D01*
X155739718Y-62389427D01*
X155849998Y-62406894D01*
X155850000Y-62406894D01*
X155850002Y-62406894D01*
X155960281Y-62389427D01*
X155960281Y-62389426D01*
X155960286Y-62389426D01*
X156059777Y-62338733D01*
X156138733Y-62259777D01*
X156189426Y-62160286D01*
X156206894Y-62050000D01*
X156191355Y-61951894D01*
X156189427Y-61939718D01*
X156189426Y-61939716D01*
X156189426Y-61939714D01*
X156138733Y-61840223D01*
X156138731Y-61840221D01*
X156138728Y-61840217D01*
X156059782Y-61761271D01*
X156059778Y-61761268D01*
X156059777Y-61761267D01*
X155960286Y-61710574D01*
X155960284Y-61710573D01*
X155960281Y-61710572D01*
X155850002Y-61693106D01*
X155849998Y-61693106D01*
X155739718Y-61710572D01*
X155640221Y-61761268D01*
X155640217Y-61761271D01*
X155561271Y-61840217D01*
X155561268Y-61840221D01*
X155510572Y-61939718D01*
X155493106Y-62049997D01*
X155493106Y-62050002D01*
X150622500Y-62050002D01*
X150622500Y-61600002D01*
X165643106Y-61600002D01*
X165660572Y-61710281D01*
X165660573Y-61710284D01*
X165660574Y-61710286D01*
X165708720Y-61804778D01*
X165711268Y-61809778D01*
X165711271Y-61809782D01*
X165790217Y-61888728D01*
X165790221Y-61888731D01*
X165790223Y-61888733D01*
X165889714Y-61939426D01*
X165889716Y-61939426D01*
X165889718Y-61939427D01*
X165999998Y-61956894D01*
X166000000Y-61956894D01*
X166000002Y-61956894D01*
X166110281Y-61939427D01*
X166110281Y-61939426D01*
X166110286Y-61939426D01*
X166209777Y-61888733D01*
X166288733Y-61809777D01*
X166339426Y-61710286D01*
X166356894Y-61600000D01*
X166356102Y-61595002D01*
X166339427Y-61489718D01*
X166339426Y-61489716D01*
X166339426Y-61489714D01*
X166288733Y-61390223D01*
X166288731Y-61390221D01*
X166288728Y-61390217D01*
X166209782Y-61311271D01*
X166209778Y-61311268D01*
X166209777Y-61311267D01*
X166110286Y-61260574D01*
X166110284Y-61260573D01*
X166110281Y-61260572D01*
X166000002Y-61243106D01*
X165999998Y-61243106D01*
X165889718Y-61260572D01*
X165790221Y-61311268D01*
X165790217Y-61311271D01*
X165711271Y-61390217D01*
X165711268Y-61390221D01*
X165660572Y-61489718D01*
X165643106Y-61599997D01*
X165643106Y-61600002D01*
X150622500Y-61600002D01*
X150622500Y-60750002D01*
X163443106Y-60750002D01*
X163460572Y-60860281D01*
X163460573Y-60860284D01*
X163460574Y-60860286D01*
X163495085Y-60928017D01*
X163511268Y-60959778D01*
X163511271Y-60959782D01*
X163590217Y-61038728D01*
X163590221Y-61038731D01*
X163590223Y-61038733D01*
X163689714Y-61089426D01*
X163689716Y-61089426D01*
X163689718Y-61089427D01*
X163799998Y-61106894D01*
X163800000Y-61106894D01*
X163800002Y-61106894D01*
X163910281Y-61089427D01*
X163910281Y-61089426D01*
X163910286Y-61089426D01*
X164009777Y-61038733D01*
X164088733Y-60959777D01*
X164139426Y-60860286D01*
X164139427Y-60860281D01*
X164156894Y-60750002D01*
X164156894Y-60749997D01*
X164148975Y-60700002D01*
X164443106Y-60700002D01*
X164460572Y-60810281D01*
X164460573Y-60810284D01*
X164460574Y-60810286D01*
X164503527Y-60894586D01*
X164511268Y-60909778D01*
X164511271Y-60909782D01*
X164590217Y-60988728D01*
X164590221Y-60988731D01*
X164590223Y-60988733D01*
X164689714Y-61039426D01*
X164689716Y-61039426D01*
X164689718Y-61039427D01*
X164799998Y-61056894D01*
X164800000Y-61056894D01*
X164800002Y-61056894D01*
X164910281Y-61039427D01*
X164910281Y-61039426D01*
X164910286Y-61039426D01*
X165009777Y-60988733D01*
X165088733Y-60909777D01*
X165139426Y-60810286D01*
X165143542Y-60784302D01*
X170227406Y-60784302D01*
X170244872Y-60894581D01*
X170244873Y-60894584D01*
X170244874Y-60894586D01*
X170295567Y-60994077D01*
X170295568Y-60994078D01*
X170295571Y-60994082D01*
X170374517Y-61073028D01*
X170374521Y-61073031D01*
X170374523Y-61073033D01*
X170474014Y-61123726D01*
X170474016Y-61123726D01*
X170474018Y-61123727D01*
X170496695Y-61127319D01*
X170559830Y-61157248D01*
X170596762Y-61216559D01*
X170599771Y-61230390D01*
X170602574Y-61248086D01*
X170653267Y-61347577D01*
X170653269Y-61347579D01*
X170653271Y-61347582D01*
X170732217Y-61426528D01*
X170732220Y-61426530D01*
X170732223Y-61426533D01*
X170799045Y-61460580D01*
X170849842Y-61508554D01*
X170866637Y-61576375D01*
X170865225Y-61590459D01*
X170864506Y-61594999D01*
X170864506Y-61595002D01*
X170881972Y-61705281D01*
X170881973Y-61705284D01*
X170881974Y-61705286D01*
X170910500Y-61761271D01*
X170932668Y-61804778D01*
X170932671Y-61804782D01*
X171011617Y-61883728D01*
X171011621Y-61883731D01*
X171011623Y-61883733D01*
X171111114Y-61934426D01*
X171111116Y-61934426D01*
X171111118Y-61934427D01*
X171221398Y-61951894D01*
X171221400Y-61951894D01*
X171221402Y-61951894D01*
X171331681Y-61934427D01*
X171331681Y-61934426D01*
X171331686Y-61934426D01*
X171431177Y-61883733D01*
X171510133Y-61804777D01*
X171560826Y-61705286D01*
X171578294Y-61595000D01*
X171560826Y-61484714D01*
X171510133Y-61385223D01*
X171510131Y-61385221D01*
X171510128Y-61385217D01*
X171431182Y-61306271D01*
X171431179Y-61306269D01*
X171431177Y-61306267D01*
X171364352Y-61272218D01*
X171313557Y-61224244D01*
X171296762Y-61156423D01*
X171298174Y-61142340D01*
X171298894Y-61137800D01*
X171291232Y-61089427D01*
X171281427Y-61027518D01*
X171281426Y-61027516D01*
X171281426Y-61027514D01*
X171230733Y-60928023D01*
X171230731Y-60928021D01*
X171230728Y-60928017D01*
X171151782Y-60849071D01*
X171151778Y-60849068D01*
X171151777Y-60849067D01*
X171052286Y-60798374D01*
X171052285Y-60798373D01*
X171052282Y-60798372D01*
X171029601Y-60794780D01*
X170966466Y-60764849D01*
X170929536Y-60705537D01*
X170926528Y-60691711D01*
X170923726Y-60674014D01*
X170873033Y-60574523D01*
X170873031Y-60574521D01*
X170873028Y-60574517D01*
X170794082Y-60495571D01*
X170794078Y-60495568D01*
X170794077Y-60495567D01*
X170694586Y-60444874D01*
X170694584Y-60444873D01*
X170694581Y-60444872D01*
X170584302Y-60427406D01*
X170584298Y-60427406D01*
X170474018Y-60444872D01*
X170374521Y-60495568D01*
X170374517Y-60495571D01*
X170295571Y-60574517D01*
X170295568Y-60574521D01*
X170244872Y-60674018D01*
X170227406Y-60784297D01*
X170227406Y-60784302D01*
X165143542Y-60784302D01*
X165143542Y-60784300D01*
X165156894Y-60700002D01*
X165156894Y-60699997D01*
X165139427Y-60589718D01*
X165139426Y-60589716D01*
X165139426Y-60589714D01*
X165088733Y-60490223D01*
X165088731Y-60490221D01*
X165088728Y-60490217D01*
X165009782Y-60411271D01*
X165009778Y-60411268D01*
X165009777Y-60411267D01*
X164910286Y-60360574D01*
X164910284Y-60360573D01*
X164910281Y-60360572D01*
X164800002Y-60343106D01*
X164799998Y-60343106D01*
X164689718Y-60360572D01*
X164590221Y-60411268D01*
X164590217Y-60411271D01*
X164511271Y-60490217D01*
X164511268Y-60490221D01*
X164460572Y-60589718D01*
X164443106Y-60699997D01*
X164443106Y-60700002D01*
X164148975Y-60700002D01*
X164139427Y-60639718D01*
X164139426Y-60639716D01*
X164139426Y-60639714D01*
X164088733Y-60540223D01*
X164088731Y-60540221D01*
X164088728Y-60540217D01*
X164009782Y-60461271D01*
X164009778Y-60461268D01*
X164009777Y-60461267D01*
X163910286Y-60410574D01*
X163910284Y-60410573D01*
X163910281Y-60410572D01*
X163800002Y-60393106D01*
X163799998Y-60393106D01*
X163689718Y-60410572D01*
X163590221Y-60461268D01*
X163590217Y-60461271D01*
X163511271Y-60540217D01*
X163511268Y-60540221D01*
X163460572Y-60639718D01*
X163443106Y-60749997D01*
X163443106Y-60750002D01*
X150622500Y-60750002D01*
X150622500Y-58700002D01*
X153643106Y-58700002D01*
X153660572Y-58810281D01*
X153660573Y-58810284D01*
X153660574Y-58810286D01*
X153711267Y-58909777D01*
X153711268Y-58909778D01*
X153711271Y-58909782D01*
X153790217Y-58988728D01*
X153790221Y-58988731D01*
X153790223Y-58988733D01*
X153889714Y-59039426D01*
X153889716Y-59039426D01*
X153889718Y-59039427D01*
X153999998Y-59056894D01*
X154000000Y-59056894D01*
X154000002Y-59056894D01*
X154110281Y-59039427D01*
X154110281Y-59039426D01*
X154110286Y-59039426D01*
X154209777Y-58988733D01*
X154288733Y-58909777D01*
X154339426Y-58810286D01*
X154356894Y-58700000D01*
X154339426Y-58589714D01*
X154288733Y-58490223D01*
X154288731Y-58490221D01*
X154288728Y-58490217D01*
X154209782Y-58411271D01*
X154209778Y-58411268D01*
X154209777Y-58411267D01*
X154110286Y-58360574D01*
X154110284Y-58360573D01*
X154110281Y-58360572D01*
X154000002Y-58343106D01*
X153999998Y-58343106D01*
X153889718Y-58360572D01*
X153790221Y-58411268D01*
X153790217Y-58411271D01*
X153711271Y-58490217D01*
X153711268Y-58490221D01*
X153660572Y-58589718D01*
X153643106Y-58699997D01*
X153643106Y-58700002D01*
X150622500Y-58700002D01*
X150622500Y-58200002D01*
X169743106Y-58200002D01*
X169760572Y-58310281D01*
X169760573Y-58310284D01*
X169760574Y-58310286D01*
X169777297Y-58343106D01*
X169811268Y-58409778D01*
X169811271Y-58409782D01*
X169890217Y-58488728D01*
X169890221Y-58488731D01*
X169890223Y-58488733D01*
X169989714Y-58539426D01*
X169989716Y-58539426D01*
X169989718Y-58539427D01*
X170099998Y-58556894D01*
X170100000Y-58556894D01*
X170100002Y-58556894D01*
X170210281Y-58539427D01*
X170210281Y-58539426D01*
X170210286Y-58539426D01*
X170309777Y-58488733D01*
X170312316Y-58486193D01*
X170316163Y-58484092D01*
X170317676Y-58482994D01*
X170317817Y-58483189D01*
X170373635Y-58452707D01*
X170443327Y-58457688D01*
X170487683Y-58486193D01*
X170490223Y-58488733D01*
X170589714Y-58539426D01*
X170589716Y-58539426D01*
X170589718Y-58539427D01*
X170699998Y-58556894D01*
X170700000Y-58556894D01*
X170700002Y-58556894D01*
X170810281Y-58539427D01*
X170810281Y-58539426D01*
X170810286Y-58539426D01*
X170909777Y-58488733D01*
X170988733Y-58409777D01*
X171039426Y-58310286D01*
X171056894Y-58200000D01*
X171039426Y-58089714D01*
X170988733Y-57990223D01*
X170988731Y-57990221D01*
X170988728Y-57990217D01*
X170909782Y-57911271D01*
X170909778Y-57911268D01*
X170909777Y-57911267D01*
X170810286Y-57860574D01*
X170810284Y-57860573D01*
X170810281Y-57860572D01*
X170700002Y-57843106D01*
X170699998Y-57843106D01*
X170589718Y-57860572D01*
X170490221Y-57911268D01*
X170490217Y-57911271D01*
X170487681Y-57913808D01*
X170483836Y-57915907D01*
X170482324Y-57917006D01*
X170482182Y-57916810D01*
X170426358Y-57947293D01*
X170356666Y-57942309D01*
X170312319Y-57913808D01*
X170309782Y-57911271D01*
X170309778Y-57911268D01*
X170309777Y-57911267D01*
X170210286Y-57860574D01*
X170210284Y-57860573D01*
X170210281Y-57860572D01*
X170100002Y-57843106D01*
X170099998Y-57843106D01*
X169989718Y-57860572D01*
X169890221Y-57911268D01*
X169890217Y-57911271D01*
X169811271Y-57990217D01*
X169811268Y-57990221D01*
X169760572Y-58089718D01*
X169743106Y-58199997D01*
X169743106Y-58200002D01*
X150622500Y-58200002D01*
X150622500Y-56900002D01*
X156693106Y-56900002D01*
X156710572Y-57010281D01*
X156710573Y-57010284D01*
X156710574Y-57010286D01*
X156750000Y-57087664D01*
X156761268Y-57109778D01*
X156761271Y-57109782D01*
X156840217Y-57188728D01*
X156840221Y-57188731D01*
X156840223Y-57188733D01*
X156939714Y-57239426D01*
X156939716Y-57239426D01*
X156939718Y-57239427D01*
X157049998Y-57256894D01*
X157050000Y-57256894D01*
X157050002Y-57256894D01*
X157160281Y-57239427D01*
X157160281Y-57239426D01*
X157160286Y-57239426D01*
X157259777Y-57188733D01*
X157262316Y-57186193D01*
X157266163Y-57184092D01*
X157267676Y-57182994D01*
X157267817Y-57183189D01*
X157323635Y-57152707D01*
X157393327Y-57157688D01*
X157437683Y-57186193D01*
X157440223Y-57188733D01*
X157539714Y-57239426D01*
X157539716Y-57239426D01*
X157539718Y-57239427D01*
X157649998Y-57256894D01*
X157650000Y-57256894D01*
X157650002Y-57256894D01*
X157760281Y-57239427D01*
X157760281Y-57239426D01*
X157760286Y-57239426D01*
X157859777Y-57188733D01*
X157938733Y-57109777D01*
X157989426Y-57010286D01*
X158006894Y-56900000D01*
X157989426Y-56789714D01*
X157938733Y-56690223D01*
X157938731Y-56690221D01*
X157938728Y-56690217D01*
X157859782Y-56611271D01*
X157859778Y-56611268D01*
X157859777Y-56611267D01*
X157760286Y-56560574D01*
X157760284Y-56560573D01*
X157760281Y-56560572D01*
X157650002Y-56543106D01*
X157649998Y-56543106D01*
X157539718Y-56560572D01*
X157440221Y-56611268D01*
X157440217Y-56611271D01*
X157437681Y-56613808D01*
X157433836Y-56615907D01*
X157432324Y-56617006D01*
X157432182Y-56616810D01*
X157376358Y-56647293D01*
X157306666Y-56642309D01*
X157262319Y-56613808D01*
X157259782Y-56611271D01*
X157259778Y-56611268D01*
X157259777Y-56611267D01*
X157160286Y-56560574D01*
X157160284Y-56560573D01*
X157160281Y-56560572D01*
X157050002Y-56543106D01*
X157049998Y-56543106D01*
X156939718Y-56560572D01*
X156840221Y-56611268D01*
X156840217Y-56611271D01*
X156761271Y-56690217D01*
X156761268Y-56690221D01*
X156710572Y-56789718D01*
X156693106Y-56899997D01*
X156693106Y-56900002D01*
X150622500Y-56900002D01*
X150622500Y-56500002D01*
X153493106Y-56500002D01*
X153510572Y-56610281D01*
X153510573Y-56610284D01*
X153510574Y-56610286D01*
X153529430Y-56647293D01*
X153561268Y-56709778D01*
X153561271Y-56709782D01*
X153640217Y-56788728D01*
X153640221Y-56788731D01*
X153640223Y-56788733D01*
X153739714Y-56839426D01*
X153739716Y-56839426D01*
X153739718Y-56839427D01*
X153849998Y-56856894D01*
X153850000Y-56856894D01*
X153850002Y-56856894D01*
X153960281Y-56839427D01*
X153960281Y-56839426D01*
X153960286Y-56839426D01*
X154059777Y-56788733D01*
X154059778Y-56788731D01*
X154068472Y-56784302D01*
X154070279Y-56787850D01*
X154117673Y-56770834D01*
X154180960Y-56785416D01*
X154181528Y-56784302D01*
X154190221Y-56788731D01*
X154190223Y-56788733D01*
X154289714Y-56839426D01*
X154289716Y-56839426D01*
X154289718Y-56839427D01*
X154399998Y-56856894D01*
X154400000Y-56856894D01*
X154400002Y-56856894D01*
X154510281Y-56839427D01*
X154510281Y-56839426D01*
X154510286Y-56839426D01*
X154609777Y-56788733D01*
X154688733Y-56709777D01*
X154739426Y-56610286D01*
X154755345Y-56509782D01*
X154756894Y-56500002D01*
X172093106Y-56500002D01*
X172110572Y-56610281D01*
X172110573Y-56610284D01*
X172110574Y-56610286D01*
X172129430Y-56647293D01*
X172161268Y-56709778D01*
X172161271Y-56709782D01*
X172240217Y-56788728D01*
X172240221Y-56788731D01*
X172240223Y-56788733D01*
X172339714Y-56839426D01*
X172339716Y-56839426D01*
X172339718Y-56839427D01*
X172449998Y-56856894D01*
X172450000Y-56856894D01*
X172450002Y-56856894D01*
X172560281Y-56839427D01*
X172560281Y-56839426D01*
X172560286Y-56839426D01*
X172659777Y-56788733D01*
X172738733Y-56709777D01*
X172789426Y-56610286D01*
X172805345Y-56509782D01*
X172806894Y-56500002D01*
X172806894Y-56499997D01*
X172789427Y-56389718D01*
X172789426Y-56389716D01*
X172789426Y-56389714D01*
X172743716Y-56300002D01*
X174193106Y-56300002D01*
X174210572Y-56410281D01*
X174210573Y-56410284D01*
X174210574Y-56410286D01*
X174261267Y-56509777D01*
X174261268Y-56509778D01*
X174261271Y-56509782D01*
X174340217Y-56588728D01*
X174340221Y-56588731D01*
X174340223Y-56588733D01*
X174439714Y-56639426D01*
X174439716Y-56639426D01*
X174439718Y-56639427D01*
X174549998Y-56656894D01*
X174550000Y-56656894D01*
X174550002Y-56656894D01*
X174660281Y-56639427D01*
X174660281Y-56639426D01*
X174660286Y-56639426D01*
X174759777Y-56588733D01*
X174838733Y-56509777D01*
X174889426Y-56410286D01*
X174892684Y-56389718D01*
X174906894Y-56300002D01*
X174906894Y-56299997D01*
X174889427Y-56189718D01*
X174889426Y-56189716D01*
X174889426Y-56189714D01*
X174838733Y-56090223D01*
X174838731Y-56090221D01*
X174838728Y-56090217D01*
X174759782Y-56011271D01*
X174759778Y-56011268D01*
X174759777Y-56011267D01*
X174660286Y-55960574D01*
X174660284Y-55960573D01*
X174660281Y-55960572D01*
X174550002Y-55943106D01*
X174549998Y-55943106D01*
X174439718Y-55960572D01*
X174340221Y-56011268D01*
X174340217Y-56011271D01*
X174261271Y-56090217D01*
X174261268Y-56090221D01*
X174210572Y-56189718D01*
X174193106Y-56299997D01*
X174193106Y-56300002D01*
X172743716Y-56300002D01*
X172738733Y-56290223D01*
X172738731Y-56290221D01*
X172738728Y-56290217D01*
X172659782Y-56211271D01*
X172659778Y-56211268D01*
X172659777Y-56211267D01*
X172560286Y-56160574D01*
X172560284Y-56160573D01*
X172560281Y-56160572D01*
X172450002Y-56143106D01*
X172449998Y-56143106D01*
X172339718Y-56160572D01*
X172240221Y-56211268D01*
X172240217Y-56211271D01*
X172161271Y-56290217D01*
X172161268Y-56290221D01*
X172110572Y-56389718D01*
X172093106Y-56499997D01*
X172093106Y-56500002D01*
X154756894Y-56500002D01*
X154756894Y-56499997D01*
X154739427Y-56389718D01*
X154739426Y-56389716D01*
X154739426Y-56389714D01*
X154688733Y-56290223D01*
X154688731Y-56290221D01*
X154688728Y-56290217D01*
X154609782Y-56211271D01*
X154609778Y-56211268D01*
X154609777Y-56211267D01*
X154522639Y-56166868D01*
X154471845Y-56118896D01*
X154455050Y-56051075D01*
X154456463Y-56036987D01*
X154460363Y-56012366D01*
X160436700Y-56012366D01*
X160477471Y-56151224D01*
X160477473Y-56151228D01*
X160477474Y-56151229D01*
X160555719Y-56272981D01*
X160665097Y-56367757D01*
X160713176Y-56389714D01*
X160796745Y-56427879D01*
X160810227Y-56429817D01*
X160904000Y-56443300D01*
X160904001Y-56443300D01*
X160975999Y-56443300D01*
X160976000Y-56443300D01*
X161083254Y-56427879D01*
X161214903Y-56367757D01*
X161324281Y-56272981D01*
X161402526Y-56151229D01*
X161402527Y-56151225D01*
X161402528Y-56151224D01*
X161426733Y-56068786D01*
X161443299Y-56012366D01*
X166216700Y-56012366D01*
X166257471Y-56151224D01*
X166257473Y-56151228D01*
X166257474Y-56151229D01*
X166335719Y-56272981D01*
X166445097Y-56367757D01*
X166493176Y-56389714D01*
X166576745Y-56427879D01*
X166590227Y-56429817D01*
X166684000Y-56443300D01*
X166684001Y-56443300D01*
X166755999Y-56443300D01*
X166756000Y-56443300D01*
X166863254Y-56427879D01*
X166994903Y-56367757D01*
X167104281Y-56272981D01*
X167182526Y-56151229D01*
X167182527Y-56151225D01*
X167182528Y-56151224D01*
X167206733Y-56068786D01*
X167223300Y-56012364D01*
X167223300Y-55867636D01*
X167217597Y-55848214D01*
X167182528Y-55728775D01*
X167182526Y-55728772D01*
X167182526Y-55728771D01*
X167104281Y-55607019D01*
X166994903Y-55512243D01*
X166994901Y-55512242D01*
X166863254Y-55452120D01*
X166769481Y-55438638D01*
X166756000Y-55436700D01*
X166684000Y-55436700D01*
X166576745Y-55452120D01*
X166445098Y-55512242D01*
X166445096Y-55512243D01*
X166335718Y-55607020D01*
X166257471Y-55728775D01*
X166216700Y-55867633D01*
X166216700Y-56012366D01*
X161443299Y-56012366D01*
X161443300Y-56012364D01*
X161443300Y-55867636D01*
X161437597Y-55848214D01*
X161402528Y-55728775D01*
X161402526Y-55728772D01*
X161402526Y-55728771D01*
X161324281Y-55607019D01*
X161214903Y-55512243D01*
X161214901Y-55512242D01*
X161083254Y-55452120D01*
X160989481Y-55438638D01*
X160976000Y-55436700D01*
X160904000Y-55436700D01*
X160796745Y-55452120D01*
X160665098Y-55512242D01*
X160665096Y-55512243D01*
X160555718Y-55607020D01*
X160477471Y-55728775D01*
X160436700Y-55867633D01*
X160436700Y-56012366D01*
X154460363Y-56012366D01*
X154468894Y-55958501D01*
X154468894Y-55958497D01*
X154451427Y-55848218D01*
X154451426Y-55848216D01*
X154451426Y-55848214D01*
X154400733Y-55748723D01*
X154400731Y-55748721D01*
X154400728Y-55748717D01*
X154321782Y-55669771D01*
X154321778Y-55669768D01*
X154321777Y-55669767D01*
X154222286Y-55619074D01*
X154222284Y-55619073D01*
X154222281Y-55619072D01*
X154112002Y-55601606D01*
X154111998Y-55601606D01*
X154001718Y-55619072D01*
X153902221Y-55669768D01*
X153902217Y-55669771D01*
X153823271Y-55748717D01*
X153823268Y-55748721D01*
X153772572Y-55848218D01*
X153755106Y-55958497D01*
X153755106Y-55958502D01*
X153769478Y-56049245D01*
X153760523Y-56118539D01*
X153715527Y-56171991D01*
X153703302Y-56179126D01*
X153640223Y-56211267D01*
X153640222Y-56211268D01*
X153640217Y-56211271D01*
X153561271Y-56290217D01*
X153561268Y-56290221D01*
X153510572Y-56389718D01*
X153493106Y-56499997D01*
X153493106Y-56500002D01*
X150622500Y-56500002D01*
X150622500Y-53350002D01*
X151643106Y-53350002D01*
X151660572Y-53460281D01*
X151660573Y-53460284D01*
X151660574Y-53460286D01*
X151676937Y-53492400D01*
X151711268Y-53559778D01*
X151711271Y-53559782D01*
X151790217Y-53638728D01*
X151790221Y-53638731D01*
X151790223Y-53638733D01*
X151889714Y-53689426D01*
X151889716Y-53689426D01*
X151889718Y-53689427D01*
X151999998Y-53706894D01*
X152000000Y-53706894D01*
X152000002Y-53706894D01*
X152110281Y-53689427D01*
X152110281Y-53689426D01*
X152110286Y-53689426D01*
X152209777Y-53638733D01*
X152288733Y-53559777D01*
X152323062Y-53492402D01*
X169696106Y-53492402D01*
X169713572Y-53602681D01*
X169713573Y-53602684D01*
X169713574Y-53602686D01*
X169757771Y-53689427D01*
X169764268Y-53702178D01*
X169764271Y-53702182D01*
X169843217Y-53781128D01*
X169843221Y-53781131D01*
X169843223Y-53781133D01*
X169942714Y-53831826D01*
X169942716Y-53831826D01*
X169942718Y-53831827D01*
X170052998Y-53849294D01*
X170053000Y-53849294D01*
X170053002Y-53849294D01*
X170163281Y-53831827D01*
X170163281Y-53831826D01*
X170163286Y-53831826D01*
X170262777Y-53781133D01*
X170341733Y-53702177D01*
X170392426Y-53602686D01*
X170392427Y-53602681D01*
X170409894Y-53492402D01*
X170409894Y-53492397D01*
X170392427Y-53382118D01*
X170392426Y-53382116D01*
X170392426Y-53382114D01*
X170341733Y-53282623D01*
X170341731Y-53282621D01*
X170341728Y-53282617D01*
X170262782Y-53203671D01*
X170262778Y-53203668D01*
X170262777Y-53203667D01*
X170163286Y-53152974D01*
X170163284Y-53152973D01*
X170163281Y-53152972D01*
X170053002Y-53135506D01*
X170052998Y-53135506D01*
X169942718Y-53152972D01*
X169843221Y-53203668D01*
X169843217Y-53203671D01*
X169764271Y-53282617D01*
X169764268Y-53282621D01*
X169713572Y-53382118D01*
X169696106Y-53492397D01*
X169696106Y-53492402D01*
X152323062Y-53492402D01*
X152339426Y-53460286D01*
X152356894Y-53350000D01*
X152355389Y-53340500D01*
X152339427Y-53239718D01*
X152339426Y-53239716D01*
X152339426Y-53239714D01*
X152288733Y-53140223D01*
X152288731Y-53140221D01*
X152288728Y-53140217D01*
X152209782Y-53061271D01*
X152209778Y-53061268D01*
X152209777Y-53061267D01*
X152110286Y-53010574D01*
X152110284Y-53010573D01*
X152110281Y-53010572D01*
X152000002Y-52993106D01*
X151999998Y-52993106D01*
X151889718Y-53010572D01*
X151790221Y-53061268D01*
X151790217Y-53061271D01*
X151711271Y-53140217D01*
X151711268Y-53140221D01*
X151660572Y-53239718D01*
X151643106Y-53349997D01*
X151643106Y-53350002D01*
X150622500Y-53350002D01*
X150622500Y-53341740D01*
X150622598Y-53338263D01*
X150625722Y-53282621D01*
X150628995Y-53224333D01*
X150639401Y-53052304D01*
X150640160Y-53045706D01*
X150662576Y-52913780D01*
X150663277Y-52909656D01*
X150665046Y-52900002D01*
X157043106Y-52900002D01*
X157060572Y-53010281D01*
X157060573Y-53010284D01*
X157060574Y-53010286D01*
X157111267Y-53109777D01*
X157111268Y-53109778D01*
X157111271Y-53109782D01*
X157190217Y-53188728D01*
X157190221Y-53188731D01*
X157190223Y-53188733D01*
X157289714Y-53239426D01*
X157289716Y-53239426D01*
X157289718Y-53239427D01*
X157399998Y-53256894D01*
X157400000Y-53256894D01*
X157400002Y-53256894D01*
X157510281Y-53239427D01*
X157510281Y-53239426D01*
X157510286Y-53239426D01*
X157609777Y-53188733D01*
X157688733Y-53109777D01*
X157739426Y-53010286D01*
X157742147Y-52993106D01*
X157756894Y-52900002D01*
X157756894Y-52899997D01*
X157739427Y-52789718D01*
X157739426Y-52789716D01*
X157739426Y-52789714D01*
X157688733Y-52690223D01*
X157688731Y-52690221D01*
X157688728Y-52690217D01*
X157609782Y-52611271D01*
X157609778Y-52611268D01*
X157609777Y-52611267D01*
X157510286Y-52560574D01*
X157510284Y-52560573D01*
X157510281Y-52560572D01*
X157400002Y-52543106D01*
X157399998Y-52543106D01*
X157289718Y-52560572D01*
X157190221Y-52611268D01*
X157190217Y-52611271D01*
X157111271Y-52690217D01*
X157111268Y-52690221D01*
X157060572Y-52789718D01*
X157043106Y-52899997D01*
X157043106Y-52900002D01*
X150665046Y-52900002D01*
X150675432Y-52843324D01*
X150690562Y-52760763D01*
X150691961Y-52754810D01*
X150731387Y-52617956D01*
X150775270Y-52477135D01*
X150777158Y-52471921D01*
X150806948Y-52400002D01*
X154143106Y-52400002D01*
X154160572Y-52510281D01*
X154160573Y-52510284D01*
X154160574Y-52510286D01*
X154177297Y-52543106D01*
X154211268Y-52609778D01*
X154211271Y-52609782D01*
X154290217Y-52688728D01*
X154290221Y-52688731D01*
X154290223Y-52688733D01*
X154389714Y-52739426D01*
X154389716Y-52739426D01*
X154389718Y-52739427D01*
X154499998Y-52756894D01*
X154500000Y-52756894D01*
X154500002Y-52756894D01*
X154610281Y-52739427D01*
X154610281Y-52739426D01*
X154610286Y-52739426D01*
X154709777Y-52688733D01*
X154788733Y-52609777D01*
X154839426Y-52510286D01*
X154851464Y-52434286D01*
X154856894Y-52400002D01*
X154856894Y-52399997D01*
X154839427Y-52289718D01*
X154839426Y-52289716D01*
X154839426Y-52289714D01*
X154788733Y-52190223D01*
X154788731Y-52190221D01*
X154788728Y-52190217D01*
X154709782Y-52111271D01*
X154709778Y-52111268D01*
X154709777Y-52111267D01*
X154610286Y-52060574D01*
X154610284Y-52060573D01*
X154610281Y-52060572D01*
X154508816Y-52044502D01*
X156361106Y-52044502D01*
X156378572Y-52154781D01*
X156378573Y-52154784D01*
X156378574Y-52154786D01*
X156421051Y-52238152D01*
X156429268Y-52254278D01*
X156429271Y-52254282D01*
X156508217Y-52333228D01*
X156508221Y-52333231D01*
X156508223Y-52333233D01*
X156607714Y-52383926D01*
X156607716Y-52383926D01*
X156607718Y-52383927D01*
X156717998Y-52401394D01*
X156718000Y-52401394D01*
X156718002Y-52401394D01*
X156828281Y-52383927D01*
X156828281Y-52383926D01*
X156828286Y-52383926D01*
X156927777Y-52333233D01*
X156937008Y-52324002D01*
X170585106Y-52324002D01*
X170602572Y-52434281D01*
X170602573Y-52434284D01*
X170602574Y-52434286D01*
X170641298Y-52510286D01*
X170653268Y-52533778D01*
X170653271Y-52533782D01*
X170732217Y-52612728D01*
X170732221Y-52612731D01*
X170732223Y-52612733D01*
X170831714Y-52663426D01*
X170831716Y-52663426D01*
X170831718Y-52663427D01*
X170941998Y-52680894D01*
X170942000Y-52680894D01*
X170942002Y-52680894D01*
X171052281Y-52663427D01*
X171052281Y-52663426D01*
X171052286Y-52663426D01*
X171151777Y-52612733D01*
X171230733Y-52533777D01*
X171281426Y-52434286D01*
X171286856Y-52400002D01*
X171298894Y-52324002D01*
X171298894Y-52323997D01*
X171281427Y-52213718D01*
X171281426Y-52213716D01*
X171281426Y-52213714D01*
X171274439Y-52200002D01*
X171843106Y-52200002D01*
X171860572Y-52310281D01*
X171860573Y-52310284D01*
X171860574Y-52310286D01*
X171906996Y-52401394D01*
X171911268Y-52409778D01*
X171911271Y-52409782D01*
X171990217Y-52488728D01*
X171990221Y-52488731D01*
X171990223Y-52488733D01*
X172089714Y-52539426D01*
X172089716Y-52539426D01*
X172089718Y-52539427D01*
X172199998Y-52556894D01*
X172200000Y-52556894D01*
X172200002Y-52556894D01*
X172310281Y-52539427D01*
X172310281Y-52539426D01*
X172310286Y-52539426D01*
X172409777Y-52488733D01*
X172488733Y-52409777D01*
X172539426Y-52310286D01*
X172542684Y-52289718D01*
X172556894Y-52200002D01*
X172556894Y-52199997D01*
X172539427Y-52089718D01*
X172539426Y-52089716D01*
X172539426Y-52089714D01*
X172488733Y-51990223D01*
X172488731Y-51990221D01*
X172488728Y-51990217D01*
X172409782Y-51911271D01*
X172409778Y-51911268D01*
X172409777Y-51911267D01*
X172310286Y-51860574D01*
X172310284Y-51860573D01*
X172310281Y-51860572D01*
X172200002Y-51843106D01*
X172199998Y-51843106D01*
X172089718Y-51860572D01*
X172089714Y-51860573D01*
X172089714Y-51860574D01*
X172023386Y-51894369D01*
X171990221Y-51911268D01*
X171990217Y-51911271D01*
X171911271Y-51990217D01*
X171911268Y-51990221D01*
X171860572Y-52089718D01*
X171843106Y-52199997D01*
X171843106Y-52200002D01*
X171274439Y-52200002D01*
X171230733Y-52114223D01*
X171230731Y-52114221D01*
X171230728Y-52114217D01*
X171151782Y-52035271D01*
X171151778Y-52035268D01*
X171151777Y-52035267D01*
X171052286Y-51984574D01*
X171052284Y-51984573D01*
X171052281Y-51984572D01*
X170942002Y-51967106D01*
X170941998Y-51967106D01*
X170831718Y-51984572D01*
X170732221Y-52035268D01*
X170732217Y-52035271D01*
X170653271Y-52114217D01*
X170653268Y-52114221D01*
X170602572Y-52213718D01*
X170585106Y-52323997D01*
X170585106Y-52324002D01*
X156937008Y-52324002D01*
X157006733Y-52254277D01*
X157057426Y-52154786D01*
X157063852Y-52114217D01*
X157074894Y-52044502D01*
X157074894Y-52044497D01*
X157057427Y-51934218D01*
X157057426Y-51934216D01*
X157057426Y-51934214D01*
X157006733Y-51834723D01*
X157006731Y-51834721D01*
X157006728Y-51834717D01*
X156927782Y-51755771D01*
X156927778Y-51755768D01*
X156927777Y-51755767D01*
X156828286Y-51705074D01*
X156828284Y-51705073D01*
X156828281Y-51705072D01*
X156718002Y-51687606D01*
X156717998Y-51687606D01*
X156607718Y-51705072D01*
X156508221Y-51755768D01*
X156508217Y-51755771D01*
X156429271Y-51834717D01*
X156429268Y-51834721D01*
X156378572Y-51934218D01*
X156361106Y-52044497D01*
X156361106Y-52044502D01*
X154508816Y-52044502D01*
X154500002Y-52043106D01*
X154499998Y-52043106D01*
X154389718Y-52060572D01*
X154290221Y-52111268D01*
X154290217Y-52111271D01*
X154211271Y-52190217D01*
X154211268Y-52190221D01*
X154160572Y-52289718D01*
X154143106Y-52399997D01*
X154143106Y-52400002D01*
X150806948Y-52400002D01*
X150832397Y-52338565D01*
X150892343Y-52205370D01*
X150894599Y-52200861D01*
X150964958Y-52073557D01*
X151040228Y-51949044D01*
X151042693Y-51945286D01*
X151126461Y-51827226D01*
X151128145Y-51824967D01*
X151216932Y-51711638D01*
X151219472Y-51708605D01*
X151316052Y-51600531D01*
X151318373Y-51598077D01*
X151420077Y-51496373D01*
X151422531Y-51494052D01*
X151530605Y-51397472D01*
X151533638Y-51394932D01*
X151646967Y-51306145D01*
X151649226Y-51304461D01*
X151767286Y-51220693D01*
X151771044Y-51218228D01*
X151895561Y-51142956D01*
X152022861Y-51072599D01*
X152027370Y-51070343D01*
X152160565Y-51010397D01*
X152293921Y-50955158D01*
X152299135Y-50953270D01*
X152439956Y-50909387D01*
X152576810Y-50869961D01*
X152582763Y-50868562D01*
X152665324Y-50853432D01*
X152731656Y-50841277D01*
X152779941Y-50833072D01*
X152867706Y-50818160D01*
X152874304Y-50817401D01*
X153046333Y-50806995D01*
X153132782Y-50802140D01*
X153160263Y-50800598D01*
X153163740Y-50800500D01*
X174496260Y-50800500D01*
X174499737Y-50800598D01*
G37*
%TD.AperFunction*%
%TD*%
M02*
